M48
; DRILL file {KiCad 8.0.8} date 2025-03-29T12:35:14-0400
; FORMAT={-:-/ absolute / inch / decimal}
; #@! TF.CreationDate,2025-03-29T12:35:14-04:00
; #@! TF.GenerationSoftware,Kicad,Pcbnew,8.0.8
; #@! TF.FileFunction,Plated,1,2,PTH
FMAT,2
INCH
; #@! TA.AperFunction,Plated,PTH,ViaDrill
T1C0.0118
; #@! TA.AperFunction,Plated,PTH,ComponentDrill
T2C0.0295
; #@! TA.AperFunction,Plated,PTH,ComponentDrill
T3C0.0315
; #@! TA.AperFunction,Plated,PTH,ComponentDrill
T4C0.0433
; #@! TA.AperFunction,Plated,PTH,ComponentDrill
T5C0.0472
%
G90
G05
T1
X3.874Y-3.4331
X3.874Y-3.5354
X4.0Y-2.9921
X4.3465Y-2.9921
X4.3465Y-3.4173
X4.3465Y-3.7087
X4.4724Y-4.2205
X4.476Y-2.9055
X4.476Y-3.3228
X4.476Y-3.5906
X4.476Y-3.9291
X4.4803Y-2.8819
X4.5512Y-2.8583
X4.5512Y-3.1969
X4.622Y-3.7323
X4.622Y-4.1339
X4.622Y-4.5591
X4.7323Y-3.9291
X4.9055Y-4.3228
X4.9055Y-4.5512
X5.0315Y-3.4803
X5.0315Y-3.5827
X5.0315Y-4.2283
X5.0394Y-3.0472
X5.0394Y-3.3307
X5.1339Y-3.0945
X5.1339Y-3.7087
X5.1339Y-4.2677
X5.1417Y-3.3937
X5.189Y-3.0709
X5.189Y-3.3307
X5.2047Y-3.9055
X5.2047Y-4.4173
X5.2677Y-3.1969
X5.2677Y-3.6299
X5.5197Y-2.9685
X5.5197Y-3.2913
X5.5276Y-4.5197
X5.5512Y-2.8583
X5.5512Y-3.4882
X5.6299Y-3.1024
X5.6299Y-3.4803
X5.6299Y-3.7087
X5.6614Y-2.8593
X5.6614Y-3.9843
X5.6614Y-4.315
X5.8189Y-3.8189
X5.8189Y-4.063
X5.8976Y-3.5906
X5.8976Y-3.8661
X6.0551Y-3.2283
T2
X4.7593Y-4.2711
X4.7593Y-4.3211
X4.7593Y-4.3711
X4.7616Y-3.0486
X4.7616Y-3.0986
X4.7616Y-3.1486
T3
X3.8671Y-4.2274
X3.8719Y-3.1427
X3.8719Y-4.4852
X3.8793Y-2.8829
X4.1671Y-4.2274
X4.1719Y-3.1427
X4.1719Y-4.4852
X4.1793Y-2.8829
X4.3264Y-3.8337
X4.3459Y-3.338
X4.3459Y-3.5348
X4.3533Y-2.7939
X4.3533Y-3.1939
X4.373Y-4.1329
X4.373Y-4.5329
X4.476Y-3.8337
X4.7313Y-2.8632
X4.7313Y-3.3278
X4.7313Y-4.0974
X4.7388Y-4.5561
X5.1313Y-2.8632
X5.1313Y-3.3278
X5.1313Y-4.0974
X5.1388Y-4.5561
X5.751Y-2.8593
X5.751Y-3.7333
X5.751Y-4.1333
X5.751Y-4.5541
X5.753Y-3.2313
X5.753Y-3.6313
X6.151Y-2.8593
X6.151Y-4.5541
T4
X4.7376Y-3.5876
X4.7376Y-3.8435
X5.1376Y-3.5876
X5.1376Y-3.8435
X5.4313Y-3.2935
X5.4313Y-3.3935
X5.4313Y-3.4935
X5.4348Y-2.8679
X5.4348Y-2.9679
X5.4348Y-3.0679
X5.4348Y-3.8884
X5.4348Y-3.9884
X5.4348Y-4.0884
X5.4348Y-4.3167
X5.4348Y-4.4167
X5.4348Y-4.5167
X5.7573Y-3.1053
X5.7585Y-4.2963
X6.0553Y-3.3841
X6.0553Y-3.4841
X6.0553Y-3.5841
X6.0585Y-3.8171
X6.0585Y-3.9171
X6.0585Y-4.0171
X6.1573Y-3.1053
X6.1585Y-4.2963
T5
X4.012Y-3.4376
X4.012Y-3.5376
X4.012Y-3.6376
X4.012Y-3.7376
X4.012Y-3.8376
X4.012Y-3.9376
M30
