%TF.GenerationSoftware,KiCad,Pcbnew,8.0.8*%
%TF.CreationDate,2025-03-29T12:35:08-04:00*%
%TF.ProjectId,h-bridge,682d6272-6964-4676-952e-6b696361645f,rev?*%
%TF.SameCoordinates,Original*%
%TF.FileFunction,Copper,L2,Bot*%
%TF.FilePolarity,Positive*%
%FSLAX46Y46*%
G04 Gerber Fmt 4.6, Leading zero omitted, Abs format (unit mm)*
G04 Created by KiCad (PCBNEW 8.0.8) date 2025-03-29 12:35:08*
%MOMM*%
%LPD*%
G01*
G04 APERTURE LIST*
%TA.AperFunction,ComponentPad*%
%ADD10C,1.600000*%
%TD*%
%TA.AperFunction,ComponentPad*%
%ADD11R,1.600000X1.600000*%
%TD*%
%TA.AperFunction,ComponentPad*%
%ADD12O,1.600000X1.600000*%
%TD*%
%TA.AperFunction,ComponentPad*%
%ADD13R,2.000000X1.905000*%
%TD*%
%TA.AperFunction,ComponentPad*%
%ADD14O,2.000000X1.905000*%
%TD*%
%TA.AperFunction,ComponentPad*%
%ADD15R,2.000000X2.000000*%
%TD*%
%TA.AperFunction,ComponentPad*%
%ADD16C,2.000000*%
%TD*%
%TA.AperFunction,ComponentPad*%
%ADD17R,1.500000X1.050000*%
%TD*%
%TA.AperFunction,ComponentPad*%
%ADD18O,1.500000X1.050000*%
%TD*%
%TA.AperFunction,ComponentPad*%
%ADD19R,2.200000X2.200000*%
%TD*%
%TA.AperFunction,ComponentPad*%
%ADD20O,2.200000X2.200000*%
%TD*%
%TA.AperFunction,ViaPad*%
%ADD21C,0.600000*%
%TD*%
%TA.AperFunction,Conductor*%
%ADD22C,0.200000*%
%TD*%
G04 APERTURE END LIST*
D10*
%TO.P,C2,2*%
%TO.N,GND*%
X109889698Y-97375000D03*
D11*
%TO.P,C2,1*%
%TO.N,Vcc*%
X113689698Y-97375000D03*
%TD*%
D10*
%TO.P,R6,1*%
%TO.N,Net-(Q4-G)*%
X146075000Y-72625000D03*
D12*
%TO.P,R6,2*%
%TO.N,GND*%
X156235000Y-72625000D03*
%TD*%
D13*
%TO.P,Q6,1,G*%
%TO.N,Net-(Q6-G)*%
X138045000Y-103845000D03*
D14*
%TO.P,Q6,2,D*%
%TO.N,Net-(Q4-G)*%
X138045000Y-101305000D03*
%TO.P,Q6,3,S*%
%TO.N,Vcc*%
X138045000Y-98765000D03*
%TD*%
D10*
%TO.P,R9,1*%
%TO.N,Vcc*%
X120175000Y-104075000D03*
D12*
%TO.P,R9,2*%
%TO.N,Net-(Q6-G)*%
X130335000Y-104075000D03*
%TD*%
%TO.P,R10,2*%
%TO.N,Vr*%
X120365000Y-115725000D03*
D10*
%TO.P,R10,1*%
%TO.N,Net-(Q8-B)*%
X130525000Y-115725000D03*
%TD*%
D14*
%TO.P,Q4,3,S*%
%TO.N,Net-(Q2-D)*%
X137955000Y-83655000D03*
%TO.P,Q4,2,D*%
%TO.N,M+*%
X137955000Y-86195000D03*
D13*
%TO.P,Q4,1,G*%
%TO.N,Net-(Q4-G)*%
X137955000Y-88735000D03*
%TD*%
%TO.P,Q3,1,G*%
%TO.N,Net-(Q3-G)*%
X153885000Y-96955000D03*
D14*
%TO.P,Q3,2,D*%
%TO.N,M+*%
X153885000Y-99495000D03*
%TO.P,Q3,3,S*%
%TO.N,GND*%
X153885000Y-102035000D03*
%TD*%
D15*
%TO.P,J1,1,Pin_1*%
%TO.N,Vf*%
X101905000Y-87315000D03*
D16*
%TO.P,J1,2,Pin_2*%
%TO.N,Vr*%
X101905000Y-89855000D03*
%TO.P,J1,3,Pin_3*%
%TO.N,M+*%
X101905000Y-92395000D03*
%TO.P,J1,4,Pin_4*%
%TO.N,M-*%
X101905000Y-94935000D03*
%TO.P,J1,5,Pin_5*%
%TO.N,Vcc*%
X101905000Y-97475000D03*
%TO.P,J1,6,Pin_6*%
%TO.N,GND*%
X101905000Y-100015000D03*
%TD*%
D10*
%TO.P,R7,1*%
%TO.N,Net-(Q2-D)*%
X146075000Y-115675000D03*
D12*
%TO.P,R7,2*%
%TO.N,GND*%
X156235000Y-115675000D03*
%TD*%
D13*
%TO.P,Q7,1,G*%
%TO.N,Net-(Q7-G)*%
X153805000Y-85955000D03*
D14*
%TO.P,Q7,2,D*%
%TO.N,M-*%
X153805000Y-88495000D03*
%TO.P,Q7,3,S*%
%TO.N,GND*%
X153805000Y-91035000D03*
%TD*%
D12*
%TO.P,R3,2*%
%TO.N,Net-(Q1-B)*%
X130335000Y-72725000D03*
D10*
%TO.P,R3,1*%
%TO.N,Vf*%
X120175000Y-72725000D03*
%TD*%
D12*
%TO.P,R4,2*%
%TO.N,Net-(Q1-C)*%
X130335000Y-84525000D03*
D10*
%TO.P,R4,1*%
%TO.N,Vcc*%
X120175000Y-84525000D03*
%TD*%
D11*
%TO.P,D2,1,K*%
%TO.N,Vf*%
X98345000Y-79825000D03*
D12*
%TO.P,D2,2,A*%
%TO.N,GND*%
X105965000Y-79825000D03*
%TD*%
D10*
%TO.P,R1,1*%
%TO.N,Vf*%
X110575000Y-81125000D03*
D12*
%TO.P,R1,2*%
%TO.N,GND*%
X110575000Y-70965000D03*
%TD*%
%TO.P,D4,2,A*%
%TO.N,GND*%
X105965000Y-113925000D03*
D11*
%TO.P,D4,1,K*%
%TO.N,Vr*%
X98345000Y-113925000D03*
%TD*%
D10*
%TO.P,R5,1*%
%TO.N,Vr*%
X146075000Y-94825000D03*
D12*
%TO.P,R5,2*%
%TO.N,Net-(Q3-G)*%
X146075000Y-104985000D03*
%TD*%
D10*
%TO.P,R2,1*%
%TO.N,Vr*%
X111075000Y-104975000D03*
D12*
%TO.P,R2,2*%
%TO.N,GND*%
X111075000Y-115135000D03*
%TD*%
%TO.P,R8,2*%
%TO.N,Vf*%
X146125000Y-92235000D03*
D10*
%TO.P,R8,1*%
%TO.N,Net-(Q7-G)*%
X146125000Y-82075000D03*
%TD*%
%TO.P,C1,1*%
%TO.N,M+*%
X110385000Y-84785000D03*
%TO.P,C1,2*%
%TO.N,M-*%
X110385000Y-89785000D03*
%TD*%
D11*
%TO.P,D3,1,K*%
%TO.N,Vcc*%
X105845000Y-107375000D03*
D12*
%TO.P,D3,2,A*%
%TO.N,Vr*%
X98225000Y-107375000D03*
%TD*%
D11*
%TO.P,D1,1,K*%
%TO.N,Vcc*%
X106155000Y-73225000D03*
D12*
%TO.P,D1,2,A*%
%TO.N,Vf*%
X98535000Y-73225000D03*
%TD*%
D13*
%TO.P,Q5,1,G*%
%TO.N,Net-(Q2-D)*%
X138045000Y-114725000D03*
D14*
%TO.P,Q5,2,D*%
%TO.N,M-*%
X138045000Y-112185000D03*
%TO.P,Q5,3,S*%
%TO.N,Net-(Q4-G)*%
X138045000Y-109645000D03*
%TD*%
D17*
%TO.P,Q8,1,E*%
%TO.N,GND*%
X120885000Y-111025000D03*
D18*
%TO.P,Q8,2,B*%
%TO.N,Net-(Q8-B)*%
X120885000Y-109755000D03*
%TO.P,Q8,3,C*%
%TO.N,Net-(Q6-G)*%
X120885000Y-108485000D03*
%TD*%
%TO.P,Q1,3,C*%
%TO.N,Net-(Q1-C)*%
X120945000Y-77435000D03*
%TO.P,Q1,2,B*%
%TO.N,Net-(Q1-B)*%
X120945000Y-78705000D03*
D17*
%TO.P,Q1,1,E*%
%TO.N,GND*%
X120945000Y-79975000D03*
%TD*%
D13*
%TO.P,Q2,1,G*%
%TO.N,Net-(Q1-C)*%
X138045000Y-77925000D03*
D14*
%TO.P,Q2,2,D*%
%TO.N,Net-(Q2-D)*%
X138045000Y-75385000D03*
%TO.P,Q2,3,S*%
%TO.N,Vcc*%
X138045000Y-72845000D03*
%TD*%
D19*
%TO.P,D8,1,K*%
%TO.N,M-*%
X146235000Y-78875000D03*
D20*
%TO.P,D8,2,A*%
%TO.N,GND*%
X156395000Y-78875000D03*
%TD*%
D19*
%TO.P,D7,1,K*%
%TO.N,Vcc*%
X120335000Y-97625000D03*
D20*
%TO.P,D7,2,A*%
%TO.N,M-*%
X130495000Y-97625000D03*
%TD*%
%TO.P,D6,2,A*%
%TO.N,GND*%
X156425000Y-109125000D03*
D19*
%TO.P,D6,1,K*%
%TO.N,M+*%
X146265000Y-109125000D03*
%TD*%
D20*
%TO.P,D5,2,A*%
%TO.N,M+*%
X130495000Y-91125000D03*
D19*
%TO.P,D5,1,K*%
%TO.N,Vcc*%
X120335000Y-91125000D03*
%TD*%
D21*
%TO.N,Vcc*%
X120200000Y-99800000D03*
%TO.N,M+*%
X149800000Y-91200000D03*
X149800000Y-98200000D03*
%TO.N,Net-(Q3-G)*%
X147800000Y-97000000D03*
X147800000Y-103200000D03*
%TO.N,Vr*%
X117400000Y-94800000D03*
%TO.N,M-*%
X132200000Y-99200000D03*
X132200000Y-112200000D03*
%TO.N,Vcc*%
X113689698Y-99800000D03*
%TO.N,Net-(Q6-G)*%
X130400000Y-108400000D03*
%TO.N,Net-(Q8-B)*%
X124600000Y-109800000D03*
X124600000Y-115600000D03*
%TO.N,Vr*%
X117400000Y-105000000D03*
X117400000Y-115800000D03*
%TO.N,M-*%
X143000000Y-88400000D03*
%TO.N,Vf*%
X133800000Y-81200000D03*
X133800000Y-92200000D03*
%TO.N,Net-(Q7-G)*%
X153800000Y-82000000D03*
%TO.N,M+*%
X130600000Y-86200000D03*
%TO.N,Net-(Q4-G)*%
X143800000Y-101200000D03*
X143800000Y-109600000D03*
X143800000Y-72625000D03*
%TO.N,M-*%
X143000000Y-94200000D03*
X143000000Y-78800000D03*
X110400000Y-94200000D03*
X130400000Y-94200000D03*
%TO.N,M+*%
X127800000Y-107400000D03*
%TO.N,Vcc*%
X113689698Y-91200000D03*
%TO.N,M+*%
X127800000Y-91000000D03*
X110400000Y-86800000D03*
X127800000Y-88400000D03*
%TO.N,Net-(Q2-D)*%
X140200000Y-83600000D03*
X140400000Y-114800000D03*
X140200000Y-75400000D03*
%TO.N,Vcc*%
X113689698Y-73800000D03*
%TO.N,Net-(Q1-C)*%
X131800000Y-78000000D03*
X131800000Y-84600000D03*
%TO.N,Vcc*%
X113689698Y-84400000D03*
%TO.N,Net-(Q1-C)*%
X128000000Y-84600000D03*
X128000000Y-77400000D03*
%TO.N,Net-(Q1-B)*%
X130400000Y-78600000D03*
%TO.N,Vf*%
X115600000Y-72600000D03*
X115600000Y-81200000D03*
%TO.N,Vcc*%
X113800000Y-73200000D03*
X113600000Y-107200000D03*
%TO.N,Vr*%
X98400000Y-89800000D03*
%TO.N,Vf*%
X110400000Y-76000000D03*
X101600000Y-76000000D03*
X98400000Y-87200000D03*
%TO.N,Net-(Q4-G)*%
X141000000Y-88600000D03*
X141000000Y-72600000D03*
%TD*%
D22*
%TO.N,Vcc*%
X120175000Y-99825000D02*
X120200000Y-99800000D01*
X120175000Y-104075000D02*
X120175000Y-99825000D01*
%TO.N,M+*%
X149800000Y-98200000D02*
X149800000Y-91200000D01*
%TO.N,Net-(Q3-G)*%
X147800000Y-103200000D02*
X147800000Y-97000000D01*
%TO.N,Vr*%
X117400000Y-94800000D02*
X117400000Y-105000000D01*
%TO.N,M-*%
X132200000Y-112200000D02*
X132200000Y-99200000D01*
%TO.N,Vcc*%
X113689698Y-99800000D02*
X113689698Y-107110302D01*
X113689698Y-97375000D02*
X113689698Y-99800000D01*
%TO.N,Net-(Q6-G)*%
X130335000Y-108335000D02*
X130335000Y-104075000D01*
X130400000Y-108400000D02*
X130335000Y-108335000D01*
%TO.N,Net-(Q8-B)*%
X124600000Y-115600000D02*
X124600000Y-109800000D01*
%TO.N,Vr*%
X117400000Y-115800000D02*
X117400000Y-105000000D01*
%TO.N,M-*%
X143000000Y-78800000D02*
X143000000Y-88400000D01*
X143000000Y-88400000D02*
X143000000Y-94200000D01*
%TO.N,Vf*%
X133800000Y-92200000D02*
X133800000Y-81200000D01*
%TO.N,Net-(Q7-G)*%
X153805000Y-82005000D02*
X153800000Y-82000000D01*
X153805000Y-85955000D02*
X153805000Y-82005000D01*
%TO.N,M+*%
X130600000Y-86200000D02*
X130495000Y-86305000D01*
X130495000Y-86305000D02*
X130495000Y-91125000D01*
%TO.N,Net-(Q4-G)*%
X143800000Y-72625000D02*
X143800000Y-101200000D01*
X143800000Y-101200000D02*
X143800000Y-109600000D01*
%TO.N,M-*%
X110400000Y-94200000D02*
X110385000Y-94185000D01*
X130495000Y-97625000D02*
X130495000Y-94295000D01*
X130495000Y-94295000D02*
X130400000Y-94200000D01*
X110385000Y-94185000D02*
X110385000Y-89785000D01*
%TO.N,M+*%
X127800000Y-107400000D02*
X127800000Y-91000000D01*
%TO.N,Vcc*%
X113689698Y-84400000D02*
X113689698Y-91200000D01*
X113689698Y-91200000D02*
X113689698Y-97375000D01*
%TO.N,M+*%
X127800000Y-91000000D02*
X127800000Y-88400000D01*
X110400000Y-86800000D02*
X110400000Y-86200000D01*
X110400000Y-86200000D02*
X110385000Y-86185000D01*
X110385000Y-86185000D02*
X110385000Y-84785000D01*
%TO.N,Net-(Q2-D)*%
X140200000Y-75400000D02*
X140200000Y-83600000D01*
X140200000Y-83600000D02*
X140200000Y-114600000D01*
X140200000Y-114600000D02*
X140400000Y-114800000D01*
%TO.N,Vcc*%
X113689698Y-73800000D02*
X113689698Y-84400000D01*
X113689698Y-73310302D02*
X113689698Y-73800000D01*
%TO.N,Net-(Q1-C)*%
X131800000Y-84600000D02*
X131800000Y-78000000D01*
X128000000Y-77400000D02*
X128000000Y-84600000D01*
%TO.N,Net-(Q1-B)*%
X130335000Y-78535000D02*
X130400000Y-78600000D01*
X130335000Y-72725000D02*
X130335000Y-78535000D01*
%TO.N,Vf*%
X115600000Y-81200000D02*
X115600000Y-72600000D01*
%TO.N,Vcc*%
X113800000Y-73200000D02*
X113689698Y-73310302D01*
X113689698Y-107110302D02*
X113600000Y-107200000D01*
%TO.N,Vr*%
X98400000Y-89800000D02*
X98400000Y-90400000D01*
X98400000Y-90400000D02*
X98225000Y-90575000D01*
X98225000Y-90575000D02*
X98225000Y-107375000D01*
%TO.N,Vf*%
X101310000Y-76000000D02*
X101600000Y-76000000D01*
X98535000Y-73225000D02*
X101310000Y-76000000D01*
X110400000Y-76000000D02*
X110400000Y-76600000D01*
X110400000Y-76600000D02*
X110575000Y-76775000D01*
X110575000Y-76775000D02*
X110575000Y-81125000D01*
X98345000Y-79825000D02*
X98345000Y-73415000D01*
X98345000Y-73415000D02*
X98535000Y-73225000D01*
X98345000Y-87145000D02*
X98345000Y-79825000D01*
X98400000Y-87200000D02*
X98345000Y-87145000D01*
%TO.N,Net-(Q4-G)*%
X141000000Y-88600000D02*
X141000000Y-72600000D01*
%TD*%
%TA.AperFunction,Conductor*%
%TO.N,GND*%
G36*
X110147279Y-69520185D02*
G01*
X110193034Y-69572989D01*
X110202978Y-69642147D01*
X110173953Y-69705703D01*
X110132645Y-69736882D01*
X109922517Y-69834865D01*
X109736179Y-69965342D01*
X109575342Y-70126179D01*
X109444865Y-70312517D01*
X109348734Y-70518673D01*
X109348730Y-70518682D01*
X109296127Y-70714999D01*
X109296128Y-70715000D01*
X110259314Y-70715000D01*
X110254920Y-70719394D01*
X110202259Y-70810606D01*
X110175000Y-70912339D01*
X110175000Y-71017661D01*
X110202259Y-71119394D01*
X110254920Y-71210606D01*
X110259314Y-71215000D01*
X109296128Y-71215000D01*
X109348730Y-71411317D01*
X109348734Y-71411326D01*
X109444865Y-71617482D01*
X109575342Y-71803820D01*
X109736179Y-71964657D01*
X109922517Y-72095134D01*
X110128673Y-72191265D01*
X110128682Y-72191269D01*
X110324999Y-72243872D01*
X110325000Y-72243871D01*
X110325000Y-71280686D01*
X110329394Y-71285080D01*
X110420606Y-71337741D01*
X110522339Y-71365000D01*
X110627661Y-71365000D01*
X110729394Y-71337741D01*
X110820606Y-71285080D01*
X110825000Y-71280686D01*
X110825000Y-72243872D01*
X111021317Y-72191269D01*
X111021326Y-72191265D01*
X111227482Y-72095134D01*
X111413820Y-71964657D01*
X111574657Y-71803820D01*
X111705134Y-71617482D01*
X111801265Y-71411326D01*
X111801269Y-71411317D01*
X111853872Y-71215000D01*
X110890686Y-71215000D01*
X110895080Y-71210606D01*
X110947741Y-71119394D01*
X110975000Y-71017661D01*
X110975000Y-70912339D01*
X110947741Y-70810606D01*
X110895080Y-70719394D01*
X110890686Y-70715000D01*
X111853872Y-70715000D01*
X111853872Y-70714999D01*
X111801269Y-70518682D01*
X111801265Y-70518673D01*
X111705134Y-70312517D01*
X111574657Y-70126179D01*
X111413820Y-69965342D01*
X111227482Y-69834865D01*
X111017355Y-69736882D01*
X110964916Y-69690710D01*
X110945764Y-69623516D01*
X110965980Y-69556635D01*
X111019145Y-69511301D01*
X111069760Y-69500500D01*
X160375500Y-69500500D01*
X160442539Y-69520185D01*
X160488294Y-69572989D01*
X160499500Y-69624500D01*
X160499500Y-118875500D01*
X160479815Y-118942539D01*
X160427011Y-118988294D01*
X160375500Y-118999500D01*
X95524500Y-118999500D01*
X95457461Y-118979815D01*
X95411706Y-118927011D01*
X95400500Y-118875500D01*
X95400500Y-113077135D01*
X97044500Y-113077135D01*
X97044500Y-114772870D01*
X97044501Y-114772876D01*
X97050908Y-114832483D01*
X97101202Y-114967328D01*
X97101206Y-114967335D01*
X97187452Y-115082544D01*
X97187455Y-115082547D01*
X97302664Y-115168793D01*
X97302671Y-115168797D01*
X97437517Y-115219091D01*
X97437516Y-115219091D01*
X97444444Y-115219835D01*
X97497127Y-115225500D01*
X99192872Y-115225499D01*
X99252483Y-115219091D01*
X99387331Y-115168796D01*
X99502546Y-115082546D01*
X99588796Y-114967331D01*
X99639091Y-114832483D01*
X99645500Y-114772873D01*
X99645499Y-113674999D01*
X104686127Y-113674999D01*
X104686128Y-113675000D01*
X105649314Y-113675000D01*
X105644920Y-113679394D01*
X105592259Y-113770606D01*
X105565000Y-113872339D01*
X105565000Y-113977661D01*
X105592259Y-114079394D01*
X105644920Y-114170606D01*
X105649314Y-114175000D01*
X104686128Y-114175000D01*
X104738730Y-114371317D01*
X104738734Y-114371326D01*
X104834865Y-114577482D01*
X104965342Y-114763820D01*
X105126179Y-114924657D01*
X105312517Y-115055134D01*
X105518673Y-115151265D01*
X105518682Y-115151269D01*
X105714999Y-115203872D01*
X105715000Y-115203871D01*
X105715000Y-114240686D01*
X105719394Y-114245080D01*
X105810606Y-114297741D01*
X105912339Y-114325000D01*
X106017661Y-114325000D01*
X106119394Y-114297741D01*
X106210606Y-114245080D01*
X106215000Y-114240686D01*
X106215000Y-115203872D01*
X106411317Y-115151269D01*
X106411326Y-115151265D01*
X106617482Y-115055134D01*
X106803820Y-114924657D01*
X106843478Y-114884999D01*
X109796127Y-114884999D01*
X109796128Y-114885000D01*
X110759314Y-114885000D01*
X110754920Y-114889394D01*
X110702259Y-114980606D01*
X110675000Y-115082339D01*
X110675000Y-115187661D01*
X110702259Y-115289394D01*
X110754920Y-115380606D01*
X110759314Y-115385000D01*
X109796128Y-115385000D01*
X109848730Y-115581317D01*
X109848734Y-115581326D01*
X109944865Y-115787482D01*
X110075342Y-115973820D01*
X110236179Y-116134657D01*
X110422517Y-116265134D01*
X110628673Y-116361265D01*
X110628682Y-116361269D01*
X110824999Y-116413872D01*
X110825000Y-116413871D01*
X110825000Y-115450686D01*
X110829394Y-115455080D01*
X110920606Y-115507741D01*
X111022339Y-115535000D01*
X111127661Y-115535000D01*
X111229394Y-115507741D01*
X111320606Y-115455080D01*
X111325000Y-115450686D01*
X111325000Y-116413872D01*
X111521317Y-116361269D01*
X111521326Y-116361265D01*
X111727482Y-116265134D01*
X111913820Y-116134657D01*
X112074657Y-115973820D01*
X112205134Y-115787482D01*
X112301265Y-115581326D01*
X112301269Y-115581317D01*
X112353872Y-115385000D01*
X111390686Y-115385000D01*
X111395080Y-115380606D01*
X111447741Y-115289394D01*
X111475000Y-115187661D01*
X111475000Y-115082339D01*
X111447741Y-114980606D01*
X111395080Y-114889394D01*
X111390686Y-114885000D01*
X112353872Y-114885000D01*
X112353872Y-114884999D01*
X112301269Y-114688682D01*
X112301265Y-114688673D01*
X112205134Y-114482517D01*
X112074657Y-114296179D01*
X111913820Y-114135342D01*
X111727482Y-114004865D01*
X111521328Y-113908734D01*
X111325000Y-113856127D01*
X111325000Y-114819314D01*
X111320606Y-114814920D01*
X111229394Y-114762259D01*
X111127661Y-114735000D01*
X111022339Y-114735000D01*
X110920606Y-114762259D01*
X110829394Y-114814920D01*
X110825000Y-114819314D01*
X110825000Y-113856127D01*
X110628671Y-113908734D01*
X110422517Y-114004865D01*
X110236179Y-114135342D01*
X110075342Y-114296179D01*
X109944865Y-114482517D01*
X109848734Y-114688673D01*
X109848730Y-114688682D01*
X109796127Y-114884999D01*
X106843478Y-114884999D01*
X106964657Y-114763820D01*
X107095134Y-114577482D01*
X107191265Y-114371326D01*
X107191269Y-114371317D01*
X107243872Y-114175000D01*
X106280686Y-114175000D01*
X106285080Y-114170606D01*
X106337741Y-114079394D01*
X106365000Y-113977661D01*
X106365000Y-113872339D01*
X106337741Y-113770606D01*
X106285080Y-113679394D01*
X106280686Y-113675000D01*
X107243872Y-113675000D01*
X107243872Y-113674999D01*
X107191269Y-113478682D01*
X107191265Y-113478673D01*
X107095134Y-113272517D01*
X106964657Y-113086179D01*
X106803820Y-112925342D01*
X106617482Y-112794865D01*
X106411328Y-112698734D01*
X106215000Y-112646127D01*
X106215000Y-113609314D01*
X106210606Y-113604920D01*
X106119394Y-113552259D01*
X106017661Y-113525000D01*
X105912339Y-113525000D01*
X105810606Y-113552259D01*
X105719394Y-113604920D01*
X105715000Y-113609314D01*
X105715000Y-112646127D01*
X105518671Y-112698734D01*
X105312517Y-112794865D01*
X105126179Y-112925342D01*
X104965342Y-113086179D01*
X104834865Y-113272517D01*
X104738734Y-113478673D01*
X104738730Y-113478682D01*
X104686127Y-113674999D01*
X99645499Y-113674999D01*
X99645499Y-113077128D01*
X99639091Y-113017517D01*
X99634633Y-113005565D01*
X99588797Y-112882671D01*
X99588793Y-112882664D01*
X99502547Y-112767455D01*
X99502544Y-112767452D01*
X99387335Y-112681206D01*
X99387328Y-112681202D01*
X99252482Y-112630908D01*
X99252483Y-112630908D01*
X99192883Y-112624501D01*
X99192881Y-112624500D01*
X99192873Y-112624500D01*
X99192864Y-112624500D01*
X97497129Y-112624500D01*
X97497123Y-112624501D01*
X97437516Y-112630908D01*
X97302671Y-112681202D01*
X97302664Y-112681206D01*
X97187455Y-112767452D01*
X97187452Y-112767455D01*
X97101206Y-112882664D01*
X97101202Y-112882671D01*
X97050908Y-113017517D01*
X97044501Y-113077116D01*
X97044501Y-113077123D01*
X97044500Y-113077135D01*
X95400500Y-113077135D01*
X95400500Y-107374998D01*
X96919532Y-107374998D01*
X96919532Y-107375001D01*
X96939364Y-107601686D01*
X96939366Y-107601697D01*
X96998258Y-107821488D01*
X96998261Y-107821497D01*
X97094431Y-108027732D01*
X97094432Y-108027734D01*
X97224954Y-108214141D01*
X97385858Y-108375045D01*
X97385861Y-108375047D01*
X97572266Y-108505568D01*
X97778504Y-108601739D01*
X97998308Y-108660635D01*
X98160230Y-108674801D01*
X98224998Y-108680468D01*
X98225000Y-108680468D01*
X98225002Y-108680468D01*
X98281807Y-108675498D01*
X98451692Y-108660635D01*
X98671496Y-108601739D01*
X98877734Y-108505568D01*
X99064139Y-108375047D01*
X99225047Y-108214139D01*
X99355568Y-108027734D01*
X99451739Y-107821496D01*
X99510635Y-107601692D01*
X99530468Y-107375000D01*
X99510635Y-107148308D01*
X99451739Y-106928504D01*
X99355568Y-106722266D01*
X99225047Y-106535861D01*
X99225045Y-106535858D01*
X99216322Y-106527135D01*
X104544500Y-106527135D01*
X104544500Y-108222870D01*
X104544501Y-108222876D01*
X104550908Y-108282483D01*
X104601202Y-108417328D01*
X104601206Y-108417335D01*
X104687452Y-108532544D01*
X104687455Y-108532547D01*
X104802664Y-108618793D01*
X104802671Y-108618797D01*
X104937517Y-108669091D01*
X104937516Y-108669091D01*
X104944444Y-108669835D01*
X104997127Y-108675500D01*
X106692872Y-108675499D01*
X106752483Y-108669091D01*
X106887331Y-108618796D01*
X107002546Y-108532546D01*
X107088796Y-108417331D01*
X107139091Y-108282483D01*
X107145500Y-108222873D01*
X107145499Y-106527128D01*
X107139091Y-106467517D01*
X107088796Y-106332669D01*
X107088795Y-106332668D01*
X107088793Y-106332664D01*
X107002547Y-106217455D01*
X107002544Y-106217452D01*
X106887335Y-106131206D01*
X106887328Y-106131202D01*
X106752482Y-106080908D01*
X106752483Y-106080908D01*
X106692883Y-106074501D01*
X106692881Y-106074500D01*
X106692873Y-106074500D01*
X106692864Y-106074500D01*
X104997129Y-106074500D01*
X104997123Y-106074501D01*
X104937516Y-106080908D01*
X104802671Y-106131202D01*
X104802664Y-106131206D01*
X104687455Y-106217452D01*
X104687452Y-106217455D01*
X104601206Y-106332664D01*
X104601202Y-106332671D01*
X104550908Y-106467517D01*
X104544501Y-106527116D01*
X104544501Y-106527123D01*
X104544500Y-106527135D01*
X99216322Y-106527135D01*
X99064140Y-106374953D01*
X98878377Y-106244881D01*
X98834752Y-106190304D01*
X98825500Y-106143306D01*
X98825500Y-104974998D01*
X109769532Y-104974998D01*
X109769532Y-104975001D01*
X109789364Y-105201686D01*
X109789366Y-105201697D01*
X109848258Y-105421488D01*
X109848261Y-105421497D01*
X109944431Y-105627732D01*
X109944432Y-105627734D01*
X110074954Y-105814141D01*
X110235858Y-105975045D01*
X110235861Y-105975047D01*
X110422266Y-106105568D01*
X110628504Y-106201739D01*
X110848308Y-106260635D01*
X111010230Y-106274801D01*
X111074998Y-106280468D01*
X111075000Y-106280468D01*
X111075002Y-106280468D01*
X111131673Y-106275509D01*
X111301692Y-106260635D01*
X111521496Y-106201739D01*
X111727734Y-106105568D01*
X111914139Y-105975047D01*
X112075047Y-105814139D01*
X112205568Y-105627734D01*
X112301739Y-105421496D01*
X112360635Y-105201692D01*
X112380468Y-104975000D01*
X112360635Y-104748308D01*
X112304420Y-104538511D01*
X112301741Y-104528511D01*
X112301738Y-104528502D01*
X112205568Y-104322266D01*
X112075047Y-104135861D01*
X112075045Y-104135858D01*
X111914141Y-103974954D01*
X111727734Y-103844432D01*
X111727732Y-103844431D01*
X111521497Y-103748261D01*
X111521488Y-103748258D01*
X111301697Y-103689366D01*
X111301693Y-103689365D01*
X111301692Y-103689365D01*
X111301691Y-103689364D01*
X111301686Y-103689364D01*
X111075002Y-103669532D01*
X111074998Y-103669532D01*
X110848313Y-103689364D01*
X110848302Y-103689366D01*
X110628511Y-103748258D01*
X110628502Y-103748261D01*
X110422267Y-103844431D01*
X110422265Y-103844432D01*
X110235858Y-103974954D01*
X110074954Y-104135858D01*
X109944432Y-104322265D01*
X109944431Y-104322267D01*
X109848261Y-104528502D01*
X109848258Y-104528511D01*
X109789366Y-104748302D01*
X109789364Y-104748313D01*
X109769532Y-104974998D01*
X98825500Y-104974998D01*
X98825500Y-90875098D01*
X98845185Y-90808059D01*
X98861819Y-90787417D01*
X98869454Y-90779782D01*
X98880520Y-90768716D01*
X98959577Y-90631784D01*
X98989669Y-90519480D01*
X99000500Y-90479058D01*
X99000500Y-90382412D01*
X99020185Y-90315373D01*
X99027555Y-90305097D01*
X99029810Y-90302267D01*
X99029816Y-90302262D01*
X99125789Y-90149522D01*
X99185368Y-89979255D01*
X99185608Y-89977127D01*
X99199369Y-89854994D01*
X100399357Y-89854994D01*
X100399357Y-89855005D01*
X100419890Y-90102812D01*
X100419892Y-90102824D01*
X100480936Y-90343881D01*
X100580826Y-90571606D01*
X100716833Y-90779782D01*
X100716836Y-90779785D01*
X100885256Y-90962738D01*
X100968008Y-91027147D01*
X101008821Y-91083857D01*
X101012496Y-91153630D01*
X100977864Y-91214313D01*
X100968014Y-91222848D01*
X100909400Y-91268469D01*
X100885257Y-91287261D01*
X100716833Y-91470217D01*
X100580826Y-91678393D01*
X100480936Y-91906118D01*
X100419892Y-92147175D01*
X100419890Y-92147187D01*
X100399357Y-92394994D01*
X100399357Y-92395005D01*
X100419890Y-92642812D01*
X100419892Y-92642824D01*
X100480936Y-92883881D01*
X100580826Y-93111606D01*
X100716833Y-93319782D01*
X100716836Y-93319785D01*
X100885256Y-93502738D01*
X100968008Y-93567147D01*
X101008821Y-93623857D01*
X101012496Y-93693630D01*
X100977864Y-93754313D01*
X100968014Y-93762848D01*
X100909400Y-93808469D01*
X100885257Y-93827261D01*
X100716833Y-94010217D01*
X100580826Y-94218393D01*
X100480936Y-94446118D01*
X100419892Y-94687175D01*
X100419890Y-94687187D01*
X100399357Y-94934994D01*
X100399357Y-94935005D01*
X100419890Y-95182812D01*
X100419892Y-95182824D01*
X100480936Y-95423881D01*
X100580826Y-95651606D01*
X100716833Y-95859782D01*
X100716836Y-95859785D01*
X100885256Y-96042738D01*
X100968008Y-96107147D01*
X101008821Y-96163857D01*
X101012496Y-96233630D01*
X100977864Y-96294313D01*
X100968014Y-96302848D01*
X100909400Y-96348469D01*
X100885257Y-96367261D01*
X100716833Y-96550217D01*
X100580826Y-96758393D01*
X100480936Y-96986118D01*
X100419892Y-97227175D01*
X100419890Y-97227187D01*
X100399357Y-97474994D01*
X100399357Y-97475005D01*
X100419890Y-97722812D01*
X100419892Y-97722824D01*
X100480936Y-97963881D01*
X100580826Y-98191606D01*
X100716833Y-98399782D01*
X100732985Y-98417328D01*
X100885256Y-98582738D01*
X100931585Y-98618797D01*
X100988745Y-98663287D01*
X101029558Y-98719997D01*
X101036344Y-98768823D01*
X101034943Y-98791389D01*
X101693941Y-99450387D01*
X101673409Y-99455889D01*
X101536592Y-99534881D01*
X101424881Y-99646592D01*
X101345889Y-99783409D01*
X101340387Y-99803941D01*
X100681563Y-99145117D01*
X100581267Y-99298633D01*
X100581265Y-99298637D01*
X100481412Y-99526282D01*
X100420387Y-99767261D01*
X100420385Y-99767270D01*
X100399859Y-100014994D01*
X100399859Y-100015005D01*
X100420385Y-100262729D01*
X100420387Y-100262738D01*
X100481412Y-100503717D01*
X100581267Y-100731367D01*
X100681562Y-100884881D01*
X101340387Y-100226058D01*
X101345889Y-100246591D01*
X101424881Y-100383408D01*
X101536592Y-100495119D01*
X101673409Y-100574111D01*
X101693940Y-100579612D01*
X101034943Y-101238609D01*
X101081768Y-101275055D01*
X101081771Y-101275057D01*
X101300385Y-101393364D01*
X101300396Y-101393369D01*
X101535506Y-101474083D01*
X101780707Y-101515000D01*
X102029293Y-101515000D01*
X102274493Y-101474083D01*
X102509603Y-101393369D01*
X102509614Y-101393364D01*
X102728230Y-101275056D01*
X102728236Y-101275051D01*
X102775055Y-101238610D01*
X102775056Y-101238609D01*
X102116058Y-100579612D01*
X102136591Y-100574111D01*
X102273408Y-100495119D01*
X102385119Y-100383408D01*
X102464111Y-100246591D01*
X102469612Y-100226059D01*
X103128435Y-100884882D01*
X103228733Y-100731364D01*
X103328587Y-100503717D01*
X103389612Y-100262738D01*
X103389614Y-100262729D01*
X103410141Y-100015005D01*
X103410141Y-100014994D01*
X103389614Y-99767270D01*
X103389612Y-99767261D01*
X103328587Y-99526282D01*
X103228732Y-99298632D01*
X103128435Y-99145116D01*
X102469612Y-99803940D01*
X102464111Y-99783409D01*
X102385119Y-99646592D01*
X102273408Y-99534881D01*
X102136591Y-99455889D01*
X102116058Y-99450387D01*
X102775055Y-98791389D01*
X102773654Y-98768825D01*
X102789146Y-98700694D01*
X102821249Y-98663290D01*
X102924744Y-98582738D01*
X103093164Y-98399785D01*
X103229173Y-98191607D01*
X103329063Y-97963881D01*
X103390108Y-97722821D01*
X103390109Y-97722812D01*
X103410643Y-97475005D01*
X103410643Y-97474994D01*
X103402357Y-97374997D01*
X108584732Y-97374997D01*
X108584732Y-97375002D01*
X108604556Y-97601599D01*
X108604558Y-97601610D01*
X108663428Y-97821317D01*
X108663433Y-97821331D01*
X108759561Y-98027478D01*
X108810672Y-98100472D01*
X109489698Y-97421446D01*
X109489698Y-97427661D01*
X109516957Y-97529394D01*
X109569618Y-97620606D01*
X109644092Y-97695080D01*
X109735304Y-97747741D01*
X109837037Y-97775000D01*
X109843251Y-97775000D01*
X109164224Y-98454025D01*
X109237211Y-98505132D01*
X109237219Y-98505136D01*
X109443366Y-98601264D01*
X109443380Y-98601269D01*
X109663087Y-98660139D01*
X109663098Y-98660141D01*
X109889696Y-98679966D01*
X109889700Y-98679966D01*
X110116297Y-98660141D01*
X110116308Y-98660139D01*
X110336015Y-98601269D01*
X110336029Y-98601264D01*
X110542176Y-98505136D01*
X110615169Y-98454024D01*
X109936145Y-97775000D01*
X109942359Y-97775000D01*
X110044092Y-97747741D01*
X110135304Y-97695080D01*
X110209778Y-97620606D01*
X110262439Y-97529394D01*
X110289698Y-97427661D01*
X110289698Y-97421447D01*
X110968722Y-98100471D01*
X111019834Y-98027478D01*
X111115962Y-97821331D01*
X111115967Y-97821317D01*
X111174837Y-97601610D01*
X111174839Y-97601599D01*
X111194664Y-97375002D01*
X111194664Y-97374997D01*
X111174839Y-97148400D01*
X111174837Y-97148389D01*
X111115967Y-96928682D01*
X111115962Y-96928668D01*
X111019834Y-96722521D01*
X111019830Y-96722513D01*
X110968723Y-96649526D01*
X110289698Y-97328551D01*
X110289698Y-97322339D01*
X110262439Y-97220606D01*
X110209778Y-97129394D01*
X110135304Y-97054920D01*
X110044092Y-97002259D01*
X109942359Y-96975000D01*
X109936143Y-96975000D01*
X110384009Y-96527135D01*
X112389198Y-96527135D01*
X112389198Y-98222870D01*
X112389199Y-98222876D01*
X112395606Y-98282483D01*
X112445900Y-98417328D01*
X112445904Y-98417335D01*
X112532150Y-98532544D01*
X112532153Y-98532547D01*
X112647362Y-98618793D01*
X112647369Y-98618797D01*
X112692316Y-98635561D01*
X112782215Y-98669091D01*
X112841825Y-98675500D01*
X112965198Y-98675499D01*
X113032237Y-98695183D01*
X113077992Y-98747987D01*
X113089198Y-98799499D01*
X113089198Y-99217587D01*
X113069513Y-99284626D01*
X113062148Y-99294896D01*
X113059884Y-99297734D01*
X112963909Y-99450476D01*
X112904329Y-99620745D01*
X112904328Y-99620750D01*
X112884133Y-99799996D01*
X112884133Y-99800003D01*
X112904328Y-99979249D01*
X112904329Y-99979254D01*
X112963909Y-100149523D01*
X112993562Y-100196715D01*
X113035047Y-100262738D01*
X113059883Y-100302263D01*
X113062143Y-100305097D01*
X113063032Y-100307275D01*
X113063587Y-100308158D01*
X113063432Y-100308255D01*
X113088553Y-100369783D01*
X113089198Y-100382412D01*
X113089198Y-106527362D01*
X113069513Y-106594401D01*
X113052879Y-106615043D01*
X112970184Y-106697737D01*
X112874211Y-106850476D01*
X112814631Y-107020745D01*
X112814630Y-107020750D01*
X112794435Y-107199996D01*
X112794435Y-107200003D01*
X112814630Y-107379249D01*
X112814631Y-107379254D01*
X112874211Y-107549523D01*
X112948311Y-107667452D01*
X112970184Y-107702262D01*
X113097738Y-107829816D01*
X113113534Y-107839741D01*
X113237311Y-107917516D01*
X113250478Y-107925789D01*
X113419050Y-107984775D01*
X113420745Y-107985368D01*
X113420750Y-107985369D01*
X113599996Y-108005565D01*
X113600000Y-108005565D01*
X113600004Y-108005565D01*
X113779249Y-107985369D01*
X113779252Y-107985368D01*
X113779255Y-107985368D01*
X113949522Y-107925789D01*
X114102262Y-107829816D01*
X114229816Y-107702262D01*
X114325789Y-107549522D01*
X114385368Y-107379255D01*
X114385369Y-107379249D01*
X114405565Y-107200003D01*
X114405565Y-107199996D01*
X114385369Y-107020750D01*
X114385366Y-107020737D01*
X114325790Y-106850479D01*
X114309204Y-106824082D01*
X114290198Y-106758111D01*
X114290198Y-100382412D01*
X114309883Y-100315373D01*
X114317253Y-100305097D01*
X114319508Y-100302267D01*
X114319514Y-100302262D01*
X114415487Y-100149522D01*
X114475066Y-99979255D01*
X114475067Y-99979249D01*
X114495263Y-99800003D01*
X114495263Y-99799996D01*
X114475067Y-99620750D01*
X114475066Y-99620745D01*
X114445021Y-99534881D01*
X114415487Y-99450478D01*
X114319514Y-99297738D01*
X114319512Y-99297736D01*
X114319511Y-99297734D01*
X114317248Y-99294896D01*
X114316357Y-99292715D01*
X114315809Y-99291842D01*
X114315962Y-99291745D01*
X114290842Y-99230209D01*
X114290198Y-99217587D01*
X114290198Y-98799499D01*
X114309883Y-98732460D01*
X114362687Y-98686705D01*
X114414198Y-98675499D01*
X114537569Y-98675499D01*
X114537570Y-98675499D01*
X114597181Y-98669091D01*
X114732029Y-98618796D01*
X114847244Y-98532546D01*
X114933494Y-98417331D01*
X114983789Y-98282483D01*
X114990198Y-98222873D01*
X114990197Y-96527128D01*
X114983789Y-96467517D01*
X114965140Y-96417517D01*
X114933495Y-96332671D01*
X114933491Y-96332664D01*
X114847245Y-96217455D01*
X114847242Y-96217452D01*
X114732033Y-96131206D01*
X114732026Y-96131202D01*
X114597180Y-96080908D01*
X114597181Y-96080908D01*
X114537581Y-96074501D01*
X114537579Y-96074500D01*
X114537571Y-96074500D01*
X114537563Y-96074500D01*
X114414198Y-96074500D01*
X114347159Y-96054815D01*
X114301404Y-96002011D01*
X114290198Y-95950500D01*
X114290198Y-94799996D01*
X116594435Y-94799996D01*
X116594435Y-94800003D01*
X116614630Y-94979249D01*
X116614631Y-94979254D01*
X116674211Y-95149523D01*
X116695134Y-95182821D01*
X116750852Y-95271496D01*
X116770185Y-95302263D01*
X116772445Y-95305097D01*
X116773334Y-95307275D01*
X116773889Y-95308158D01*
X116773734Y-95308255D01*
X116798855Y-95369783D01*
X116799500Y-95382412D01*
X116799500Y-104417587D01*
X116779815Y-104484626D01*
X116772450Y-104494896D01*
X116770186Y-104497734D01*
X116674211Y-104650476D01*
X116614631Y-104820745D01*
X116614630Y-104820750D01*
X116594435Y-104999996D01*
X116594435Y-105000003D01*
X116614630Y-105179249D01*
X116614631Y-105179254D01*
X116674211Y-105349523D01*
X116770185Y-105502263D01*
X116772445Y-105505097D01*
X116773334Y-105507275D01*
X116773889Y-105508158D01*
X116773734Y-105508255D01*
X116798855Y-105569783D01*
X116799500Y-105582412D01*
X116799500Y-115217587D01*
X116779815Y-115284626D01*
X116772450Y-115294896D01*
X116770186Y-115297734D01*
X116674211Y-115450476D01*
X116614631Y-115620745D01*
X116614630Y-115620750D01*
X116594435Y-115799996D01*
X116594435Y-115800003D01*
X116614630Y-115979249D01*
X116614631Y-115979254D01*
X116674211Y-116149523D01*
X116724662Y-116229815D01*
X116770184Y-116302262D01*
X116897738Y-116429816D01*
X117050478Y-116525789D01*
X117160076Y-116564139D01*
X117220745Y-116585368D01*
X117220750Y-116585369D01*
X117399996Y-116605565D01*
X117400000Y-116605565D01*
X117400004Y-116605565D01*
X117579249Y-116585369D01*
X117579252Y-116585368D01*
X117579255Y-116585368D01*
X117749522Y-116525789D01*
X117902262Y-116429816D01*
X118029816Y-116302262D01*
X118125789Y-116149522D01*
X118185368Y-115979255D01*
X118185369Y-115979249D01*
X118205565Y-115800003D01*
X118205565Y-115799996D01*
X118197115Y-115724998D01*
X119059532Y-115724998D01*
X119059532Y-115725001D01*
X119079364Y-115951686D01*
X119079366Y-115951697D01*
X119138258Y-116171488D01*
X119138261Y-116171497D01*
X119234431Y-116377732D01*
X119234432Y-116377734D01*
X119364954Y-116564141D01*
X119525858Y-116725045D01*
X119525861Y-116725047D01*
X119712266Y-116855568D01*
X119918504Y-116951739D01*
X119918509Y-116951740D01*
X119918511Y-116951741D01*
X119951697Y-116960633D01*
X120138308Y-117010635D01*
X120300230Y-117024801D01*
X120364998Y-117030468D01*
X120365000Y-117030468D01*
X120365002Y-117030468D01*
X120421673Y-117025509D01*
X120591692Y-117010635D01*
X120811496Y-116951739D01*
X121017734Y-116855568D01*
X121204139Y-116725047D01*
X121365047Y-116564139D01*
X121495568Y-116377734D01*
X121591739Y-116171496D01*
X121650635Y-115951692D01*
X121670235Y-115727661D01*
X121670468Y-115725001D01*
X121670468Y-115724998D01*
X121659532Y-115600000D01*
X121650635Y-115498308D01*
X121591739Y-115278504D01*
X121495568Y-115072266D01*
X121365047Y-114885861D01*
X121365045Y-114885858D01*
X121204141Y-114724954D01*
X121017734Y-114594432D01*
X121017732Y-114594431D01*
X120811497Y-114498261D01*
X120811488Y-114498258D01*
X120591697Y-114439366D01*
X120591693Y-114439365D01*
X120591692Y-114439365D01*
X120591691Y-114439364D01*
X120591686Y-114439364D01*
X120365002Y-114419532D01*
X120364998Y-114419532D01*
X120138313Y-114439364D01*
X120138302Y-114439366D01*
X119918511Y-114498258D01*
X119918502Y-114498261D01*
X119712267Y-114594431D01*
X119712265Y-114594432D01*
X119525858Y-114724954D01*
X119364954Y-114885858D01*
X119234432Y-115072265D01*
X119234431Y-115072267D01*
X119138261Y-115278502D01*
X119138258Y-115278511D01*
X119079366Y-115498302D01*
X119079364Y-115498313D01*
X119059532Y-115724998D01*
X118197115Y-115724998D01*
X118185369Y-115620750D01*
X118185368Y-115620745D01*
X118171575Y-115581326D01*
X118125789Y-115450478D01*
X118124425Y-115448308D01*
X118081885Y-115380606D01*
X118029816Y-115297738D01*
X118029814Y-115297736D01*
X118029813Y-115297734D01*
X118027550Y-115294896D01*
X118026659Y-115292715D01*
X118026111Y-115291842D01*
X118026264Y-115291745D01*
X118001144Y-115230209D01*
X118000500Y-115217587D01*
X118000500Y-108383992D01*
X119634500Y-108383992D01*
X119634500Y-108586007D01*
X119673907Y-108784119D01*
X119673909Y-108784127D01*
X119751213Y-108970755D01*
X119804904Y-109051109D01*
X119825782Y-109117787D01*
X119807297Y-109185167D01*
X119804904Y-109188891D01*
X119751213Y-109269244D01*
X119673909Y-109455872D01*
X119673907Y-109455880D01*
X119634500Y-109653992D01*
X119634500Y-109856007D01*
X119673907Y-110054119D01*
X119673910Y-110054131D01*
X119707547Y-110135338D01*
X119715016Y-110204807D01*
X119695405Y-110249864D01*
X119695895Y-110250132D01*
X119692910Y-110255596D01*
X119692260Y-110257092D01*
X119691646Y-110257911D01*
X119691645Y-110257913D01*
X119641403Y-110392620D01*
X119641401Y-110392627D01*
X119635000Y-110452155D01*
X119635000Y-110775000D01*
X120519134Y-110775000D01*
X120543326Y-110777383D01*
X120546123Y-110777939D01*
X120558995Y-110780499D01*
X120558996Y-110780500D01*
X120558997Y-110780500D01*
X120599170Y-110780500D01*
X120584925Y-110794745D01*
X120535556Y-110880255D01*
X120510000Y-110975630D01*
X120510000Y-111074370D01*
X120535556Y-111169745D01*
X120584925Y-111255255D01*
X120604670Y-111275000D01*
X119635000Y-111275000D01*
X119635000Y-111597844D01*
X119641401Y-111657372D01*
X119641403Y-111657379D01*
X119691645Y-111792086D01*
X119691649Y-111792093D01*
X119777809Y-111907187D01*
X119777812Y-111907190D01*
X119892906Y-111993350D01*
X119892913Y-111993354D01*
X120027620Y-112043596D01*
X120027627Y-112043598D01*
X120087155Y-112049999D01*
X120087172Y-112050000D01*
X120635000Y-112050000D01*
X120635000Y-111305330D01*
X120654745Y-111325075D01*
X120740255Y-111374444D01*
X120835630Y-111400000D01*
X120934370Y-111400000D01*
X121029745Y-111374444D01*
X121115255Y-111325075D01*
X121135000Y-111305330D01*
X121135000Y-112050000D01*
X121682828Y-112050000D01*
X121682844Y-112049999D01*
X121742372Y-112043598D01*
X121742379Y-112043596D01*
X121877086Y-111993354D01*
X121877093Y-111993350D01*
X121992187Y-111907190D01*
X121992190Y-111907187D01*
X122078350Y-111792093D01*
X122078354Y-111792086D01*
X122128596Y-111657379D01*
X122128598Y-111657372D01*
X122134999Y-111597844D01*
X122135000Y-111597827D01*
X122135000Y-111275000D01*
X121165330Y-111275000D01*
X121185075Y-111255255D01*
X121234444Y-111169745D01*
X121260000Y-111074370D01*
X121260000Y-110975630D01*
X121234444Y-110880255D01*
X121185075Y-110794745D01*
X121170830Y-110780500D01*
X121211004Y-110780500D01*
X121211004Y-110780499D01*
X121224473Y-110777820D01*
X121226674Y-110777383D01*
X121250866Y-110775000D01*
X122135000Y-110775000D01*
X122135000Y-110452172D01*
X122134999Y-110452155D01*
X122128598Y-110392627D01*
X122128596Y-110392620D01*
X122078354Y-110257913D01*
X122078353Y-110257911D01*
X122077745Y-110257099D01*
X122077390Y-110256148D01*
X122074103Y-110250128D01*
X122074968Y-110249655D01*
X122053329Y-110191634D01*
X122062452Y-110135338D01*
X122096091Y-110054127D01*
X122135500Y-109856003D01*
X122135500Y-109799996D01*
X123794435Y-109799996D01*
X123794435Y-109800003D01*
X123814630Y-109979249D01*
X123814631Y-109979254D01*
X123874211Y-110149523D01*
X123907661Y-110202758D01*
X123956487Y-110280464D01*
X123970185Y-110302263D01*
X123972445Y-110305097D01*
X123973334Y-110307275D01*
X123973889Y-110308158D01*
X123973734Y-110308255D01*
X123998855Y-110369783D01*
X123999500Y-110382412D01*
X123999500Y-115017587D01*
X123979815Y-115084626D01*
X123972450Y-115094896D01*
X123970186Y-115097734D01*
X123874211Y-115250476D01*
X123814631Y-115420745D01*
X123814630Y-115420750D01*
X123794435Y-115599996D01*
X123794435Y-115600003D01*
X123814630Y-115779249D01*
X123814631Y-115779254D01*
X123874211Y-115949523D01*
X123902837Y-115995080D01*
X123970184Y-116102262D01*
X124097738Y-116229816D01*
X124250478Y-116325789D01*
X124351863Y-116361265D01*
X124420745Y-116385368D01*
X124420750Y-116385369D01*
X124599996Y-116405565D01*
X124600000Y-116405565D01*
X124600004Y-116405565D01*
X124779249Y-116385369D01*
X124779252Y-116385368D01*
X124779255Y-116385368D01*
X124949522Y-116325789D01*
X125102262Y-116229816D01*
X125229816Y-116102262D01*
X125325789Y-115949522D01*
X125385368Y-115779255D01*
X125385369Y-115779249D01*
X125391482Y-115724998D01*
X129219532Y-115724998D01*
X129219532Y-115725001D01*
X129239364Y-115951686D01*
X129239366Y-115951697D01*
X129298258Y-116171488D01*
X129298261Y-116171497D01*
X129394431Y-116377732D01*
X129394432Y-116377734D01*
X129524954Y-116564141D01*
X129685858Y-116725045D01*
X129685861Y-116725047D01*
X129872266Y-116855568D01*
X130078504Y-116951739D01*
X130078509Y-116951740D01*
X130078511Y-116951741D01*
X130111697Y-116960633D01*
X130298308Y-117010635D01*
X130460230Y-117024801D01*
X130524998Y-117030468D01*
X130525000Y-117030468D01*
X130525002Y-117030468D01*
X130581673Y-117025509D01*
X130751692Y-117010635D01*
X130971496Y-116951739D01*
X131177734Y-116855568D01*
X131364139Y-116725047D01*
X131525047Y-116564139D01*
X131655568Y-116377734D01*
X131751739Y-116171496D01*
X131810635Y-115951692D01*
X131830235Y-115727661D01*
X131830468Y-115725001D01*
X131830468Y-115724998D01*
X131819532Y-115600000D01*
X131810635Y-115498308D01*
X131751739Y-115278504D01*
X131655568Y-115072266D01*
X131525047Y-114885861D01*
X131525045Y-114885858D01*
X131364141Y-114724954D01*
X131177734Y-114594432D01*
X131177732Y-114594431D01*
X130971497Y-114498261D01*
X130971488Y-114498258D01*
X130751697Y-114439366D01*
X130751693Y-114439365D01*
X130751692Y-114439365D01*
X130751691Y-114439364D01*
X130751686Y-114439364D01*
X130525002Y-114419532D01*
X130524998Y-114419532D01*
X130298313Y-114439364D01*
X130298302Y-114439366D01*
X130078511Y-114498258D01*
X130078502Y-114498261D01*
X129872267Y-114594431D01*
X129872265Y-114594432D01*
X129685858Y-114724954D01*
X129524954Y-114885858D01*
X129394432Y-115072265D01*
X129394431Y-115072267D01*
X129298261Y-115278502D01*
X129298258Y-115278511D01*
X129239366Y-115498302D01*
X129239364Y-115498313D01*
X129219532Y-115724998D01*
X125391482Y-115724998D01*
X125405565Y-115600003D01*
X125405565Y-115599996D01*
X125385369Y-115420750D01*
X125385368Y-115420745D01*
X125343908Y-115302259D01*
X125325789Y-115250478D01*
X125296504Y-115203872D01*
X125263449Y-115151265D01*
X125229816Y-115097738D01*
X125229814Y-115097736D01*
X125229813Y-115097734D01*
X125227550Y-115094896D01*
X125226659Y-115092715D01*
X125226111Y-115091842D01*
X125226264Y-115091745D01*
X125201144Y-115030209D01*
X125200500Y-115017587D01*
X125200500Y-110382412D01*
X125220185Y-110315373D01*
X125227555Y-110305097D01*
X125229810Y-110302267D01*
X125229816Y-110302262D01*
X125325789Y-110149522D01*
X125385368Y-109979255D01*
X125399255Y-109856003D01*
X125405565Y-109800003D01*
X125405565Y-109799996D01*
X125385369Y-109620750D01*
X125385368Y-109620745D01*
X125325788Y-109450476D01*
X125234225Y-109304755D01*
X125229816Y-109297738D01*
X125102262Y-109170184D01*
X125031608Y-109125789D01*
X124949523Y-109074211D01*
X124779254Y-109014631D01*
X124779249Y-109014630D01*
X124600004Y-108994435D01*
X124599996Y-108994435D01*
X124420750Y-109014630D01*
X124420745Y-109014631D01*
X124250476Y-109074211D01*
X124097737Y-109170184D01*
X123970184Y-109297737D01*
X123874211Y-109450476D01*
X123814631Y-109620745D01*
X123814630Y-109620750D01*
X123794435Y-109799996D01*
X122135500Y-109799996D01*
X122135500Y-109653997D01*
X122096091Y-109455873D01*
X122018786Y-109269244D01*
X121965094Y-109188889D01*
X121944217Y-109122214D01*
X121962701Y-109054834D01*
X121965078Y-109051134D01*
X122018786Y-108970756D01*
X122096091Y-108784127D01*
X122135500Y-108586003D01*
X122135500Y-108383997D01*
X122096091Y-108185873D01*
X122018786Y-107999244D01*
X122018784Y-107999241D01*
X122018782Y-107999237D01*
X121906558Y-107831281D01*
X121763718Y-107688441D01*
X121595762Y-107576217D01*
X121595752Y-107576212D01*
X121409127Y-107498909D01*
X121409119Y-107498907D01*
X121211007Y-107459500D01*
X121211003Y-107459500D01*
X120558997Y-107459500D01*
X120558992Y-107459500D01*
X120360880Y-107498907D01*
X120360872Y-107498909D01*
X120174247Y-107576212D01*
X120174237Y-107576217D01*
X120006281Y-107688441D01*
X119863441Y-107831281D01*
X119751217Y-107999237D01*
X119751212Y-107999247D01*
X119673909Y-108185872D01*
X119673907Y-108185880D01*
X119634500Y-108383992D01*
X118000500Y-108383992D01*
X118000500Y-105582412D01*
X118020185Y-105515373D01*
X118027555Y-105505097D01*
X118029810Y-105502267D01*
X118029816Y-105502262D01*
X118125789Y-105349522D01*
X118185368Y-105179255D01*
X118185369Y-105179249D01*
X118205565Y-105000003D01*
X118205565Y-104999996D01*
X118185369Y-104820750D01*
X118185368Y-104820745D01*
X118125788Y-104650476D01*
X118055431Y-104538504D01*
X118029816Y-104497738D01*
X118029814Y-104497736D01*
X118029813Y-104497734D01*
X118027550Y-104494896D01*
X118026659Y-104492715D01*
X118026111Y-104491842D01*
X118026264Y-104491745D01*
X118001144Y-104430209D01*
X118000500Y-104417587D01*
X118000500Y-96477135D01*
X118734500Y-96477135D01*
X118734500Y-98772870D01*
X118734501Y-98772876D01*
X118740908Y-98832483D01*
X118791202Y-98967328D01*
X118791206Y-98967335D01*
X118877452Y-99082544D01*
X118877455Y-99082547D01*
X118992664Y-99168793D01*
X118992671Y-99168797D01*
X119031189Y-99183163D01*
X119127517Y-99219091D01*
X119187127Y-99225500D01*
X119391212Y-99225499D01*
X119458251Y-99245183D01*
X119504006Y-99297987D01*
X119513950Y-99367145D01*
X119496207Y-99415469D01*
X119474211Y-99450475D01*
X119414631Y-99620745D01*
X119414630Y-99620750D01*
X119394435Y-99799996D01*
X119394435Y-99800003D01*
X119414630Y-99979249D01*
X119414631Y-99979254D01*
X119474211Y-100149524D01*
X119555493Y-100278881D01*
X119574500Y-100344854D01*
X119574500Y-102843306D01*
X119554815Y-102910345D01*
X119521623Y-102944881D01*
X119335859Y-103074953D01*
X119174954Y-103235858D01*
X119044432Y-103422265D01*
X119044431Y-103422267D01*
X118948261Y-103628502D01*
X118948258Y-103628511D01*
X118889366Y-103848302D01*
X118889364Y-103848313D01*
X118869532Y-104074998D01*
X118869532Y-104075001D01*
X118889364Y-104301686D01*
X118889366Y-104301697D01*
X118948258Y-104521488D01*
X118948261Y-104521497D01*
X119044431Y-104727732D01*
X119044432Y-104727734D01*
X119174954Y-104914141D01*
X119335858Y-105075045D01*
X119335861Y-105075047D01*
X119522266Y-105205568D01*
X119728504Y-105301739D01*
X119948308Y-105360635D01*
X120110230Y-105374801D01*
X120174998Y-105380468D01*
X120175000Y-105380468D01*
X120175002Y-105380468D01*
X120231673Y-105375509D01*
X120401692Y-105360635D01*
X120621496Y-105301739D01*
X120827734Y-105205568D01*
X121014139Y-105075047D01*
X121175047Y-104914139D01*
X121305568Y-104727734D01*
X121401739Y-104521496D01*
X121460635Y-104301692D01*
X121480468Y-104075000D01*
X121460635Y-103848308D01*
X121401739Y-103628504D01*
X121305568Y-103422266D01*
X121175047Y-103235861D01*
X121175045Y-103235858D01*
X121014140Y-103074953D01*
X120828377Y-102944881D01*
X120784752Y-102890304D01*
X120775500Y-102843306D01*
X120775500Y-100407940D01*
X120795185Y-100340901D01*
X120811819Y-100320259D01*
X120816705Y-100315373D01*
X120829816Y-100302262D01*
X120925789Y-100149522D01*
X120985368Y-99979255D01*
X120985369Y-99979249D01*
X121005565Y-99800003D01*
X121005565Y-99799996D01*
X120985369Y-99620750D01*
X120985368Y-99620745D01*
X120955323Y-99534881D01*
X120925789Y-99450478D01*
X120903793Y-99415471D01*
X120884793Y-99348234D01*
X120905161Y-99281399D01*
X120958429Y-99236185D01*
X121008787Y-99225499D01*
X121482871Y-99225499D01*
X121482872Y-99225499D01*
X121542483Y-99219091D01*
X121677331Y-99168796D01*
X121792546Y-99082546D01*
X121878796Y-98967331D01*
X121929091Y-98832483D01*
X121935500Y-98772873D01*
X121935499Y-96477128D01*
X121929091Y-96417517D01*
X121895017Y-96326161D01*
X121878797Y-96282671D01*
X121878793Y-96282664D01*
X121792547Y-96167455D01*
X121792544Y-96167452D01*
X121677335Y-96081206D01*
X121677328Y-96081202D01*
X121542482Y-96030908D01*
X121542483Y-96030908D01*
X121482883Y-96024501D01*
X121482881Y-96024500D01*
X121482873Y-96024500D01*
X121482864Y-96024500D01*
X119187129Y-96024500D01*
X119187123Y-96024501D01*
X119127516Y-96030908D01*
X118992671Y-96081202D01*
X118992664Y-96081206D01*
X118877455Y-96167452D01*
X118877452Y-96167455D01*
X118791206Y-96282664D01*
X118791202Y-96282671D01*
X118740908Y-96417517D01*
X118735533Y-96467516D01*
X118734501Y-96477123D01*
X118734500Y-96477135D01*
X118000500Y-96477135D01*
X118000500Y-95382412D01*
X118020185Y-95315373D01*
X118027555Y-95305097D01*
X118029810Y-95302267D01*
X118029816Y-95302262D01*
X118125789Y-95149522D01*
X118185368Y-94979255D01*
X118190354Y-94935005D01*
X118205565Y-94800003D01*
X118205565Y-94799996D01*
X118185369Y-94620750D01*
X118185368Y-94620745D01*
X118125788Y-94450476D01*
X118029815Y-94297737D01*
X117902262Y-94170184D01*
X117749523Y-94074211D01*
X117579254Y-94014631D01*
X117579249Y-94014630D01*
X117400004Y-93994435D01*
X117399996Y-93994435D01*
X117220750Y-94014630D01*
X117220745Y-94014631D01*
X117050476Y-94074211D01*
X116897737Y-94170184D01*
X116770184Y-94297737D01*
X116674211Y-94450476D01*
X116614631Y-94620745D01*
X116614630Y-94620750D01*
X116594435Y-94799996D01*
X114290198Y-94799996D01*
X114290198Y-91782412D01*
X114309883Y-91715373D01*
X114317253Y-91705097D01*
X114319508Y-91702267D01*
X114319514Y-91702262D01*
X114415487Y-91549522D01*
X114475066Y-91379255D01*
X114492688Y-91222854D01*
X114495263Y-91200003D01*
X114495263Y-91199996D01*
X114475067Y-91020750D01*
X114475066Y-91020745D01*
X114423666Y-90873852D01*
X114415487Y-90850478D01*
X114396804Y-90820745D01*
X114319511Y-90697734D01*
X114317248Y-90694896D01*
X114316357Y-90692715D01*
X114315809Y-90691842D01*
X114315962Y-90691745D01*
X114290842Y-90630209D01*
X114290198Y-90617587D01*
X114290198Y-89977135D01*
X118734500Y-89977135D01*
X118734500Y-92272870D01*
X118734501Y-92272876D01*
X118740908Y-92332483D01*
X118791202Y-92467328D01*
X118791206Y-92467335D01*
X118877452Y-92582544D01*
X118877455Y-92582547D01*
X118992664Y-92668793D01*
X118992671Y-92668797D01*
X119127517Y-92719091D01*
X119127516Y-92719091D01*
X119134444Y-92719835D01*
X119187127Y-92725500D01*
X121482872Y-92725499D01*
X121542483Y-92719091D01*
X121677331Y-92668796D01*
X121792546Y-92582546D01*
X121878796Y-92467331D01*
X121929091Y-92332483D01*
X121935500Y-92272873D01*
X121935499Y-89977128D01*
X121929091Y-89917517D01*
X121927449Y-89913115D01*
X121878797Y-89782671D01*
X121878793Y-89782664D01*
X121792547Y-89667455D01*
X121792544Y-89667452D01*
X121677335Y-89581206D01*
X121677328Y-89581202D01*
X121542482Y-89530908D01*
X121542483Y-89530908D01*
X121482883Y-89524501D01*
X121482881Y-89524500D01*
X121482873Y-89524500D01*
X121482864Y-89524500D01*
X119187129Y-89524500D01*
X119187123Y-89524501D01*
X119127516Y-89530908D01*
X118992671Y-89581202D01*
X118992664Y-89581206D01*
X118877455Y-89667452D01*
X118877452Y-89667455D01*
X118791206Y-89782664D01*
X118791202Y-89782671D01*
X118740908Y-89917517D01*
X118734501Y-89977116D01*
X118734501Y-89977123D01*
X118734500Y-89977135D01*
X114290198Y-89977135D01*
X114290198Y-88399996D01*
X126994435Y-88399996D01*
X126994435Y-88400003D01*
X127014630Y-88579249D01*
X127014631Y-88579254D01*
X127074211Y-88749523D01*
X127113535Y-88812106D01*
X127150617Y-88871122D01*
X127170185Y-88902263D01*
X127172445Y-88905097D01*
X127173334Y-88907275D01*
X127173889Y-88908158D01*
X127173734Y-88908255D01*
X127198855Y-88969783D01*
X127199500Y-88982412D01*
X127199500Y-90417587D01*
X127179815Y-90484626D01*
X127172450Y-90494896D01*
X127170186Y-90497734D01*
X127074211Y-90650476D01*
X127014631Y-90820745D01*
X127014630Y-90820750D01*
X126994435Y-90999996D01*
X126994435Y-91000003D01*
X127014630Y-91179249D01*
X127014631Y-91179254D01*
X127074211Y-91349523D01*
X127170185Y-91502263D01*
X127172445Y-91505097D01*
X127173334Y-91507275D01*
X127173889Y-91508158D01*
X127173734Y-91508255D01*
X127198855Y-91569783D01*
X127199500Y-91582412D01*
X127199500Y-106817587D01*
X127179815Y-106884626D01*
X127172450Y-106894896D01*
X127170186Y-106897734D01*
X127074211Y-107050476D01*
X127014631Y-107220745D01*
X127014630Y-107220750D01*
X126994435Y-107399996D01*
X126994435Y-107400003D01*
X127014630Y-107579249D01*
X127014631Y-107579254D01*
X127074211Y-107749523D01*
X127125584Y-107831282D01*
X127170184Y-107902262D01*
X127297738Y-108029816D01*
X127450478Y-108125789D01*
X127610068Y-108181632D01*
X127620745Y-108185368D01*
X127620750Y-108185369D01*
X127799996Y-108205565D01*
X127800000Y-108205565D01*
X127800004Y-108205565D01*
X127979249Y-108185369D01*
X127979252Y-108185368D01*
X127979255Y-108185368D01*
X128149522Y-108125789D01*
X128302262Y-108029816D01*
X128429816Y-107902262D01*
X128525789Y-107749522D01*
X128585368Y-107579255D01*
X128585369Y-107579249D01*
X128605565Y-107400003D01*
X128605565Y-107399996D01*
X128585369Y-107220750D01*
X128585368Y-107220745D01*
X128525788Y-107050476D01*
X128449152Y-106928511D01*
X128429816Y-106897738D01*
X128429814Y-106897736D01*
X128429813Y-106897734D01*
X128427550Y-106894896D01*
X128426659Y-106892715D01*
X128426111Y-106891842D01*
X128426264Y-106891745D01*
X128401144Y-106830209D01*
X128400500Y-106817587D01*
X128400500Y-97625000D01*
X128889551Y-97625000D01*
X128909317Y-97876151D01*
X128968126Y-98121110D01*
X129064533Y-98353859D01*
X129196160Y-98568653D01*
X129196161Y-98568656D01*
X129238982Y-98618793D01*
X129359776Y-98760224D01*
X129465450Y-98850478D01*
X129551343Y-98923838D01*
X129551346Y-98923839D01*
X129766140Y-99055466D01*
X129998889Y-99151873D01*
X130243852Y-99210683D01*
X130495000Y-99230449D01*
X130746148Y-99210683D01*
X130991111Y-99151873D01*
X131223859Y-99055466D01*
X131223858Y-99055466D01*
X131225658Y-99054721D01*
X131295128Y-99047252D01*
X131357607Y-99078527D01*
X131393259Y-99138616D01*
X131396332Y-99183163D01*
X131394436Y-99199996D01*
X131394435Y-99200002D01*
X131394435Y-99200003D01*
X131414630Y-99379249D01*
X131414631Y-99379254D01*
X131474211Y-99549523D01*
X131570185Y-99702263D01*
X131572445Y-99705097D01*
X131573334Y-99707275D01*
X131573889Y-99708158D01*
X131573734Y-99708255D01*
X131598855Y-99769783D01*
X131599500Y-99782412D01*
X131599500Y-103220261D01*
X131579815Y-103287300D01*
X131527011Y-103333055D01*
X131457853Y-103342999D01*
X131394297Y-103313974D01*
X131373925Y-103291384D01*
X131335046Y-103235859D01*
X131174141Y-103074954D01*
X130987734Y-102944432D01*
X130987732Y-102944431D01*
X130781497Y-102848261D01*
X130781488Y-102848258D01*
X130561697Y-102789366D01*
X130561693Y-102789365D01*
X130561692Y-102789365D01*
X130561691Y-102789364D01*
X130561686Y-102789364D01*
X130335002Y-102769532D01*
X130334998Y-102769532D01*
X130108313Y-102789364D01*
X130108302Y-102789366D01*
X129888511Y-102848258D01*
X129888502Y-102848261D01*
X129682267Y-102944431D01*
X129682265Y-102944432D01*
X129495858Y-103074954D01*
X129334954Y-103235858D01*
X129204432Y-103422265D01*
X129204431Y-103422267D01*
X129108261Y-103628502D01*
X129108258Y-103628511D01*
X129049366Y-103848302D01*
X129049364Y-103848313D01*
X129029532Y-104074998D01*
X129029532Y-104075001D01*
X129049364Y-104301686D01*
X129049366Y-104301697D01*
X129108258Y-104521488D01*
X129108261Y-104521497D01*
X129204431Y-104727732D01*
X129204432Y-104727734D01*
X129334954Y-104914141D01*
X129495858Y-105075045D01*
X129495861Y-105075047D01*
X129681624Y-105205118D01*
X129725248Y-105259693D01*
X129734500Y-105306692D01*
X129734500Y-107918804D01*
X129715494Y-107984775D01*
X129674209Y-108050479D01*
X129614633Y-108220737D01*
X129614630Y-108220750D01*
X129594435Y-108399996D01*
X129594435Y-108400003D01*
X129614630Y-108579249D01*
X129614631Y-108579254D01*
X129674211Y-108749523D01*
X129758371Y-108883462D01*
X129770184Y-108902262D01*
X129897738Y-109029816D01*
X129937554Y-109054834D01*
X130020247Y-109106794D01*
X130050478Y-109125789D01*
X130177352Y-109170184D01*
X130220745Y-109185368D01*
X130220750Y-109185369D01*
X130399996Y-109205565D01*
X130400000Y-109205565D01*
X130400004Y-109205565D01*
X130579249Y-109185369D01*
X130579252Y-109185368D01*
X130579255Y-109185368D01*
X130749522Y-109125789D01*
X130902262Y-109029816D01*
X131029816Y-108902262D01*
X131125789Y-108749522D01*
X131185368Y-108579255D01*
X131185369Y-108579249D01*
X131205565Y-108400003D01*
X131205565Y-108399996D01*
X131185369Y-108220750D01*
X131185368Y-108220745D01*
X131172989Y-108185368D01*
X131125789Y-108050478D01*
X131029816Y-107897738D01*
X130971819Y-107839741D01*
X130938334Y-107778418D01*
X130935500Y-107752060D01*
X130935500Y-105306692D01*
X130955185Y-105239653D01*
X130988374Y-105205119D01*
X131174139Y-105075047D01*
X131335047Y-104914139D01*
X131373925Y-104858615D01*
X131428501Y-104814990D01*
X131497999Y-104807796D01*
X131560354Y-104839318D01*
X131595769Y-104899548D01*
X131599500Y-104929738D01*
X131599500Y-111617587D01*
X131579815Y-111684626D01*
X131572450Y-111694896D01*
X131570186Y-111697734D01*
X131474211Y-111850476D01*
X131414631Y-112020745D01*
X131414630Y-112020750D01*
X131394435Y-112199996D01*
X131394435Y-112200003D01*
X131414630Y-112379249D01*
X131414631Y-112379254D01*
X131474211Y-112549523D01*
X131521323Y-112624500D01*
X131570184Y-112702262D01*
X131697738Y-112829816D01*
X131718722Y-112843001D01*
X131849766Y-112925342D01*
X131850478Y-112925789D01*
X132020745Y-112985368D01*
X132020750Y-112985369D01*
X132199996Y-113005565D01*
X132200000Y-113005565D01*
X132200004Y-113005565D01*
X132379249Y-112985369D01*
X132379252Y-112985368D01*
X132379255Y-112985368D01*
X132549522Y-112925789D01*
X132702262Y-112829816D01*
X132829816Y-112702262D01*
X132925789Y-112549522D01*
X132985368Y-112379255D01*
X133005565Y-112200000D01*
X132990990Y-112070646D01*
X132985369Y-112020750D01*
X132985368Y-112020745D01*
X132925788Y-111850476D01*
X132829813Y-111697734D01*
X132827550Y-111694896D01*
X132826659Y-111692715D01*
X132826111Y-111691842D01*
X132826264Y-111691745D01*
X132801144Y-111630209D01*
X132800500Y-111617587D01*
X132800500Y-99782412D01*
X132820185Y-99715373D01*
X132827555Y-99705097D01*
X132829810Y-99702267D01*
X132829816Y-99702262D01*
X132925789Y-99549522D01*
X132985368Y-99379255D01*
X132985369Y-99379249D01*
X133005565Y-99200003D01*
X133005565Y-99199996D01*
X132985369Y-99020750D01*
X132985368Y-99020745D01*
X132966678Y-98967331D01*
X132925789Y-98850478D01*
X132914481Y-98832482D01*
X132874482Y-98768823D01*
X132829816Y-98697738D01*
X132702262Y-98570184D01*
X132699825Y-98568653D01*
X132549523Y-98474211D01*
X132379254Y-98414631D01*
X132379249Y-98414630D01*
X132200004Y-98394435D01*
X132199996Y-98394435D01*
X132103284Y-98405331D01*
X132034462Y-98393276D01*
X131983083Y-98345927D01*
X131965459Y-98278316D01*
X131974840Y-98234658D01*
X131979718Y-98222883D01*
X132021873Y-98121111D01*
X132080683Y-97876148D01*
X132100449Y-97625000D01*
X132080683Y-97373852D01*
X132021873Y-97128889D01*
X131977369Y-97021446D01*
X131925466Y-96896140D01*
X131793839Y-96681346D01*
X131793838Y-96681343D01*
X131756875Y-96638066D01*
X131630224Y-96489776D01*
X131486779Y-96367262D01*
X131438656Y-96326161D01*
X131438653Y-96326160D01*
X131223858Y-96194533D01*
X131223859Y-96194533D01*
X131172047Y-96173072D01*
X131117643Y-96129230D01*
X131095579Y-96062936D01*
X131095500Y-96058511D01*
X131095500Y-94633449D01*
X131114506Y-94567477D01*
X131125789Y-94549522D01*
X131185368Y-94379255D01*
X131205565Y-94200000D01*
X131202440Y-94172267D01*
X131185369Y-94020750D01*
X131185368Y-94020745D01*
X131176162Y-93994435D01*
X131125789Y-93850478D01*
X131111201Y-93827262D01*
X131029815Y-93697737D01*
X130902262Y-93570184D01*
X130749523Y-93474211D01*
X130579254Y-93414631D01*
X130579249Y-93414630D01*
X130400004Y-93394435D01*
X130399996Y-93394435D01*
X130220750Y-93414630D01*
X130220745Y-93414631D01*
X130050476Y-93474211D01*
X129897737Y-93570184D01*
X129770184Y-93697737D01*
X129674211Y-93850476D01*
X129614631Y-94020745D01*
X129614630Y-94020750D01*
X129594435Y-94199996D01*
X129594435Y-94200003D01*
X129614630Y-94379249D01*
X129614631Y-94379254D01*
X129674211Y-94549523D01*
X129770184Y-94702262D01*
X129858181Y-94790259D01*
X129891666Y-94851582D01*
X129894500Y-94877940D01*
X129894500Y-96058511D01*
X129874815Y-96125550D01*
X129822011Y-96171305D01*
X129817953Y-96173072D01*
X129766140Y-96194533D01*
X129551346Y-96326160D01*
X129551343Y-96326161D01*
X129359776Y-96489776D01*
X129196161Y-96681343D01*
X129196160Y-96681346D01*
X129064533Y-96896140D01*
X128968126Y-97128889D01*
X128909317Y-97373848D01*
X128889551Y-97625000D01*
X128400500Y-97625000D01*
X128400500Y-91582412D01*
X128420185Y-91515373D01*
X128427555Y-91505097D01*
X128429810Y-91502267D01*
X128429816Y-91502262D01*
X128525789Y-91349522D01*
X128585368Y-91179255D01*
X128585369Y-91179249D01*
X128605565Y-91000003D01*
X128605565Y-90999996D01*
X128585369Y-90820750D01*
X128585368Y-90820745D01*
X128542326Y-90697738D01*
X128525789Y-90650478D01*
X128514043Y-90631785D01*
X128475337Y-90570184D01*
X128429816Y-90497738D01*
X128429814Y-90497736D01*
X128429813Y-90497734D01*
X128427550Y-90494896D01*
X128426659Y-90492715D01*
X128426111Y-90491842D01*
X128426264Y-90491745D01*
X128401144Y-90430209D01*
X128400500Y-90417587D01*
X128400500Y-88982412D01*
X128420185Y-88915373D01*
X128427555Y-88905097D01*
X128429810Y-88902267D01*
X128429816Y-88902262D01*
X128525789Y-88749522D01*
X128585368Y-88579255D01*
X128585369Y-88579249D01*
X128605565Y-88400003D01*
X128605565Y-88399996D01*
X128585369Y-88220750D01*
X128585368Y-88220745D01*
X128542326Y-88097738D01*
X128525789Y-88050478D01*
X128429816Y-87897738D01*
X128302262Y-87770184D01*
X128149523Y-87674211D01*
X127979254Y-87614631D01*
X127979249Y-87614630D01*
X127800004Y-87594435D01*
X127799996Y-87594435D01*
X127620750Y-87614630D01*
X127620745Y-87614631D01*
X127450476Y-87674211D01*
X127297737Y-87770184D01*
X127170184Y-87897737D01*
X127074211Y-88050476D01*
X127014631Y-88220745D01*
X127014630Y-88220750D01*
X126994435Y-88399996D01*
X114290198Y-88399996D01*
X114290198Y-84982412D01*
X114309883Y-84915373D01*
X114317253Y-84905097D01*
X114319508Y-84902267D01*
X114319514Y-84902262D01*
X114415487Y-84749522D01*
X114475066Y-84579255D01*
X114475067Y-84579249D01*
X114481180Y-84524998D01*
X118869532Y-84524998D01*
X118869532Y-84525001D01*
X118889364Y-84751686D01*
X118889366Y-84751697D01*
X118948258Y-84971488D01*
X118948261Y-84971497D01*
X119044431Y-85177732D01*
X119044432Y-85177734D01*
X119174954Y-85364141D01*
X119335858Y-85525045D01*
X119335861Y-85525047D01*
X119522266Y-85655568D01*
X119728504Y-85751739D01*
X119948308Y-85810635D01*
X120110230Y-85824801D01*
X120174998Y-85830468D01*
X120175000Y-85830468D01*
X120175002Y-85830468D01*
X120231673Y-85825509D01*
X120401692Y-85810635D01*
X120621496Y-85751739D01*
X120827734Y-85655568D01*
X121014139Y-85525047D01*
X121175047Y-85364139D01*
X121305568Y-85177734D01*
X121401739Y-84971496D01*
X121460635Y-84751692D01*
X121480468Y-84525000D01*
X121479016Y-84508409D01*
X121469532Y-84400000D01*
X121460635Y-84298308D01*
X121401739Y-84078504D01*
X121305568Y-83872266D01*
X121175047Y-83685861D01*
X121175045Y-83685858D01*
X121014141Y-83524954D01*
X120827734Y-83394432D01*
X120827732Y-83394431D01*
X120621497Y-83298261D01*
X120621488Y-83298258D01*
X120401697Y-83239366D01*
X120401693Y-83239365D01*
X120401692Y-83239365D01*
X120401691Y-83239364D01*
X120401686Y-83239364D01*
X120175002Y-83219532D01*
X120174998Y-83219532D01*
X119948313Y-83239364D01*
X119948302Y-83239366D01*
X119728511Y-83298258D01*
X119728502Y-83298261D01*
X119522267Y-83394431D01*
X119522265Y-83394432D01*
X119335858Y-83524954D01*
X119174954Y-83685858D01*
X119044432Y-83872265D01*
X119044431Y-83872267D01*
X118948261Y-84078502D01*
X118948258Y-84078511D01*
X118889366Y-84298302D01*
X118889364Y-84298313D01*
X118869532Y-84524998D01*
X114481180Y-84524998D01*
X114495263Y-84400003D01*
X114495263Y-84399996D01*
X114475067Y-84220750D01*
X114475066Y-84220745D01*
X114444106Y-84132266D01*
X114415487Y-84050478D01*
X114319514Y-83897738D01*
X114319512Y-83897736D01*
X114319511Y-83897734D01*
X114317248Y-83894896D01*
X114316357Y-83892715D01*
X114315809Y-83891842D01*
X114315962Y-83891745D01*
X114290842Y-83830209D01*
X114290198Y-83817587D01*
X114290198Y-74382412D01*
X114309883Y-74315373D01*
X114317253Y-74305097D01*
X114319508Y-74302267D01*
X114319514Y-74302262D01*
X114415487Y-74149522D01*
X114475066Y-73979255D01*
X114477609Y-73956692D01*
X114495263Y-73800002D01*
X114495263Y-73799998D01*
X114489956Y-73752900D01*
X114480831Y-73671918D01*
X114492885Y-73603098D01*
X114499046Y-73592081D01*
X114525789Y-73549522D01*
X114555777Y-73463820D01*
X114585366Y-73379262D01*
X114585369Y-73379249D01*
X114605565Y-73200003D01*
X114605565Y-73199996D01*
X114585369Y-73020750D01*
X114585368Y-73020745D01*
X114569194Y-72974522D01*
X114525789Y-72850478D01*
X114429816Y-72697738D01*
X114332074Y-72599996D01*
X114794435Y-72599996D01*
X114794435Y-72600003D01*
X114814630Y-72779249D01*
X114814631Y-72779254D01*
X114874211Y-72949523D01*
X114921637Y-73025000D01*
X114950852Y-73071496D01*
X114970185Y-73102263D01*
X114972445Y-73105097D01*
X114973334Y-73107275D01*
X114973889Y-73108158D01*
X114973734Y-73108255D01*
X114998855Y-73169783D01*
X114999500Y-73182412D01*
X114999500Y-80617587D01*
X114979815Y-80684626D01*
X114972450Y-80694896D01*
X114970186Y-80697734D01*
X114874211Y-80850476D01*
X114814631Y-81020745D01*
X114814630Y-81020750D01*
X114794435Y-81199996D01*
X114794435Y-81200003D01*
X114814630Y-81379249D01*
X114814631Y-81379254D01*
X114874211Y-81549523D01*
X114937646Y-81650478D01*
X114970184Y-81702262D01*
X115097738Y-81829816D01*
X115250478Y-81925789D01*
X115360076Y-81964139D01*
X115420745Y-81985368D01*
X115420750Y-81985369D01*
X115599996Y-82005565D01*
X115600000Y-82005565D01*
X115600004Y-82005565D01*
X115779249Y-81985369D01*
X115779252Y-81985368D01*
X115779255Y-81985368D01*
X115949522Y-81925789D01*
X116102262Y-81829816D01*
X116229816Y-81702262D01*
X116325789Y-81549522D01*
X116385368Y-81379255D01*
X116388474Y-81351692D01*
X116405565Y-81200003D01*
X116405565Y-81199996D01*
X116385369Y-81020750D01*
X116385368Y-81020745D01*
X116358665Y-80944432D01*
X116325789Y-80850478D01*
X116229816Y-80697738D01*
X116229814Y-80697736D01*
X116229813Y-80697734D01*
X116227550Y-80694896D01*
X116226659Y-80692715D01*
X116226111Y-80691842D01*
X116226264Y-80691745D01*
X116201144Y-80630209D01*
X116200500Y-80617587D01*
X116200500Y-77333992D01*
X119694500Y-77333992D01*
X119694500Y-77536007D01*
X119733907Y-77734119D01*
X119733909Y-77734127D01*
X119811213Y-77920755D01*
X119843973Y-77969783D01*
X119860444Y-77994435D01*
X119864904Y-78001109D01*
X119885782Y-78067787D01*
X119867297Y-78135167D01*
X119864904Y-78138891D01*
X119811213Y-78219244D01*
X119733909Y-78405872D01*
X119733907Y-78405880D01*
X119694500Y-78603992D01*
X119694500Y-78806007D01*
X119733907Y-79004119D01*
X119733910Y-79004131D01*
X119767547Y-79085338D01*
X119775016Y-79154807D01*
X119755405Y-79199864D01*
X119755895Y-79200132D01*
X119752910Y-79205596D01*
X119752260Y-79207092D01*
X119751646Y-79207911D01*
X119751645Y-79207913D01*
X119701403Y-79342620D01*
X119701401Y-79342627D01*
X119695000Y-79402155D01*
X119695000Y-79725000D01*
X120579134Y-79725000D01*
X120603326Y-79727383D01*
X120606123Y-79727939D01*
X120618995Y-79730499D01*
X120618996Y-79730500D01*
X120618997Y-79730500D01*
X120659170Y-79730500D01*
X120644925Y-79744745D01*
X120595556Y-79830255D01*
X120570000Y-79925630D01*
X120570000Y-80024370D01*
X120595556Y-80119745D01*
X120644925Y-80205255D01*
X120664670Y-80225000D01*
X119695000Y-80225000D01*
X119695000Y-80547844D01*
X119701401Y-80607372D01*
X119701403Y-80607379D01*
X119751645Y-80742086D01*
X119751649Y-80742093D01*
X119837809Y-80857187D01*
X119837812Y-80857190D01*
X119952906Y-80943350D01*
X119952913Y-80943354D01*
X120087620Y-80993596D01*
X120087627Y-80993598D01*
X120147155Y-80999999D01*
X120147172Y-81000000D01*
X120695000Y-81000000D01*
X120695000Y-80255330D01*
X120714745Y-80275075D01*
X120800255Y-80324444D01*
X120895630Y-80350000D01*
X120994370Y-80350000D01*
X121089745Y-80324444D01*
X121175255Y-80275075D01*
X121195000Y-80255330D01*
X121195000Y-81000000D01*
X121742828Y-81000000D01*
X121742844Y-80999999D01*
X121802372Y-80993598D01*
X121802379Y-80993596D01*
X121937086Y-80943354D01*
X121937093Y-80943350D01*
X122052187Y-80857190D01*
X122052190Y-80857187D01*
X122138350Y-80742093D01*
X122138354Y-80742086D01*
X122188596Y-80607379D01*
X122188598Y-80607372D01*
X122194999Y-80547844D01*
X122195000Y-80547827D01*
X122195000Y-80225000D01*
X121225330Y-80225000D01*
X121245075Y-80205255D01*
X121294444Y-80119745D01*
X121320000Y-80024370D01*
X121320000Y-79925630D01*
X121294444Y-79830255D01*
X121245075Y-79744745D01*
X121230830Y-79730500D01*
X121271004Y-79730500D01*
X121271004Y-79730499D01*
X121284473Y-79727820D01*
X121286674Y-79727383D01*
X121310866Y-79725000D01*
X122195000Y-79725000D01*
X122195000Y-79402172D01*
X122194999Y-79402155D01*
X122188598Y-79342627D01*
X122188596Y-79342620D01*
X122138354Y-79207913D01*
X122138353Y-79207911D01*
X122137745Y-79207099D01*
X122137390Y-79206148D01*
X122134103Y-79200128D01*
X122134968Y-79199655D01*
X122113329Y-79141634D01*
X122122452Y-79085338D01*
X122156091Y-79004127D01*
X122195500Y-78806003D01*
X122195500Y-78603997D01*
X122156091Y-78405873D01*
X122078786Y-78219244D01*
X122025094Y-78138889D01*
X122004217Y-78072214D01*
X122022701Y-78004834D01*
X122025078Y-78001134D01*
X122078786Y-77920756D01*
X122156091Y-77734127D01*
X122195500Y-77536003D01*
X122195500Y-77399996D01*
X127194435Y-77399996D01*
X127194435Y-77400003D01*
X127214630Y-77579249D01*
X127214631Y-77579254D01*
X127274211Y-77749523D01*
X127370185Y-77902263D01*
X127372445Y-77905097D01*
X127373334Y-77907275D01*
X127373889Y-77908158D01*
X127373734Y-77908255D01*
X127398855Y-77969783D01*
X127399500Y-77982412D01*
X127399500Y-84017587D01*
X127379815Y-84084626D01*
X127372450Y-84094896D01*
X127370186Y-84097734D01*
X127274211Y-84250476D01*
X127214631Y-84420745D01*
X127214630Y-84420750D01*
X127194435Y-84599996D01*
X127194435Y-84600003D01*
X127214630Y-84779249D01*
X127214631Y-84779254D01*
X127274211Y-84949523D01*
X127360415Y-85086715D01*
X127370184Y-85102262D01*
X127497738Y-85229816D01*
X127650478Y-85325789D01*
X127760076Y-85364139D01*
X127820745Y-85385368D01*
X127820750Y-85385369D01*
X127999996Y-85405565D01*
X128000000Y-85405565D01*
X128000004Y-85405565D01*
X128179249Y-85385369D01*
X128179252Y-85385368D01*
X128179255Y-85385368D01*
X128349522Y-85325789D01*
X128502262Y-85229816D01*
X128629816Y-85102262D01*
X128725789Y-84949522D01*
X128785368Y-84779255D01*
X128787168Y-84763286D01*
X128796586Y-84679690D01*
X128823652Y-84615275D01*
X128881246Y-84575720D01*
X128951083Y-84573581D01*
X129010990Y-84609539D01*
X129041946Y-84672177D01*
X129043334Y-84682763D01*
X129049364Y-84751688D01*
X129049366Y-84751697D01*
X129108258Y-84971488D01*
X129108261Y-84971497D01*
X129204431Y-85177732D01*
X129204432Y-85177734D01*
X129334954Y-85364141D01*
X129495858Y-85525045D01*
X129495861Y-85525047D01*
X129682266Y-85655568D01*
X129715864Y-85671235D01*
X129804221Y-85712437D01*
X129856660Y-85758610D01*
X129875812Y-85825803D01*
X129868858Y-85865773D01*
X129814632Y-86020742D01*
X129814630Y-86020750D01*
X129794435Y-86199996D01*
X129794435Y-86200003D01*
X129814630Y-86379249D01*
X129814633Y-86379262D01*
X129869215Y-86535245D01*
X129874211Y-86549522D01*
X129875491Y-86551559D01*
X129875936Y-86553105D01*
X129877234Y-86555799D01*
X129876776Y-86556019D01*
X129894500Y-86617535D01*
X129894500Y-89558511D01*
X129874815Y-89625550D01*
X129822011Y-89671305D01*
X129817953Y-89673072D01*
X129766140Y-89694533D01*
X129551346Y-89826160D01*
X129551343Y-89826161D01*
X129359776Y-89989776D01*
X129196161Y-90181343D01*
X129196160Y-90181346D01*
X129064533Y-90396140D01*
X128968126Y-90628889D01*
X128909317Y-90873848D01*
X128889551Y-91125000D01*
X128909317Y-91376151D01*
X128968126Y-91621110D01*
X129064533Y-91853859D01*
X129196160Y-92068653D01*
X129196161Y-92068656D01*
X129196164Y-92068659D01*
X129359776Y-92260224D01*
X129499136Y-92379249D01*
X129551343Y-92423838D01*
X129551346Y-92423839D01*
X129766140Y-92555466D01*
X129977014Y-92642812D01*
X129998889Y-92651873D01*
X130243852Y-92710683D01*
X130495000Y-92730449D01*
X130746148Y-92710683D01*
X130991111Y-92651873D01*
X131223859Y-92555466D01*
X131438659Y-92423836D01*
X131630224Y-92260224D01*
X131793836Y-92068659D01*
X131925466Y-91853859D01*
X132021873Y-91621111D01*
X132080683Y-91376148D01*
X132100449Y-91125000D01*
X132080683Y-90873852D01*
X132021873Y-90628889D01*
X132019906Y-90624141D01*
X131925466Y-90396140D01*
X131793839Y-90181346D01*
X131793838Y-90181343D01*
X131751094Y-90131297D01*
X131630224Y-89989776D01*
X131484863Y-89865626D01*
X131438656Y-89826161D01*
X131438653Y-89826160D01*
X131223858Y-89694533D01*
X131223859Y-89694533D01*
X131172047Y-89673072D01*
X131117643Y-89629230D01*
X131095579Y-89562936D01*
X131095500Y-89558511D01*
X131095500Y-86887940D01*
X131115185Y-86820901D01*
X131131819Y-86800259D01*
X131179323Y-86752755D01*
X131229816Y-86702262D01*
X131325789Y-86549522D01*
X131385368Y-86379255D01*
X131393244Y-86309353D01*
X131405565Y-86200003D01*
X131405565Y-86199996D01*
X131385369Y-86020750D01*
X131385368Y-86020745D01*
X131363222Y-85957455D01*
X131325789Y-85850478D01*
X131229816Y-85697738D01*
X131203313Y-85671235D01*
X131169828Y-85609912D01*
X131174812Y-85540220D01*
X131203313Y-85495873D01*
X131338284Y-85360902D01*
X131399607Y-85327417D01*
X131466918Y-85331541D01*
X131509364Y-85346394D01*
X131620737Y-85385366D01*
X131620743Y-85385367D01*
X131620745Y-85385368D01*
X131620746Y-85385368D01*
X131620750Y-85385369D01*
X131799996Y-85405565D01*
X131800000Y-85405565D01*
X131800004Y-85405565D01*
X131979249Y-85385369D01*
X131979252Y-85385368D01*
X131979255Y-85385368D01*
X132149522Y-85325789D01*
X132302262Y-85229816D01*
X132429816Y-85102262D01*
X132525789Y-84949522D01*
X132585368Y-84779255D01*
X132585369Y-84779249D01*
X132605565Y-84600003D01*
X132605565Y-84599996D01*
X132585369Y-84420750D01*
X132585368Y-84420745D01*
X132556593Y-84338511D01*
X132525789Y-84250478D01*
X132507106Y-84220745D01*
X132451511Y-84132266D01*
X132429816Y-84097738D01*
X132429814Y-84097736D01*
X132429813Y-84097734D01*
X132427550Y-84094896D01*
X132426659Y-84092715D01*
X132426111Y-84091842D01*
X132426264Y-84091745D01*
X132401144Y-84030209D01*
X132400500Y-84017587D01*
X132400500Y-81199996D01*
X132994435Y-81199996D01*
X132994435Y-81200003D01*
X133014630Y-81379249D01*
X133014631Y-81379254D01*
X133074211Y-81549523D01*
X133170185Y-81702263D01*
X133172445Y-81705097D01*
X133173334Y-81707275D01*
X133173889Y-81708158D01*
X133173734Y-81708255D01*
X133198855Y-81769783D01*
X133199500Y-81782412D01*
X133199500Y-91617587D01*
X133179815Y-91684626D01*
X133172450Y-91694896D01*
X133170186Y-91697734D01*
X133074211Y-91850476D01*
X133014631Y-92020745D01*
X133014630Y-92020750D01*
X132994435Y-92199996D01*
X132994435Y-92200003D01*
X133014630Y-92379249D01*
X133014631Y-92379254D01*
X133074211Y-92549523D01*
X133157131Y-92681488D01*
X133170184Y-92702262D01*
X133297738Y-92829816D01*
X133450478Y-92925789D01*
X133620745Y-92985368D01*
X133620750Y-92985369D01*
X133799996Y-93005565D01*
X133800000Y-93005565D01*
X133800004Y-93005565D01*
X133979249Y-92985369D01*
X133979252Y-92985368D01*
X133979255Y-92985368D01*
X134149522Y-92925789D01*
X134302262Y-92829816D01*
X134429816Y-92702262D01*
X134525789Y-92549522D01*
X134585368Y-92379255D01*
X134597354Y-92272876D01*
X134605565Y-92200003D01*
X134605565Y-92199996D01*
X134585369Y-92020750D01*
X134585368Y-92020745D01*
X134571545Y-91981242D01*
X134525789Y-91850478D01*
X134429816Y-91697738D01*
X134429814Y-91697736D01*
X134429813Y-91697734D01*
X134427550Y-91694896D01*
X134426659Y-91692715D01*
X134426111Y-91691842D01*
X134426264Y-91691745D01*
X134401144Y-91630209D01*
X134400500Y-91617587D01*
X134400500Y-83540646D01*
X136454500Y-83540646D01*
X136454500Y-83769354D01*
X136464139Y-83830209D01*
X136490278Y-83995246D01*
X136490278Y-83995249D01*
X136560950Y-84212755D01*
X136565024Y-84220750D01*
X136664783Y-84416538D01*
X136799214Y-84601566D01*
X136960934Y-84763286D01*
X136990818Y-84784998D01*
X137045438Y-84824682D01*
X137088103Y-84880013D01*
X137094082Y-84949626D01*
X137061476Y-85011421D01*
X137045438Y-85025318D01*
X136960932Y-85086715D01*
X136799216Y-85248431D01*
X136799216Y-85248432D01*
X136799214Y-85248434D01*
X136771095Y-85287137D01*
X136664783Y-85433461D01*
X136560950Y-85637244D01*
X136490278Y-85854750D01*
X136490278Y-85854753D01*
X136487672Y-85871206D01*
X136454500Y-86080646D01*
X136454500Y-86309354D01*
X136472389Y-86422299D01*
X136490278Y-86535246D01*
X136490278Y-86535249D01*
X136560950Y-86752755D01*
X136664185Y-86955364D01*
X136664783Y-86956538D01*
X136797525Y-87139242D01*
X136821005Y-87205046D01*
X136805180Y-87273100D01*
X136755074Y-87321795D01*
X136740541Y-87328308D01*
X136712670Y-87338703D01*
X136712664Y-87338706D01*
X136597455Y-87424952D01*
X136597452Y-87424955D01*
X136511206Y-87540164D01*
X136511202Y-87540171D01*
X136460908Y-87675017D01*
X136454501Y-87734616D01*
X136454500Y-87734635D01*
X136454500Y-89735370D01*
X136454501Y-89735376D01*
X136460908Y-89794983D01*
X136511202Y-89929828D01*
X136511206Y-89929835D01*
X136597452Y-90045044D01*
X136597455Y-90045047D01*
X136712664Y-90131293D01*
X136712671Y-90131297D01*
X136847517Y-90181591D01*
X136847516Y-90181591D01*
X136854444Y-90182335D01*
X136907127Y-90188000D01*
X139002872Y-90187999D01*
X139062483Y-90181591D01*
X139197331Y-90131296D01*
X139312546Y-90045046D01*
X139376235Y-89959968D01*
X139432167Y-89918099D01*
X139501859Y-89913115D01*
X139563182Y-89946600D01*
X139596666Y-90007923D01*
X139599500Y-90034281D01*
X139599500Y-98005649D01*
X139579815Y-98072688D01*
X139527011Y-98118443D01*
X139457853Y-98128387D01*
X139394297Y-98099362D01*
X139365015Y-98061944D01*
X139335217Y-98003462D01*
X139200786Y-97818434D01*
X139039066Y-97656714D01*
X138854038Y-97522283D01*
X138840476Y-97515373D01*
X138650255Y-97418450D01*
X138432748Y-97347778D01*
X138263326Y-97320944D01*
X138206854Y-97312000D01*
X137883146Y-97312000D01*
X137817869Y-97322339D01*
X137657253Y-97347778D01*
X137657250Y-97347778D01*
X137439744Y-97418450D01*
X137235961Y-97522283D01*
X137130396Y-97598980D01*
X137050934Y-97656714D01*
X137050932Y-97656716D01*
X137050931Y-97656716D01*
X136889216Y-97818431D01*
X136889216Y-97818432D01*
X136889214Y-97818434D01*
X136865934Y-97850476D01*
X136754783Y-98003461D01*
X136650950Y-98207244D01*
X136580278Y-98424750D01*
X136580278Y-98424753D01*
X136544500Y-98650646D01*
X136544500Y-98879353D01*
X136580278Y-99105246D01*
X136580278Y-99105249D01*
X136650950Y-99322755D01*
X136724985Y-99468056D01*
X136754783Y-99526538D01*
X136889214Y-99711566D01*
X137050934Y-99873286D01*
X137120423Y-99923773D01*
X137135438Y-99934682D01*
X137178103Y-99990013D01*
X137184082Y-100059626D01*
X137151476Y-100121421D01*
X137135438Y-100135318D01*
X137050932Y-100196715D01*
X136889216Y-100358431D01*
X136889216Y-100358432D01*
X136889214Y-100358434D01*
X136853246Y-100407940D01*
X136754783Y-100543461D01*
X136650950Y-100747244D01*
X136580278Y-100964750D01*
X136580278Y-100964753D01*
X136544500Y-101190646D01*
X136544500Y-101419353D01*
X136580278Y-101645246D01*
X136580278Y-101645249D01*
X136650950Y-101862755D01*
X136650952Y-101862758D01*
X136754783Y-102066538D01*
X136887525Y-102249242D01*
X136911005Y-102315046D01*
X136895180Y-102383100D01*
X136845074Y-102431795D01*
X136830541Y-102438308D01*
X136802670Y-102448703D01*
X136802664Y-102448706D01*
X136687455Y-102534952D01*
X136687452Y-102534955D01*
X136601206Y-102650164D01*
X136601202Y-102650171D01*
X136550908Y-102785017D01*
X136544501Y-102844616D01*
X136544500Y-102844635D01*
X136544500Y-104845370D01*
X136544501Y-104845376D01*
X136550908Y-104904983D01*
X136601202Y-105039828D01*
X136601206Y-105039835D01*
X136687452Y-105155044D01*
X136687455Y-105155047D01*
X136802664Y-105241293D01*
X136802671Y-105241297D01*
X136937517Y-105291591D01*
X136937516Y-105291591D01*
X136944444Y-105292335D01*
X136997127Y-105298000D01*
X139092872Y-105297999D01*
X139152483Y-105291591D01*
X139287331Y-105241296D01*
X139401189Y-105156062D01*
X139466653Y-105131644D01*
X139534926Y-105146495D01*
X139584332Y-105195900D01*
X139599500Y-105255328D01*
X139599500Y-108885649D01*
X139579815Y-108952688D01*
X139527011Y-108998443D01*
X139457853Y-109008387D01*
X139394297Y-108979362D01*
X139365015Y-108941944D01*
X139335217Y-108883462D01*
X139200786Y-108698434D01*
X139039066Y-108536714D01*
X138854038Y-108402283D01*
X138818140Y-108383992D01*
X138650255Y-108298450D01*
X138432748Y-108227778D01*
X138263326Y-108200944D01*
X138206854Y-108192000D01*
X137883146Y-108192000D01*
X137807849Y-108203926D01*
X137657253Y-108227778D01*
X137657250Y-108227778D01*
X137439744Y-108298450D01*
X137235961Y-108402283D01*
X137130396Y-108478980D01*
X137050934Y-108536714D01*
X137050932Y-108536716D01*
X137050931Y-108536716D01*
X136889216Y-108698431D01*
X136889216Y-108698432D01*
X136889214Y-108698434D01*
X136852096Y-108749523D01*
X136754783Y-108883461D01*
X136650950Y-109087244D01*
X136580278Y-109304750D01*
X136580278Y-109304753D01*
X136569152Y-109375000D01*
X136544500Y-109530646D01*
X136544500Y-109759354D01*
X136562389Y-109872299D01*
X136580278Y-109985246D01*
X136580278Y-109985249D01*
X136650950Y-110202755D01*
X136717050Y-110332483D01*
X136754783Y-110406538D01*
X136889214Y-110591566D01*
X137050934Y-110753286D01*
X137088391Y-110780500D01*
X137135438Y-110814682D01*
X137178103Y-110870013D01*
X137184082Y-110939626D01*
X137151476Y-111001421D01*
X137135438Y-111015318D01*
X137050932Y-111076715D01*
X136889216Y-111238431D01*
X136889216Y-111238432D01*
X136889214Y-111238434D01*
X136876993Y-111255255D01*
X136754783Y-111423461D01*
X136650950Y-111627244D01*
X136580278Y-111844750D01*
X136580278Y-111844753D01*
X136544500Y-112070646D01*
X136544500Y-112299353D01*
X136580278Y-112525246D01*
X136580278Y-112525249D01*
X136650950Y-112742755D01*
X136722240Y-112882669D01*
X136754783Y-112946538D01*
X136887525Y-113129242D01*
X136911005Y-113195046D01*
X136895180Y-113263100D01*
X136845074Y-113311795D01*
X136830541Y-113318308D01*
X136802670Y-113328703D01*
X136802664Y-113328706D01*
X136687455Y-113414952D01*
X136687452Y-113414955D01*
X136601206Y-113530164D01*
X136601202Y-113530171D01*
X136550908Y-113665017D01*
X136544501Y-113724616D01*
X136544500Y-113724635D01*
X136544500Y-115725370D01*
X136544501Y-115725376D01*
X136550908Y-115784983D01*
X136601202Y-115919828D01*
X136601206Y-115919835D01*
X136687452Y-116035044D01*
X136687455Y-116035047D01*
X136802664Y-116121293D01*
X136802671Y-116121297D01*
X136937517Y-116171591D01*
X136937516Y-116171591D01*
X136944444Y-116172335D01*
X136997127Y-116178000D01*
X139092872Y-116177999D01*
X139152483Y-116171591D01*
X139287331Y-116121296D01*
X139402546Y-116035046D01*
X139488796Y-115919831D01*
X139539091Y-115784983D01*
X139545500Y-115725373D01*
X139545500Y-115674998D01*
X144769532Y-115674998D01*
X144769532Y-115675001D01*
X144789364Y-115901686D01*
X144789366Y-115901697D01*
X144848258Y-116121488D01*
X144848261Y-116121497D01*
X144944431Y-116327732D01*
X144944432Y-116327734D01*
X145074954Y-116514141D01*
X145235858Y-116675045D01*
X145235861Y-116675047D01*
X145422266Y-116805568D01*
X145628504Y-116901739D01*
X145848308Y-116960635D01*
X146010230Y-116974801D01*
X146074998Y-116980468D01*
X146075000Y-116980468D01*
X146075002Y-116980468D01*
X146131673Y-116975509D01*
X146301692Y-116960635D01*
X146521496Y-116901739D01*
X146727734Y-116805568D01*
X146914139Y-116675047D01*
X147075047Y-116514139D01*
X147205568Y-116327734D01*
X147301739Y-116121496D01*
X147360635Y-115901692D01*
X147380468Y-115675000D01*
X147360635Y-115448308D01*
X147354389Y-115424999D01*
X154956127Y-115424999D01*
X154956128Y-115425000D01*
X155919314Y-115425000D01*
X155914920Y-115429394D01*
X155862259Y-115520606D01*
X155835000Y-115622339D01*
X155835000Y-115727661D01*
X155862259Y-115829394D01*
X155914920Y-115920606D01*
X155919314Y-115925000D01*
X154956128Y-115925000D01*
X155008730Y-116121317D01*
X155008734Y-116121326D01*
X155104865Y-116327482D01*
X155235342Y-116513820D01*
X155396179Y-116674657D01*
X155582517Y-116805134D01*
X155788673Y-116901265D01*
X155788682Y-116901269D01*
X155984999Y-116953872D01*
X155985000Y-116953871D01*
X155985000Y-115990686D01*
X155989394Y-115995080D01*
X156080606Y-116047741D01*
X156182339Y-116075000D01*
X156287661Y-116075000D01*
X156389394Y-116047741D01*
X156480606Y-115995080D01*
X156485000Y-115990686D01*
X156485000Y-116953872D01*
X156681317Y-116901269D01*
X156681326Y-116901265D01*
X156887482Y-116805134D01*
X157073820Y-116674657D01*
X157234657Y-116513820D01*
X157365134Y-116327482D01*
X157461265Y-116121326D01*
X157461269Y-116121317D01*
X157513872Y-115925000D01*
X156550686Y-115925000D01*
X156555080Y-115920606D01*
X156607741Y-115829394D01*
X156635000Y-115727661D01*
X156635000Y-115622339D01*
X156607741Y-115520606D01*
X156555080Y-115429394D01*
X156550686Y-115425000D01*
X157513872Y-115425000D01*
X157513872Y-115424999D01*
X157461269Y-115228682D01*
X157461265Y-115228673D01*
X157365134Y-115022517D01*
X157234657Y-114836179D01*
X157073820Y-114675342D01*
X156887482Y-114544865D01*
X156681328Y-114448734D01*
X156485000Y-114396127D01*
X156485000Y-115359314D01*
X156480606Y-115354920D01*
X156389394Y-115302259D01*
X156287661Y-115275000D01*
X156182339Y-115275000D01*
X156080606Y-115302259D01*
X155989394Y-115354920D01*
X155985000Y-115359314D01*
X155985000Y-114396127D01*
X155788671Y-114448734D01*
X155582517Y-114544865D01*
X155396179Y-114675342D01*
X155235342Y-114836179D01*
X155104865Y-115022517D01*
X155008734Y-115228673D01*
X155008730Y-115228682D01*
X154956127Y-115424999D01*
X147354389Y-115424999D01*
X147301739Y-115228504D01*
X147205568Y-115022266D01*
X147075047Y-114835861D01*
X147075045Y-114835858D01*
X146914141Y-114674954D01*
X146727734Y-114544432D01*
X146727732Y-114544431D01*
X146521497Y-114448261D01*
X146521488Y-114448258D01*
X146301697Y-114389366D01*
X146301693Y-114389365D01*
X146301692Y-114389365D01*
X146301691Y-114389364D01*
X146301686Y-114389364D01*
X146075002Y-114369532D01*
X146074998Y-114369532D01*
X145848313Y-114389364D01*
X145848302Y-114389366D01*
X145628511Y-114448258D01*
X145628502Y-114448261D01*
X145422267Y-114544431D01*
X145422265Y-114544432D01*
X145235858Y-114674954D01*
X145074954Y-114835858D01*
X144944432Y-115022265D01*
X144944431Y-115022267D01*
X144848261Y-115228502D01*
X144848258Y-115228511D01*
X144789366Y-115448302D01*
X144789364Y-115448313D01*
X144769532Y-115674998D01*
X139545500Y-115674998D01*
X139545499Y-115374885D01*
X139565183Y-115307849D01*
X139617987Y-115262094D01*
X139687146Y-115252150D01*
X139750701Y-115281175D01*
X139766442Y-115297571D01*
X139770180Y-115302258D01*
X139770184Y-115302262D01*
X139897738Y-115429816D01*
X140050478Y-115525789D01*
X140076802Y-115535000D01*
X140220745Y-115585368D01*
X140220750Y-115585369D01*
X140399996Y-115605565D01*
X140400000Y-115605565D01*
X140400004Y-115605565D01*
X140579249Y-115585369D01*
X140579252Y-115585368D01*
X140579255Y-115585368D01*
X140749522Y-115525789D01*
X140902262Y-115429816D01*
X141029816Y-115302262D01*
X141125789Y-115149522D01*
X141185368Y-114979255D01*
X141186711Y-114967335D01*
X141205565Y-114800003D01*
X141205565Y-114799996D01*
X141185369Y-114620750D01*
X141185368Y-114620745D01*
X141158665Y-114544432D01*
X141125789Y-114450478D01*
X141029816Y-114297738D01*
X140902262Y-114170184D01*
X140902261Y-114170183D01*
X140858528Y-114142704D01*
X140812237Y-114090370D01*
X140800500Y-114037710D01*
X140800500Y-89521842D01*
X140820185Y-89454803D01*
X140872989Y-89409048D01*
X140938382Y-89398622D01*
X140991675Y-89404627D01*
X140999999Y-89405565D01*
X141000000Y-89405565D01*
X141000004Y-89405565D01*
X141179249Y-89385369D01*
X141179252Y-89385368D01*
X141179255Y-89385368D01*
X141349522Y-89325789D01*
X141502262Y-89229816D01*
X141629816Y-89102262D01*
X141725789Y-88949522D01*
X141785368Y-88779255D01*
X141785369Y-88779249D01*
X141805565Y-88600003D01*
X141805565Y-88599996D01*
X141785369Y-88420750D01*
X141785368Y-88420745D01*
X141765117Y-88362870D01*
X141725789Y-88250478D01*
X141707106Y-88220745D01*
X141629813Y-88097734D01*
X141627550Y-88094896D01*
X141626659Y-88092715D01*
X141626111Y-88091842D01*
X141626264Y-88091745D01*
X141601144Y-88030209D01*
X141600500Y-88017587D01*
X141600500Y-78799996D01*
X142194435Y-78799996D01*
X142194435Y-78800003D01*
X142214630Y-78979249D01*
X142214631Y-78979254D01*
X142274211Y-79149523D01*
X142370185Y-79302263D01*
X142372445Y-79305097D01*
X142373334Y-79307275D01*
X142373889Y-79308158D01*
X142373734Y-79308255D01*
X142398855Y-79369783D01*
X142399500Y-79382412D01*
X142399500Y-87817587D01*
X142379815Y-87884626D01*
X142372450Y-87894896D01*
X142370186Y-87897734D01*
X142274211Y-88050476D01*
X142214631Y-88220745D01*
X142214630Y-88220750D01*
X142194435Y-88399996D01*
X142194435Y-88400003D01*
X142214630Y-88579249D01*
X142214631Y-88579254D01*
X142274211Y-88749523D01*
X142313535Y-88812106D01*
X142350617Y-88871122D01*
X142370185Y-88902263D01*
X142372445Y-88905097D01*
X142373334Y-88907275D01*
X142373889Y-88908158D01*
X142373734Y-88908255D01*
X142398855Y-88969783D01*
X142399500Y-88982412D01*
X142399500Y-93617587D01*
X142379815Y-93684626D01*
X142372450Y-93694896D01*
X142370186Y-93697734D01*
X142274211Y-93850476D01*
X142214631Y-94020745D01*
X142214630Y-94020750D01*
X142194435Y-94199996D01*
X142194435Y-94200003D01*
X142214630Y-94379249D01*
X142214631Y-94379254D01*
X142274211Y-94549523D01*
X142326946Y-94633449D01*
X142370184Y-94702262D01*
X142497738Y-94829816D01*
X142650478Y-94925789D01*
X142800497Y-94978283D01*
X142820745Y-94985368D01*
X142820750Y-94985369D01*
X142999996Y-95005565D01*
X143000000Y-95005565D01*
X143000001Y-95005565D01*
X143008324Y-95004627D01*
X143061617Y-94998622D01*
X143130437Y-95010676D01*
X143181817Y-95058024D01*
X143199500Y-95121842D01*
X143199500Y-100617587D01*
X143179815Y-100684626D01*
X143172450Y-100694896D01*
X143170186Y-100697734D01*
X143074211Y-100850476D01*
X143014631Y-101020745D01*
X143014630Y-101020750D01*
X142994435Y-101199996D01*
X142994435Y-101200003D01*
X143014630Y-101379249D01*
X143014631Y-101379254D01*
X143074211Y-101549523D01*
X143170185Y-101702263D01*
X143172445Y-101705097D01*
X143173334Y-101707275D01*
X143173889Y-101708158D01*
X143173734Y-101708255D01*
X143198855Y-101769783D01*
X143199500Y-101782412D01*
X143199500Y-109017587D01*
X143179815Y-109084626D01*
X143172450Y-109094896D01*
X143170186Y-109097734D01*
X143074211Y-109250476D01*
X143014631Y-109420745D01*
X143014630Y-109420750D01*
X142994435Y-109599996D01*
X142994435Y-109600003D01*
X143014630Y-109779249D01*
X143014631Y-109779254D01*
X143074211Y-109949523D01*
X143135408Y-110046916D01*
X143170184Y-110102262D01*
X143297738Y-110229816D01*
X143366258Y-110272870D01*
X143413036Y-110302263D01*
X143450478Y-110325789D01*
X143576206Y-110369783D01*
X143620745Y-110385368D01*
X143620750Y-110385369D01*
X143799996Y-110405565D01*
X143800000Y-110405565D01*
X143800004Y-110405565D01*
X143979249Y-110385369D01*
X143979252Y-110385368D01*
X143979255Y-110385368D01*
X144149522Y-110325789D01*
X144302262Y-110229816D01*
X144429816Y-110102262D01*
X144435505Y-110093206D01*
X144487834Y-110046916D01*
X144556887Y-110036264D01*
X144620737Y-110064635D01*
X144659112Y-110123022D01*
X144664500Y-110159175D01*
X144664500Y-110272870D01*
X144664501Y-110272876D01*
X144670908Y-110332483D01*
X144721202Y-110467328D01*
X144721206Y-110467335D01*
X144807452Y-110582544D01*
X144807455Y-110582547D01*
X144922664Y-110668793D01*
X144922671Y-110668797D01*
X145057517Y-110719091D01*
X145057516Y-110719091D01*
X145064444Y-110719835D01*
X145117127Y-110725500D01*
X147412872Y-110725499D01*
X147472483Y-110719091D01*
X147607331Y-110668796D01*
X147722546Y-110582546D01*
X147808796Y-110467331D01*
X147859091Y-110332483D01*
X147865500Y-110272873D01*
X147865499Y-108874999D01*
X154839728Y-108874999D01*
X154839729Y-108875000D01*
X155934252Y-108875000D01*
X155912482Y-108912708D01*
X155875000Y-109052591D01*
X155875000Y-109197409D01*
X155912482Y-109337292D01*
X155934252Y-109375000D01*
X154839728Y-109375000D01*
X154839811Y-109376067D01*
X154898603Y-109620956D01*
X154994980Y-109853631D01*
X155126568Y-110068362D01*
X155126571Y-110068367D01*
X155290130Y-110259869D01*
X155481632Y-110423428D01*
X155481637Y-110423431D01*
X155696368Y-110555019D01*
X155929043Y-110651396D01*
X156173932Y-110710188D01*
X156175000Y-110710271D01*
X156175000Y-109615747D01*
X156212708Y-109637518D01*
X156352591Y-109675000D01*
X156497409Y-109675000D01*
X156637292Y-109637518D01*
X156675000Y-109615747D01*
X156675000Y-110710271D01*
X156676067Y-110710188D01*
X156920956Y-110651396D01*
X157153631Y-110555019D01*
X157368362Y-110423431D01*
X157368367Y-110423428D01*
X157559869Y-110259869D01*
X157723428Y-110068367D01*
X157723431Y-110068362D01*
X157855019Y-109853631D01*
X157951396Y-109620956D01*
X158010188Y-109376067D01*
X158010272Y-109375000D01*
X156915748Y-109375000D01*
X156937518Y-109337292D01*
X156975000Y-109197409D01*
X156975000Y-109052591D01*
X156937518Y-108912708D01*
X156915748Y-108875000D01*
X158010271Y-108875000D01*
X158010271Y-108874999D01*
X158010188Y-108873932D01*
X157951396Y-108629043D01*
X157855019Y-108396368D01*
X157723431Y-108181637D01*
X157723428Y-108181632D01*
X157559869Y-107990130D01*
X157368367Y-107826571D01*
X157368362Y-107826568D01*
X157153631Y-107694980D01*
X156920956Y-107598603D01*
X156676064Y-107539811D01*
X156675000Y-107539726D01*
X156675000Y-108634252D01*
X156637292Y-108612482D01*
X156497409Y-108575000D01*
X156352591Y-108575000D01*
X156212708Y-108612482D01*
X156175000Y-108634252D01*
X156175000Y-107539726D01*
X156173935Y-107539811D01*
X155929043Y-107598603D01*
X155696368Y-107694980D01*
X155481637Y-107826568D01*
X155481632Y-107826571D01*
X155290130Y-107990130D01*
X155126571Y-108181632D01*
X155126568Y-108181637D01*
X154994980Y-108396368D01*
X154898603Y-108629043D01*
X154839811Y-108873932D01*
X154839728Y-108874999D01*
X147865499Y-108874999D01*
X147865499Y-107977128D01*
X147859091Y-107917517D01*
X147853401Y-107902262D01*
X147808797Y-107782671D01*
X147808793Y-107782664D01*
X147722547Y-107667455D01*
X147722544Y-107667452D01*
X147607335Y-107581206D01*
X147607328Y-107581202D01*
X147472482Y-107530908D01*
X147472483Y-107530908D01*
X147412883Y-107524501D01*
X147412881Y-107524500D01*
X147412873Y-107524500D01*
X147412864Y-107524500D01*
X145117129Y-107524500D01*
X145117123Y-107524501D01*
X145057516Y-107530908D01*
X144922671Y-107581202D01*
X144922664Y-107581206D01*
X144807455Y-107667452D01*
X144807452Y-107667455D01*
X144721206Y-107782664D01*
X144721202Y-107782671D01*
X144670908Y-107917517D01*
X144664501Y-107977116D01*
X144664501Y-107977123D01*
X144664500Y-107977135D01*
X144664500Y-109040822D01*
X144644815Y-109107861D01*
X144592011Y-109153616D01*
X144522853Y-109163560D01*
X144459297Y-109134535D01*
X144435506Y-109106794D01*
X144429813Y-109097734D01*
X144427550Y-109094896D01*
X144426659Y-109092715D01*
X144426111Y-109091842D01*
X144426264Y-109091745D01*
X144401144Y-109030209D01*
X144400500Y-109017587D01*
X144400500Y-104984998D01*
X144769532Y-104984998D01*
X144769532Y-104985001D01*
X144789364Y-105211686D01*
X144789366Y-105211697D01*
X144848258Y-105431488D01*
X144848261Y-105431497D01*
X144944431Y-105637732D01*
X144944432Y-105637734D01*
X145074954Y-105824141D01*
X145235858Y-105985045D01*
X145235861Y-105985047D01*
X145422266Y-106115568D01*
X145628504Y-106211739D01*
X145628509Y-106211740D01*
X145628511Y-106211741D01*
X145659611Y-106220074D01*
X145848308Y-106270635D01*
X146010230Y-106284801D01*
X146074998Y-106290468D01*
X146075000Y-106290468D01*
X146075002Y-106290468D01*
X146131673Y-106285509D01*
X146301692Y-106270635D01*
X146521496Y-106211739D01*
X146727734Y-106115568D01*
X146914139Y-105985047D01*
X147075047Y-105824139D01*
X147205568Y-105637734D01*
X147301739Y-105431496D01*
X147360635Y-105211692D01*
X147380468Y-104985000D01*
X147360635Y-104758308D01*
X147301739Y-104538504D01*
X147205568Y-104332266D01*
X147075047Y-104145861D01*
X147075045Y-104145858D01*
X146914141Y-103984954D01*
X146727734Y-103854432D01*
X146727732Y-103854431D01*
X146521497Y-103758261D01*
X146521488Y-103758258D01*
X146301697Y-103699366D01*
X146301693Y-103699365D01*
X146301692Y-103699365D01*
X146301691Y-103699364D01*
X146301686Y-103699364D01*
X146075002Y-103679532D01*
X146074998Y-103679532D01*
X145848313Y-103699364D01*
X145848302Y-103699366D01*
X145628511Y-103758258D01*
X145628502Y-103758261D01*
X145422267Y-103854431D01*
X145422265Y-103854432D01*
X145235858Y-103984954D01*
X145074954Y-104145858D01*
X144944432Y-104332265D01*
X144944431Y-104332267D01*
X144848261Y-104538502D01*
X144848258Y-104538511D01*
X144789366Y-104758302D01*
X144789364Y-104758313D01*
X144769532Y-104984998D01*
X144400500Y-104984998D01*
X144400500Y-101782412D01*
X144420185Y-101715373D01*
X144427555Y-101705097D01*
X144429810Y-101702267D01*
X144429816Y-101702262D01*
X144525789Y-101549522D01*
X144585368Y-101379255D01*
X144585369Y-101379249D01*
X144605565Y-101200003D01*
X144605565Y-101199996D01*
X144585369Y-101020750D01*
X144585368Y-101020745D01*
X144565776Y-100964755D01*
X144525789Y-100850478D01*
X144429816Y-100697738D01*
X144429814Y-100697736D01*
X144429813Y-100697734D01*
X144427550Y-100694896D01*
X144426659Y-100692715D01*
X144426111Y-100691842D01*
X144426264Y-100691745D01*
X144401144Y-100630209D01*
X144400500Y-100617587D01*
X144400500Y-96999996D01*
X146994435Y-96999996D01*
X146994435Y-97000003D01*
X147014630Y-97179249D01*
X147014631Y-97179254D01*
X147074211Y-97349523D01*
X147123309Y-97427661D01*
X147153050Y-97474994D01*
X147170185Y-97502263D01*
X147172445Y-97505097D01*
X147173334Y-97507275D01*
X147173889Y-97508158D01*
X147173734Y-97508255D01*
X147198855Y-97569783D01*
X147199500Y-97582412D01*
X147199500Y-102617587D01*
X147179815Y-102684626D01*
X147172450Y-102694896D01*
X147170186Y-102697734D01*
X147074211Y-102850476D01*
X147014631Y-103020745D01*
X147014630Y-103020750D01*
X146994435Y-103199996D01*
X146994435Y-103200003D01*
X147014630Y-103379249D01*
X147014631Y-103379254D01*
X147074211Y-103549523D01*
X147123843Y-103628511D01*
X147170184Y-103702262D01*
X147297738Y-103829816D01*
X147450478Y-103925789D01*
X147619559Y-103984953D01*
X147620745Y-103985368D01*
X147620750Y-103985369D01*
X147799996Y-104005565D01*
X147800000Y-104005565D01*
X147800004Y-104005565D01*
X147979249Y-103985369D01*
X147979252Y-103985368D01*
X147979255Y-103985368D01*
X148149522Y-103925789D01*
X148302262Y-103829816D01*
X148429816Y-103702262D01*
X148525789Y-103549522D01*
X148585368Y-103379255D01*
X148589453Y-103342999D01*
X148605565Y-103200003D01*
X148605565Y-103199996D01*
X148585369Y-103020750D01*
X148585368Y-103020745D01*
X148558665Y-102944432D01*
X148525789Y-102850478D01*
X148429816Y-102697738D01*
X148429814Y-102697736D01*
X148429813Y-102697734D01*
X148427550Y-102694896D01*
X148426659Y-102692715D01*
X148426111Y-102691842D01*
X148426264Y-102691745D01*
X148401144Y-102630209D01*
X148400500Y-102617587D01*
X148400500Y-97582412D01*
X148420185Y-97515373D01*
X148427555Y-97505097D01*
X148429810Y-97502267D01*
X148429816Y-97502262D01*
X148525789Y-97349522D01*
X148585368Y-97179255D01*
X148585369Y-97179249D01*
X148605565Y-97000003D01*
X148605565Y-96999996D01*
X148585369Y-96820750D01*
X148585368Y-96820745D01*
X148525788Y-96650476D01*
X148462791Y-96550217D01*
X148429816Y-96497738D01*
X148302262Y-96370184D01*
X148297610Y-96367261D01*
X148149523Y-96274211D01*
X147979254Y-96214631D01*
X147979249Y-96214630D01*
X147800004Y-96194435D01*
X147799996Y-96194435D01*
X147620750Y-96214630D01*
X147620745Y-96214631D01*
X147450476Y-96274211D01*
X147297737Y-96370184D01*
X147170184Y-96497737D01*
X147074211Y-96650476D01*
X147014631Y-96820745D01*
X147014630Y-96820750D01*
X146994435Y-96999996D01*
X144400500Y-96999996D01*
X144400500Y-94824998D01*
X144769532Y-94824998D01*
X144769532Y-94825001D01*
X144789364Y-95051686D01*
X144789366Y-95051697D01*
X144848258Y-95271488D01*
X144848261Y-95271497D01*
X144944431Y-95477732D01*
X144944432Y-95477734D01*
X145074954Y-95664141D01*
X145235858Y-95825045D01*
X145235861Y-95825047D01*
X145422266Y-95955568D01*
X145628504Y-96051739D01*
X145628509Y-96051740D01*
X145628511Y-96051741D01*
X145670292Y-96062936D01*
X145848308Y-96110635D01*
X146010230Y-96124801D01*
X146074998Y-96130468D01*
X146075000Y-96130468D01*
X146075002Y-96130468D01*
X146131673Y-96125509D01*
X146301692Y-96110635D01*
X146521496Y-96051739D01*
X146727734Y-95955568D01*
X146914139Y-95825047D01*
X147075047Y-95664139D01*
X147205568Y-95477734D01*
X147301739Y-95271496D01*
X147360635Y-95051692D01*
X147380468Y-94825000D01*
X147378280Y-94799996D01*
X147360635Y-94598313D01*
X147360635Y-94598308D01*
X147301739Y-94378504D01*
X147205568Y-94172266D01*
X147099473Y-94020745D01*
X147075045Y-93985858D01*
X146914141Y-93824954D01*
X146727734Y-93694432D01*
X146727732Y-93694431D01*
X146641112Y-93654039D01*
X146588673Y-93607866D01*
X146569521Y-93540672D01*
X146589737Y-93473791D01*
X146641110Y-93429276D01*
X146777734Y-93365568D01*
X146964139Y-93235047D01*
X147125047Y-93074139D01*
X147255568Y-92887734D01*
X147351739Y-92681496D01*
X147410635Y-92461692D01*
X147430468Y-92235000D01*
X147410635Y-92008308D01*
X147365916Y-91841415D01*
X147351741Y-91788511D01*
X147351738Y-91788502D01*
X147309412Y-91697734D01*
X147255568Y-91582266D01*
X147125047Y-91395861D01*
X147125045Y-91395858D01*
X146964141Y-91234954D01*
X146914215Y-91199996D01*
X148994435Y-91199996D01*
X148994435Y-91200003D01*
X149014630Y-91379249D01*
X149014631Y-91379254D01*
X149074211Y-91549523D01*
X149094785Y-91582266D01*
X149167341Y-91697738D01*
X149170185Y-91702263D01*
X149172445Y-91705097D01*
X149173334Y-91707275D01*
X149173889Y-91708158D01*
X149173734Y-91708255D01*
X149198855Y-91769783D01*
X149199500Y-91782412D01*
X149199500Y-97617587D01*
X149179815Y-97684626D01*
X149172450Y-97694896D01*
X149170186Y-97697734D01*
X149074211Y-97850476D01*
X149014631Y-98020745D01*
X149014630Y-98020750D01*
X148994435Y-98199996D01*
X148994435Y-98200003D01*
X149014630Y-98379249D01*
X149014631Y-98379254D01*
X149074211Y-98549523D01*
X149145694Y-98663286D01*
X149170184Y-98702262D01*
X149297738Y-98829816D01*
X149335953Y-98853828D01*
X149447374Y-98923839D01*
X149450478Y-98925789D01*
X149475576Y-98934571D01*
X149620745Y-98985368D01*
X149620750Y-98985369D01*
X149799996Y-99005565D01*
X149800000Y-99005565D01*
X149800004Y-99005565D01*
X149979249Y-98985369D01*
X149979252Y-98985368D01*
X149979255Y-98985368D01*
X150149522Y-98925789D01*
X150302262Y-98829816D01*
X150429816Y-98702262D01*
X150525789Y-98549522D01*
X150585368Y-98379255D01*
X150587347Y-98361690D01*
X150605565Y-98200003D01*
X150605565Y-98199996D01*
X150585369Y-98020750D01*
X150585368Y-98020745D01*
X150525788Y-97850476D01*
X150449178Y-97728553D01*
X150429816Y-97697738D01*
X150429814Y-97697736D01*
X150429813Y-97697734D01*
X150427550Y-97694896D01*
X150426659Y-97692715D01*
X150426111Y-97691842D01*
X150426264Y-97691745D01*
X150401144Y-97630209D01*
X150400500Y-97617587D01*
X150400500Y-95954635D01*
X152384500Y-95954635D01*
X152384500Y-97955370D01*
X152384501Y-97955376D01*
X152390908Y-98014983D01*
X152441202Y-98149828D01*
X152441206Y-98149835D01*
X152527452Y-98265044D01*
X152527455Y-98265047D01*
X152642664Y-98351293D01*
X152642669Y-98351296D01*
X152670539Y-98361690D01*
X152726473Y-98403561D01*
X152750891Y-98469024D01*
X152736040Y-98537298D01*
X152727525Y-98550759D01*
X152594783Y-98733461D01*
X152490950Y-98937244D01*
X152420278Y-99154750D01*
X152420278Y-99154753D01*
X152397632Y-99297734D01*
X152384500Y-99380646D01*
X152384500Y-99609354D01*
X152399664Y-99705097D01*
X152420278Y-99835246D01*
X152420278Y-99835249D01*
X152490950Y-100052755D01*
X152564301Y-100196714D01*
X152594783Y-100256538D01*
X152729214Y-100441566D01*
X152890934Y-100603286D01*
X152975864Y-100664991D01*
X153018529Y-100720321D01*
X153024508Y-100789935D01*
X152991902Y-100851730D01*
X152975864Y-100865627D01*
X152891257Y-100927097D01*
X152729597Y-101088757D01*
X152595211Y-101273723D01*
X152491417Y-101477429D01*
X152420765Y-101694871D01*
X152406491Y-101785000D01*
X153394252Y-101785000D01*
X153372482Y-101822708D01*
X153335000Y-101962591D01*
X153335000Y-102107409D01*
X153372482Y-102247292D01*
X153394252Y-102285000D01*
X152406491Y-102285000D01*
X152420765Y-102375128D01*
X152491417Y-102592570D01*
X152595211Y-102796276D01*
X152729597Y-102981242D01*
X152891257Y-103142902D01*
X153076223Y-103277288D01*
X153279929Y-103381082D01*
X153497371Y-103451734D01*
X153635000Y-103473532D01*
X153635000Y-102525747D01*
X153672708Y-102547518D01*
X153812591Y-102585000D01*
X153957409Y-102585000D01*
X154097292Y-102547518D01*
X154135000Y-102525747D01*
X154135000Y-103473531D01*
X154272628Y-103451734D01*
X154490070Y-103381082D01*
X154693776Y-103277288D01*
X154878742Y-103142902D01*
X155040402Y-102981242D01*
X155174788Y-102796276D01*
X155278582Y-102592570D01*
X155349234Y-102375128D01*
X155363509Y-102285000D01*
X154375748Y-102285000D01*
X154397518Y-102247292D01*
X154435000Y-102107409D01*
X154435000Y-101962591D01*
X154397518Y-101822708D01*
X154375748Y-101785000D01*
X155363509Y-101785000D01*
X155349234Y-101694871D01*
X155278582Y-101477429D01*
X155174788Y-101273723D01*
X155040402Y-101088757D01*
X154878742Y-100927097D01*
X154794135Y-100865626D01*
X154751470Y-100810296D01*
X154745491Y-100740682D01*
X154778097Y-100678887D01*
X154794125Y-100664999D01*
X154879066Y-100603286D01*
X155040786Y-100441566D01*
X155175217Y-100256538D01*
X155279048Y-100052758D01*
X155299435Y-99990013D01*
X155349721Y-99835249D01*
X155349721Y-99835248D01*
X155349722Y-99835245D01*
X155385500Y-99609354D01*
X155385500Y-99380646D01*
X155349722Y-99154755D01*
X155349721Y-99154751D01*
X155349721Y-99154750D01*
X155279049Y-98937244D01*
X155266083Y-98911797D01*
X155175217Y-98733462D01*
X155042472Y-98550755D01*
X155018994Y-98484953D01*
X155034819Y-98416899D01*
X155084925Y-98368204D01*
X155099455Y-98361692D01*
X155127331Y-98351296D01*
X155242546Y-98265046D01*
X155328796Y-98149831D01*
X155379091Y-98014983D01*
X155385500Y-97955373D01*
X155385499Y-95954628D01*
X155379091Y-95895017D01*
X155365950Y-95859785D01*
X155328797Y-95760171D01*
X155328793Y-95760164D01*
X155242547Y-95644955D01*
X155242544Y-95644952D01*
X155127335Y-95558706D01*
X155127328Y-95558702D01*
X154992482Y-95508408D01*
X154992483Y-95508408D01*
X154932883Y-95502001D01*
X154932881Y-95502000D01*
X154932873Y-95502000D01*
X154932864Y-95502000D01*
X152837129Y-95502000D01*
X152837123Y-95502001D01*
X152777516Y-95508408D01*
X152642671Y-95558702D01*
X152642664Y-95558706D01*
X152527455Y-95644952D01*
X152527452Y-95644955D01*
X152441206Y-95760164D01*
X152441202Y-95760171D01*
X152390908Y-95895017D01*
X152384501Y-95954616D01*
X152384501Y-95954623D01*
X152384500Y-95954635D01*
X150400500Y-95954635D01*
X150400500Y-91782412D01*
X150420185Y-91715373D01*
X150427555Y-91705097D01*
X150429810Y-91702267D01*
X150429816Y-91702262D01*
X150525789Y-91549522D01*
X150585368Y-91379255D01*
X150602990Y-91222854D01*
X150605565Y-91200003D01*
X150605565Y-91199996D01*
X150585369Y-91020750D01*
X150585368Y-91020745D01*
X150533968Y-90873852D01*
X150525789Y-90850478D01*
X150507106Y-90820745D01*
X150429815Y-90697737D01*
X150302262Y-90570184D01*
X150149523Y-90474211D01*
X149979254Y-90414631D01*
X149979249Y-90414630D01*
X149800004Y-90394435D01*
X149799996Y-90394435D01*
X149620750Y-90414630D01*
X149620745Y-90414631D01*
X149450476Y-90474211D01*
X149297737Y-90570184D01*
X149170184Y-90697737D01*
X149074211Y-90850476D01*
X149014631Y-91020745D01*
X149014630Y-91020750D01*
X148994435Y-91199996D01*
X146914215Y-91199996D01*
X146777734Y-91104432D01*
X146777732Y-91104431D01*
X146571497Y-91008261D01*
X146571488Y-91008258D01*
X146351697Y-90949366D01*
X146351693Y-90949365D01*
X146351692Y-90949365D01*
X146351691Y-90949364D01*
X146351686Y-90949364D01*
X146125002Y-90929532D01*
X146124998Y-90929532D01*
X145898313Y-90949364D01*
X145898302Y-90949366D01*
X145678511Y-91008258D01*
X145678502Y-91008261D01*
X145472267Y-91104431D01*
X145472265Y-91104432D01*
X145285858Y-91234954D01*
X145124954Y-91395858D01*
X144994432Y-91582265D01*
X144994431Y-91582267D01*
X144898261Y-91788502D01*
X144898258Y-91788511D01*
X144839366Y-92008302D01*
X144839364Y-92008313D01*
X144819532Y-92234998D01*
X144819532Y-92235001D01*
X144839364Y-92461686D01*
X144839366Y-92461697D01*
X144898258Y-92681488D01*
X144898261Y-92681497D01*
X144994431Y-92887732D01*
X144994432Y-92887734D01*
X145124954Y-93074141D01*
X145285858Y-93235045D01*
X145285861Y-93235047D01*
X145472266Y-93365568D01*
X145558887Y-93405960D01*
X145611326Y-93452132D01*
X145630478Y-93519326D01*
X145610262Y-93586207D01*
X145558887Y-93630724D01*
X145422267Y-93694431D01*
X145422265Y-93694432D01*
X145235858Y-93824954D01*
X145074954Y-93985858D01*
X144944432Y-94172265D01*
X144944431Y-94172267D01*
X144848261Y-94378502D01*
X144848258Y-94378511D01*
X144789366Y-94598302D01*
X144789364Y-94598313D01*
X144769532Y-94824998D01*
X144400500Y-94824998D01*
X144400500Y-84954635D01*
X152304500Y-84954635D01*
X152304500Y-86955370D01*
X152304501Y-86955376D01*
X152310908Y-87014983D01*
X152361202Y-87149828D01*
X152361206Y-87149835D01*
X152447452Y-87265044D01*
X152447455Y-87265047D01*
X152562664Y-87351293D01*
X152562669Y-87351296D01*
X152590539Y-87361690D01*
X152646473Y-87403561D01*
X152670891Y-87469024D01*
X152656040Y-87537298D01*
X152647525Y-87550759D01*
X152514783Y-87733461D01*
X152410950Y-87937244D01*
X152340278Y-88154750D01*
X152340278Y-88154753D01*
X152304500Y-88380646D01*
X152304500Y-88609353D01*
X152340278Y-88835246D01*
X152340278Y-88835249D01*
X152410950Y-89052755D01*
X152470783Y-89170184D01*
X152514783Y-89256538D01*
X152649214Y-89441566D01*
X152810934Y-89603286D01*
X152895864Y-89664991D01*
X152938529Y-89720321D01*
X152944508Y-89789935D01*
X152911902Y-89851730D01*
X152895864Y-89865627D01*
X152811257Y-89927097D01*
X152649597Y-90088757D01*
X152515211Y-90273723D01*
X152411417Y-90477429D01*
X152340765Y-90694871D01*
X152326491Y-90785000D01*
X153314252Y-90785000D01*
X153292482Y-90822708D01*
X153255000Y-90962591D01*
X153255000Y-91107409D01*
X153292482Y-91247292D01*
X153314252Y-91285000D01*
X152326491Y-91285000D01*
X152340765Y-91375128D01*
X152411417Y-91592570D01*
X152515211Y-91796276D01*
X152649597Y-91981242D01*
X152811257Y-92142902D01*
X152996223Y-92277288D01*
X153199929Y-92381082D01*
X153417371Y-92451734D01*
X153555000Y-92473532D01*
X153555000Y-91525747D01*
X153592708Y-91547518D01*
X153732591Y-91585000D01*
X153877409Y-91585000D01*
X154017292Y-91547518D01*
X154055000Y-91525747D01*
X154055000Y-92473531D01*
X154192628Y-92451734D01*
X154410070Y-92381082D01*
X154613776Y-92277288D01*
X154798742Y-92142902D01*
X154960402Y-91981242D01*
X155094788Y-91796276D01*
X155198582Y-91592570D01*
X155269234Y-91375128D01*
X155283509Y-91285000D01*
X154295748Y-91285000D01*
X154317518Y-91247292D01*
X154355000Y-91107409D01*
X154355000Y-90962591D01*
X154317518Y-90822708D01*
X154295748Y-90785000D01*
X155283509Y-90785000D01*
X155269234Y-90694871D01*
X155198582Y-90477429D01*
X155094788Y-90273723D01*
X154960402Y-90088757D01*
X154798742Y-89927097D01*
X154714135Y-89865626D01*
X154671470Y-89810296D01*
X154665491Y-89740682D01*
X154698097Y-89678887D01*
X154714125Y-89664999D01*
X154799066Y-89603286D01*
X154960786Y-89441566D01*
X155095217Y-89256538D01*
X155199048Y-89052758D01*
X155211436Y-89014631D01*
X155269721Y-88835249D01*
X155269721Y-88835248D01*
X155269722Y-88835245D01*
X155305500Y-88609354D01*
X155305500Y-88380646D01*
X155269722Y-88154755D01*
X155269721Y-88154751D01*
X155269721Y-88154750D01*
X155199049Y-87937244D01*
X155144311Y-87829815D01*
X155095217Y-87733462D01*
X154962472Y-87550755D01*
X154938994Y-87484953D01*
X154954819Y-87416899D01*
X155004925Y-87368204D01*
X155019455Y-87361692D01*
X155047331Y-87351296D01*
X155162546Y-87265046D01*
X155248796Y-87149831D01*
X155299091Y-87014983D01*
X155305500Y-86955373D01*
X155305499Y-84954628D01*
X155299091Y-84895017D01*
X155278041Y-84838580D01*
X155248797Y-84760171D01*
X155248793Y-84760164D01*
X155162547Y-84644955D01*
X155162544Y-84644952D01*
X155047335Y-84558706D01*
X155047328Y-84558702D01*
X154912482Y-84508408D01*
X154912483Y-84508408D01*
X154852883Y-84502001D01*
X154852881Y-84502000D01*
X154852873Y-84502000D01*
X154852865Y-84502000D01*
X154529500Y-84502000D01*
X154462461Y-84482315D01*
X154416706Y-84429511D01*
X154405500Y-84378000D01*
X154405500Y-82576142D01*
X154425185Y-82509103D01*
X154427865Y-82505365D01*
X154429812Y-82502265D01*
X154429816Y-82502262D01*
X154525789Y-82349522D01*
X154585368Y-82179255D01*
X154591476Y-82125045D01*
X154605565Y-82000003D01*
X154605565Y-81999996D01*
X154585369Y-81820750D01*
X154585368Y-81820745D01*
X154525788Y-81650476D01*
X154429815Y-81497737D01*
X154302262Y-81370184D01*
X154149523Y-81274211D01*
X153979254Y-81214631D01*
X153979249Y-81214630D01*
X153800004Y-81194435D01*
X153799996Y-81194435D01*
X153620750Y-81214630D01*
X153620745Y-81214631D01*
X153450476Y-81274211D01*
X153297737Y-81370184D01*
X153170184Y-81497737D01*
X153074211Y-81650476D01*
X153014631Y-81820745D01*
X153014630Y-81820750D01*
X152994435Y-81999996D01*
X152994435Y-82000003D01*
X153014630Y-82179249D01*
X153014631Y-82179254D01*
X153074211Y-82349523D01*
X153170184Y-82502262D01*
X153174525Y-82507705D01*
X153172937Y-82508970D01*
X153201666Y-82561582D01*
X153204500Y-82587940D01*
X153204500Y-84378000D01*
X153184815Y-84445039D01*
X153132011Y-84490794D01*
X153080500Y-84502000D01*
X152757130Y-84502000D01*
X152757123Y-84502001D01*
X152697516Y-84508408D01*
X152562671Y-84558702D01*
X152562664Y-84558706D01*
X152447455Y-84644952D01*
X152447452Y-84644955D01*
X152361206Y-84760164D01*
X152361202Y-84760171D01*
X152310908Y-84895017D01*
X152304752Y-84952283D01*
X152304501Y-84954623D01*
X152304500Y-84954635D01*
X144400500Y-84954635D01*
X144400500Y-82074998D01*
X144819532Y-82074998D01*
X144819532Y-82075001D01*
X144839364Y-82301686D01*
X144839366Y-82301697D01*
X144898258Y-82521488D01*
X144898261Y-82521497D01*
X144994431Y-82727732D01*
X144994432Y-82727734D01*
X145124954Y-82914141D01*
X145285858Y-83075045D01*
X145285861Y-83075047D01*
X145472266Y-83205568D01*
X145678504Y-83301739D01*
X145678509Y-83301740D01*
X145678511Y-83301741D01*
X145727062Y-83314750D01*
X145898308Y-83360635D01*
X146060230Y-83374801D01*
X146124998Y-83380468D01*
X146125000Y-83380468D01*
X146125002Y-83380468D01*
X146181673Y-83375509D01*
X146351692Y-83360635D01*
X146571496Y-83301739D01*
X146777734Y-83205568D01*
X146964139Y-83075047D01*
X147125047Y-82914139D01*
X147255568Y-82727734D01*
X147351739Y-82521496D01*
X147410635Y-82301692D01*
X147430468Y-82075000D01*
X147410635Y-81848308D01*
X147351739Y-81628504D01*
X147255568Y-81422266D01*
X147125047Y-81235861D01*
X147125045Y-81235858D01*
X146964141Y-81074954D01*
X146777734Y-80944432D01*
X146777732Y-80944431D01*
X146571497Y-80848261D01*
X146571488Y-80848258D01*
X146351697Y-80789366D01*
X146351693Y-80789365D01*
X146351692Y-80789365D01*
X146351691Y-80789364D01*
X146351686Y-80789364D01*
X146125002Y-80769532D01*
X146124998Y-80769532D01*
X145898313Y-80789364D01*
X145898302Y-80789366D01*
X145678511Y-80848258D01*
X145678502Y-80848261D01*
X145472267Y-80944431D01*
X145472265Y-80944432D01*
X145285858Y-81074954D01*
X145124954Y-81235858D01*
X144994432Y-81422265D01*
X144994431Y-81422267D01*
X144898261Y-81628502D01*
X144898258Y-81628511D01*
X144839366Y-81848302D01*
X144839364Y-81848313D01*
X144819532Y-82074998D01*
X144400500Y-82074998D01*
X144400500Y-80125207D01*
X144420185Y-80058168D01*
X144472989Y-80012413D01*
X144542147Y-80002469D01*
X144605703Y-80031494D01*
X144640682Y-80081874D01*
X144691202Y-80217328D01*
X144691206Y-80217335D01*
X144777452Y-80332544D01*
X144777455Y-80332547D01*
X144892664Y-80418793D01*
X144892671Y-80418797D01*
X145027517Y-80469091D01*
X145027516Y-80469091D01*
X145034444Y-80469835D01*
X145087127Y-80475500D01*
X147382872Y-80475499D01*
X147442483Y-80469091D01*
X147577331Y-80418796D01*
X147692546Y-80332546D01*
X147778796Y-80217331D01*
X147829091Y-80082483D01*
X147835500Y-80022873D01*
X147835499Y-78624999D01*
X154809728Y-78624999D01*
X154809729Y-78625000D01*
X155904252Y-78625000D01*
X155882482Y-78662708D01*
X155845000Y-78802591D01*
X155845000Y-78947409D01*
X155882482Y-79087292D01*
X155904252Y-79125000D01*
X154809728Y-79125000D01*
X154809811Y-79126067D01*
X154868603Y-79370956D01*
X154964980Y-79603631D01*
X155096568Y-79818362D01*
X155096571Y-79818367D01*
X155260130Y-80009869D01*
X155451632Y-80173428D01*
X155451637Y-80173431D01*
X155666368Y-80305019D01*
X155899043Y-80401396D01*
X156143932Y-80460188D01*
X156144999Y-80460271D01*
X156145000Y-80460271D01*
X156145000Y-79365747D01*
X156182708Y-79387518D01*
X156322591Y-79425000D01*
X156467409Y-79425000D01*
X156607292Y-79387518D01*
X156645000Y-79365747D01*
X156645000Y-80460271D01*
X156646067Y-80460188D01*
X156890956Y-80401396D01*
X157123631Y-80305019D01*
X157338362Y-80173431D01*
X157338367Y-80173428D01*
X157529869Y-80009869D01*
X157693428Y-79818367D01*
X157693431Y-79818362D01*
X157825019Y-79603631D01*
X157921396Y-79370956D01*
X157980188Y-79126067D01*
X157980272Y-79125000D01*
X156885748Y-79125000D01*
X156907518Y-79087292D01*
X156945000Y-78947409D01*
X156945000Y-78802591D01*
X156907518Y-78662708D01*
X156885748Y-78625000D01*
X157980271Y-78625000D01*
X157980271Y-78624999D01*
X157980188Y-78623932D01*
X157921396Y-78379043D01*
X157825019Y-78146368D01*
X157693431Y-77931637D01*
X157693428Y-77931632D01*
X157529869Y-77740130D01*
X157338367Y-77576571D01*
X157338362Y-77576568D01*
X157123631Y-77444980D01*
X156890956Y-77348603D01*
X156646064Y-77289811D01*
X156645000Y-77289726D01*
X156645000Y-78384252D01*
X156607292Y-78362482D01*
X156467409Y-78325000D01*
X156322591Y-78325000D01*
X156182708Y-78362482D01*
X156145000Y-78384252D01*
X156145000Y-77289726D01*
X156143935Y-77289811D01*
X155899043Y-77348603D01*
X155666368Y-77444980D01*
X155451637Y-77576568D01*
X155451632Y-77576571D01*
X155260130Y-77740130D01*
X155096571Y-77931632D01*
X155096568Y-77931637D01*
X154964980Y-78146368D01*
X154868603Y-78379043D01*
X154809811Y-78623932D01*
X154809728Y-78624999D01*
X147835499Y-78624999D01*
X147835499Y-77727128D01*
X147829091Y-77667517D01*
X147796171Y-77579255D01*
X147778797Y-77532671D01*
X147778793Y-77532664D01*
X147692547Y-77417455D01*
X147692544Y-77417452D01*
X147577335Y-77331206D01*
X147577328Y-77331202D01*
X147442482Y-77280908D01*
X147442483Y-77280908D01*
X147382883Y-77274501D01*
X147382881Y-77274500D01*
X147382873Y-77274500D01*
X147382864Y-77274500D01*
X145087129Y-77274500D01*
X145087123Y-77274501D01*
X145027516Y-77280908D01*
X144892671Y-77331202D01*
X144892664Y-77331206D01*
X144777455Y-77417452D01*
X144777452Y-77417455D01*
X144691206Y-77532664D01*
X144691202Y-77532671D01*
X144640682Y-77668125D01*
X144598811Y-77724059D01*
X144533347Y-77748476D01*
X144465074Y-77733625D01*
X144415668Y-77684220D01*
X144400500Y-77624792D01*
X144400500Y-73207412D01*
X144420185Y-73140373D01*
X144427555Y-73130097D01*
X144429810Y-73127267D01*
X144429816Y-73127262D01*
X144525789Y-72974522D01*
X144560927Y-72874102D01*
X144601649Y-72817327D01*
X144666601Y-72791579D01*
X144735163Y-72805035D01*
X144785566Y-72853422D01*
X144797744Y-72882964D01*
X144848258Y-73071488D01*
X144848261Y-73071497D01*
X144944431Y-73277732D01*
X144944432Y-73277734D01*
X145074954Y-73464141D01*
X145235858Y-73625045D01*
X145235861Y-73625047D01*
X145422266Y-73755568D01*
X145628504Y-73851739D01*
X145848308Y-73910635D01*
X146010230Y-73924801D01*
X146074998Y-73930468D01*
X146075000Y-73930468D01*
X146075002Y-73930468D01*
X146131673Y-73925509D01*
X146301692Y-73910635D01*
X146521496Y-73851739D01*
X146727734Y-73755568D01*
X146914139Y-73625047D01*
X147075047Y-73464139D01*
X147205568Y-73277734D01*
X147301739Y-73071496D01*
X147360635Y-72851692D01*
X147380468Y-72625000D01*
X147378280Y-72599996D01*
X147369383Y-72498302D01*
X147360635Y-72398308D01*
X147354389Y-72374999D01*
X154956127Y-72374999D01*
X154956128Y-72375000D01*
X155919314Y-72375000D01*
X155914920Y-72379394D01*
X155862259Y-72470606D01*
X155835000Y-72572339D01*
X155835000Y-72677661D01*
X155862259Y-72779394D01*
X155914920Y-72870606D01*
X155919314Y-72875000D01*
X154956128Y-72875000D01*
X155008730Y-73071317D01*
X155008734Y-73071326D01*
X155104865Y-73277482D01*
X155235342Y-73463820D01*
X155396179Y-73624657D01*
X155582517Y-73755134D01*
X155788673Y-73851265D01*
X155788682Y-73851269D01*
X155984999Y-73903872D01*
X155985000Y-73903871D01*
X155985000Y-72940686D01*
X155989394Y-72945080D01*
X156080606Y-72997741D01*
X156182339Y-73025000D01*
X156287661Y-73025000D01*
X156389394Y-72997741D01*
X156480606Y-72945080D01*
X156485000Y-72940686D01*
X156485000Y-73903872D01*
X156681317Y-73851269D01*
X156681326Y-73851265D01*
X156887482Y-73755134D01*
X157073820Y-73624657D01*
X157234657Y-73463820D01*
X157365134Y-73277482D01*
X157461265Y-73071326D01*
X157461269Y-73071317D01*
X157513872Y-72875000D01*
X156550686Y-72875000D01*
X156555080Y-72870606D01*
X156607741Y-72779394D01*
X156635000Y-72677661D01*
X156635000Y-72572339D01*
X156607741Y-72470606D01*
X156555080Y-72379394D01*
X156550686Y-72375000D01*
X157513872Y-72375000D01*
X157513872Y-72374999D01*
X157461269Y-72178682D01*
X157461265Y-72178673D01*
X157365134Y-71972517D01*
X157234657Y-71786179D01*
X157073820Y-71625342D01*
X156887482Y-71494865D01*
X156681328Y-71398734D01*
X156485000Y-71346127D01*
X156485000Y-72309314D01*
X156480606Y-72304920D01*
X156389394Y-72252259D01*
X156287661Y-72225000D01*
X156182339Y-72225000D01*
X156080606Y-72252259D01*
X155989394Y-72304920D01*
X155985000Y-72309314D01*
X155985000Y-71346127D01*
X155788671Y-71398734D01*
X155582517Y-71494865D01*
X155396179Y-71625342D01*
X155235342Y-71786179D01*
X155104865Y-71972517D01*
X155008734Y-72178673D01*
X155008730Y-72178682D01*
X154956127Y-72374999D01*
X147354389Y-72374999D01*
X147301739Y-72178504D01*
X147205568Y-71972266D01*
X147098556Y-71819435D01*
X147075045Y-71785858D01*
X146914141Y-71624954D01*
X146727734Y-71494432D01*
X146727732Y-71494431D01*
X146521497Y-71398261D01*
X146521488Y-71398258D01*
X146301697Y-71339366D01*
X146301693Y-71339365D01*
X146301692Y-71339365D01*
X146301691Y-71339364D01*
X146301686Y-71339364D01*
X146075002Y-71319532D01*
X146074998Y-71319532D01*
X145848313Y-71339364D01*
X145848302Y-71339366D01*
X145628511Y-71398258D01*
X145628502Y-71398261D01*
X145422267Y-71494431D01*
X145422265Y-71494432D01*
X145235858Y-71624954D01*
X145074954Y-71785858D01*
X144944432Y-71972265D01*
X144944431Y-71972267D01*
X144848261Y-72178502D01*
X144848259Y-72178508D01*
X144797744Y-72367036D01*
X144761379Y-72426696D01*
X144698532Y-72457225D01*
X144629156Y-72448930D01*
X144575279Y-72404445D01*
X144560927Y-72375896D01*
X144525789Y-72275478D01*
X144525788Y-72275476D01*
X144429816Y-72122738D01*
X144302262Y-71995184D01*
X144253679Y-71964657D01*
X144149523Y-71899211D01*
X143979254Y-71839631D01*
X143979249Y-71839630D01*
X143800004Y-71819435D01*
X143799996Y-71819435D01*
X143620750Y-71839630D01*
X143620745Y-71839631D01*
X143450476Y-71899211D01*
X143297737Y-71995184D01*
X143170184Y-72122737D01*
X143074211Y-72275476D01*
X143014631Y-72445745D01*
X143014630Y-72445750D01*
X142994435Y-72624996D01*
X142994435Y-72625003D01*
X143014630Y-72804249D01*
X143014631Y-72804254D01*
X143074211Y-72974523D01*
X143103255Y-73020745D01*
X143157625Y-73107275D01*
X143170185Y-73127263D01*
X143172445Y-73130097D01*
X143173334Y-73132275D01*
X143173889Y-73133158D01*
X143173734Y-73133255D01*
X143198855Y-73194783D01*
X143199500Y-73207412D01*
X143199500Y-77878156D01*
X143179815Y-77945195D01*
X143127011Y-77990950D01*
X143061618Y-78001377D01*
X143021815Y-77996892D01*
X143000000Y-77994435D01*
X142999998Y-77994435D01*
X142999997Y-77994435D01*
X142999996Y-77994435D01*
X142820750Y-78014630D01*
X142820745Y-78014631D01*
X142650476Y-78074211D01*
X142497737Y-78170184D01*
X142370184Y-78297737D01*
X142274211Y-78450476D01*
X142214631Y-78620745D01*
X142214630Y-78620750D01*
X142194435Y-78799996D01*
X141600500Y-78799996D01*
X141600500Y-73182412D01*
X141620185Y-73115373D01*
X141627555Y-73105097D01*
X141629810Y-73102267D01*
X141629816Y-73102262D01*
X141725789Y-72949522D01*
X141785368Y-72779255D01*
X141791481Y-72725000D01*
X141805565Y-72600003D01*
X141805565Y-72599996D01*
X141785369Y-72420750D01*
X141785368Y-72420745D01*
X141776162Y-72394435D01*
X141725789Y-72250478D01*
X141629816Y-72097738D01*
X141502262Y-71970184D01*
X141493466Y-71964657D01*
X141349523Y-71874211D01*
X141179254Y-71814631D01*
X141179249Y-71814630D01*
X141000004Y-71794435D01*
X140999996Y-71794435D01*
X140820750Y-71814630D01*
X140820745Y-71814631D01*
X140650476Y-71874211D01*
X140497737Y-71970184D01*
X140370184Y-72097737D01*
X140274211Y-72250476D01*
X140214631Y-72420745D01*
X140214630Y-72420750D01*
X140194435Y-72599996D01*
X140194435Y-72600003D01*
X140214630Y-72779249D01*
X140214631Y-72779254D01*
X140274211Y-72949523D01*
X140321637Y-73025000D01*
X140350852Y-73071496D01*
X140370185Y-73102263D01*
X140372445Y-73105097D01*
X140373334Y-73107275D01*
X140373889Y-73108158D01*
X140373734Y-73108255D01*
X140398855Y-73169783D01*
X140399500Y-73182412D01*
X140399500Y-74478156D01*
X140379815Y-74545195D01*
X140327011Y-74590950D01*
X140261618Y-74601377D01*
X140221815Y-74596892D01*
X140200000Y-74594435D01*
X140199998Y-74594435D01*
X140199997Y-74594435D01*
X140199996Y-74594435D01*
X140020750Y-74614630D01*
X140020745Y-74614631D01*
X139850476Y-74674211D01*
X139697739Y-74770183D01*
X139627789Y-74840133D01*
X139566465Y-74873617D01*
X139496774Y-74868632D01*
X139440840Y-74826761D01*
X139429623Y-74808745D01*
X139417064Y-74784097D01*
X139392598Y-74736078D01*
X139335218Y-74623463D01*
X139311596Y-74590950D01*
X139200786Y-74438434D01*
X139039066Y-74276714D01*
X138954559Y-74215316D01*
X138911896Y-74159988D01*
X138905917Y-74090375D01*
X138938523Y-74028580D01*
X138954556Y-74014685D01*
X139039066Y-73953286D01*
X139200786Y-73791566D01*
X139335217Y-73606538D01*
X139439048Y-73402758D01*
X139479671Y-73277732D01*
X139509721Y-73185249D01*
X139509721Y-73185248D01*
X139509722Y-73185245D01*
X139545500Y-72959354D01*
X139545500Y-72730646D01*
X139509722Y-72504755D01*
X139509721Y-72504751D01*
X139509721Y-72504750D01*
X139439049Y-72287244D01*
X139355229Y-72122738D01*
X139335217Y-72083462D01*
X139200786Y-71898434D01*
X139039066Y-71736714D01*
X138854038Y-71602283D01*
X138838628Y-71594431D01*
X138650255Y-71498450D01*
X138432748Y-71427778D01*
X138246365Y-71398258D01*
X138206854Y-71392000D01*
X137883146Y-71392000D01*
X137843635Y-71398258D01*
X137657253Y-71427778D01*
X137657250Y-71427778D01*
X137439744Y-71498450D01*
X137235961Y-71602283D01*
X137130396Y-71678980D01*
X137050934Y-71736714D01*
X137050932Y-71736716D01*
X137050931Y-71736716D01*
X136889216Y-71898431D01*
X136889216Y-71898432D01*
X136889214Y-71898434D01*
X136835573Y-71972265D01*
X136754783Y-72083461D01*
X136650950Y-72287244D01*
X136580278Y-72504750D01*
X136580278Y-72504753D01*
X136565192Y-72600003D01*
X136544500Y-72730646D01*
X136544500Y-72959354D01*
X136554224Y-73020750D01*
X136580278Y-73185246D01*
X136580278Y-73185249D01*
X136650950Y-73402755D01*
X136682227Y-73464139D01*
X136754783Y-73606538D01*
X136889214Y-73791566D01*
X137050934Y-73953286D01*
X137120423Y-74003773D01*
X137135438Y-74014682D01*
X137178103Y-74070013D01*
X137184082Y-74139626D01*
X137151476Y-74201421D01*
X137135438Y-74215318D01*
X137050932Y-74276715D01*
X136889216Y-74438431D01*
X136889216Y-74438432D01*
X136889214Y-74438434D01*
X136831480Y-74517896D01*
X136754783Y-74623461D01*
X136650950Y-74827244D01*
X136580278Y-75044750D01*
X136580278Y-75044753D01*
X136544500Y-75270646D01*
X136544500Y-75499353D01*
X136580278Y-75725246D01*
X136580278Y-75725249D01*
X136650950Y-75942755D01*
X136690545Y-76020464D01*
X136754783Y-76146538D01*
X136887525Y-76329242D01*
X136911005Y-76395046D01*
X136895180Y-76463100D01*
X136845074Y-76511795D01*
X136830541Y-76518308D01*
X136802670Y-76528703D01*
X136802664Y-76528706D01*
X136687455Y-76614952D01*
X136687452Y-76614955D01*
X136601206Y-76730164D01*
X136601202Y-76730171D01*
X136550908Y-76865017D01*
X136544501Y-76924616D01*
X136544500Y-76924635D01*
X136544500Y-78925370D01*
X136544501Y-78925376D01*
X136550908Y-78984983D01*
X136601202Y-79119828D01*
X136601206Y-79119835D01*
X136687452Y-79235044D01*
X136687455Y-79235047D01*
X136802664Y-79321293D01*
X136802671Y-79321297D01*
X136937517Y-79371591D01*
X136937516Y-79371591D01*
X136944444Y-79372335D01*
X136997127Y-79378000D01*
X139092872Y-79377999D01*
X139152483Y-79371591D01*
X139287331Y-79321296D01*
X139401189Y-79236062D01*
X139466653Y-79211644D01*
X139534926Y-79226495D01*
X139584332Y-79275900D01*
X139599500Y-79335328D01*
X139599500Y-83017587D01*
X139579815Y-83084626D01*
X139572450Y-83094896D01*
X139570184Y-83097737D01*
X139564475Y-83106823D01*
X139512139Y-83153113D01*
X139443085Y-83163759D01*
X139379237Y-83135382D01*
X139348998Y-83097143D01*
X139245216Y-82893461D01*
X139110786Y-82708434D01*
X138949066Y-82546714D01*
X138764038Y-82412283D01*
X138645212Y-82351738D01*
X138560255Y-82308450D01*
X138342748Y-82237778D01*
X138173326Y-82210944D01*
X138116854Y-82202000D01*
X137793146Y-82202000D01*
X137717849Y-82213926D01*
X137567253Y-82237778D01*
X137567250Y-82237778D01*
X137349744Y-82308450D01*
X137145961Y-82412283D01*
X137040396Y-82488980D01*
X136960934Y-82546714D01*
X136960932Y-82546716D01*
X136960931Y-82546716D01*
X136799216Y-82708431D01*
X136799216Y-82708432D01*
X136799214Y-82708434D01*
X136785192Y-82727734D01*
X136664783Y-82893461D01*
X136560950Y-83097244D01*
X136490278Y-83314750D01*
X136490278Y-83314753D01*
X136472461Y-83427248D01*
X136454500Y-83540646D01*
X134400500Y-83540646D01*
X134400500Y-81782412D01*
X134420185Y-81715373D01*
X134427555Y-81705097D01*
X134429810Y-81702267D01*
X134429816Y-81702262D01*
X134525789Y-81549522D01*
X134585368Y-81379255D01*
X134588474Y-81351692D01*
X134605565Y-81200003D01*
X134605565Y-81199996D01*
X134585369Y-81020750D01*
X134585368Y-81020745D01*
X134558665Y-80944432D01*
X134525789Y-80850478D01*
X134429816Y-80697738D01*
X134302262Y-80570184D01*
X134266681Y-80547827D01*
X134149523Y-80474211D01*
X133979254Y-80414631D01*
X133979249Y-80414630D01*
X133800004Y-80394435D01*
X133799996Y-80394435D01*
X133620750Y-80414630D01*
X133620745Y-80414631D01*
X133450476Y-80474211D01*
X133297737Y-80570184D01*
X133170184Y-80697737D01*
X133074211Y-80850476D01*
X133014631Y-81020745D01*
X133014630Y-81020750D01*
X132994435Y-81199996D01*
X132400500Y-81199996D01*
X132400500Y-78582412D01*
X132420185Y-78515373D01*
X132427555Y-78505097D01*
X132429810Y-78502267D01*
X132429816Y-78502262D01*
X132525789Y-78349522D01*
X132585368Y-78179255D01*
X132588154Y-78154528D01*
X132605565Y-78000003D01*
X132605565Y-77999996D01*
X132585369Y-77820750D01*
X132585368Y-77820745D01*
X132560080Y-77748476D01*
X132525789Y-77650478D01*
X132509649Y-77624792D01*
X132453860Y-77536004D01*
X132429816Y-77497738D01*
X132302262Y-77370184D01*
X132244671Y-77333997D01*
X132149523Y-77274211D01*
X131979254Y-77214631D01*
X131979249Y-77214630D01*
X131800004Y-77194435D01*
X131799996Y-77194435D01*
X131620750Y-77214630D01*
X131620745Y-77214631D01*
X131450476Y-77274211D01*
X131297737Y-77370184D01*
X131170182Y-77497739D01*
X131164492Y-77506796D01*
X131112156Y-77553086D01*
X131043102Y-77563732D01*
X130979254Y-77535355D01*
X130940884Y-77476964D01*
X130935500Y-77440821D01*
X130935500Y-73956692D01*
X130955185Y-73889653D01*
X130988374Y-73855119D01*
X131174139Y-73725047D01*
X131335047Y-73564139D01*
X131465568Y-73377734D01*
X131561739Y-73171496D01*
X131620635Y-72951692D01*
X131640468Y-72725000D01*
X131620635Y-72498308D01*
X131561739Y-72278504D01*
X131465568Y-72072266D01*
X131362102Y-71924500D01*
X131335045Y-71885858D01*
X131174141Y-71724954D01*
X130987734Y-71594432D01*
X130987732Y-71594431D01*
X130781497Y-71498261D01*
X130781488Y-71498258D01*
X130561697Y-71439366D01*
X130561693Y-71439365D01*
X130561692Y-71439365D01*
X130561691Y-71439364D01*
X130561686Y-71439364D01*
X130335002Y-71419532D01*
X130334998Y-71419532D01*
X130108313Y-71439364D01*
X130108302Y-71439366D01*
X129888511Y-71498258D01*
X129888502Y-71498261D01*
X129682267Y-71594431D01*
X129682265Y-71594432D01*
X129495858Y-71724954D01*
X129334954Y-71885858D01*
X129204432Y-72072265D01*
X129204431Y-72072267D01*
X129108261Y-72278502D01*
X129108258Y-72278511D01*
X129049366Y-72498302D01*
X129049364Y-72498313D01*
X129029532Y-72724998D01*
X129029532Y-72725001D01*
X129049364Y-72951686D01*
X129049366Y-72951697D01*
X129108258Y-73171488D01*
X129108261Y-73171497D01*
X129204431Y-73377732D01*
X129204432Y-73377734D01*
X129334954Y-73564141D01*
X129495858Y-73725045D01*
X129495861Y-73725047D01*
X129681624Y-73855118D01*
X129725248Y-73909693D01*
X129734500Y-73956692D01*
X129734500Y-78118804D01*
X129715494Y-78184775D01*
X129674209Y-78250479D01*
X129614633Y-78420737D01*
X129614630Y-78420750D01*
X129594435Y-78599996D01*
X129594435Y-78600003D01*
X129614630Y-78779249D01*
X129614631Y-78779254D01*
X129674211Y-78949523D01*
X129708524Y-79004131D01*
X129770184Y-79102262D01*
X129897738Y-79229816D01*
X129971080Y-79275900D01*
X130043322Y-79321293D01*
X130050478Y-79325789D01*
X130201612Y-79378673D01*
X130220745Y-79385368D01*
X130220750Y-79385369D01*
X130399996Y-79405565D01*
X130400000Y-79405565D01*
X130400004Y-79405565D01*
X130579249Y-79385369D01*
X130579252Y-79385368D01*
X130579255Y-79385368D01*
X130749522Y-79325789D01*
X130902262Y-79229816D01*
X130987819Y-79144259D01*
X131049142Y-79110774D01*
X131118834Y-79115758D01*
X131174767Y-79157630D01*
X131199184Y-79223094D01*
X131199500Y-79231940D01*
X131199500Y-83304510D01*
X131179815Y-83371549D01*
X131127011Y-83417304D01*
X131057853Y-83427248D01*
X131004380Y-83406087D01*
X130987736Y-83394433D01*
X130987732Y-83394431D01*
X130781497Y-83298261D01*
X130781488Y-83298258D01*
X130561697Y-83239366D01*
X130561693Y-83239365D01*
X130561692Y-83239365D01*
X130561691Y-83239364D01*
X130561686Y-83239364D01*
X130335002Y-83219532D01*
X130334998Y-83219532D01*
X130108313Y-83239364D01*
X130108302Y-83239366D01*
X129888511Y-83298258D01*
X129888502Y-83298261D01*
X129682267Y-83394431D01*
X129682265Y-83394432D01*
X129495858Y-83524954D01*
X129334954Y-83685858D01*
X129204432Y-83872265D01*
X129204431Y-83872267D01*
X129108261Y-84078502D01*
X129108258Y-84078511D01*
X129049366Y-84298302D01*
X129049364Y-84298312D01*
X129035947Y-84451670D01*
X129010494Y-84516738D01*
X128953903Y-84557717D01*
X128884141Y-84561595D01*
X128823357Y-84527141D01*
X128790850Y-84465294D01*
X128789200Y-84454760D01*
X128785368Y-84420745D01*
X128725789Y-84250478D01*
X128707106Y-84220745D01*
X128651511Y-84132266D01*
X128629816Y-84097738D01*
X128629814Y-84097736D01*
X128629813Y-84097734D01*
X128627550Y-84094896D01*
X128626659Y-84092715D01*
X128626111Y-84091842D01*
X128626264Y-84091745D01*
X128601144Y-84030209D01*
X128600500Y-84017587D01*
X128600500Y-77982412D01*
X128620185Y-77915373D01*
X128627555Y-77905097D01*
X128629810Y-77902267D01*
X128629816Y-77902262D01*
X128725789Y-77749522D01*
X128785368Y-77579255D01*
X128785369Y-77579249D01*
X128805565Y-77400003D01*
X128805565Y-77399996D01*
X128785369Y-77220750D01*
X128785368Y-77220745D01*
X128725788Y-77050476D01*
X128662175Y-76949237D01*
X128629816Y-76897738D01*
X128502262Y-76770184D01*
X128431608Y-76725789D01*
X128349523Y-76674211D01*
X128179254Y-76614631D01*
X128179249Y-76614630D01*
X128000004Y-76594435D01*
X127999996Y-76594435D01*
X127820750Y-76614630D01*
X127820745Y-76614631D01*
X127650476Y-76674211D01*
X127497737Y-76770184D01*
X127370184Y-76897737D01*
X127274211Y-77050476D01*
X127214631Y-77220745D01*
X127214630Y-77220750D01*
X127194435Y-77399996D01*
X122195500Y-77399996D01*
X122195500Y-77333997D01*
X122156091Y-77135873D01*
X122078786Y-76949244D01*
X122078784Y-76949241D01*
X122078782Y-76949237D01*
X121966558Y-76781281D01*
X121823718Y-76638441D01*
X121655762Y-76526217D01*
X121655752Y-76526212D01*
X121469127Y-76448909D01*
X121469119Y-76448907D01*
X121271007Y-76409500D01*
X121271003Y-76409500D01*
X120618997Y-76409500D01*
X120618992Y-76409500D01*
X120420880Y-76448907D01*
X120420872Y-76448909D01*
X120234247Y-76526212D01*
X120234237Y-76526217D01*
X120066281Y-76638441D01*
X119923441Y-76781281D01*
X119811217Y-76949237D01*
X119811212Y-76949247D01*
X119733909Y-77135872D01*
X119733907Y-77135880D01*
X119694500Y-77333992D01*
X116200500Y-77333992D01*
X116200500Y-73182412D01*
X116220185Y-73115373D01*
X116227555Y-73105097D01*
X116229810Y-73102267D01*
X116229816Y-73102262D01*
X116325789Y-72949522D01*
X116385368Y-72779255D01*
X116391481Y-72725000D01*
X116391481Y-72724998D01*
X118869532Y-72724998D01*
X118869532Y-72725001D01*
X118889364Y-72951686D01*
X118889366Y-72951697D01*
X118948258Y-73171488D01*
X118948261Y-73171497D01*
X119044431Y-73377732D01*
X119044432Y-73377734D01*
X119174954Y-73564141D01*
X119335858Y-73725045D01*
X119335861Y-73725047D01*
X119522266Y-73855568D01*
X119728504Y-73951739D01*
X119728509Y-73951740D01*
X119728511Y-73951741D01*
X119746989Y-73956692D01*
X119948308Y-74010635D01*
X120110230Y-74024801D01*
X120174998Y-74030468D01*
X120175000Y-74030468D01*
X120175002Y-74030468D01*
X120231673Y-74025509D01*
X120401692Y-74010635D01*
X120621496Y-73951739D01*
X120827734Y-73855568D01*
X121014139Y-73725047D01*
X121175047Y-73564139D01*
X121305568Y-73377734D01*
X121401739Y-73171496D01*
X121460635Y-72951692D01*
X121480468Y-72725000D01*
X121460635Y-72498308D01*
X121401739Y-72278504D01*
X121305568Y-72072266D01*
X121202102Y-71924500D01*
X121175045Y-71885858D01*
X121014141Y-71724954D01*
X120827734Y-71594432D01*
X120827732Y-71594431D01*
X120621497Y-71498261D01*
X120621488Y-71498258D01*
X120401697Y-71439366D01*
X120401693Y-71439365D01*
X120401692Y-71439365D01*
X120401691Y-71439364D01*
X120401686Y-71439364D01*
X120175002Y-71419532D01*
X120174998Y-71419532D01*
X119948313Y-71439364D01*
X119948302Y-71439366D01*
X119728511Y-71498258D01*
X119728502Y-71498261D01*
X119522267Y-71594431D01*
X119522265Y-71594432D01*
X119335858Y-71724954D01*
X119174954Y-71885858D01*
X119044432Y-72072265D01*
X119044431Y-72072267D01*
X118948261Y-72278502D01*
X118948258Y-72278511D01*
X118889366Y-72498302D01*
X118889364Y-72498313D01*
X118869532Y-72724998D01*
X116391481Y-72724998D01*
X116405565Y-72600003D01*
X116405565Y-72599996D01*
X116385369Y-72420750D01*
X116385368Y-72420745D01*
X116376162Y-72394435D01*
X116325789Y-72250478D01*
X116229816Y-72097738D01*
X116102262Y-71970184D01*
X116093466Y-71964657D01*
X115949523Y-71874211D01*
X115779254Y-71814631D01*
X115779249Y-71814630D01*
X115600004Y-71794435D01*
X115599996Y-71794435D01*
X115420750Y-71814630D01*
X115420745Y-71814631D01*
X115250476Y-71874211D01*
X115097737Y-71970184D01*
X114970184Y-72097737D01*
X114874211Y-72250476D01*
X114814631Y-72420745D01*
X114814630Y-72420750D01*
X114794435Y-72599996D01*
X114332074Y-72599996D01*
X114302262Y-72570184D01*
X114149523Y-72474211D01*
X113979254Y-72414631D01*
X113979249Y-72414630D01*
X113800004Y-72394435D01*
X113799996Y-72394435D01*
X113620750Y-72414630D01*
X113620745Y-72414631D01*
X113450476Y-72474211D01*
X113297737Y-72570184D01*
X113170184Y-72697737D01*
X113074211Y-72850476D01*
X113014631Y-73020745D01*
X113014630Y-73020750D01*
X112994435Y-73199996D01*
X112994435Y-73200004D01*
X113008865Y-73328081D01*
X112996810Y-73396903D01*
X112990640Y-73407934D01*
X112963907Y-73450480D01*
X112904331Y-73620737D01*
X112904328Y-73620750D01*
X112884133Y-73799996D01*
X112884133Y-73800003D01*
X112904328Y-73979249D01*
X112904329Y-73979254D01*
X112963909Y-74149523D01*
X113014827Y-74230557D01*
X113043830Y-74276716D01*
X113059883Y-74302263D01*
X113062143Y-74305097D01*
X113063032Y-74307275D01*
X113063587Y-74308158D01*
X113063432Y-74308255D01*
X113088553Y-74369783D01*
X113089198Y-74382412D01*
X113089198Y-83817587D01*
X113069513Y-83884626D01*
X113062148Y-83894896D01*
X113059884Y-83897734D01*
X112963909Y-84050476D01*
X112904329Y-84220745D01*
X112904328Y-84220750D01*
X112884133Y-84399996D01*
X112884133Y-84400003D01*
X112904328Y-84579249D01*
X112904329Y-84579254D01*
X112963909Y-84749523D01*
X112986200Y-84784998D01*
X113058696Y-84900375D01*
X113059883Y-84902263D01*
X113062143Y-84905097D01*
X113063032Y-84907275D01*
X113063587Y-84908158D01*
X113063432Y-84908255D01*
X113088553Y-84969783D01*
X113089198Y-84982412D01*
X113089198Y-90617587D01*
X113069513Y-90684626D01*
X113062148Y-90694896D01*
X113059884Y-90697734D01*
X112963909Y-90850476D01*
X112904329Y-91020745D01*
X112904328Y-91020750D01*
X112884133Y-91199996D01*
X112884133Y-91200003D01*
X112904328Y-91379249D01*
X112904329Y-91379254D01*
X112963909Y-91549523D01*
X112984483Y-91582266D01*
X113057039Y-91697738D01*
X113059883Y-91702263D01*
X113062143Y-91705097D01*
X113063032Y-91707275D01*
X113063587Y-91708158D01*
X113063432Y-91708255D01*
X113088553Y-91769783D01*
X113089198Y-91782412D01*
X113089198Y-95950500D01*
X113069513Y-96017539D01*
X113016709Y-96063294D01*
X112965199Y-96074500D01*
X112841828Y-96074500D01*
X112841821Y-96074501D01*
X112782214Y-96080908D01*
X112647369Y-96131202D01*
X112647362Y-96131206D01*
X112532153Y-96217452D01*
X112532150Y-96217455D01*
X112445904Y-96332664D01*
X112445900Y-96332671D01*
X112395606Y-96467517D01*
X112389199Y-96527116D01*
X112389199Y-96527123D01*
X112389198Y-96527135D01*
X110384009Y-96527135D01*
X110615170Y-96295974D01*
X110542176Y-96244863D01*
X110336029Y-96148735D01*
X110336015Y-96148730D01*
X110116308Y-96089860D01*
X110116297Y-96089858D01*
X109889700Y-96070034D01*
X109889696Y-96070034D01*
X109663098Y-96089858D01*
X109663087Y-96089860D01*
X109443380Y-96148730D01*
X109443371Y-96148734D01*
X109237214Y-96244866D01*
X109237210Y-96244868D01*
X109164224Y-96295973D01*
X109164224Y-96295974D01*
X109843251Y-96975000D01*
X109837037Y-96975000D01*
X109735304Y-97002259D01*
X109644092Y-97054920D01*
X109569618Y-97129394D01*
X109516957Y-97220606D01*
X109489698Y-97322339D01*
X109489698Y-97328552D01*
X108810672Y-96649526D01*
X108810671Y-96649526D01*
X108759566Y-96722512D01*
X108759564Y-96722516D01*
X108663432Y-96928673D01*
X108663428Y-96928682D01*
X108604558Y-97148389D01*
X108604556Y-97148400D01*
X108584732Y-97374997D01*
X103402357Y-97374997D01*
X103390109Y-97227187D01*
X103390107Y-97227175D01*
X103329063Y-96986118D01*
X103229173Y-96758393D01*
X103093166Y-96550217D01*
X103071557Y-96526744D01*
X102924744Y-96367262D01*
X102841991Y-96302852D01*
X102801179Y-96246143D01*
X102797504Y-96176370D01*
X102832136Y-96115687D01*
X102841985Y-96107151D01*
X102924744Y-96042738D01*
X103093164Y-95859785D01*
X103229173Y-95651607D01*
X103329063Y-95423881D01*
X103390108Y-95182821D01*
X103392867Y-95149523D01*
X103410643Y-94935005D01*
X103410643Y-94934994D01*
X103390109Y-94687187D01*
X103390107Y-94687175D01*
X103329063Y-94446118D01*
X103229173Y-94218393D01*
X103093166Y-94010217D01*
X103070742Y-93985858D01*
X102924744Y-93827262D01*
X102841991Y-93762852D01*
X102801179Y-93706143D01*
X102797504Y-93636370D01*
X102832136Y-93575687D01*
X102841985Y-93567151D01*
X102924744Y-93502738D01*
X103093164Y-93319785D01*
X103229173Y-93111607D01*
X103329063Y-92883881D01*
X103390108Y-92642821D01*
X103390109Y-92642812D01*
X103410643Y-92395005D01*
X103410643Y-92394994D01*
X103390109Y-92147187D01*
X103390107Y-92147175D01*
X103329063Y-91906118D01*
X103229173Y-91678393D01*
X103093166Y-91470217D01*
X103024716Y-91395861D01*
X102924744Y-91287262D01*
X102841991Y-91222852D01*
X102801179Y-91166143D01*
X102797504Y-91096370D01*
X102832136Y-91035687D01*
X102841985Y-91027151D01*
X102924744Y-90962738D01*
X103093164Y-90779785D01*
X103229173Y-90571607D01*
X103329063Y-90343881D01*
X103390108Y-90102821D01*
X103390109Y-90102812D01*
X103410643Y-89855005D01*
X103410643Y-89854994D01*
X103404843Y-89784998D01*
X109079532Y-89784998D01*
X109079532Y-89785001D01*
X109099364Y-90011686D01*
X109099366Y-90011697D01*
X109158258Y-90231488D01*
X109158261Y-90231497D01*
X109254431Y-90437732D01*
X109254432Y-90437734D01*
X109384954Y-90624141D01*
X109545858Y-90785045D01*
X109545861Y-90785047D01*
X109731624Y-90915118D01*
X109775248Y-90969693D01*
X109784500Y-91016692D01*
X109784500Y-93639230D01*
X109765494Y-93705202D01*
X109674211Y-93850476D01*
X109614631Y-94020745D01*
X109614630Y-94020750D01*
X109594435Y-94199996D01*
X109594435Y-94200003D01*
X109614630Y-94379249D01*
X109614631Y-94379254D01*
X109674211Y-94549523D01*
X109726946Y-94633449D01*
X109770184Y-94702262D01*
X109897738Y-94829816D01*
X110050478Y-94925789D01*
X110200497Y-94978283D01*
X110220745Y-94985368D01*
X110220750Y-94985369D01*
X110399996Y-95005565D01*
X110400000Y-95005565D01*
X110400004Y-95005565D01*
X110579249Y-94985369D01*
X110579252Y-94985368D01*
X110579255Y-94985368D01*
X110749522Y-94925789D01*
X110902262Y-94829816D01*
X111029816Y-94702262D01*
X111125789Y-94549522D01*
X111185368Y-94379255D01*
X111205565Y-94200000D01*
X111202440Y-94172267D01*
X111185369Y-94020750D01*
X111185368Y-94020745D01*
X111176162Y-93994435D01*
X111125789Y-93850478D01*
X111111201Y-93827262D01*
X111029815Y-93697737D01*
X111021819Y-93689741D01*
X110988334Y-93628418D01*
X110985500Y-93602060D01*
X110985500Y-91016692D01*
X111005185Y-90949653D01*
X111038374Y-90915119D01*
X111224139Y-90785047D01*
X111385047Y-90624139D01*
X111515568Y-90437734D01*
X111611739Y-90231496D01*
X111670635Y-90011692D01*
X111690468Y-89785000D01*
X111670635Y-89558308D01*
X111611739Y-89338504D01*
X111515568Y-89132266D01*
X111387611Y-88949523D01*
X111385045Y-88945858D01*
X111224141Y-88784954D01*
X111037734Y-88654432D01*
X111037732Y-88654431D01*
X110831497Y-88558261D01*
X110831488Y-88558258D01*
X110611697Y-88499366D01*
X110611693Y-88499365D01*
X110611692Y-88499365D01*
X110611691Y-88499364D01*
X110611686Y-88499364D01*
X110385002Y-88479532D01*
X110384998Y-88479532D01*
X110158313Y-88499364D01*
X110158302Y-88499366D01*
X109938511Y-88558258D01*
X109938502Y-88558261D01*
X109732267Y-88654431D01*
X109732265Y-88654432D01*
X109545858Y-88784954D01*
X109384954Y-88945858D01*
X109254432Y-89132265D01*
X109254431Y-89132267D01*
X109158261Y-89338502D01*
X109158258Y-89338511D01*
X109099366Y-89558302D01*
X109099364Y-89558313D01*
X109079532Y-89784998D01*
X103404843Y-89784998D01*
X103390109Y-89607187D01*
X103390107Y-89607175D01*
X103329063Y-89366118D01*
X103229174Y-89138396D01*
X103229173Y-89138393D01*
X103098256Y-88938009D01*
X103078070Y-88871122D01*
X103097250Y-88803936D01*
X103142642Y-88761356D01*
X103147323Y-88758798D01*
X103147331Y-88758796D01*
X103262546Y-88672546D01*
X103348796Y-88557331D01*
X103399091Y-88422483D01*
X103405500Y-88362873D01*
X103405499Y-86267128D01*
X103400299Y-86218757D01*
X103399091Y-86207516D01*
X103348797Y-86072671D01*
X103348793Y-86072664D01*
X103262547Y-85957455D01*
X103262544Y-85957452D01*
X103147335Y-85871206D01*
X103147328Y-85871202D01*
X103012482Y-85820908D01*
X103012483Y-85820908D01*
X102952883Y-85814501D01*
X102952881Y-85814500D01*
X102952873Y-85814500D01*
X102952864Y-85814500D01*
X100857129Y-85814500D01*
X100857123Y-85814501D01*
X100797516Y-85820908D01*
X100662671Y-85871202D01*
X100662664Y-85871206D01*
X100547455Y-85957452D01*
X100547452Y-85957455D01*
X100461206Y-86072664D01*
X100461202Y-86072671D01*
X100410908Y-86207517D01*
X100408469Y-86230209D01*
X100404501Y-86267123D01*
X100404500Y-86267135D01*
X100404500Y-88362870D01*
X100404501Y-88362876D01*
X100410908Y-88422483D01*
X100461202Y-88557328D01*
X100461206Y-88557335D01*
X100547452Y-88672544D01*
X100547455Y-88672547D01*
X100662664Y-88758793D01*
X100667361Y-88761358D01*
X100716766Y-88810764D01*
X100731617Y-88879037D01*
X100711742Y-88938011D01*
X100580826Y-89138393D01*
X100480936Y-89366118D01*
X100419892Y-89607175D01*
X100419890Y-89607187D01*
X100399357Y-89854994D01*
X99199369Y-89854994D01*
X99205565Y-89800003D01*
X99205565Y-89799996D01*
X99185369Y-89620750D01*
X99185368Y-89620745D01*
X99125788Y-89450476D01*
X99055430Y-89338502D01*
X99029816Y-89297738D01*
X98902262Y-89170184D01*
X98841916Y-89132266D01*
X98749523Y-89074211D01*
X98579254Y-89014631D01*
X98579249Y-89014630D01*
X98400004Y-88994435D01*
X98399996Y-88994435D01*
X98220750Y-89014630D01*
X98220745Y-89014631D01*
X98050476Y-89074211D01*
X97897737Y-89170184D01*
X97770184Y-89297737D01*
X97674211Y-89450476D01*
X97614631Y-89620745D01*
X97614630Y-89620750D01*
X97594435Y-89799996D01*
X97594435Y-89800003D01*
X97614630Y-89979249D01*
X97614631Y-89979254D01*
X97674211Y-90149523D01*
X97688158Y-90171719D01*
X97707158Y-90238956D01*
X97690551Y-90299691D01*
X97665424Y-90343211D01*
X97665423Y-90343212D01*
X97645495Y-90417587D01*
X97624499Y-90495943D01*
X97624499Y-90495945D01*
X97624499Y-90664046D01*
X97624500Y-90664059D01*
X97624500Y-106143306D01*
X97604815Y-106210345D01*
X97571623Y-106244881D01*
X97385859Y-106374953D01*
X97224954Y-106535858D01*
X97094432Y-106722265D01*
X97094431Y-106722267D01*
X96998261Y-106928502D01*
X96998258Y-106928511D01*
X96939366Y-107148302D01*
X96939364Y-107148313D01*
X96919532Y-107374998D01*
X95400500Y-107374998D01*
X95400500Y-78977135D01*
X97044500Y-78977135D01*
X97044500Y-80672870D01*
X97044501Y-80672876D01*
X97050908Y-80732483D01*
X97101202Y-80867328D01*
X97101206Y-80867335D01*
X97187452Y-80982544D01*
X97187455Y-80982547D01*
X97302664Y-81068793D01*
X97302671Y-81068797D01*
X97319179Y-81074954D01*
X97437517Y-81119091D01*
X97497127Y-81125500D01*
X97620500Y-81125499D01*
X97687539Y-81145183D01*
X97733294Y-81197987D01*
X97744500Y-81249499D01*
X97744500Y-86702889D01*
X97725494Y-86768860D01*
X97674209Y-86850479D01*
X97614633Y-87020737D01*
X97614630Y-87020750D01*
X97594435Y-87199996D01*
X97594435Y-87200003D01*
X97614630Y-87379249D01*
X97614631Y-87379254D01*
X97674211Y-87549523D01*
X97715122Y-87614632D01*
X97770184Y-87702262D01*
X97897738Y-87829816D01*
X97959179Y-87868422D01*
X98005833Y-87897737D01*
X98050478Y-87925789D01*
X98083209Y-87937242D01*
X98220745Y-87985368D01*
X98220750Y-87985369D01*
X98399996Y-88005565D01*
X98400000Y-88005565D01*
X98400004Y-88005565D01*
X98579249Y-87985369D01*
X98579252Y-87985368D01*
X98579255Y-87985368D01*
X98749522Y-87925789D01*
X98902262Y-87829816D01*
X99029816Y-87702262D01*
X99125789Y-87549522D01*
X99185368Y-87379255D01*
X99188518Y-87351297D01*
X99205565Y-87200003D01*
X99205565Y-87199996D01*
X99185369Y-87020750D01*
X99185368Y-87020745D01*
X99162490Y-86955364D01*
X99125789Y-86850478D01*
X99115475Y-86834064D01*
X99064387Y-86752758D01*
X99029816Y-86697738D01*
X98981819Y-86649741D01*
X98948334Y-86588418D01*
X98945500Y-86562060D01*
X98945500Y-84784998D01*
X109079532Y-84784998D01*
X109079532Y-84785001D01*
X109099364Y-85011686D01*
X109099366Y-85011697D01*
X109158258Y-85231488D01*
X109158261Y-85231497D01*
X109254431Y-85437732D01*
X109254432Y-85437734D01*
X109384954Y-85624141D01*
X109545858Y-85785045D01*
X109545861Y-85785047D01*
X109731624Y-85915118D01*
X109775248Y-85969693D01*
X109784500Y-86016692D01*
X109784500Y-86098330D01*
X109784499Y-86098348D01*
X109784499Y-86239232D01*
X109765493Y-86305204D01*
X109674211Y-86450476D01*
X109614631Y-86620745D01*
X109614630Y-86620750D01*
X109594435Y-86799996D01*
X109594435Y-86800003D01*
X109614630Y-86979249D01*
X109614631Y-86979254D01*
X109674211Y-87149523D01*
X109757453Y-87282001D01*
X109770184Y-87302262D01*
X109897738Y-87429816D01*
X110050478Y-87525789D01*
X110143835Y-87558456D01*
X110220745Y-87585368D01*
X110220750Y-87585369D01*
X110399996Y-87605565D01*
X110400000Y-87605565D01*
X110400004Y-87605565D01*
X110579249Y-87585369D01*
X110579252Y-87585368D01*
X110579255Y-87585368D01*
X110749522Y-87525789D01*
X110902262Y-87429816D01*
X111029816Y-87302262D01*
X111125789Y-87149522D01*
X111185368Y-86979255D01*
X111188058Y-86955383D01*
X111205565Y-86800003D01*
X111205565Y-86799996D01*
X111185369Y-86620750D01*
X111185368Y-86620745D01*
X111155452Y-86535249D01*
X111125789Y-86450478D01*
X111029816Y-86297738D01*
X111029814Y-86297736D01*
X111029813Y-86297734D01*
X111027550Y-86294896D01*
X111026659Y-86292715D01*
X111026111Y-86291842D01*
X111026264Y-86291745D01*
X111001144Y-86230209D01*
X111000500Y-86217587D01*
X111000500Y-86120944D01*
X111000499Y-86120937D01*
X110992336Y-86090471D01*
X110989726Y-86080731D01*
X110985500Y-86048635D01*
X110985500Y-86016692D01*
X111005185Y-85949653D01*
X111038374Y-85915119D01*
X111224139Y-85785047D01*
X111385047Y-85624139D01*
X111515568Y-85437734D01*
X111611739Y-85231496D01*
X111670635Y-85011692D01*
X111690468Y-84785000D01*
X111689965Y-84779255D01*
X111681523Y-84682763D01*
X111670635Y-84558308D01*
X111611739Y-84338504D01*
X111515568Y-84132266D01*
X111417839Y-83992693D01*
X111385045Y-83945858D01*
X111224141Y-83784954D01*
X111037734Y-83654432D01*
X111037732Y-83654431D01*
X110831497Y-83558261D01*
X110831488Y-83558258D01*
X110611697Y-83499366D01*
X110611693Y-83499365D01*
X110611692Y-83499365D01*
X110611691Y-83499364D01*
X110611686Y-83499364D01*
X110385002Y-83479532D01*
X110384998Y-83479532D01*
X110158313Y-83499364D01*
X110158302Y-83499366D01*
X109938511Y-83558258D01*
X109938502Y-83558261D01*
X109732267Y-83654431D01*
X109732265Y-83654432D01*
X109545858Y-83784954D01*
X109384954Y-83945858D01*
X109254432Y-84132265D01*
X109254431Y-84132267D01*
X109158261Y-84338502D01*
X109158258Y-84338511D01*
X109099366Y-84558302D01*
X109099364Y-84558313D01*
X109079532Y-84784998D01*
X98945500Y-84784998D01*
X98945500Y-81249499D01*
X98965185Y-81182460D01*
X99017989Y-81136705D01*
X99069500Y-81125499D01*
X99192871Y-81125499D01*
X99192872Y-81125499D01*
X99197533Y-81124998D01*
X109269532Y-81124998D01*
X109269532Y-81125001D01*
X109289364Y-81351686D01*
X109289366Y-81351697D01*
X109348258Y-81571488D01*
X109348261Y-81571497D01*
X109444431Y-81777732D01*
X109444432Y-81777734D01*
X109574954Y-81964141D01*
X109735858Y-82125045D01*
X109735861Y-82125047D01*
X109922266Y-82255568D01*
X110128504Y-82351739D01*
X110348308Y-82410635D01*
X110510230Y-82424801D01*
X110574998Y-82430468D01*
X110575000Y-82430468D01*
X110575002Y-82430468D01*
X110631673Y-82425509D01*
X110801692Y-82410635D01*
X111021496Y-82351739D01*
X111227734Y-82255568D01*
X111414139Y-82125047D01*
X111575047Y-81964139D01*
X111705568Y-81777734D01*
X111801739Y-81571496D01*
X111860635Y-81351692D01*
X111880424Y-81125499D01*
X111880468Y-81125001D01*
X111880468Y-81124998D01*
X111868972Y-80993598D01*
X111860635Y-80898308D01*
X111806893Y-80697738D01*
X111801741Y-80678511D01*
X111801738Y-80678502D01*
X111794892Y-80663820D01*
X111705568Y-80472266D01*
X111602063Y-80324444D01*
X111575045Y-80285858D01*
X111414140Y-80124953D01*
X111228377Y-79994881D01*
X111184752Y-79940304D01*
X111175500Y-79893306D01*
X111175500Y-76695943D01*
X111170975Y-76679058D01*
X111170974Y-76679054D01*
X111169676Y-76674211D01*
X111147955Y-76593145D01*
X111144891Y-76581710D01*
X111134578Y-76543218D01*
X111134577Y-76543217D01*
X111134577Y-76543216D01*
X111109448Y-76499691D01*
X111092975Y-76431791D01*
X111111841Y-76371718D01*
X111125789Y-76349522D01*
X111185368Y-76179255D01*
X111185369Y-76179249D01*
X111205565Y-76000003D01*
X111205565Y-75999996D01*
X111185369Y-75820750D01*
X111185368Y-75820745D01*
X111170585Y-75778499D01*
X111125789Y-75650478D01*
X111029816Y-75497738D01*
X110902262Y-75370184D01*
X110749523Y-75274211D01*
X110579254Y-75214631D01*
X110579249Y-75214630D01*
X110400004Y-75194435D01*
X110399996Y-75194435D01*
X110220750Y-75214630D01*
X110220745Y-75214631D01*
X110050476Y-75274211D01*
X109897737Y-75370184D01*
X109770184Y-75497737D01*
X109674211Y-75650476D01*
X109614631Y-75820745D01*
X109614630Y-75820750D01*
X109594435Y-75999996D01*
X109594435Y-76000003D01*
X109614630Y-76179249D01*
X109614631Y-76179254D01*
X109674211Y-76349523D01*
X109770182Y-76502259D01*
X109772441Y-76505091D01*
X109773330Y-76507268D01*
X109773889Y-76508158D01*
X109773733Y-76508255D01*
X109798854Y-76569776D01*
X109799499Y-76582410D01*
X109799499Y-76679054D01*
X109799498Y-76679054D01*
X109799499Y-76679057D01*
X109840423Y-76831785D01*
X109840424Y-76831786D01*
X109853281Y-76854057D01*
X109853282Y-76854058D01*
X109919475Y-76968709D01*
X109919481Y-76968717D01*
X109938181Y-76987417D01*
X109971666Y-77048740D01*
X109974500Y-77075098D01*
X109974500Y-79893306D01*
X109954815Y-79960345D01*
X109921623Y-79994881D01*
X109735859Y-80124953D01*
X109574954Y-80285858D01*
X109444432Y-80472265D01*
X109444431Y-80472267D01*
X109348261Y-80678502D01*
X109348258Y-80678511D01*
X109289366Y-80898302D01*
X109289364Y-80898313D01*
X109269532Y-81124998D01*
X99197533Y-81124998D01*
X99252483Y-81119091D01*
X99387331Y-81068796D01*
X99502546Y-80982546D01*
X99588796Y-80867331D01*
X99639091Y-80732483D01*
X99645500Y-80672873D01*
X99645499Y-79574999D01*
X104686127Y-79574999D01*
X104686128Y-79575000D01*
X105649314Y-79575000D01*
X105644920Y-79579394D01*
X105592259Y-79670606D01*
X105565000Y-79772339D01*
X105565000Y-79877661D01*
X105592259Y-79979394D01*
X105644920Y-80070606D01*
X105649314Y-80075000D01*
X104686128Y-80075000D01*
X104738730Y-80271317D01*
X104738734Y-80271326D01*
X104834865Y-80477482D01*
X104965342Y-80663820D01*
X105126179Y-80824657D01*
X105312517Y-80955134D01*
X105518673Y-81051265D01*
X105518682Y-81051269D01*
X105714999Y-81103872D01*
X105715000Y-81103871D01*
X105715000Y-80140686D01*
X105719394Y-80145080D01*
X105810606Y-80197741D01*
X105912339Y-80225000D01*
X106017661Y-80225000D01*
X106119394Y-80197741D01*
X106210606Y-80145080D01*
X106215000Y-80140686D01*
X106215000Y-81103872D01*
X106411317Y-81051269D01*
X106411326Y-81051265D01*
X106617482Y-80955134D01*
X106803820Y-80824657D01*
X106964657Y-80663820D01*
X107095134Y-80477482D01*
X107191265Y-80271326D01*
X107191269Y-80271317D01*
X107243872Y-80075000D01*
X106280686Y-80075000D01*
X106285080Y-80070606D01*
X106337741Y-79979394D01*
X106365000Y-79877661D01*
X106365000Y-79772339D01*
X106337741Y-79670606D01*
X106285080Y-79579394D01*
X106280686Y-79575000D01*
X107243872Y-79575000D01*
X107243872Y-79574999D01*
X107191269Y-79378682D01*
X107191265Y-79378673D01*
X107095134Y-79172517D01*
X106964657Y-78986179D01*
X106803820Y-78825342D01*
X106617482Y-78694865D01*
X106411328Y-78598734D01*
X106215000Y-78546127D01*
X106215000Y-79509314D01*
X106210606Y-79504920D01*
X106119394Y-79452259D01*
X106017661Y-79425000D01*
X105912339Y-79425000D01*
X105810606Y-79452259D01*
X105719394Y-79504920D01*
X105715000Y-79509314D01*
X105715000Y-78546127D01*
X105518671Y-78598734D01*
X105312517Y-78694865D01*
X105126179Y-78825342D01*
X104965342Y-78986179D01*
X104834865Y-79172517D01*
X104738734Y-79378673D01*
X104738730Y-79378682D01*
X104686127Y-79574999D01*
X99645499Y-79574999D01*
X99645499Y-78977128D01*
X99639936Y-78925376D01*
X99639091Y-78917516D01*
X99588797Y-78782671D01*
X99588793Y-78782664D01*
X99502547Y-78667455D01*
X99502544Y-78667452D01*
X99387335Y-78581206D01*
X99387328Y-78581202D01*
X99252482Y-78530908D01*
X99252483Y-78530908D01*
X99192883Y-78524501D01*
X99192881Y-78524500D01*
X99192873Y-78524500D01*
X99192865Y-78524500D01*
X99069500Y-78524500D01*
X99002461Y-78504815D01*
X98956706Y-78452011D01*
X98945500Y-78400500D01*
X98945500Y-74784097D01*
X98965185Y-74717058D01*
X99017989Y-74671303D01*
X99087147Y-74661359D01*
X99150703Y-74690384D01*
X99157179Y-74696414D01*
X100111240Y-75650476D01*
X100941282Y-76480518D01*
X100941284Y-76480520D01*
X100944080Y-76482134D01*
X100969764Y-76501842D01*
X100970184Y-76502262D01*
X101097738Y-76629816D01*
X101250478Y-76725789D01*
X101377352Y-76770184D01*
X101420745Y-76785368D01*
X101420750Y-76785369D01*
X101599996Y-76805565D01*
X101600000Y-76805565D01*
X101600004Y-76805565D01*
X101779249Y-76785369D01*
X101779252Y-76785368D01*
X101779255Y-76785368D01*
X101949522Y-76725789D01*
X102102262Y-76629816D01*
X102229816Y-76502262D01*
X102325789Y-76349522D01*
X102385368Y-76179255D01*
X102385369Y-76179249D01*
X102405565Y-76000003D01*
X102405565Y-75999996D01*
X102385369Y-75820750D01*
X102385368Y-75820745D01*
X102370585Y-75778499D01*
X102325789Y-75650478D01*
X102229816Y-75497738D01*
X102102262Y-75370184D01*
X101949523Y-75274211D01*
X101779254Y-75214631D01*
X101779249Y-75214630D01*
X101600004Y-75194435D01*
X101599996Y-75194435D01*
X101437953Y-75212692D01*
X101369131Y-75200637D01*
X101336389Y-75177153D01*
X99826941Y-73667706D01*
X99793456Y-73606383D01*
X99794847Y-73547931D01*
X99817299Y-73464141D01*
X99820635Y-73451692D01*
X99840468Y-73225000D01*
X99838280Y-73199996D01*
X99830254Y-73108255D01*
X99820635Y-72998308D01*
X99768637Y-72804249D01*
X99761741Y-72778511D01*
X99761738Y-72778502D01*
X99736790Y-72725001D01*
X99665568Y-72572266D01*
X99559473Y-72420745D01*
X99535045Y-72385858D01*
X99526322Y-72377135D01*
X104854500Y-72377135D01*
X104854500Y-74072870D01*
X104854501Y-74072876D01*
X104860908Y-74132483D01*
X104911202Y-74267328D01*
X104911206Y-74267335D01*
X104997452Y-74382544D01*
X104997455Y-74382547D01*
X105112664Y-74468793D01*
X105112671Y-74468797D01*
X105247517Y-74519091D01*
X105247516Y-74519091D01*
X105254444Y-74519835D01*
X105307127Y-74525500D01*
X107002872Y-74525499D01*
X107062483Y-74519091D01*
X107197331Y-74468796D01*
X107312546Y-74382546D01*
X107398796Y-74267331D01*
X107449091Y-74132483D01*
X107455500Y-74072873D01*
X107455499Y-72377128D01*
X107449091Y-72317517D01*
X107437799Y-72287242D01*
X107398797Y-72182671D01*
X107398793Y-72182664D01*
X107312547Y-72067455D01*
X107312544Y-72067452D01*
X107197335Y-71981206D01*
X107197328Y-71981202D01*
X107062482Y-71930908D01*
X107062483Y-71930908D01*
X107002883Y-71924501D01*
X107002881Y-71924500D01*
X107002873Y-71924500D01*
X107002864Y-71924500D01*
X105307129Y-71924500D01*
X105307123Y-71924501D01*
X105247516Y-71930908D01*
X105112671Y-71981202D01*
X105112664Y-71981206D01*
X104997455Y-72067452D01*
X104997452Y-72067455D01*
X104911206Y-72182664D01*
X104911202Y-72182671D01*
X104860908Y-72317517D01*
X104854632Y-72375896D01*
X104854501Y-72377123D01*
X104854500Y-72377135D01*
X99526322Y-72377135D01*
X99374141Y-72224954D01*
X99187734Y-72094432D01*
X99187732Y-72094431D01*
X98981497Y-71998261D01*
X98981488Y-71998258D01*
X98761697Y-71939366D01*
X98761693Y-71939365D01*
X98761692Y-71939365D01*
X98761691Y-71939364D01*
X98761686Y-71939364D01*
X98535002Y-71919532D01*
X98534998Y-71919532D01*
X98308313Y-71939364D01*
X98308302Y-71939366D01*
X98088511Y-71998258D01*
X98088502Y-71998261D01*
X97882267Y-72094431D01*
X97882265Y-72094432D01*
X97695858Y-72224954D01*
X97534954Y-72385858D01*
X97404432Y-72572265D01*
X97404431Y-72572267D01*
X97308261Y-72778502D01*
X97308258Y-72778511D01*
X97249366Y-72998302D01*
X97249364Y-72998313D01*
X97229532Y-73224998D01*
X97229532Y-73225001D01*
X97249364Y-73451686D01*
X97249366Y-73451697D01*
X97308258Y-73671488D01*
X97308261Y-73671497D01*
X97404431Y-73877732D01*
X97404432Y-73877734D01*
X97534954Y-74064141D01*
X97695861Y-74225048D01*
X97700006Y-74228526D01*
X97698301Y-74230557D01*
X97735097Y-74276288D01*
X97744500Y-74323654D01*
X97744500Y-78400500D01*
X97724815Y-78467539D01*
X97672011Y-78513294D01*
X97620501Y-78524500D01*
X97497130Y-78524500D01*
X97497123Y-78524501D01*
X97437516Y-78530908D01*
X97302671Y-78581202D01*
X97302664Y-78581206D01*
X97187455Y-78667452D01*
X97187452Y-78667455D01*
X97101206Y-78782664D01*
X97101202Y-78782671D01*
X97050908Y-78917517D01*
X97044501Y-78977116D01*
X97044501Y-78977123D01*
X97044500Y-78977135D01*
X95400500Y-78977135D01*
X95400500Y-69624500D01*
X95420185Y-69557461D01*
X95472989Y-69511706D01*
X95524500Y-69500500D01*
X110080240Y-69500500D01*
X110147279Y-69520185D01*
G37*
%TD.AperFunction*%
%TD*%
M02*
