%TF.GenerationSoftware,KiCad,Pcbnew,8.0.8*%
%TF.CreationDate,2025-03-29T12:35:08-04:00*%
%TF.ProjectId,h-bridge,682d6272-6964-4676-952e-6b696361645f,rev?*%
%TF.SameCoordinates,Original*%
%TF.FileFunction,Soldermask,Bot*%
%TF.FilePolarity,Negative*%
%FSLAX46Y46*%
G04 Gerber Fmt 4.6, Leading zero omitted, Abs format (unit mm)*
G04 Created by KiCad (PCBNEW 8.0.8) date 2025-03-29 12:35:08*
%MOMM*%
%LPD*%
G01*
G04 APERTURE LIST*
%ADD10C,1.600000*%
%ADD11R,1.600000X1.600000*%
%ADD12O,1.600000X1.600000*%
%ADD13R,2.000000X1.905000*%
%ADD14O,2.000000X1.905000*%
%ADD15R,2.000000X2.000000*%
%ADD16C,2.000000*%
%ADD17R,1.500000X1.050000*%
%ADD18O,1.500000X1.050000*%
%ADD19R,2.200000X2.200000*%
%ADD20O,2.200000X2.200000*%
G04 APERTURE END LIST*
D10*
%TO.C,C2*%
X109889698Y-97375000D03*
D11*
X113689698Y-97375000D03*
%TD*%
D10*
%TO.C,R6*%
X146075000Y-72625000D03*
D12*
X156235000Y-72625000D03*
%TD*%
D13*
%TO.C,Q6*%
X138045000Y-103845000D03*
D14*
X138045000Y-101305000D03*
X138045000Y-98765000D03*
%TD*%
D10*
%TO.C,R9*%
X120175000Y-104075000D03*
D12*
X130335000Y-104075000D03*
%TD*%
%TO.C,R10*%
X120365000Y-115725000D03*
D10*
X130525000Y-115725000D03*
%TD*%
D14*
%TO.C,Q4*%
X137955000Y-83655000D03*
X137955000Y-86195000D03*
D13*
X137955000Y-88735000D03*
%TD*%
%TO.C,Q3*%
X153885000Y-96955000D03*
D14*
X153885000Y-99495000D03*
X153885000Y-102035000D03*
%TD*%
D15*
%TO.C,J1*%
X101905000Y-87315000D03*
D16*
X101905000Y-89855000D03*
X101905000Y-92395000D03*
X101905000Y-94935000D03*
X101905000Y-97475000D03*
X101905000Y-100015000D03*
%TD*%
D10*
%TO.C,R7*%
X146075000Y-115675000D03*
D12*
X156235000Y-115675000D03*
%TD*%
D13*
%TO.C,Q7*%
X153805000Y-85955000D03*
D14*
X153805000Y-88495000D03*
X153805000Y-91035000D03*
%TD*%
D12*
%TO.C,R3*%
X130335000Y-72725000D03*
D10*
X120175000Y-72725000D03*
%TD*%
D12*
%TO.C,R4*%
X130335000Y-84525000D03*
D10*
X120175000Y-84525000D03*
%TD*%
D11*
%TO.C,D2*%
X98345000Y-79825000D03*
D12*
X105965000Y-79825000D03*
%TD*%
D10*
%TO.C,R1*%
X110575000Y-81125000D03*
D12*
X110575000Y-70965000D03*
%TD*%
%TO.C,D4*%
X105965000Y-113925000D03*
D11*
X98345000Y-113925000D03*
%TD*%
D10*
%TO.C,R5*%
X146075000Y-94825000D03*
D12*
X146075000Y-104985000D03*
%TD*%
D10*
%TO.C,R2*%
X111075000Y-104975000D03*
D12*
X111075000Y-115135000D03*
%TD*%
%TO.C,R8*%
X146125000Y-92235000D03*
D10*
X146125000Y-82075000D03*
%TD*%
%TO.C,C1*%
X110385000Y-84785000D03*
X110385000Y-89785000D03*
%TD*%
D11*
%TO.C,D3*%
X105845000Y-107375000D03*
D12*
X98225000Y-107375000D03*
%TD*%
D11*
%TO.C,D1*%
X106155000Y-73225000D03*
D12*
X98535000Y-73225000D03*
%TD*%
D13*
%TO.C,Q5*%
X138045000Y-114725000D03*
D14*
X138045000Y-112185000D03*
X138045000Y-109645000D03*
%TD*%
D17*
%TO.C,Q8*%
X120885000Y-111025000D03*
D18*
X120885000Y-109755000D03*
X120885000Y-108485000D03*
%TD*%
%TO.C,Q1*%
X120945000Y-77435000D03*
X120945000Y-78705000D03*
D17*
X120945000Y-79975000D03*
%TD*%
D13*
%TO.C,Q2*%
X138045000Y-77925000D03*
D14*
X138045000Y-75385000D03*
X138045000Y-72845000D03*
%TD*%
D19*
%TO.C,D8*%
X146235000Y-78875000D03*
D20*
X156395000Y-78875000D03*
%TD*%
D19*
%TO.C,D7*%
X120335000Y-97625000D03*
D20*
X130495000Y-97625000D03*
%TD*%
%TO.C,D6*%
X156425000Y-109125000D03*
D19*
X146265000Y-109125000D03*
%TD*%
D20*
%TO.C,D5*%
X130495000Y-91125000D03*
D19*
X120335000Y-91125000D03*
%TD*%
M02*
