%TF.GenerationSoftware,KiCad,Pcbnew,9.0.0*%
%TF.CreationDate,2025-04-05T16:30:54-04:00*%
%TF.ProjectId,h-bridge,682d6272-6964-4676-952e-6b696361645f,rev?*%
%TF.SameCoordinates,Original*%
%TF.FileFunction,Legend,Top*%
%TF.FilePolarity,Positive*%
%FSLAX46Y46*%
G04 Gerber Fmt 4.6, Leading zero omitted, Abs format (unit mm)*
G04 Created by KiCad (PCBNEW 9.0.0) date 2025-04-05 16:30:54*
%MOMM*%
%LPD*%
G01*
G04 APERTURE LIST*
%ADD10C,0.100000*%
%ADD11C,0.150000*%
%ADD12C,0.120000*%
G04 APERTURE END LIST*
D10*
X129472419Y-117063972D02*
X130472419Y-116730639D01*
X130472419Y-116730639D02*
X129472419Y-116397306D01*
X130472419Y-116063972D02*
X129805752Y-116063972D01*
X129996228Y-116063972D02*
X129900990Y-116016353D01*
X129900990Y-116016353D02*
X129853371Y-115968734D01*
X129853371Y-115968734D02*
X129805752Y-115873496D01*
X129805752Y-115873496D02*
X129805752Y-115778258D01*
X129872419Y-74038972D02*
X130872419Y-73705639D01*
X130872419Y-73705639D02*
X129872419Y-73372306D01*
X130205752Y-73181829D02*
X130205752Y-72800877D01*
X130872419Y-73038972D02*
X130015276Y-73038972D01*
X130015276Y-73038972D02*
X129920038Y-72991353D01*
X129920038Y-72991353D02*
X129872419Y-72896115D01*
X129872419Y-72896115D02*
X129872419Y-72800877D01*
X131472419Y-102496115D02*
X130472419Y-102496115D01*
X130472419Y-102496115D02*
X131186704Y-102162782D01*
X131186704Y-102162782D02*
X130472419Y-101829449D01*
X130472419Y-101829449D02*
X131472419Y-101829449D01*
X131091466Y-101353258D02*
X131091466Y-100591354D01*
X131272419Y-91096115D02*
X130272419Y-91096115D01*
X130272419Y-91096115D02*
X130986704Y-90762782D01*
X130986704Y-90762782D02*
X130272419Y-90429449D01*
X130272419Y-90429449D02*
X131272419Y-90429449D01*
X130891466Y-89953258D02*
X130891466Y-89191354D01*
X131272419Y-89572306D02*
X130510514Y-89572306D01*
X96327580Y-83703884D02*
X97327580Y-83703884D01*
X96327580Y-84180074D02*
X97327580Y-84180074D01*
X97327580Y-84180074D02*
X96327580Y-84751502D01*
X96327580Y-84751502D02*
X97327580Y-84751502D01*
X96327580Y-85751502D02*
X96327580Y-85180074D01*
X96327580Y-85465788D02*
X97327580Y-85465788D01*
X97327580Y-85465788D02*
X97184723Y-85370550D01*
X97184723Y-85370550D02*
X97089485Y-85275312D01*
X97089485Y-85275312D02*
X97041866Y-85180074D01*
X95994247Y-86418169D02*
X97422819Y-86418169D01*
X96327580Y-87132455D02*
X97327580Y-87132455D01*
X96327580Y-87608645D02*
X97327580Y-87608645D01*
X97327580Y-87608645D02*
X96327580Y-88180073D01*
X96327580Y-88180073D02*
X97327580Y-88180073D01*
X97232342Y-88608645D02*
X97279961Y-88656264D01*
X97279961Y-88656264D02*
X97327580Y-88751502D01*
X97327580Y-88751502D02*
X97327580Y-88989597D01*
X97327580Y-88989597D02*
X97279961Y-89084835D01*
X97279961Y-89084835D02*
X97232342Y-89132454D01*
X97232342Y-89132454D02*
X97137104Y-89180073D01*
X97137104Y-89180073D02*
X97041866Y-89180073D01*
X97041866Y-89180073D02*
X96899009Y-89132454D01*
X96899009Y-89132454D02*
X96327580Y-88561026D01*
X96327580Y-88561026D02*
X96327580Y-89180073D01*
X95994247Y-89846740D02*
X97422819Y-89846740D01*
X96327580Y-90561026D02*
X97327580Y-90561026D01*
X97327580Y-90561026D02*
X96613295Y-90894359D01*
X96613295Y-90894359D02*
X97327580Y-91227692D01*
X97327580Y-91227692D02*
X96327580Y-91227692D01*
X96327580Y-92227692D02*
X96327580Y-91656264D01*
X96327580Y-91941978D02*
X97327580Y-91941978D01*
X97327580Y-91941978D02*
X97184723Y-91846740D01*
X97184723Y-91846740D02*
X97089485Y-91751502D01*
X97089485Y-91751502D02*
X97041866Y-91656264D01*
X95994247Y-92894359D02*
X97422819Y-92894359D01*
X96327580Y-93608645D02*
X97327580Y-93608645D01*
X97327580Y-93608645D02*
X96613295Y-93941978D01*
X96613295Y-93941978D02*
X97327580Y-94275311D01*
X97327580Y-94275311D02*
X96327580Y-94275311D01*
X97232342Y-94703883D02*
X97279961Y-94751502D01*
X97279961Y-94751502D02*
X97327580Y-94846740D01*
X97327580Y-94846740D02*
X97327580Y-95084835D01*
X97327580Y-95084835D02*
X97279961Y-95180073D01*
X97279961Y-95180073D02*
X97232342Y-95227692D01*
X97232342Y-95227692D02*
X97137104Y-95275311D01*
X97137104Y-95275311D02*
X97041866Y-95275311D01*
X97041866Y-95275311D02*
X96899009Y-95227692D01*
X96899009Y-95227692D02*
X96327580Y-94656264D01*
X96327580Y-94656264D02*
X96327580Y-95275311D01*
X95994247Y-95941978D02*
X97422819Y-95941978D01*
X96327580Y-96656264D02*
X97327580Y-96656264D01*
X97327580Y-96656264D02*
X97327580Y-97037216D01*
X97327580Y-97037216D02*
X97279961Y-97132454D01*
X97279961Y-97132454D02*
X97232342Y-97180073D01*
X97232342Y-97180073D02*
X97137104Y-97227692D01*
X97137104Y-97227692D02*
X96994247Y-97227692D01*
X96994247Y-97227692D02*
X96899009Y-97180073D01*
X96899009Y-97180073D02*
X96851390Y-97132454D01*
X96851390Y-97132454D02*
X96803771Y-97037216D01*
X96803771Y-97037216D02*
X96803771Y-96656264D01*
X97327580Y-97561026D02*
X96327580Y-97799121D01*
X96327580Y-97799121D02*
X97041866Y-97989597D01*
X97041866Y-97989597D02*
X96327580Y-98180073D01*
X96327580Y-98180073D02*
X97327580Y-98418169D01*
X96327580Y-99370549D02*
X96803771Y-99037216D01*
X96327580Y-98799121D02*
X97327580Y-98799121D01*
X97327580Y-98799121D02*
X97327580Y-99180073D01*
X97327580Y-99180073D02*
X97279961Y-99275311D01*
X97279961Y-99275311D02*
X97232342Y-99322930D01*
X97232342Y-99322930D02*
X97137104Y-99370549D01*
X97137104Y-99370549D02*
X96994247Y-99370549D01*
X96994247Y-99370549D02*
X96899009Y-99322930D01*
X96899009Y-99322930D02*
X96851390Y-99275311D01*
X96851390Y-99275311D02*
X96803771Y-99180073D01*
X96803771Y-99180073D02*
X96803771Y-98799121D01*
X95994247Y-100037216D02*
X97422819Y-100037216D01*
X97279961Y-101275311D02*
X97327580Y-101180073D01*
X97327580Y-101180073D02*
X97327580Y-101037216D01*
X97327580Y-101037216D02*
X97279961Y-100894359D01*
X97279961Y-100894359D02*
X97184723Y-100799121D01*
X97184723Y-100799121D02*
X97089485Y-100751502D01*
X97089485Y-100751502D02*
X96899009Y-100703883D01*
X96899009Y-100703883D02*
X96756152Y-100703883D01*
X96756152Y-100703883D02*
X96565676Y-100751502D01*
X96565676Y-100751502D02*
X96470438Y-100799121D01*
X96470438Y-100799121D02*
X96375200Y-100894359D01*
X96375200Y-100894359D02*
X96327580Y-101037216D01*
X96327580Y-101037216D02*
X96327580Y-101132454D01*
X96327580Y-101132454D02*
X96375200Y-101275311D01*
X96375200Y-101275311D02*
X96422819Y-101322930D01*
X96422819Y-101322930D02*
X96756152Y-101322930D01*
X96756152Y-101322930D02*
X96756152Y-101132454D01*
X96327580Y-101751502D02*
X97327580Y-101751502D01*
X97327580Y-101751502D02*
X96327580Y-102322930D01*
X96327580Y-102322930D02*
X97327580Y-102322930D01*
X96327580Y-102799121D02*
X97327580Y-102799121D01*
X97327580Y-102799121D02*
X97327580Y-103037216D01*
X97327580Y-103037216D02*
X97279961Y-103180073D01*
X97279961Y-103180073D02*
X97184723Y-103275311D01*
X97184723Y-103275311D02*
X97089485Y-103322930D01*
X97089485Y-103322930D02*
X96899009Y-103370549D01*
X96899009Y-103370549D02*
X96756152Y-103370549D01*
X96756152Y-103370549D02*
X96565676Y-103322930D01*
X96565676Y-103322930D02*
X96470438Y-103275311D01*
X96470438Y-103275311D02*
X96375200Y-103180073D01*
X96375200Y-103180073D02*
X96327580Y-103037216D01*
X96327580Y-103037216D02*
X96327580Y-102799121D01*
X113872419Y-106038972D02*
X114872419Y-105705639D01*
X114872419Y-105705639D02*
X113872419Y-105372306D01*
X114872419Y-105038972D02*
X114205752Y-105038972D01*
X114396228Y-105038972D02*
X114300990Y-104991353D01*
X114300990Y-104991353D02*
X114253371Y-104943734D01*
X114253371Y-104943734D02*
X114205752Y-104848496D01*
X114205752Y-104848496D02*
X114205752Y-104753258D01*
X116272419Y-98438972D02*
X117272419Y-98105639D01*
X117272419Y-98105639D02*
X116272419Y-97772306D01*
X117224800Y-97010401D02*
X117272419Y-97105639D01*
X117272419Y-97105639D02*
X117272419Y-97296115D01*
X117272419Y-97296115D02*
X117224800Y-97391353D01*
X117224800Y-97391353D02*
X117177180Y-97438972D01*
X117177180Y-97438972D02*
X117081942Y-97486591D01*
X117081942Y-97486591D02*
X116796228Y-97486591D01*
X116796228Y-97486591D02*
X116700990Y-97438972D01*
X116700990Y-97438972D02*
X116653371Y-97391353D01*
X116653371Y-97391353D02*
X116605752Y-97296115D01*
X116605752Y-97296115D02*
X116605752Y-97105639D01*
X116605752Y-97105639D02*
X116653371Y-97010401D01*
X117224800Y-96153258D02*
X117272419Y-96248496D01*
X117272419Y-96248496D02*
X117272419Y-96438972D01*
X117272419Y-96438972D02*
X117224800Y-96534210D01*
X117224800Y-96534210D02*
X117177180Y-96581829D01*
X117177180Y-96581829D02*
X117081942Y-96629448D01*
X117081942Y-96629448D02*
X116796228Y-96629448D01*
X116796228Y-96629448D02*
X116700990Y-96581829D01*
X116700990Y-96581829D02*
X116653371Y-96534210D01*
X116653371Y-96534210D02*
X116605752Y-96438972D01*
X116605752Y-96438972D02*
X116605752Y-96248496D01*
X116605752Y-96248496D02*
X116653371Y-96153258D01*
D11*
X146325057Y-112680238D02*
X146277438Y-112775476D01*
X146277438Y-112775476D02*
X146182200Y-112870714D01*
X146182200Y-112870714D02*
X146039342Y-113013571D01*
X146039342Y-113013571D02*
X145991723Y-113108809D01*
X145991723Y-113108809D02*
X145991723Y-113204047D01*
X146229819Y-113156428D02*
X146182200Y-113251666D01*
X146182200Y-113251666D02*
X146086961Y-113346904D01*
X146086961Y-113346904D02*
X145896485Y-113394523D01*
X145896485Y-113394523D02*
X145563152Y-113394523D01*
X145563152Y-113394523D02*
X145372676Y-113346904D01*
X145372676Y-113346904D02*
X145277438Y-113251666D01*
X145277438Y-113251666D02*
X145229819Y-113156428D01*
X145229819Y-113156428D02*
X145229819Y-112965952D01*
X145229819Y-112965952D02*
X145277438Y-112870714D01*
X145277438Y-112870714D02*
X145372676Y-112775476D01*
X145372676Y-112775476D02*
X145563152Y-112727857D01*
X145563152Y-112727857D02*
X145896485Y-112727857D01*
X145896485Y-112727857D02*
X146086961Y-112775476D01*
X146086961Y-112775476D02*
X146182200Y-112870714D01*
X146182200Y-112870714D02*
X146229819Y-112965952D01*
X146229819Y-112965952D02*
X146229819Y-113156428D01*
X145229819Y-111823095D02*
X145229819Y-112299285D01*
X145229819Y-112299285D02*
X145706009Y-112346904D01*
X145706009Y-112346904D02*
X145658390Y-112299285D01*
X145658390Y-112299285D02*
X145610771Y-112204047D01*
X145610771Y-112204047D02*
X145610771Y-111965952D01*
X145610771Y-111965952D02*
X145658390Y-111870714D01*
X145658390Y-111870714D02*
X145706009Y-111823095D01*
X145706009Y-111823095D02*
X145801247Y-111775476D01*
X145801247Y-111775476D02*
X146039342Y-111775476D01*
X146039342Y-111775476D02*
X146134580Y-111823095D01*
X146134580Y-111823095D02*
X146182200Y-111870714D01*
X146182200Y-111870714D02*
X146229819Y-111965952D01*
X146229819Y-111965952D02*
X146229819Y-112204047D01*
X146229819Y-112204047D02*
X146182200Y-112299285D01*
X146182200Y-112299285D02*
X146134580Y-112346904D01*
X137988333Y-87509819D02*
X137655000Y-87033628D01*
X137416905Y-87509819D02*
X137416905Y-86509819D01*
X137416905Y-86509819D02*
X137797857Y-86509819D01*
X137797857Y-86509819D02*
X137893095Y-86557438D01*
X137893095Y-86557438D02*
X137940714Y-86605057D01*
X137940714Y-86605057D02*
X137988333Y-86700295D01*
X137988333Y-86700295D02*
X137988333Y-86843152D01*
X137988333Y-86843152D02*
X137940714Y-86938390D01*
X137940714Y-86938390D02*
X137893095Y-86986009D01*
X137893095Y-86986009D02*
X137797857Y-87033628D01*
X137797857Y-87033628D02*
X137416905Y-87033628D01*
X138893095Y-86509819D02*
X138416905Y-86509819D01*
X138416905Y-86509819D02*
X138369286Y-86986009D01*
X138369286Y-86986009D02*
X138416905Y-86938390D01*
X138416905Y-86938390D02*
X138512143Y-86890771D01*
X138512143Y-86890771D02*
X138750238Y-86890771D01*
X138750238Y-86890771D02*
X138845476Y-86938390D01*
X138845476Y-86938390D02*
X138893095Y-86986009D01*
X138893095Y-86986009D02*
X138940714Y-87081247D01*
X138940714Y-87081247D02*
X138940714Y-87319342D01*
X138940714Y-87319342D02*
X138893095Y-87414580D01*
X138893095Y-87414580D02*
X138845476Y-87462200D01*
X138845476Y-87462200D02*
X138750238Y-87509819D01*
X138750238Y-87509819D02*
X138512143Y-87509819D01*
X138512143Y-87509819D02*
X138416905Y-87462200D01*
X138416905Y-87462200D02*
X138369286Y-87414580D01*
X146325057Y-101800238D02*
X146277438Y-101895476D01*
X146277438Y-101895476D02*
X146182200Y-101990714D01*
X146182200Y-101990714D02*
X146039342Y-102133571D01*
X146039342Y-102133571D02*
X145991723Y-102228809D01*
X145991723Y-102228809D02*
X145991723Y-102324047D01*
X146229819Y-102276428D02*
X146182200Y-102371666D01*
X146182200Y-102371666D02*
X146086961Y-102466904D01*
X146086961Y-102466904D02*
X145896485Y-102514523D01*
X145896485Y-102514523D02*
X145563152Y-102514523D01*
X145563152Y-102514523D02*
X145372676Y-102466904D01*
X145372676Y-102466904D02*
X145277438Y-102371666D01*
X145277438Y-102371666D02*
X145229819Y-102276428D01*
X145229819Y-102276428D02*
X145229819Y-102085952D01*
X145229819Y-102085952D02*
X145277438Y-101990714D01*
X145277438Y-101990714D02*
X145372676Y-101895476D01*
X145372676Y-101895476D02*
X145563152Y-101847857D01*
X145563152Y-101847857D02*
X145896485Y-101847857D01*
X145896485Y-101847857D02*
X146086961Y-101895476D01*
X146086961Y-101895476D02*
X146182200Y-101990714D01*
X146182200Y-101990714D02*
X146229819Y-102085952D01*
X146229819Y-102085952D02*
X146229819Y-102276428D01*
X145229819Y-100990714D02*
X145229819Y-101181190D01*
X145229819Y-101181190D02*
X145277438Y-101276428D01*
X145277438Y-101276428D02*
X145325057Y-101324047D01*
X145325057Y-101324047D02*
X145467914Y-101419285D01*
X145467914Y-101419285D02*
X145658390Y-101466904D01*
X145658390Y-101466904D02*
X146039342Y-101466904D01*
X146039342Y-101466904D02*
X146134580Y-101419285D01*
X146134580Y-101419285D02*
X146182200Y-101371666D01*
X146182200Y-101371666D02*
X146229819Y-101276428D01*
X146229819Y-101276428D02*
X146229819Y-101085952D01*
X146229819Y-101085952D02*
X146182200Y-100990714D01*
X146182200Y-100990714D02*
X146134580Y-100943095D01*
X146134580Y-100943095D02*
X146039342Y-100895476D01*
X146039342Y-100895476D02*
X145801247Y-100895476D01*
X145801247Y-100895476D02*
X145706009Y-100943095D01*
X145706009Y-100943095D02*
X145658390Y-100990714D01*
X145658390Y-100990714D02*
X145610771Y-101085952D01*
X145610771Y-101085952D02*
X145610771Y-101276428D01*
X145610771Y-101276428D02*
X145658390Y-101371666D01*
X145658390Y-101371666D02*
X145706009Y-101419285D01*
X145706009Y-101419285D02*
X145801247Y-101466904D01*
X138188333Y-98409819D02*
X137855000Y-97933628D01*
X137616905Y-98409819D02*
X137616905Y-97409819D01*
X137616905Y-97409819D02*
X137997857Y-97409819D01*
X137997857Y-97409819D02*
X138093095Y-97457438D01*
X138093095Y-97457438D02*
X138140714Y-97505057D01*
X138140714Y-97505057D02*
X138188333Y-97600295D01*
X138188333Y-97600295D02*
X138188333Y-97743152D01*
X138188333Y-97743152D02*
X138140714Y-97838390D01*
X138140714Y-97838390D02*
X138093095Y-97886009D01*
X138093095Y-97886009D02*
X137997857Y-97933628D01*
X137997857Y-97933628D02*
X137616905Y-97933628D01*
X138759762Y-97838390D02*
X138664524Y-97790771D01*
X138664524Y-97790771D02*
X138616905Y-97743152D01*
X138616905Y-97743152D02*
X138569286Y-97647914D01*
X138569286Y-97647914D02*
X138569286Y-97600295D01*
X138569286Y-97600295D02*
X138616905Y-97505057D01*
X138616905Y-97505057D02*
X138664524Y-97457438D01*
X138664524Y-97457438D02*
X138759762Y-97409819D01*
X138759762Y-97409819D02*
X138950238Y-97409819D01*
X138950238Y-97409819D02*
X139045476Y-97457438D01*
X139045476Y-97457438D02*
X139093095Y-97505057D01*
X139093095Y-97505057D02*
X139140714Y-97600295D01*
X139140714Y-97600295D02*
X139140714Y-97647914D01*
X139140714Y-97647914D02*
X139093095Y-97743152D01*
X139093095Y-97743152D02*
X139045476Y-97790771D01*
X139045476Y-97790771D02*
X138950238Y-97838390D01*
X138950238Y-97838390D02*
X138759762Y-97838390D01*
X138759762Y-97838390D02*
X138664524Y-97886009D01*
X138664524Y-97886009D02*
X138616905Y-97933628D01*
X138616905Y-97933628D02*
X138569286Y-98028866D01*
X138569286Y-98028866D02*
X138569286Y-98219342D01*
X138569286Y-98219342D02*
X138616905Y-98314580D01*
X138616905Y-98314580D02*
X138664524Y-98362200D01*
X138664524Y-98362200D02*
X138759762Y-98409819D01*
X138759762Y-98409819D02*
X138950238Y-98409819D01*
X138950238Y-98409819D02*
X139045476Y-98362200D01*
X139045476Y-98362200D02*
X139093095Y-98314580D01*
X139093095Y-98314580D02*
X139140714Y-98219342D01*
X139140714Y-98219342D02*
X139140714Y-98028866D01*
X139140714Y-98028866D02*
X139093095Y-97933628D01*
X139093095Y-97933628D02*
X139045476Y-97886009D01*
X139045476Y-97886009D02*
X138950238Y-97838390D01*
X146235057Y-86690238D02*
X146187438Y-86785476D01*
X146187438Y-86785476D02*
X146092200Y-86880714D01*
X146092200Y-86880714D02*
X145949342Y-87023571D01*
X145949342Y-87023571D02*
X145901723Y-87118809D01*
X145901723Y-87118809D02*
X145901723Y-87214047D01*
X146139819Y-87166428D02*
X146092200Y-87261666D01*
X146092200Y-87261666D02*
X145996961Y-87356904D01*
X145996961Y-87356904D02*
X145806485Y-87404523D01*
X145806485Y-87404523D02*
X145473152Y-87404523D01*
X145473152Y-87404523D02*
X145282676Y-87356904D01*
X145282676Y-87356904D02*
X145187438Y-87261666D01*
X145187438Y-87261666D02*
X145139819Y-87166428D01*
X145139819Y-87166428D02*
X145139819Y-86975952D01*
X145139819Y-86975952D02*
X145187438Y-86880714D01*
X145187438Y-86880714D02*
X145282676Y-86785476D01*
X145282676Y-86785476D02*
X145473152Y-86737857D01*
X145473152Y-86737857D02*
X145806485Y-86737857D01*
X145806485Y-86737857D02*
X145996961Y-86785476D01*
X145996961Y-86785476D02*
X146092200Y-86880714D01*
X146092200Y-86880714D02*
X146139819Y-86975952D01*
X146139819Y-86975952D02*
X146139819Y-87166428D01*
X145473152Y-85880714D02*
X146139819Y-85880714D01*
X145092200Y-86118809D02*
X145806485Y-86356904D01*
X145806485Y-86356904D02*
X145806485Y-85737857D01*
X146325057Y-75880238D02*
X146277438Y-75975476D01*
X146277438Y-75975476D02*
X146182200Y-76070714D01*
X146182200Y-76070714D02*
X146039342Y-76213571D01*
X146039342Y-76213571D02*
X145991723Y-76308809D01*
X145991723Y-76308809D02*
X145991723Y-76404047D01*
X146229819Y-76356428D02*
X146182200Y-76451666D01*
X146182200Y-76451666D02*
X146086961Y-76546904D01*
X146086961Y-76546904D02*
X145896485Y-76594523D01*
X145896485Y-76594523D02*
X145563152Y-76594523D01*
X145563152Y-76594523D02*
X145372676Y-76546904D01*
X145372676Y-76546904D02*
X145277438Y-76451666D01*
X145277438Y-76451666D02*
X145229819Y-76356428D01*
X145229819Y-76356428D02*
X145229819Y-76165952D01*
X145229819Y-76165952D02*
X145277438Y-76070714D01*
X145277438Y-76070714D02*
X145372676Y-75975476D01*
X145372676Y-75975476D02*
X145563152Y-75927857D01*
X145563152Y-75927857D02*
X145896485Y-75927857D01*
X145896485Y-75927857D02*
X146086961Y-75975476D01*
X146086961Y-75975476D02*
X146182200Y-76070714D01*
X146182200Y-76070714D02*
X146229819Y-76165952D01*
X146229819Y-76165952D02*
X146229819Y-76356428D01*
X145325057Y-75546904D02*
X145277438Y-75499285D01*
X145277438Y-75499285D02*
X145229819Y-75404047D01*
X145229819Y-75404047D02*
X145229819Y-75165952D01*
X145229819Y-75165952D02*
X145277438Y-75070714D01*
X145277438Y-75070714D02*
X145325057Y-75023095D01*
X145325057Y-75023095D02*
X145420295Y-74975476D01*
X145420295Y-74975476D02*
X145515533Y-74975476D01*
X145515533Y-74975476D02*
X145658390Y-75023095D01*
X145658390Y-75023095D02*
X146229819Y-75594523D01*
X146229819Y-75594523D02*
X146229819Y-74975476D01*
X122276905Y-79509819D02*
X122276905Y-78509819D01*
X122276905Y-78509819D02*
X122515000Y-78509819D01*
X122515000Y-78509819D02*
X122657857Y-78557438D01*
X122657857Y-78557438D02*
X122753095Y-78652676D01*
X122753095Y-78652676D02*
X122800714Y-78747914D01*
X122800714Y-78747914D02*
X122848333Y-78938390D01*
X122848333Y-78938390D02*
X122848333Y-79081247D01*
X122848333Y-79081247D02*
X122800714Y-79271723D01*
X122800714Y-79271723D02*
X122753095Y-79366961D01*
X122753095Y-79366961D02*
X122657857Y-79462200D01*
X122657857Y-79462200D02*
X122515000Y-79509819D01*
X122515000Y-79509819D02*
X122276905Y-79509819D01*
X123753095Y-78509819D02*
X123276905Y-78509819D01*
X123276905Y-78509819D02*
X123229286Y-78986009D01*
X123229286Y-78986009D02*
X123276905Y-78938390D01*
X123276905Y-78938390D02*
X123372143Y-78890771D01*
X123372143Y-78890771D02*
X123610238Y-78890771D01*
X123610238Y-78890771D02*
X123705476Y-78938390D01*
X123705476Y-78938390D02*
X123753095Y-78986009D01*
X123753095Y-78986009D02*
X123800714Y-79081247D01*
X123800714Y-79081247D02*
X123800714Y-79319342D01*
X123800714Y-79319342D02*
X123753095Y-79414580D01*
X123753095Y-79414580D02*
X123705476Y-79462200D01*
X123705476Y-79462200D02*
X123610238Y-79509819D01*
X123610238Y-79509819D02*
X123372143Y-79509819D01*
X123372143Y-79509819D02*
X123276905Y-79462200D01*
X123276905Y-79462200D02*
X123229286Y-79414580D01*
X117673095Y-79879819D02*
X117673095Y-78879819D01*
X118244523Y-79879819D02*
X117815952Y-79308390D01*
X118244523Y-78879819D02*
X117673095Y-79451247D01*
X134549761Y-117905057D02*
X134454523Y-117857438D01*
X134454523Y-117857438D02*
X134359285Y-117762200D01*
X134359285Y-117762200D02*
X134216428Y-117619342D01*
X134216428Y-117619342D02*
X134121190Y-117571723D01*
X134121190Y-117571723D02*
X134025952Y-117571723D01*
X134073571Y-117809819D02*
X133978333Y-117762200D01*
X133978333Y-117762200D02*
X133883095Y-117666961D01*
X133883095Y-117666961D02*
X133835476Y-117476485D01*
X133835476Y-117476485D02*
X133835476Y-117143152D01*
X133835476Y-117143152D02*
X133883095Y-116952676D01*
X133883095Y-116952676D02*
X133978333Y-116857438D01*
X133978333Y-116857438D02*
X134073571Y-116809819D01*
X134073571Y-116809819D02*
X134264047Y-116809819D01*
X134264047Y-116809819D02*
X134359285Y-116857438D01*
X134359285Y-116857438D02*
X134454523Y-116952676D01*
X134454523Y-116952676D02*
X134502142Y-117143152D01*
X134502142Y-117143152D02*
X134502142Y-117476485D01*
X134502142Y-117476485D02*
X134454523Y-117666961D01*
X134454523Y-117666961D02*
X134359285Y-117762200D01*
X134359285Y-117762200D02*
X134264047Y-117809819D01*
X134264047Y-117809819D02*
X134073571Y-117809819D01*
X135073571Y-117238390D02*
X134978333Y-117190771D01*
X134978333Y-117190771D02*
X134930714Y-117143152D01*
X134930714Y-117143152D02*
X134883095Y-117047914D01*
X134883095Y-117047914D02*
X134883095Y-117000295D01*
X134883095Y-117000295D02*
X134930714Y-116905057D01*
X134930714Y-116905057D02*
X134978333Y-116857438D01*
X134978333Y-116857438D02*
X135073571Y-116809819D01*
X135073571Y-116809819D02*
X135264047Y-116809819D01*
X135264047Y-116809819D02*
X135359285Y-116857438D01*
X135359285Y-116857438D02*
X135406904Y-116905057D01*
X135406904Y-116905057D02*
X135454523Y-117000295D01*
X135454523Y-117000295D02*
X135454523Y-117047914D01*
X135454523Y-117047914D02*
X135406904Y-117143152D01*
X135406904Y-117143152D02*
X135359285Y-117190771D01*
X135359285Y-117190771D02*
X135264047Y-117238390D01*
X135264047Y-117238390D02*
X135073571Y-117238390D01*
X135073571Y-117238390D02*
X134978333Y-117286009D01*
X134978333Y-117286009D02*
X134930714Y-117333628D01*
X134930714Y-117333628D02*
X134883095Y-117428866D01*
X134883095Y-117428866D02*
X134883095Y-117619342D01*
X134883095Y-117619342D02*
X134930714Y-117714580D01*
X134930714Y-117714580D02*
X134978333Y-117762200D01*
X134978333Y-117762200D02*
X135073571Y-117809819D01*
X135073571Y-117809819D02*
X135264047Y-117809819D01*
X135264047Y-117809819D02*
X135359285Y-117762200D01*
X135359285Y-117762200D02*
X135406904Y-117714580D01*
X135406904Y-117714580D02*
X135454523Y-117619342D01*
X135454523Y-117619342D02*
X135454523Y-117428866D01*
X135454523Y-117428866D02*
X135406904Y-117333628D01*
X135406904Y-117333628D02*
X135359285Y-117286009D01*
X135359285Y-117286009D02*
X135264047Y-117238390D01*
X135174761Y-72715057D02*
X135079523Y-72667438D01*
X135079523Y-72667438D02*
X134984285Y-72572200D01*
X134984285Y-72572200D02*
X134841428Y-72429342D01*
X134841428Y-72429342D02*
X134746190Y-72381723D01*
X134746190Y-72381723D02*
X134650952Y-72381723D01*
X134698571Y-72619819D02*
X134603333Y-72572200D01*
X134603333Y-72572200D02*
X134508095Y-72476961D01*
X134508095Y-72476961D02*
X134460476Y-72286485D01*
X134460476Y-72286485D02*
X134460476Y-71953152D01*
X134460476Y-71953152D02*
X134508095Y-71762676D01*
X134508095Y-71762676D02*
X134603333Y-71667438D01*
X134603333Y-71667438D02*
X134698571Y-71619819D01*
X134698571Y-71619819D02*
X134889047Y-71619819D01*
X134889047Y-71619819D02*
X134984285Y-71667438D01*
X134984285Y-71667438D02*
X135079523Y-71762676D01*
X135079523Y-71762676D02*
X135127142Y-71953152D01*
X135127142Y-71953152D02*
X135127142Y-72286485D01*
X135127142Y-72286485D02*
X135079523Y-72476961D01*
X135079523Y-72476961D02*
X134984285Y-72572200D01*
X134984285Y-72572200D02*
X134889047Y-72619819D01*
X134889047Y-72619819D02*
X134698571Y-72619819D01*
X136079523Y-72619819D02*
X135508095Y-72619819D01*
X135793809Y-72619819D02*
X135793809Y-71619819D01*
X135793809Y-71619819D02*
X135698571Y-71762676D01*
X135698571Y-71762676D02*
X135603333Y-71857914D01*
X135603333Y-71857914D02*
X135508095Y-71905533D01*
X122688333Y-72009819D02*
X122355000Y-71533628D01*
X122116905Y-72009819D02*
X122116905Y-71009819D01*
X122116905Y-71009819D02*
X122497857Y-71009819D01*
X122497857Y-71009819D02*
X122593095Y-71057438D01*
X122593095Y-71057438D02*
X122640714Y-71105057D01*
X122640714Y-71105057D02*
X122688333Y-71200295D01*
X122688333Y-71200295D02*
X122688333Y-71343152D01*
X122688333Y-71343152D02*
X122640714Y-71438390D01*
X122640714Y-71438390D02*
X122593095Y-71486009D01*
X122593095Y-71486009D02*
X122497857Y-71533628D01*
X122497857Y-71533628D02*
X122116905Y-71533628D01*
X123021667Y-71009819D02*
X123640714Y-71009819D01*
X123640714Y-71009819D02*
X123307381Y-71390771D01*
X123307381Y-71390771D02*
X123450238Y-71390771D01*
X123450238Y-71390771D02*
X123545476Y-71438390D01*
X123545476Y-71438390D02*
X123593095Y-71486009D01*
X123593095Y-71486009D02*
X123640714Y-71581247D01*
X123640714Y-71581247D02*
X123640714Y-71819342D01*
X123640714Y-71819342D02*
X123593095Y-71914580D01*
X123593095Y-71914580D02*
X123545476Y-71962200D01*
X123545476Y-71962200D02*
X123450238Y-72009819D01*
X123450238Y-72009819D02*
X123164524Y-72009819D01*
X123164524Y-72009819D02*
X123069286Y-71962200D01*
X123069286Y-71962200D02*
X123021667Y-71914580D01*
X122276905Y-99809819D02*
X122276905Y-98809819D01*
X122276905Y-98809819D02*
X122515000Y-98809819D01*
X122515000Y-98809819D02*
X122657857Y-98857438D01*
X122657857Y-98857438D02*
X122753095Y-98952676D01*
X122753095Y-98952676D02*
X122800714Y-99047914D01*
X122800714Y-99047914D02*
X122848333Y-99238390D01*
X122848333Y-99238390D02*
X122848333Y-99381247D01*
X122848333Y-99381247D02*
X122800714Y-99571723D01*
X122800714Y-99571723D02*
X122753095Y-99666961D01*
X122753095Y-99666961D02*
X122657857Y-99762200D01*
X122657857Y-99762200D02*
X122515000Y-99809819D01*
X122515000Y-99809819D02*
X122276905Y-99809819D01*
X123181667Y-98809819D02*
X123848333Y-98809819D01*
X123848333Y-98809819D02*
X123419762Y-99809819D01*
X117673095Y-100179819D02*
X117673095Y-99179819D01*
X118244523Y-100179819D02*
X117815952Y-99608390D01*
X118244523Y-99179819D02*
X117673095Y-99751247D01*
X122488333Y-114009819D02*
X122155000Y-113533628D01*
X121916905Y-114009819D02*
X121916905Y-113009819D01*
X121916905Y-113009819D02*
X122297857Y-113009819D01*
X122297857Y-113009819D02*
X122393095Y-113057438D01*
X122393095Y-113057438D02*
X122440714Y-113105057D01*
X122440714Y-113105057D02*
X122488333Y-113200295D01*
X122488333Y-113200295D02*
X122488333Y-113343152D01*
X122488333Y-113343152D02*
X122440714Y-113438390D01*
X122440714Y-113438390D02*
X122393095Y-113486009D01*
X122393095Y-113486009D02*
X122297857Y-113533628D01*
X122297857Y-113533628D02*
X121916905Y-113533628D01*
X123345476Y-113343152D02*
X123345476Y-114009819D01*
X123107381Y-112962200D02*
X122869286Y-113676485D01*
X122869286Y-113676485D02*
X123488333Y-113676485D01*
X111643635Y-103034580D02*
X111596016Y-103082200D01*
X111596016Y-103082200D02*
X111453159Y-103129819D01*
X111453159Y-103129819D02*
X111357921Y-103129819D01*
X111357921Y-103129819D02*
X111215064Y-103082200D01*
X111215064Y-103082200D02*
X111119826Y-102986961D01*
X111119826Y-102986961D02*
X111072207Y-102891723D01*
X111072207Y-102891723D02*
X111024588Y-102701247D01*
X111024588Y-102701247D02*
X111024588Y-102558390D01*
X111024588Y-102558390D02*
X111072207Y-102367914D01*
X111072207Y-102367914D02*
X111119826Y-102272676D01*
X111119826Y-102272676D02*
X111215064Y-102177438D01*
X111215064Y-102177438D02*
X111357921Y-102129819D01*
X111357921Y-102129819D02*
X111453159Y-102129819D01*
X111453159Y-102129819D02*
X111596016Y-102177438D01*
X111596016Y-102177438D02*
X111643635Y-102225057D01*
X112024588Y-102225057D02*
X112072207Y-102177438D01*
X112072207Y-102177438D02*
X112167445Y-102129819D01*
X112167445Y-102129819D02*
X112405540Y-102129819D01*
X112405540Y-102129819D02*
X112500778Y-102177438D01*
X112500778Y-102177438D02*
X112548397Y-102225057D01*
X112548397Y-102225057D02*
X112596016Y-102320295D01*
X112596016Y-102320295D02*
X112596016Y-102415533D01*
X112596016Y-102415533D02*
X112548397Y-102558390D01*
X112548397Y-102558390D02*
X111976969Y-103129819D01*
X111976969Y-103129819D02*
X112596016Y-103129819D01*
X101606905Y-75799819D02*
X101606905Y-74799819D01*
X101606905Y-74799819D02*
X101845000Y-74799819D01*
X101845000Y-74799819D02*
X101987857Y-74847438D01*
X101987857Y-74847438D02*
X102083095Y-74942676D01*
X102083095Y-74942676D02*
X102130714Y-75037914D01*
X102130714Y-75037914D02*
X102178333Y-75228390D01*
X102178333Y-75228390D02*
X102178333Y-75371247D01*
X102178333Y-75371247D02*
X102130714Y-75561723D01*
X102130714Y-75561723D02*
X102083095Y-75656961D01*
X102083095Y-75656961D02*
X101987857Y-75752200D01*
X101987857Y-75752200D02*
X101845000Y-75799819D01*
X101845000Y-75799819D02*
X101606905Y-75799819D01*
X103130714Y-75799819D02*
X102559286Y-75799819D01*
X102845000Y-75799819D02*
X102845000Y-74799819D01*
X102845000Y-74799819D02*
X102749762Y-74942676D01*
X102749762Y-74942676D02*
X102654524Y-75037914D01*
X102654524Y-75037914D02*
X102559286Y-75085533D01*
X105893095Y-75479819D02*
X105893095Y-74479819D01*
X106464523Y-75479819D02*
X106035952Y-74908390D01*
X106464523Y-74479819D02*
X105893095Y-75051247D01*
X113459819Y-76211666D02*
X112983628Y-76544999D01*
X113459819Y-76783094D02*
X112459819Y-76783094D01*
X112459819Y-76783094D02*
X112459819Y-76402142D01*
X112459819Y-76402142D02*
X112507438Y-76306904D01*
X112507438Y-76306904D02*
X112555057Y-76259285D01*
X112555057Y-76259285D02*
X112650295Y-76211666D01*
X112650295Y-76211666D02*
X112793152Y-76211666D01*
X112793152Y-76211666D02*
X112888390Y-76259285D01*
X112888390Y-76259285D02*
X112936009Y-76306904D01*
X112936009Y-76306904D02*
X112983628Y-76402142D01*
X112983628Y-76402142D02*
X112983628Y-76783094D01*
X113459819Y-75259285D02*
X113459819Y-75830713D01*
X113459819Y-75544999D02*
X112459819Y-75544999D01*
X112459819Y-75544999D02*
X112602676Y-75640237D01*
X112602676Y-75640237D02*
X112697914Y-75735475D01*
X112697914Y-75735475D02*
X112745533Y-75830713D01*
X100796905Y-109949819D02*
X100796905Y-108949819D01*
X100796905Y-108949819D02*
X101035000Y-108949819D01*
X101035000Y-108949819D02*
X101177857Y-108997438D01*
X101177857Y-108997438D02*
X101273095Y-109092676D01*
X101273095Y-109092676D02*
X101320714Y-109187914D01*
X101320714Y-109187914D02*
X101368333Y-109378390D01*
X101368333Y-109378390D02*
X101368333Y-109521247D01*
X101368333Y-109521247D02*
X101320714Y-109711723D01*
X101320714Y-109711723D02*
X101273095Y-109806961D01*
X101273095Y-109806961D02*
X101177857Y-109902200D01*
X101177857Y-109902200D02*
X101035000Y-109949819D01*
X101035000Y-109949819D02*
X100796905Y-109949819D01*
X101701667Y-108949819D02*
X102320714Y-108949819D01*
X102320714Y-108949819D02*
X101987381Y-109330771D01*
X101987381Y-109330771D02*
X102130238Y-109330771D01*
X102130238Y-109330771D02*
X102225476Y-109378390D01*
X102225476Y-109378390D02*
X102273095Y-109426009D01*
X102273095Y-109426009D02*
X102320714Y-109521247D01*
X102320714Y-109521247D02*
X102320714Y-109759342D01*
X102320714Y-109759342D02*
X102273095Y-109854580D01*
X102273095Y-109854580D02*
X102225476Y-109902200D01*
X102225476Y-109902200D02*
X102130238Y-109949819D01*
X102130238Y-109949819D02*
X101844524Y-109949819D01*
X101844524Y-109949819D02*
X101749286Y-109902200D01*
X101749286Y-109902200D02*
X101701667Y-109854580D01*
X105583095Y-109629819D02*
X105583095Y-108629819D01*
X106154523Y-109629819D02*
X105725952Y-109058390D01*
X106154523Y-108629819D02*
X105583095Y-109201247D01*
X105579819Y-93998333D02*
X106294104Y-93998333D01*
X106294104Y-93998333D02*
X106436961Y-94045952D01*
X106436961Y-94045952D02*
X106532200Y-94141190D01*
X106532200Y-94141190D02*
X106579819Y-94284047D01*
X106579819Y-94284047D02*
X106579819Y-94379285D01*
X106579819Y-92998333D02*
X106579819Y-93569761D01*
X106579819Y-93284047D02*
X105579819Y-93284047D01*
X105579819Y-93284047D02*
X105722676Y-93379285D01*
X105722676Y-93379285D02*
X105817914Y-93474523D01*
X105817914Y-93474523D02*
X105865533Y-93569761D01*
X101416905Y-112259819D02*
X101416905Y-111259819D01*
X101416905Y-111259819D02*
X101655000Y-111259819D01*
X101655000Y-111259819D02*
X101797857Y-111307438D01*
X101797857Y-111307438D02*
X101893095Y-111402676D01*
X101893095Y-111402676D02*
X101940714Y-111497914D01*
X101940714Y-111497914D02*
X101988333Y-111688390D01*
X101988333Y-111688390D02*
X101988333Y-111831247D01*
X101988333Y-111831247D02*
X101940714Y-112021723D01*
X101940714Y-112021723D02*
X101893095Y-112116961D01*
X101893095Y-112116961D02*
X101797857Y-112212200D01*
X101797857Y-112212200D02*
X101655000Y-112259819D01*
X101655000Y-112259819D02*
X101416905Y-112259819D01*
X102845476Y-111593152D02*
X102845476Y-112259819D01*
X102607381Y-111212200D02*
X102369286Y-111926485D01*
X102369286Y-111926485D02*
X102988333Y-111926485D01*
X98083095Y-112579819D02*
X98083095Y-111579819D01*
X98654523Y-112579819D02*
X98225952Y-112008390D01*
X98654523Y-111579819D02*
X98083095Y-112151247D01*
X101416905Y-78159819D02*
X101416905Y-77159819D01*
X101416905Y-77159819D02*
X101655000Y-77159819D01*
X101655000Y-77159819D02*
X101797857Y-77207438D01*
X101797857Y-77207438D02*
X101893095Y-77302676D01*
X101893095Y-77302676D02*
X101940714Y-77397914D01*
X101940714Y-77397914D02*
X101988333Y-77588390D01*
X101988333Y-77588390D02*
X101988333Y-77731247D01*
X101988333Y-77731247D02*
X101940714Y-77921723D01*
X101940714Y-77921723D02*
X101893095Y-78016961D01*
X101893095Y-78016961D02*
X101797857Y-78112200D01*
X101797857Y-78112200D02*
X101655000Y-78159819D01*
X101655000Y-78159819D02*
X101416905Y-78159819D01*
X102369286Y-77255057D02*
X102416905Y-77207438D01*
X102416905Y-77207438D02*
X102512143Y-77159819D01*
X102512143Y-77159819D02*
X102750238Y-77159819D01*
X102750238Y-77159819D02*
X102845476Y-77207438D01*
X102845476Y-77207438D02*
X102893095Y-77255057D01*
X102893095Y-77255057D02*
X102940714Y-77350295D01*
X102940714Y-77350295D02*
X102940714Y-77445533D01*
X102940714Y-77445533D02*
X102893095Y-77588390D01*
X102893095Y-77588390D02*
X102321667Y-78159819D01*
X102321667Y-78159819D02*
X102940714Y-78159819D01*
X98083095Y-78479819D02*
X98083095Y-77479819D01*
X98654523Y-78479819D02*
X98225952Y-77908390D01*
X98654523Y-77479819D02*
X98083095Y-78051247D01*
X144399819Y-110706666D02*
X143923628Y-111039999D01*
X144399819Y-111278094D02*
X143399819Y-111278094D01*
X143399819Y-111278094D02*
X143399819Y-110897142D01*
X143399819Y-110897142D02*
X143447438Y-110801904D01*
X143447438Y-110801904D02*
X143495057Y-110754285D01*
X143495057Y-110754285D02*
X143590295Y-110706666D01*
X143590295Y-110706666D02*
X143733152Y-110706666D01*
X143733152Y-110706666D02*
X143828390Y-110754285D01*
X143828390Y-110754285D02*
X143876009Y-110801904D01*
X143876009Y-110801904D02*
X143923628Y-110897142D01*
X143923628Y-110897142D02*
X143923628Y-111278094D01*
X143399819Y-109849523D02*
X143399819Y-110039999D01*
X143399819Y-110039999D02*
X143447438Y-110135237D01*
X143447438Y-110135237D02*
X143495057Y-110182856D01*
X143495057Y-110182856D02*
X143637914Y-110278094D01*
X143637914Y-110278094D02*
X143828390Y-110325713D01*
X143828390Y-110325713D02*
X144209342Y-110325713D01*
X144209342Y-110325713D02*
X144304580Y-110278094D01*
X144304580Y-110278094D02*
X144352200Y-110230475D01*
X144352200Y-110230475D02*
X144399819Y-110135237D01*
X144399819Y-110135237D02*
X144399819Y-109944761D01*
X144399819Y-109944761D02*
X144352200Y-109849523D01*
X144352200Y-109849523D02*
X144304580Y-109801904D01*
X144304580Y-109801904D02*
X144209342Y-109754285D01*
X144209342Y-109754285D02*
X143971247Y-109754285D01*
X143971247Y-109754285D02*
X143876009Y-109801904D01*
X143876009Y-109801904D02*
X143828390Y-109849523D01*
X143828390Y-109849523D02*
X143780771Y-109944761D01*
X143780771Y-109944761D02*
X143780771Y-110135237D01*
X143780771Y-110135237D02*
X143828390Y-110230475D01*
X143828390Y-110230475D02*
X143876009Y-110278094D01*
X143876009Y-110278094D02*
X143971247Y-110325713D01*
X113899819Y-110221666D02*
X113423628Y-110554999D01*
X113899819Y-110793094D02*
X112899819Y-110793094D01*
X112899819Y-110793094D02*
X112899819Y-110412142D01*
X112899819Y-110412142D02*
X112947438Y-110316904D01*
X112947438Y-110316904D02*
X112995057Y-110269285D01*
X112995057Y-110269285D02*
X113090295Y-110221666D01*
X113090295Y-110221666D02*
X113233152Y-110221666D01*
X113233152Y-110221666D02*
X113328390Y-110269285D01*
X113328390Y-110269285D02*
X113376009Y-110316904D01*
X113376009Y-110316904D02*
X113423628Y-110412142D01*
X113423628Y-110412142D02*
X113423628Y-110793094D01*
X112995057Y-109840713D02*
X112947438Y-109793094D01*
X112947438Y-109793094D02*
X112899819Y-109697856D01*
X112899819Y-109697856D02*
X112899819Y-109459761D01*
X112899819Y-109459761D02*
X112947438Y-109364523D01*
X112947438Y-109364523D02*
X112995057Y-109316904D01*
X112995057Y-109316904D02*
X113090295Y-109269285D01*
X113090295Y-109269285D02*
X113185533Y-109269285D01*
X113185533Y-109269285D02*
X113328390Y-109316904D01*
X113328390Y-109316904D02*
X113899819Y-109888332D01*
X113899819Y-109888332D02*
X113899819Y-109269285D01*
X122461905Y-92849819D02*
X122461905Y-91849819D01*
X122461905Y-91849819D02*
X122700000Y-91849819D01*
X122700000Y-91849819D02*
X122842857Y-91897438D01*
X122842857Y-91897438D02*
X122938095Y-91992676D01*
X122938095Y-91992676D02*
X122985714Y-92087914D01*
X122985714Y-92087914D02*
X123033333Y-92278390D01*
X123033333Y-92278390D02*
X123033333Y-92421247D01*
X123033333Y-92421247D02*
X122985714Y-92611723D01*
X122985714Y-92611723D02*
X122938095Y-92706961D01*
X122938095Y-92706961D02*
X122842857Y-92802200D01*
X122842857Y-92802200D02*
X122700000Y-92849819D01*
X122700000Y-92849819D02*
X122461905Y-92849819D01*
X123890476Y-91849819D02*
X123700000Y-91849819D01*
X123700000Y-91849819D02*
X123604762Y-91897438D01*
X123604762Y-91897438D02*
X123557143Y-91945057D01*
X123557143Y-91945057D02*
X123461905Y-92087914D01*
X123461905Y-92087914D02*
X123414286Y-92278390D01*
X123414286Y-92278390D02*
X123414286Y-92659342D01*
X123414286Y-92659342D02*
X123461905Y-92754580D01*
X123461905Y-92754580D02*
X123509524Y-92802200D01*
X123509524Y-92802200D02*
X123604762Y-92849819D01*
X123604762Y-92849819D02*
X123795238Y-92849819D01*
X123795238Y-92849819D02*
X123890476Y-92802200D01*
X123890476Y-92802200D02*
X123938095Y-92754580D01*
X123938095Y-92754580D02*
X123985714Y-92659342D01*
X123985714Y-92659342D02*
X123985714Y-92421247D01*
X123985714Y-92421247D02*
X123938095Y-92326009D01*
X123938095Y-92326009D02*
X123890476Y-92278390D01*
X123890476Y-92278390D02*
X123795238Y-92230771D01*
X123795238Y-92230771D02*
X123604762Y-92230771D01*
X123604762Y-92230771D02*
X123509524Y-92278390D01*
X123509524Y-92278390D02*
X123461905Y-92326009D01*
X123461905Y-92326009D02*
X123414286Y-92421247D01*
X128018095Y-92479819D02*
X128018095Y-91479819D01*
X128589523Y-92479819D02*
X128160952Y-91908390D01*
X128589523Y-91479819D02*
X128018095Y-92051247D01*
X161905057Y-100390238D02*
X161857438Y-100485476D01*
X161857438Y-100485476D02*
X161762200Y-100580714D01*
X161762200Y-100580714D02*
X161619342Y-100723571D01*
X161619342Y-100723571D02*
X161571723Y-100818809D01*
X161571723Y-100818809D02*
X161571723Y-100914047D01*
X161809819Y-100866428D02*
X161762200Y-100961666D01*
X161762200Y-100961666D02*
X161666961Y-101056904D01*
X161666961Y-101056904D02*
X161476485Y-101104523D01*
X161476485Y-101104523D02*
X161143152Y-101104523D01*
X161143152Y-101104523D02*
X160952676Y-101056904D01*
X160952676Y-101056904D02*
X160857438Y-100961666D01*
X160857438Y-100961666D02*
X160809819Y-100866428D01*
X160809819Y-100866428D02*
X160809819Y-100675952D01*
X160809819Y-100675952D02*
X160857438Y-100580714D01*
X160857438Y-100580714D02*
X160952676Y-100485476D01*
X160952676Y-100485476D02*
X161143152Y-100437857D01*
X161143152Y-100437857D02*
X161476485Y-100437857D01*
X161476485Y-100437857D02*
X161666961Y-100485476D01*
X161666961Y-100485476D02*
X161762200Y-100580714D01*
X161762200Y-100580714D02*
X161809819Y-100675952D01*
X161809819Y-100675952D02*
X161809819Y-100866428D01*
X160809819Y-100104523D02*
X160809819Y-99485476D01*
X160809819Y-99485476D02*
X161190771Y-99818809D01*
X161190771Y-99818809D02*
X161190771Y-99675952D01*
X161190771Y-99675952D02*
X161238390Y-99580714D01*
X161238390Y-99580714D02*
X161286009Y-99533095D01*
X161286009Y-99533095D02*
X161381247Y-99485476D01*
X161381247Y-99485476D02*
X161619342Y-99485476D01*
X161619342Y-99485476D02*
X161714580Y-99533095D01*
X161714580Y-99533095D02*
X161762200Y-99580714D01*
X161762200Y-99580714D02*
X161809819Y-99675952D01*
X161809819Y-99675952D02*
X161809819Y-99961666D01*
X161809819Y-99961666D02*
X161762200Y-100056904D01*
X161762200Y-100056904D02*
X161714580Y-100104523D01*
X113244580Y-87451666D02*
X113292200Y-87499285D01*
X113292200Y-87499285D02*
X113339819Y-87642142D01*
X113339819Y-87642142D02*
X113339819Y-87737380D01*
X113339819Y-87737380D02*
X113292200Y-87880237D01*
X113292200Y-87880237D02*
X113196961Y-87975475D01*
X113196961Y-87975475D02*
X113101723Y-88023094D01*
X113101723Y-88023094D02*
X112911247Y-88070713D01*
X112911247Y-88070713D02*
X112768390Y-88070713D01*
X112768390Y-88070713D02*
X112577914Y-88023094D01*
X112577914Y-88023094D02*
X112482676Y-87975475D01*
X112482676Y-87975475D02*
X112387438Y-87880237D01*
X112387438Y-87880237D02*
X112339819Y-87737380D01*
X112339819Y-87737380D02*
X112339819Y-87642142D01*
X112339819Y-87642142D02*
X112387438Y-87499285D01*
X112387438Y-87499285D02*
X112435057Y-87451666D01*
X113339819Y-86499285D02*
X113339819Y-87070713D01*
X113339819Y-86784999D02*
X112339819Y-86784999D01*
X112339819Y-86784999D02*
X112482676Y-86880237D01*
X112482676Y-86880237D02*
X112577914Y-86975475D01*
X112577914Y-86975475D02*
X112625533Y-87070713D01*
X140559819Y-78611666D02*
X140083628Y-78944999D01*
X140559819Y-79183094D02*
X139559819Y-79183094D01*
X139559819Y-79183094D02*
X139559819Y-78802142D01*
X139559819Y-78802142D02*
X139607438Y-78706904D01*
X139607438Y-78706904D02*
X139655057Y-78659285D01*
X139655057Y-78659285D02*
X139750295Y-78611666D01*
X139750295Y-78611666D02*
X139893152Y-78611666D01*
X139893152Y-78611666D02*
X139988390Y-78659285D01*
X139988390Y-78659285D02*
X140036009Y-78706904D01*
X140036009Y-78706904D02*
X140083628Y-78802142D01*
X140083628Y-78802142D02*
X140083628Y-79183094D01*
X139559819Y-78278332D02*
X139559819Y-77611666D01*
X139559819Y-77611666D02*
X140559819Y-78040237D01*
X161825057Y-89390238D02*
X161777438Y-89485476D01*
X161777438Y-89485476D02*
X161682200Y-89580714D01*
X161682200Y-89580714D02*
X161539342Y-89723571D01*
X161539342Y-89723571D02*
X161491723Y-89818809D01*
X161491723Y-89818809D02*
X161491723Y-89914047D01*
X161729819Y-89866428D02*
X161682200Y-89961666D01*
X161682200Y-89961666D02*
X161586961Y-90056904D01*
X161586961Y-90056904D02*
X161396485Y-90104523D01*
X161396485Y-90104523D02*
X161063152Y-90104523D01*
X161063152Y-90104523D02*
X160872676Y-90056904D01*
X160872676Y-90056904D02*
X160777438Y-89961666D01*
X160777438Y-89961666D02*
X160729819Y-89866428D01*
X160729819Y-89866428D02*
X160729819Y-89675952D01*
X160729819Y-89675952D02*
X160777438Y-89580714D01*
X160777438Y-89580714D02*
X160872676Y-89485476D01*
X160872676Y-89485476D02*
X161063152Y-89437857D01*
X161063152Y-89437857D02*
X161396485Y-89437857D01*
X161396485Y-89437857D02*
X161586961Y-89485476D01*
X161586961Y-89485476D02*
X161682200Y-89580714D01*
X161682200Y-89580714D02*
X161729819Y-89675952D01*
X161729819Y-89675952D02*
X161729819Y-89866428D01*
X160729819Y-89104523D02*
X160729819Y-88437857D01*
X160729819Y-88437857D02*
X161729819Y-88866428D01*
X122216905Y-111799819D02*
X122216905Y-110799819D01*
X122216905Y-110799819D02*
X122455000Y-110799819D01*
X122455000Y-110799819D02*
X122597857Y-110847438D01*
X122597857Y-110847438D02*
X122693095Y-110942676D01*
X122693095Y-110942676D02*
X122740714Y-111037914D01*
X122740714Y-111037914D02*
X122788333Y-111228390D01*
X122788333Y-111228390D02*
X122788333Y-111371247D01*
X122788333Y-111371247D02*
X122740714Y-111561723D01*
X122740714Y-111561723D02*
X122693095Y-111656961D01*
X122693095Y-111656961D02*
X122597857Y-111752200D01*
X122597857Y-111752200D02*
X122455000Y-111799819D01*
X122455000Y-111799819D02*
X122216905Y-111799819D01*
X123359762Y-111228390D02*
X123264524Y-111180771D01*
X123264524Y-111180771D02*
X123216905Y-111133152D01*
X123216905Y-111133152D02*
X123169286Y-111037914D01*
X123169286Y-111037914D02*
X123169286Y-110990295D01*
X123169286Y-110990295D02*
X123216905Y-110895057D01*
X123216905Y-110895057D02*
X123264524Y-110847438D01*
X123264524Y-110847438D02*
X123359762Y-110799819D01*
X123359762Y-110799819D02*
X123550238Y-110799819D01*
X123550238Y-110799819D02*
X123645476Y-110847438D01*
X123645476Y-110847438D02*
X123693095Y-110895057D01*
X123693095Y-110895057D02*
X123740714Y-110990295D01*
X123740714Y-110990295D02*
X123740714Y-111037914D01*
X123740714Y-111037914D02*
X123693095Y-111133152D01*
X123693095Y-111133152D02*
X123645476Y-111180771D01*
X123645476Y-111180771D02*
X123550238Y-111228390D01*
X123550238Y-111228390D02*
X123359762Y-111228390D01*
X123359762Y-111228390D02*
X123264524Y-111276009D01*
X123264524Y-111276009D02*
X123216905Y-111323628D01*
X123216905Y-111323628D02*
X123169286Y-111418866D01*
X123169286Y-111418866D02*
X123169286Y-111609342D01*
X123169286Y-111609342D02*
X123216905Y-111704580D01*
X123216905Y-111704580D02*
X123264524Y-111752200D01*
X123264524Y-111752200D02*
X123359762Y-111799819D01*
X123359762Y-111799819D02*
X123550238Y-111799819D01*
X123550238Y-111799819D02*
X123645476Y-111752200D01*
X123645476Y-111752200D02*
X123693095Y-111704580D01*
X123693095Y-111704580D02*
X123740714Y-111609342D01*
X123740714Y-111609342D02*
X123740714Y-111418866D01*
X123740714Y-111418866D02*
X123693095Y-111323628D01*
X123693095Y-111323628D02*
X123645476Y-111276009D01*
X123645476Y-111276009D02*
X123550238Y-111228390D01*
X127773095Y-111429819D02*
X127773095Y-110429819D01*
X128344523Y-111429819D02*
X127915952Y-110858390D01*
X128344523Y-110429819D02*
X127773095Y-111001247D01*
D12*
%TO.C,Q5*%
X151416000Y-117705000D02*
X151416000Y-107465000D01*
X148285000Y-117705000D02*
X148285000Y-107465000D01*
X146775000Y-117705000D02*
X151416000Y-117705000D01*
X146775000Y-117705000D02*
X146775000Y-107465000D01*
X146775000Y-114435000D02*
X148285000Y-114435000D01*
X146775000Y-110734000D02*
X148285000Y-110734000D01*
X146775000Y-107465000D02*
X151416000Y-107465000D01*
%TO.C,R5*%
X141425000Y-88055000D02*
X134885000Y-88055000D01*
X134885000Y-88055000D02*
X134885000Y-90795000D01*
X142195000Y-89425000D02*
X141425000Y-89425000D01*
X134115000Y-89425000D02*
X134885000Y-89425000D01*
X141425000Y-90795000D02*
X141425000Y-88055000D01*
X134885000Y-90795000D02*
X141425000Y-90795000D01*
%TO.C,Q6*%
X151416000Y-106825000D02*
X151416000Y-96585000D01*
X148285000Y-106825000D02*
X148285000Y-96585000D01*
X146775000Y-106825000D02*
X151416000Y-106825000D01*
X146775000Y-106825000D02*
X146775000Y-96585000D01*
X146775000Y-103555000D02*
X148285000Y-103555000D01*
X146775000Y-99854000D02*
X148285000Y-99854000D01*
X146775000Y-96585000D02*
X151416000Y-96585000D01*
%TO.C,R8*%
X141625000Y-98955000D02*
X135085000Y-98955000D01*
X135085000Y-98955000D02*
X135085000Y-101695000D01*
X142395000Y-100325000D02*
X141625000Y-100325000D01*
X134315000Y-100325000D02*
X135085000Y-100325000D01*
X141625000Y-101695000D02*
X141625000Y-98955000D01*
X135085000Y-101695000D02*
X141625000Y-101695000D01*
%TO.C,Q4*%
X151326000Y-91715000D02*
X151326000Y-81475000D01*
X148195000Y-91715000D02*
X148195000Y-81475000D01*
X146685000Y-91715000D02*
X151326000Y-91715000D01*
X146685000Y-91715000D02*
X146685000Y-81475000D01*
X146685000Y-88445000D02*
X148195000Y-88445000D01*
X146685000Y-84744000D02*
X148195000Y-84744000D01*
X146685000Y-81475000D02*
X151326000Y-81475000D01*
%TO.C,Q2*%
X146775000Y-70665000D02*
X151416000Y-70665000D01*
X146775000Y-73934000D02*
X148285000Y-73934000D01*
X146775000Y-77635000D02*
X148285000Y-77635000D01*
X146775000Y-80905000D02*
X146775000Y-70665000D01*
X146775000Y-80905000D02*
X151416000Y-80905000D01*
X148285000Y-80905000D02*
X148285000Y-70665000D01*
X151416000Y-80905000D02*
X151416000Y-70665000D01*
%TO.C,D5*%
X126755000Y-81525000D02*
X125735000Y-81525000D01*
X125735000Y-82995000D02*
X125735000Y-80055000D01*
X125735000Y-80055000D02*
X120295000Y-80055000D01*
X121315000Y-80055000D02*
X121315000Y-82995000D01*
X121195000Y-80055000D02*
X121195000Y-82995000D01*
X121075000Y-80055000D02*
X121075000Y-82995000D01*
X120295000Y-82995000D02*
X125735000Y-82995000D01*
X120295000Y-80055000D02*
X120295000Y-82995000D01*
X119275000Y-81525000D02*
X120295000Y-81525000D01*
%TO.C,Q8*%
X137045000Y-106575000D02*
X137045000Y-111765000D01*
X132245000Y-106575000D02*
X137045000Y-106575000D01*
X137045000Y-111765000D02*
X132245000Y-111765000D01*
X132245000Y-111765000D02*
X132245000Y-106575000D01*
X135915000Y-114555000D02*
X135915000Y-111765000D01*
X134645000Y-114555000D02*
X134645000Y-111765000D01*
X133375000Y-114555000D02*
X133375000Y-111765000D01*
%TO.C,Q1*%
X132870000Y-82945000D02*
X132870000Y-77755000D01*
X137670000Y-82945000D02*
X132870000Y-82945000D01*
X132870000Y-77755000D02*
X137670000Y-77755000D01*
X137670000Y-77755000D02*
X137670000Y-82945000D01*
X134000000Y-74965000D02*
X134000000Y-77755000D01*
X135270000Y-74965000D02*
X135270000Y-77755000D01*
X136540000Y-74965000D02*
X136540000Y-77755000D01*
%TO.C,R3*%
X126895000Y-73925000D02*
X126125000Y-73925000D01*
X126125000Y-75295000D02*
X126125000Y-72555000D01*
X126125000Y-72555000D02*
X119585000Y-72555000D01*
X119585000Y-75295000D02*
X126125000Y-75295000D01*
X119585000Y-72555000D02*
X119585000Y-75295000D01*
X118815000Y-73925000D02*
X119585000Y-73925000D01*
%TO.C,D7*%
X126755000Y-101825000D02*
X125735000Y-101825000D01*
X125735000Y-103295000D02*
X125735000Y-100355000D01*
X125735000Y-100355000D02*
X120295000Y-100355000D01*
X121315000Y-100355000D02*
X121315000Y-103295000D01*
X121195000Y-100355000D02*
X121195000Y-103295000D01*
X121075000Y-100355000D02*
X121075000Y-103295000D01*
X120295000Y-103295000D02*
X125735000Y-103295000D01*
X120295000Y-100355000D02*
X120295000Y-103295000D01*
X119275000Y-101825000D02*
X120295000Y-101825000D01*
%TO.C,R4*%
X126695000Y-115925000D02*
X125925000Y-115925000D01*
X125925000Y-117295000D02*
X125925000Y-114555000D01*
X125925000Y-114555000D02*
X119385000Y-114555000D01*
X119385000Y-117295000D02*
X125925000Y-117295000D01*
X119385000Y-114555000D02*
X119385000Y-117295000D01*
X118615000Y-115925000D02*
X119385000Y-115925000D01*
%TO.C,C2*%
X115930302Y-97425000D02*
G75*
G02*
X107690302Y-97425000I-4120000J0D01*
G01*
X107690302Y-97425000D02*
G75*
G02*
X115930302Y-97425000I4120000J0D01*
G01*
X116220000Y-99740000D02*
X115420000Y-99740000D01*
X115820000Y-100140000D02*
X115820000Y-99340000D01*
X111810302Y-101505000D02*
X111810302Y-93345000D01*
X111770302Y-101505000D02*
X111770302Y-93345000D01*
X111730302Y-101505000D02*
X111730302Y-93345000D01*
X111690302Y-101504000D02*
X111690302Y-93346000D01*
X111650302Y-101502000D02*
X111650302Y-93348000D01*
X111610302Y-101501000D02*
X111610302Y-93349000D01*
X111570302Y-101499000D02*
X111570302Y-93351000D01*
X111530302Y-101496000D02*
X111530302Y-93354000D01*
X111490302Y-101493000D02*
X111490302Y-93357000D01*
X111450302Y-101490000D02*
X111450302Y-93360000D01*
X111410302Y-101486000D02*
X111410302Y-93364000D01*
X111370302Y-101482000D02*
X111370302Y-93368000D01*
X111330302Y-101477000D02*
X111330302Y-93373000D01*
X111290302Y-101473000D02*
X111290302Y-93377000D01*
X111250302Y-101467000D02*
X111250302Y-93383000D01*
X111210302Y-101462000D02*
X111210302Y-93388000D01*
X111170302Y-101455000D02*
X111170302Y-93395000D01*
X111130302Y-101449000D02*
X111130302Y-93401000D01*
X111089302Y-101442000D02*
X111089302Y-93408000D01*
X111049302Y-101435000D02*
X111049302Y-93415000D01*
X111009302Y-101427000D02*
X111009302Y-93423000D01*
X110969302Y-101419000D02*
X110969302Y-93431000D01*
X110929302Y-101410000D02*
X110929302Y-98465000D01*
X110929302Y-96385000D02*
X110929302Y-93440000D01*
X110889302Y-101401000D02*
X110889302Y-98465000D01*
X110889302Y-96385000D02*
X110889302Y-93449000D01*
X110849302Y-101392000D02*
X110849302Y-98465000D01*
X110849302Y-96385000D02*
X110849302Y-93458000D01*
X110809302Y-101382000D02*
X110809302Y-98465000D01*
X110809302Y-96385000D02*
X110809302Y-93468000D01*
X110769302Y-101372000D02*
X110769302Y-98465000D01*
X110769302Y-96385000D02*
X110769302Y-93478000D01*
X110729302Y-101361000D02*
X110729302Y-98465000D01*
X110729302Y-96385000D02*
X110729302Y-93489000D01*
X110689302Y-101350000D02*
X110689302Y-98465000D01*
X110689302Y-96385000D02*
X110689302Y-93500000D01*
X110649302Y-101339000D02*
X110649302Y-98465000D01*
X110649302Y-96385000D02*
X110649302Y-93511000D01*
X110609302Y-101327000D02*
X110609302Y-98465000D01*
X110609302Y-96385000D02*
X110609302Y-93523000D01*
X110569302Y-101314000D02*
X110569302Y-98465000D01*
X110569302Y-96385000D02*
X110569302Y-93536000D01*
X110529302Y-101302000D02*
X110529302Y-98465000D01*
X110529302Y-96385000D02*
X110529302Y-93548000D01*
X110489302Y-101288000D02*
X110489302Y-98465000D01*
X110489302Y-96385000D02*
X110489302Y-93562000D01*
X110449302Y-101275000D02*
X110449302Y-98465000D01*
X110449302Y-96385000D02*
X110449302Y-93575000D01*
X110409302Y-101260000D02*
X110409302Y-98465000D01*
X110409302Y-96385000D02*
X110409302Y-93590000D01*
X110369302Y-101246000D02*
X110369302Y-98465000D01*
X110369302Y-96385000D02*
X110369302Y-93604000D01*
X110329302Y-101230000D02*
X110329302Y-98465000D01*
X110329302Y-96385000D02*
X110329302Y-93620000D01*
X110289302Y-101215000D02*
X110289302Y-98465000D01*
X110289302Y-96385000D02*
X110289302Y-93635000D01*
X110249302Y-101199000D02*
X110249302Y-98465000D01*
X110249302Y-96385000D02*
X110249302Y-93651000D01*
X110209302Y-101182000D02*
X110209302Y-98465000D01*
X110209302Y-96385000D02*
X110209302Y-93668000D01*
X110169302Y-101165000D02*
X110169302Y-98465000D01*
X110169302Y-96385000D02*
X110169302Y-93685000D01*
X110129302Y-101147000D02*
X110129302Y-98465000D01*
X110129302Y-96385000D02*
X110129302Y-93703000D01*
X110089302Y-101129000D02*
X110089302Y-98465000D01*
X110089302Y-96385000D02*
X110089302Y-93721000D01*
X110049302Y-101111000D02*
X110049302Y-98465000D01*
X110049302Y-96385000D02*
X110049302Y-93739000D01*
X110009302Y-101091000D02*
X110009302Y-98465000D01*
X110009302Y-96385000D02*
X110009302Y-93759000D01*
X109969302Y-101072000D02*
X109969302Y-98465000D01*
X109969302Y-96385000D02*
X109969302Y-93778000D01*
X109929302Y-101052000D02*
X109929302Y-98465000D01*
X109929302Y-96385000D02*
X109929302Y-93798000D01*
X109889302Y-101031000D02*
X109889302Y-98465000D01*
X109889302Y-96385000D02*
X109889302Y-93819000D01*
X109849302Y-101009000D02*
X109849302Y-98465000D01*
X109849302Y-96385000D02*
X109849302Y-93841000D01*
X109809302Y-100987000D02*
X109809302Y-98465000D01*
X109809302Y-96385000D02*
X109809302Y-93863000D01*
X109769302Y-100965000D02*
X109769302Y-98465000D01*
X109769302Y-96385000D02*
X109769302Y-93885000D01*
X109729302Y-100942000D02*
X109729302Y-98465000D01*
X109729302Y-96385000D02*
X109729302Y-93908000D01*
X109689302Y-100918000D02*
X109689302Y-98465000D01*
X109689302Y-96385000D02*
X109689302Y-93932000D01*
X109649302Y-100894000D02*
X109649302Y-98465000D01*
X109649302Y-96385000D02*
X109649302Y-93956000D01*
X109609302Y-100869000D02*
X109609302Y-98465000D01*
X109609302Y-96385000D02*
X109609302Y-93981000D01*
X109569302Y-100843000D02*
X109569302Y-98465000D01*
X109569302Y-96385000D02*
X109569302Y-94007000D01*
X109529302Y-100817000D02*
X109529302Y-98465000D01*
X109529302Y-96385000D02*
X109529302Y-94033000D01*
X109489302Y-100790000D02*
X109489302Y-98465000D01*
X109489302Y-96385000D02*
X109489302Y-94060000D01*
X109449302Y-100763000D02*
X109449302Y-98465000D01*
X109449302Y-96385000D02*
X109449302Y-94087000D01*
X109409302Y-100734000D02*
X109409302Y-98465000D01*
X109409302Y-96385000D02*
X109409302Y-94116000D01*
X109369302Y-100705000D02*
X109369302Y-98465000D01*
X109369302Y-96385000D02*
X109369302Y-94145000D01*
X109329302Y-100675000D02*
X109329302Y-98465000D01*
X109329302Y-96385000D02*
X109329302Y-94175000D01*
X109289302Y-100645000D02*
X109289302Y-98465000D01*
X109289302Y-96385000D02*
X109289302Y-94205000D01*
X109249302Y-100614000D02*
X109249302Y-98465000D01*
X109249302Y-96385000D02*
X109249302Y-94236000D01*
X109209302Y-100581000D02*
X109209302Y-98465000D01*
X109209302Y-96385000D02*
X109209302Y-94269000D01*
X109169302Y-100549000D02*
X109169302Y-98465000D01*
X109169302Y-96385000D02*
X109169302Y-94301000D01*
X109129302Y-100515000D02*
X109129302Y-98465000D01*
X109129302Y-96385000D02*
X109129302Y-94335000D01*
X109089302Y-100480000D02*
X109089302Y-98465000D01*
X109089302Y-96385000D02*
X109089302Y-94370000D01*
X109049302Y-100444000D02*
X109049302Y-98465000D01*
X109049302Y-96385000D02*
X109049302Y-94406000D01*
X109009302Y-100408000D02*
X109009302Y-98465000D01*
X109009302Y-96385000D02*
X109009302Y-94442000D01*
X108969302Y-100370000D02*
X108969302Y-98465000D01*
X108969302Y-96385000D02*
X108969302Y-94480000D01*
X108929302Y-100332000D02*
X108929302Y-98465000D01*
X108929302Y-96385000D02*
X108929302Y-94518000D01*
X108889302Y-100292000D02*
X108889302Y-98465000D01*
X108889302Y-96385000D02*
X108889302Y-94558000D01*
X108849302Y-100251000D02*
X108849302Y-94599000D01*
X108809302Y-100209000D02*
X108809302Y-94641000D01*
X108769302Y-100166000D02*
X108769302Y-94684000D01*
X108729302Y-100122000D02*
X108729302Y-94728000D01*
X108689302Y-100076000D02*
X108689302Y-94774000D01*
X108649302Y-100029000D02*
X108649302Y-94821000D01*
X108609302Y-99981000D02*
X108609302Y-94869000D01*
X108569302Y-99930000D02*
X108569302Y-94920000D01*
X108529302Y-99879000D02*
X108529302Y-94971000D01*
X108489302Y-99825000D02*
X108489302Y-95025000D01*
X108449302Y-99770000D02*
X108449302Y-95080000D01*
X108409302Y-99712000D02*
X108409302Y-95138000D01*
X108369302Y-99653000D02*
X108369302Y-95197000D01*
X108329302Y-99591000D02*
X108329302Y-95259000D01*
X108289302Y-99527000D02*
X108289302Y-95323000D01*
X108249302Y-99459000D02*
X108249302Y-95391000D01*
X108209302Y-99389000D02*
X108209302Y-95461000D01*
X108169302Y-99315000D02*
X108169302Y-95535000D01*
X108129302Y-99238000D02*
X108129302Y-95612000D01*
X108089302Y-99156000D02*
X108089302Y-95694000D01*
X108049302Y-99070000D02*
X108049302Y-95780000D01*
X108009302Y-98977000D02*
X108009302Y-95873000D01*
X107969302Y-98878000D02*
X107969302Y-95972000D01*
X107929302Y-98771000D02*
X107929302Y-96079000D01*
X107889302Y-98654000D02*
X107889302Y-96196000D01*
X107849302Y-98523000D02*
X107849302Y-96327000D01*
X107809302Y-98373000D02*
X107809302Y-96477000D01*
X107769302Y-98193000D02*
X107769302Y-96657000D01*
X107729302Y-97958000D02*
X107729302Y-96892000D01*
%TO.C,D1*%
X105115000Y-73225000D02*
X104465000Y-73225000D01*
X104465000Y-74345000D02*
X104465000Y-72105000D01*
X104465000Y-72105000D02*
X100225000Y-72105000D01*
X103865000Y-74345000D02*
X103865000Y-72105000D01*
X103745000Y-74345000D02*
X103745000Y-72105000D01*
X103625000Y-74345000D02*
X103625000Y-72105000D01*
X100225000Y-74345000D02*
X104465000Y-74345000D01*
X100225000Y-72105000D02*
X100225000Y-74345000D01*
X99575000Y-73225000D02*
X100225000Y-73225000D01*
%TO.C,R1*%
X111945000Y-79315000D02*
X111945000Y-72775000D01*
X111945000Y-72775000D02*
X109205000Y-72775000D01*
X110575000Y-80085000D02*
X110575000Y-79315000D01*
X110575000Y-72005000D02*
X110575000Y-72775000D01*
X109205000Y-79315000D02*
X111945000Y-79315000D01*
X109205000Y-72775000D02*
X109205000Y-79315000D01*
%TO.C,D3*%
X104805000Y-107375000D02*
X104155000Y-107375000D01*
X104155000Y-108495000D02*
X104155000Y-106255000D01*
X104155000Y-106255000D02*
X99915000Y-106255000D01*
X103555000Y-108495000D02*
X103555000Y-106255000D01*
X103435000Y-108495000D02*
X103435000Y-106255000D01*
X103315000Y-108495000D02*
X103315000Y-106255000D01*
X99915000Y-108495000D02*
X104155000Y-108495000D01*
X99915000Y-106255000D02*
X99915000Y-108495000D01*
X99265000Y-107375000D02*
X99915000Y-107375000D01*
%TO.C,J1*%
X105125000Y-101655000D02*
X98385000Y-101655000D01*
X105125000Y-85675000D02*
X105125000Y-101655000D01*
X105125000Y-85675000D02*
X98385000Y-85675000D01*
X103406000Y-85675000D02*
X103406000Y-101655000D01*
X100305000Y-85675000D02*
X100305000Y-101655000D01*
X99305000Y-85675000D02*
X99305000Y-101655000D01*
X99185000Y-85435000D02*
X98145000Y-85435000D01*
X98385000Y-85675000D02*
X98385000Y-101655000D01*
X98145000Y-85435000D02*
X98145000Y-86235000D01*
%TO.C,D4*%
X99385000Y-113925000D02*
X100035000Y-113925000D01*
X100035000Y-112805000D02*
X100035000Y-115045000D01*
X100035000Y-115045000D02*
X104275000Y-115045000D01*
X100635000Y-112805000D02*
X100635000Y-115045000D01*
X100755000Y-112805000D02*
X100755000Y-115045000D01*
X100875000Y-112805000D02*
X100875000Y-115045000D01*
X104275000Y-112805000D02*
X100035000Y-112805000D01*
X104275000Y-115045000D02*
X104275000Y-112805000D01*
X104925000Y-113925000D02*
X104275000Y-113925000D01*
%TO.C,D2*%
X99385000Y-79825000D02*
X100035000Y-79825000D01*
X100035000Y-78705000D02*
X100035000Y-80945000D01*
X100035000Y-80945000D02*
X104275000Y-80945000D01*
X100635000Y-78705000D02*
X100635000Y-80945000D01*
X100755000Y-78705000D02*
X100755000Y-80945000D01*
X100875000Y-78705000D02*
X100875000Y-80945000D01*
X104275000Y-78705000D02*
X100035000Y-78705000D01*
X104275000Y-80945000D02*
X104275000Y-78705000D01*
X104925000Y-79825000D02*
X104275000Y-79825000D01*
%TO.C,R6*%
X141575000Y-106500000D02*
X141575000Y-107270000D01*
X142945000Y-107270000D02*
X140205000Y-107270000D01*
X140205000Y-107270000D02*
X140205000Y-113810000D01*
X142945000Y-113810000D02*
X142945000Y-107270000D01*
X140205000Y-113810000D02*
X142945000Y-113810000D01*
X141575000Y-114580000D02*
X141575000Y-113810000D01*
%TO.C,R2*%
X109705000Y-106785000D02*
X109705000Y-113325000D01*
X109705000Y-113325000D02*
X112445000Y-113325000D01*
X111075000Y-106015000D02*
X111075000Y-106785000D01*
X111075000Y-114095000D02*
X111075000Y-113325000D01*
X112445000Y-106785000D02*
X109705000Y-106785000D01*
X112445000Y-113325000D02*
X112445000Y-106785000D01*
%TO.C,D6*%
X126940000Y-89925000D02*
X125920000Y-89925000D01*
X125920000Y-91395000D02*
X125920000Y-88455000D01*
X125920000Y-88455000D02*
X120480000Y-88455000D01*
X125140000Y-91395000D02*
X125140000Y-88455000D01*
X125020000Y-91395000D02*
X125020000Y-88455000D01*
X124900000Y-91395000D02*
X124900000Y-88455000D01*
X120480000Y-91395000D02*
X125920000Y-91395000D01*
X120480000Y-88455000D02*
X120480000Y-91395000D01*
X119460000Y-89925000D02*
X120480000Y-89925000D01*
%TO.C,Q3*%
X155714000Y-95175000D02*
X155714000Y-105415000D01*
X158845000Y-95175000D02*
X158845000Y-105415000D01*
X160355000Y-95175000D02*
X155714000Y-95175000D01*
X160355000Y-95175000D02*
X160355000Y-105415000D01*
X160355000Y-98445000D02*
X158845000Y-98445000D01*
X160355000Y-102146000D02*
X158845000Y-102146000D01*
X160355000Y-105415000D02*
X155714000Y-105415000D01*
%TO.C,C1*%
X109015000Y-84665000D02*
X109015000Y-89905000D01*
X109330000Y-84665000D02*
X109015000Y-84665000D01*
X109330000Y-89905000D02*
X109015000Y-89905000D01*
X111755000Y-84665000D02*
X111440000Y-84665000D01*
X111755000Y-84665000D02*
X111755000Y-89905000D01*
X111755000Y-89905000D02*
X111440000Y-89905000D01*
%TO.C,R7*%
X142475000Y-82485000D02*
X142475000Y-81715000D01*
X141105000Y-81715000D02*
X143845000Y-81715000D01*
X143845000Y-81715000D02*
X143845000Y-75175000D01*
X141105000Y-75175000D02*
X141105000Y-81715000D01*
X143845000Y-75175000D02*
X141105000Y-75175000D01*
X142475000Y-74405000D02*
X142475000Y-75175000D01*
%TO.C,Q7*%
X155634000Y-84175000D02*
X155634000Y-94415000D01*
X158765000Y-84175000D02*
X158765000Y-94415000D01*
X160275000Y-84175000D02*
X155634000Y-84175000D01*
X160275000Y-84175000D02*
X160275000Y-94415000D01*
X160275000Y-87445000D02*
X158765000Y-87445000D01*
X160275000Y-91146000D02*
X158765000Y-91146000D01*
X160275000Y-94415000D02*
X155634000Y-94415000D01*
%TO.C,D8*%
X126695000Y-108875000D02*
X125675000Y-108875000D01*
X125675000Y-110345000D02*
X125675000Y-107405000D01*
X125675000Y-107405000D02*
X120235000Y-107405000D01*
X124895000Y-110345000D02*
X124895000Y-107405000D01*
X124775000Y-110345000D02*
X124775000Y-107405000D01*
X124655000Y-110345000D02*
X124655000Y-107405000D01*
X120235000Y-110345000D02*
X125675000Y-110345000D01*
X120235000Y-107405000D02*
X120235000Y-110345000D01*
X119215000Y-108875000D02*
X120235000Y-108875000D01*
%TD*%
M02*
