%TF.GenerationSoftware,KiCad,Pcbnew,9.0.0*%
%TF.CreationDate,2025-04-05T16:30:54-04:00*%
%TF.ProjectId,h-bridge,682d6272-6964-4676-952e-6b696361645f,rev?*%
%TF.SameCoordinates,Original*%
%TF.FileFunction,Copper,L1,Top*%
%TF.FilePolarity,Positive*%
%FSLAX46Y46*%
G04 Gerber Fmt 4.6, Leading zero omitted, Abs format (unit mm)*
G04 Created by KiCad (PCBNEW 9.0.0) date 2025-04-05 16:30:54*
%MOMM*%
%LPD*%
G01*
G04 APERTURE LIST*
%TA.AperFunction,ComponentPad*%
%ADD10O,2.000000X1.905000*%
%TD*%
%TA.AperFunction,ComponentPad*%
%ADD11R,2.000000X1.905000*%
%TD*%
%TA.AperFunction,ComponentPad*%
%ADD12O,1.600000X1.600000*%
%TD*%
%TA.AperFunction,ComponentPad*%
%ADD13C,1.600000*%
%TD*%
%TA.AperFunction,ComponentPad*%
%ADD14O,2.200000X2.200000*%
%TD*%
%TA.AperFunction,ComponentPad*%
%ADD15R,2.200000X2.200000*%
%TD*%
%TA.AperFunction,ComponentPad*%
%ADD16O,1.050000X1.500000*%
%TD*%
%TA.AperFunction,ComponentPad*%
%ADD17R,1.050000X1.500000*%
%TD*%
%TA.AperFunction,ComponentPad*%
%ADD18R,1.600000X1.600000*%
%TD*%
%TA.AperFunction,ComponentPad*%
%ADD19C,2.000000*%
%TD*%
%TA.AperFunction,ComponentPad*%
%ADD20R,2.000000X2.000000*%
%TD*%
%TA.AperFunction,ViaPad*%
%ADD21C,0.600000*%
%TD*%
%TA.AperFunction,Conductor*%
%ADD22C,0.200000*%
%TD*%
G04 APERTURE END LIST*
D10*
%TO.P,Q5,3,S*%
%TO.N,Net-(Q4-G)*%
X150045000Y-110045000D03*
%TO.P,Q5,2,D*%
%TO.N,M-*%
X150045000Y-112585000D03*
D11*
%TO.P,Q5,1,G*%
%TO.N,Net-(Q2-D)*%
X150045000Y-115125000D03*
%TD*%
D12*
%TO.P,R5,2*%
%TO.N,Net-(Q1-C)*%
X143235000Y-89425000D03*
D13*
%TO.P,R5,1*%
%TO.N,Vcc*%
X133075000Y-89425000D03*
%TD*%
D10*
%TO.P,Q6,3,S*%
%TO.N,Vcc*%
X150045000Y-99165000D03*
%TO.P,Q6,2,D*%
%TO.N,Net-(Q4-G)*%
X150045000Y-101705000D03*
D11*
%TO.P,Q6,1,G*%
%TO.N,Net-(Q6-G)*%
X150045000Y-104245000D03*
%TD*%
D12*
%TO.P,R8,2*%
%TO.N,Net-(Q6-G)*%
X143435000Y-100325000D03*
D13*
%TO.P,R8,1*%
%TO.N,Vcc*%
X133275000Y-100325000D03*
%TD*%
D10*
%TO.P,Q4,3,S*%
%TO.N,Net-(Q2-D)*%
X149955000Y-84055000D03*
%TO.P,Q4,2,D*%
%TO.N,M+*%
X149955000Y-86595000D03*
D11*
%TO.P,Q4,1,G*%
%TO.N,Net-(Q4-G)*%
X149955000Y-89135000D03*
%TD*%
%TO.P,Q2,1,G*%
%TO.N,Net-(Q1-C)*%
X150045000Y-78325000D03*
D10*
%TO.P,Q2,2,D*%
%TO.N,Net-(Q2-D)*%
X150045000Y-75785000D03*
%TO.P,Q2,3,S*%
%TO.N,Vcc*%
X150045000Y-73245000D03*
%TD*%
D14*
%TO.P,D5,2,A*%
%TO.N,M+*%
X128095000Y-81525000D03*
D15*
%TO.P,D5,1,K*%
%TO.N,Vcc*%
X117935000Y-81525000D03*
%TD*%
D16*
%TO.P,Q8,3,C*%
%TO.N,Net-(Q6-G)*%
X133375000Y-115575000D03*
%TO.P,Q8,2,B*%
%TO.N,Vr*%
X134645000Y-115575000D03*
D17*
%TO.P,Q8,1,E*%
%TO.N,GND*%
X135915000Y-115575000D03*
%TD*%
D16*
%TO.P,Q1,3,C*%
%TO.N,Net-(Q1-C)*%
X136540000Y-73945000D03*
%TO.P,Q1,2,B*%
%TO.N,Vf*%
X135270000Y-73945000D03*
D17*
%TO.P,Q1,1,E*%
%TO.N,GND*%
X134000000Y-73945000D03*
%TD*%
D12*
%TO.P,R3,2*%
%TO.N,Vf*%
X127935000Y-73925000D03*
D13*
%TO.P,R3,1*%
%TO.N,Net-(D1-A)*%
X117775000Y-73925000D03*
%TD*%
D14*
%TO.P,D7,2,A*%
%TO.N,M-*%
X128095000Y-101825000D03*
D15*
%TO.P,D7,1,K*%
%TO.N,Vcc*%
X117935000Y-101825000D03*
%TD*%
D12*
%TO.P,R4,2*%
%TO.N,Vr*%
X127735000Y-115925000D03*
D13*
%TO.P,R4,1*%
%TO.N,Net-(D3-A)*%
X117575000Y-115925000D03*
%TD*%
%TO.P,C2,2*%
%TO.N,GND*%
X109910302Y-97425000D03*
D18*
%TO.P,C2,1*%
%TO.N,Vcc*%
X113710302Y-97425000D03*
%TD*%
D12*
%TO.P,D1,2,A*%
%TO.N,Net-(D1-A)*%
X98535000Y-73225000D03*
D18*
%TO.P,D1,1,K*%
%TO.N,Vcc*%
X106155000Y-73225000D03*
%TD*%
D12*
%TO.P,R1,2*%
%TO.N,GND*%
X110575000Y-70965000D03*
D13*
%TO.P,R1,1*%
%TO.N,Net-(D1-A)*%
X110575000Y-81125000D03*
%TD*%
D12*
%TO.P,D3,2,A*%
%TO.N,Net-(D3-A)*%
X98225000Y-107375000D03*
D18*
%TO.P,D3,1,K*%
%TO.N,Vcc*%
X105845000Y-107375000D03*
%TD*%
D19*
%TO.P,J1,6,Pin_6*%
%TO.N,GND*%
X101905000Y-100015000D03*
%TO.P,J1,5,Pin_5*%
%TO.N,Vcc*%
X101905000Y-97475000D03*
%TO.P,J1,4,Pin_4*%
%TO.N,M-*%
X101905000Y-94935000D03*
%TO.P,J1,3,Pin_3*%
%TO.N,M+*%
X101905000Y-92395000D03*
%TO.P,J1,2,Pin_2*%
%TO.N,Net-(D3-A)*%
X101905000Y-89855000D03*
D20*
%TO.P,J1,1,Pin_1*%
%TO.N,Net-(D1-A)*%
X101905000Y-87315000D03*
%TD*%
D18*
%TO.P,D4,1,K*%
%TO.N,Net-(D3-A)*%
X98345000Y-113925000D03*
D12*
%TO.P,D4,2,A*%
%TO.N,GND*%
X105965000Y-113925000D03*
%TD*%
D18*
%TO.P,D2,1,K*%
%TO.N,Net-(D1-A)*%
X98345000Y-79825000D03*
D12*
%TO.P,D2,2,A*%
%TO.N,GND*%
X105965000Y-79825000D03*
%TD*%
D13*
%TO.P,R6,1*%
%TO.N,Net-(Q4-G)*%
X141575000Y-105460000D03*
D12*
%TO.P,R6,2*%
%TO.N,GND*%
X141575000Y-115620000D03*
%TD*%
D13*
%TO.P,R2,1*%
%TO.N,Net-(D3-A)*%
X111075000Y-104975000D03*
D12*
%TO.P,R2,2*%
%TO.N,GND*%
X111075000Y-115135000D03*
%TD*%
D15*
%TO.P,D6,1,K*%
%TO.N,M+*%
X128280000Y-89925000D03*
D14*
%TO.P,D6,2,A*%
%TO.N,GND*%
X118120000Y-89925000D03*
%TD*%
D11*
%TO.P,Q3,1,G*%
%TO.N,Vr*%
X157085000Y-97755000D03*
D10*
%TO.P,Q3,2,D*%
%TO.N,M+*%
X157085000Y-100295000D03*
%TO.P,Q3,3,S*%
%TO.N,GND*%
X157085000Y-102835000D03*
%TD*%
D13*
%TO.P,C1,1*%
%TO.N,M+*%
X110385000Y-84785000D03*
%TO.P,C1,2*%
%TO.N,M-*%
X110385000Y-89785000D03*
%TD*%
%TO.P,R7,1*%
%TO.N,Net-(Q2-D)*%
X142475000Y-83525000D03*
D12*
%TO.P,R7,2*%
%TO.N,GND*%
X142475000Y-73365000D03*
%TD*%
D11*
%TO.P,Q7,1,G*%
%TO.N,Vf*%
X157005000Y-86755000D03*
D10*
%TO.P,Q7,2,D*%
%TO.N,M-*%
X157005000Y-89295000D03*
%TO.P,Q7,3,S*%
%TO.N,GND*%
X157005000Y-91835000D03*
%TD*%
D15*
%TO.P,D8,1,K*%
%TO.N,M-*%
X128035000Y-108875000D03*
D14*
%TO.P,D8,2,A*%
%TO.N,GND*%
X117875000Y-108875000D03*
%TD*%
D21*
%TO.N,Net-(Q4-G)*%
X141500000Y-96100000D03*
%TO.N,Net-(Q2-D)*%
X152824265Y-95624265D03*
X138400000Y-91000000D03*
%TD*%
D22*
%TO.N,Net-(Q4-G)*%
X141575000Y-96175000D02*
X141500000Y-96100000D01*
X141575000Y-105460000D02*
X141575000Y-96175000D01*
X141575000Y-105460000D02*
X145460000Y-105460000D01*
X145460000Y-105460000D02*
X150045000Y-110045000D01*
X141575000Y-105460000D02*
X146290000Y-105460000D01*
X146290000Y-105460000D02*
X150045000Y-101705000D01*
%TO.N,Net-(Q2-D)*%
X142000000Y-94600000D02*
X151800000Y-94600000D01*
X151800000Y-94600000D02*
X152824265Y-95624265D01*
X138400000Y-91000000D02*
X142000000Y-94600000D01*
X142475000Y-83525000D02*
X142475000Y-83355000D01*
X142475000Y-83355000D02*
X150045000Y-75785000D01*
X142475000Y-83525000D02*
X149425000Y-83525000D01*
X149425000Y-83525000D02*
X149955000Y-84055000D01*
%TO.N,M-*%
X128095000Y-101825000D02*
X122425000Y-101825000D01*
X122425000Y-101825000D02*
X110385000Y-89785000D01*
X128035000Y-108875000D02*
X128035000Y-101885000D01*
X128035000Y-101885000D02*
X128095000Y-101825000D01*
X131760000Y-112600000D02*
X132100000Y-112600000D01*
X132100000Y-112600000D02*
X132115000Y-112585000D01*
X132115000Y-112585000D02*
X150045000Y-112585000D01*
X128035000Y-108875000D02*
X131760000Y-112600000D01*
%TO.N,M+*%
X152395000Y-86595000D02*
X153900000Y-88100000D01*
X149955000Y-86595000D02*
X152395000Y-86595000D01*
X153900000Y-97124500D02*
X157070500Y-100295000D01*
X157070500Y-100295000D02*
X157085000Y-100295000D01*
X153900000Y-88100000D02*
X153900000Y-97124500D01*
X128095000Y-81525000D02*
X133165000Y-86595000D01*
X133165000Y-86595000D02*
X149955000Y-86595000D01*
%TO.N,Vr*%
X129910000Y-118100000D02*
X133300000Y-118100000D01*
X134645000Y-116755000D02*
X133300000Y-118100000D01*
X134645000Y-115575000D02*
X134645000Y-116755000D01*
X127735000Y-115925000D02*
X129910000Y-118100000D01*
X160900000Y-110900000D02*
X160900000Y-99500000D01*
X133300000Y-118100000D02*
X153700000Y-118100000D01*
X159055000Y-97755000D02*
X157085000Y-97755000D01*
X153700000Y-118100000D02*
X160900000Y-110900000D01*
X160900000Y-99500000D02*
X160800000Y-99500000D01*
X160800000Y-99500000D02*
X159055000Y-97755000D01*
%TO.N,Net-(D3-A)*%
X111075000Y-104975000D02*
X111075000Y-106225000D01*
X111075000Y-106225000D02*
X106700000Y-110600000D01*
X111075000Y-104975000D02*
X111075000Y-109425000D01*
X111075000Y-109425000D02*
X117575000Y-115925000D01*
X102100000Y-110600000D02*
X102000000Y-110700000D01*
X106700000Y-110600000D02*
X102100000Y-110600000D01*
X102000000Y-110700000D02*
X101900000Y-110600000D01*
X101900000Y-110600000D02*
X101450000Y-110600000D01*
X101450000Y-110600000D02*
X98225000Y-107375000D01*
%TO.N,Vf*%
X135270000Y-73945000D02*
X135270000Y-71470000D01*
X135270000Y-71470000D02*
X134800000Y-71000000D01*
X134800000Y-71000000D02*
X128800000Y-71000000D01*
X127935000Y-73925000D02*
X127935000Y-71865000D01*
X127935000Y-71865000D02*
X128800000Y-71000000D01*
X128800000Y-71000000D02*
X154000000Y-71000000D01*
X154000000Y-71000000D02*
X157005000Y-74005000D01*
X157005000Y-74005000D02*
X157005000Y-86755000D01*
%TO.N,Net-(D1-A)*%
X117775000Y-73925000D02*
X110575000Y-81125000D01*
%TO.N,M+*%
X110385000Y-84785000D02*
X123140000Y-84785000D01*
X123140000Y-84785000D02*
X128280000Y-89925000D01*
X110385000Y-84785000D02*
X124835000Y-84785000D01*
X124835000Y-84785000D02*
X128095000Y-81525000D01*
%TO.N,M-*%
X110385000Y-89785000D02*
X107055000Y-89785000D01*
X107055000Y-89785000D02*
X101905000Y-94935000D01*
%TO.N,M+*%
X110385000Y-84785000D02*
X102775000Y-92395000D01*
X102775000Y-92395000D02*
X101905000Y-92395000D01*
%TO.N,Vcc*%
X105845000Y-107375000D02*
X105845000Y-105290302D01*
X105845000Y-105290302D02*
X113710302Y-97425000D01*
X105845000Y-107375000D02*
X105845000Y-101415000D01*
X105845000Y-101415000D02*
X101905000Y-97475000D01*
%TO.N,Net-(D1-A)*%
X101905000Y-87315000D02*
X104385000Y-87315000D01*
X104385000Y-87315000D02*
X110575000Y-81125000D01*
%TO.N,Net-(D3-A)*%
X98225000Y-107375000D02*
X98225000Y-113805000D01*
X98225000Y-113805000D02*
X98345000Y-113925000D01*
X101905000Y-89855000D02*
X98225000Y-93535000D01*
X98225000Y-93535000D02*
X98225000Y-107375000D01*
%TO.N,Net-(D1-A)*%
X98345000Y-79825000D02*
X98345000Y-73415000D01*
X98345000Y-73415000D02*
X98535000Y-73225000D01*
X101905000Y-87315000D02*
X101905000Y-83385000D01*
X101905000Y-83385000D02*
X98345000Y-79825000D01*
%TD*%
%TA.AperFunction,Conductor*%
%TO.N,GND*%
G36*
X127538073Y-83026909D02*
G01*
X127713580Y-83083934D01*
X127720215Y-83086090D01*
X127969038Y-83125500D01*
X127969039Y-83125500D01*
X128220961Y-83125500D01*
X128220962Y-83125500D01*
X128469785Y-83086090D01*
X128651925Y-83026908D01*
X128721764Y-83024914D01*
X128777923Y-83057159D01*
X132796284Y-87075520D01*
X132796286Y-87075521D01*
X132796290Y-87075524D01*
X132933209Y-87154573D01*
X132933216Y-87154577D01*
X133085943Y-87195501D01*
X133085945Y-87195501D01*
X133251654Y-87195501D01*
X133251670Y-87195500D01*
X148506742Y-87195500D01*
X148573781Y-87215185D01*
X148617227Y-87263205D01*
X148664783Y-87356538D01*
X148797525Y-87539242D01*
X148821005Y-87605046D01*
X148805180Y-87673100D01*
X148755074Y-87721795D01*
X148740541Y-87728308D01*
X148712670Y-87738703D01*
X148712664Y-87738706D01*
X148597455Y-87824952D01*
X148597452Y-87824955D01*
X148511206Y-87940164D01*
X148511202Y-87940171D01*
X148460908Y-88075017D01*
X148454501Y-88134616D01*
X148454501Y-88134623D01*
X148454500Y-88134635D01*
X148454500Y-90135370D01*
X148454501Y-90135376D01*
X148460908Y-90194983D01*
X148511202Y-90329828D01*
X148511206Y-90329835D01*
X148597452Y-90445044D01*
X148597455Y-90445047D01*
X148712664Y-90531293D01*
X148712671Y-90531297D01*
X148847517Y-90581591D01*
X148847516Y-90581591D01*
X148854444Y-90582335D01*
X148907127Y-90588000D01*
X151002872Y-90587999D01*
X151062483Y-90581591D01*
X151197331Y-90531296D01*
X151312546Y-90445046D01*
X151398796Y-90329831D01*
X151449091Y-90194983D01*
X151455500Y-90135373D01*
X151455499Y-88134628D01*
X151449091Y-88075017D01*
X151445372Y-88065047D01*
X151398797Y-87940171D01*
X151398793Y-87940164D01*
X151312547Y-87824955D01*
X151312544Y-87824952D01*
X151197335Y-87738706D01*
X151197328Y-87738702D01*
X151169459Y-87728308D01*
X151113525Y-87686437D01*
X151089108Y-87620973D01*
X151103960Y-87552700D01*
X151112460Y-87539260D01*
X151245217Y-87356538D01*
X151292773Y-87263205D01*
X151340748Y-87212409D01*
X151403258Y-87195500D01*
X152094903Y-87195500D01*
X152161942Y-87215185D01*
X152182584Y-87231819D01*
X153263181Y-88312416D01*
X153296666Y-88373739D01*
X153299500Y-88400097D01*
X153299500Y-94769079D01*
X153279815Y-94836118D01*
X153227011Y-94881873D01*
X153157853Y-94891817D01*
X153128049Y-94883641D01*
X153086280Y-94866340D01*
X153057762Y-94854528D01*
X153057760Y-94854527D01*
X153057756Y-94854526D01*
X152902414Y-94823626D01*
X152840503Y-94791241D01*
X152838925Y-94789690D01*
X152287590Y-94238355D01*
X152287588Y-94238352D01*
X152168717Y-94119481D01*
X152168716Y-94119480D01*
X152081904Y-94069360D01*
X152081904Y-94069359D01*
X152081900Y-94069358D01*
X152031785Y-94040423D01*
X151879057Y-93999499D01*
X151720943Y-93999499D01*
X151713347Y-93999499D01*
X151713331Y-93999500D01*
X142300097Y-93999500D01*
X142233058Y-93979815D01*
X142212416Y-93963181D01*
X139234574Y-90985339D01*
X139201089Y-90924016D01*
X139200638Y-90921849D01*
X139169738Y-90766510D01*
X139169737Y-90766503D01*
X139122197Y-90651730D01*
X139109397Y-90620827D01*
X139109390Y-90620814D01*
X139021789Y-90489711D01*
X139021786Y-90489707D01*
X138910292Y-90378213D01*
X138910288Y-90378210D01*
X138779185Y-90290609D01*
X138779172Y-90290602D01*
X138633501Y-90230264D01*
X138633489Y-90230261D01*
X138478845Y-90199500D01*
X138478842Y-90199500D01*
X138321158Y-90199500D01*
X138321155Y-90199500D01*
X138166510Y-90230261D01*
X138166498Y-90230264D01*
X138020827Y-90290602D01*
X138020814Y-90290609D01*
X137889711Y-90378210D01*
X137889707Y-90378213D01*
X137778213Y-90489707D01*
X137778210Y-90489711D01*
X137690609Y-90620814D01*
X137690602Y-90620827D01*
X137630264Y-90766498D01*
X137630261Y-90766510D01*
X137599500Y-90921153D01*
X137599500Y-91078846D01*
X137630261Y-91233489D01*
X137630264Y-91233501D01*
X137690602Y-91379172D01*
X137690609Y-91379185D01*
X137778210Y-91510288D01*
X137778213Y-91510292D01*
X137889707Y-91621786D01*
X137889711Y-91621789D01*
X138020814Y-91709390D01*
X138020827Y-91709397D01*
X138149251Y-91762591D01*
X138166503Y-91769737D01*
X138231147Y-91782595D01*
X138321849Y-91800638D01*
X138383760Y-91833023D01*
X138385339Y-91834574D01*
X141519478Y-94968713D01*
X141519480Y-94968716D01*
X141631284Y-95080520D01*
X141632337Y-95081128D01*
X141638887Y-95087653D01*
X141651996Y-95111552D01*
X141668067Y-95133569D01*
X141668552Y-95141736D01*
X141672488Y-95148912D01*
X141670594Y-95176106D01*
X141672212Y-95203316D01*
X141668204Y-95210450D01*
X141667636Y-95218613D01*
X141651341Y-95240465D01*
X141637991Y-95264231D01*
X141630762Y-95268065D01*
X141625871Y-95274626D01*
X141600349Y-95284200D01*
X141576269Y-95296975D01*
X141562601Y-95298361D01*
X141560453Y-95299167D01*
X141558597Y-95298767D01*
X141551372Y-95299500D01*
X141421155Y-95299500D01*
X141266510Y-95330261D01*
X141266498Y-95330264D01*
X141120827Y-95390602D01*
X141120814Y-95390609D01*
X140989711Y-95478210D01*
X140989707Y-95478213D01*
X140878213Y-95589707D01*
X140878210Y-95589711D01*
X140790609Y-95720814D01*
X140790602Y-95720827D01*
X140730264Y-95866498D01*
X140730261Y-95866510D01*
X140699500Y-96021153D01*
X140699500Y-96178846D01*
X140730261Y-96333489D01*
X140730264Y-96333501D01*
X140790602Y-96479172D01*
X140790609Y-96479185D01*
X140878209Y-96610287D01*
X140878210Y-96610288D01*
X140878211Y-96610289D01*
X140938182Y-96670260D01*
X140971666Y-96731581D01*
X140974500Y-96757940D01*
X140974500Y-104230397D01*
X140954815Y-104297436D01*
X140906800Y-104340879D01*
X140893389Y-104347712D01*
X140727786Y-104468028D01*
X140583028Y-104612786D01*
X140462715Y-104778386D01*
X140369781Y-104960776D01*
X140306522Y-105155465D01*
X140274500Y-105357648D01*
X140274500Y-105562351D01*
X140306522Y-105764534D01*
X140369781Y-105959223D01*
X140421385Y-106060500D01*
X140460650Y-106137562D01*
X140462715Y-106141613D01*
X140583028Y-106307213D01*
X140727786Y-106451971D01*
X140832132Y-106527781D01*
X140893390Y-106572287D01*
X141009607Y-106631503D01*
X141075776Y-106665218D01*
X141075778Y-106665218D01*
X141075781Y-106665220D01*
X141180137Y-106699127D01*
X141270465Y-106728477D01*
X141371557Y-106744488D01*
X141472648Y-106760500D01*
X141472649Y-106760500D01*
X141677351Y-106760500D01*
X141677352Y-106760500D01*
X141879534Y-106728477D01*
X142074219Y-106665220D01*
X142256610Y-106572287D01*
X142400815Y-106467517D01*
X142422213Y-106451971D01*
X142422215Y-106451968D01*
X142422219Y-106451966D01*
X142566966Y-106307219D01*
X142566968Y-106307215D01*
X142566971Y-106307213D01*
X142687284Y-106141614D01*
X142687285Y-106141613D01*
X142687287Y-106141610D01*
X142694117Y-106128204D01*
X142742091Y-106077409D01*
X142804602Y-106060500D01*
X145159903Y-106060500D01*
X145226942Y-106080185D01*
X145247584Y-106096819D01*
X148594045Y-109443280D01*
X148627530Y-109504603D01*
X148624295Y-109569278D01*
X148580278Y-109704751D01*
X148544500Y-109930646D01*
X148544500Y-110159353D01*
X148580278Y-110385246D01*
X148580278Y-110385249D01*
X148650950Y-110602755D01*
X148650952Y-110602758D01*
X148754783Y-110806538D01*
X148889214Y-110991566D01*
X149050934Y-111153286D01*
X149059593Y-111159577D01*
X149135438Y-111214682D01*
X149178103Y-111270013D01*
X149184082Y-111339626D01*
X149151476Y-111401421D01*
X149135438Y-111415318D01*
X149050932Y-111476715D01*
X148889216Y-111638431D01*
X148889216Y-111638432D01*
X148889214Y-111638434D01*
X148831480Y-111717896D01*
X148754783Y-111823461D01*
X148707227Y-111916795D01*
X148659252Y-111967591D01*
X148596742Y-111984500D01*
X132045098Y-111984500D01*
X131978059Y-111964815D01*
X131957417Y-111948181D01*
X129671818Y-109662582D01*
X129638333Y-109601259D01*
X129635499Y-109574901D01*
X129635499Y-107727129D01*
X129635498Y-107727123D01*
X129635497Y-107727116D01*
X129629091Y-107667517D01*
X129578796Y-107532669D01*
X129578795Y-107532668D01*
X129578793Y-107532664D01*
X129492547Y-107417455D01*
X129492544Y-107417452D01*
X129377335Y-107331206D01*
X129377328Y-107331202D01*
X129242482Y-107280908D01*
X129242483Y-107280908D01*
X129182883Y-107274501D01*
X129182881Y-107274500D01*
X129182873Y-107274500D01*
X129182865Y-107274500D01*
X128759500Y-107274500D01*
X128692461Y-107254815D01*
X128646706Y-107202011D01*
X128635500Y-107150500D01*
X128635500Y-103421697D01*
X128655185Y-103354658D01*
X128705393Y-103311151D01*
X128705038Y-103310453D01*
X128707859Y-103309015D01*
X128707989Y-103308903D01*
X128708614Y-103308630D01*
X128709374Y-103308242D01*
X128709379Y-103308241D01*
X128933845Y-103193870D01*
X129137656Y-103045793D01*
X129315793Y-102867656D01*
X129463870Y-102663845D01*
X129578241Y-102439379D01*
X129656090Y-102199785D01*
X129695500Y-101950962D01*
X129695500Y-101699038D01*
X129656090Y-101450215D01*
X129578241Y-101210621D01*
X129578239Y-101210618D01*
X129578239Y-101210616D01*
X129517755Y-101091910D01*
X129463870Y-100986155D01*
X129366952Y-100852758D01*
X129315798Y-100782350D01*
X129315794Y-100782345D01*
X129137654Y-100604205D01*
X129137649Y-100604201D01*
X128933848Y-100456132D01*
X128933847Y-100456131D01*
X128933845Y-100456130D01*
X128709379Y-100341759D01*
X128606276Y-100308258D01*
X128469785Y-100263909D01*
X128254982Y-100229888D01*
X128220962Y-100224500D01*
X127969038Y-100224500D01*
X127844626Y-100244205D01*
X127720214Y-100263910D01*
X127480616Y-100341760D01*
X127256151Y-100456132D01*
X127052350Y-100604201D01*
X127052345Y-100604205D01*
X126874205Y-100782345D01*
X126874201Y-100782350D01*
X126726132Y-100986151D01*
X126726130Y-100986155D01*
X126681968Y-101072829D01*
X126639185Y-101156795D01*
X126591211Y-101207591D01*
X126528700Y-101224500D01*
X122725097Y-101224500D01*
X122658058Y-101204815D01*
X122637416Y-101188181D01*
X121671883Y-100222648D01*
X131974500Y-100222648D01*
X131974500Y-100427351D01*
X132006522Y-100629534D01*
X132069781Y-100824223D01*
X132162715Y-101006613D01*
X132283028Y-101172213D01*
X132427786Y-101316971D01*
X132582749Y-101429556D01*
X132593390Y-101437287D01*
X132709607Y-101496503D01*
X132775776Y-101530218D01*
X132775778Y-101530218D01*
X132775781Y-101530220D01*
X132880137Y-101564127D01*
X132970465Y-101593477D01*
X133071557Y-101609488D01*
X133172648Y-101625500D01*
X133172649Y-101625500D01*
X133377351Y-101625500D01*
X133377352Y-101625500D01*
X133579534Y-101593477D01*
X133774219Y-101530220D01*
X133956610Y-101437287D01*
X134056445Y-101364753D01*
X134122213Y-101316971D01*
X134122215Y-101316968D01*
X134122219Y-101316966D01*
X134266966Y-101172219D01*
X134266968Y-101172215D01*
X134266971Y-101172213D01*
X134358458Y-101046290D01*
X134387287Y-101006610D01*
X134480220Y-100824219D01*
X134543477Y-100629534D01*
X134575500Y-100427352D01*
X134575500Y-100222648D01*
X134557906Y-100111566D01*
X134543477Y-100020465D01*
X134503343Y-99896947D01*
X134480220Y-99825781D01*
X134480218Y-99825778D01*
X134480218Y-99825776D01*
X134427727Y-99722758D01*
X134387287Y-99643390D01*
X134341179Y-99579927D01*
X134266971Y-99477786D01*
X134122213Y-99333028D01*
X133956613Y-99212715D01*
X133956612Y-99212714D01*
X133956610Y-99212713D01*
X133899653Y-99183691D01*
X133774223Y-99119781D01*
X133579534Y-99056522D01*
X133404995Y-99028878D01*
X133377352Y-99024500D01*
X133172648Y-99024500D01*
X133148329Y-99028351D01*
X132970465Y-99056522D01*
X132775776Y-99119781D01*
X132593386Y-99212715D01*
X132427786Y-99333028D01*
X132283028Y-99477786D01*
X132162715Y-99643386D01*
X132069781Y-99825776D01*
X132006522Y-100020465D01*
X131974500Y-100222648D01*
X121671883Y-100222648D01*
X111679077Y-90229842D01*
X111671780Y-90216479D01*
X111660563Y-90206182D01*
X111656527Y-90190821D01*
X111655337Y-90189448D01*
X111654735Y-90185263D01*
X111645592Y-90168519D01*
X111646404Y-90152291D01*
X111642809Y-90138606D01*
X111645659Y-90122143D01*
X111645393Y-90120290D01*
X111647693Y-90110397D01*
X111648829Y-90103836D01*
X111653477Y-90089534D01*
X111685500Y-89887352D01*
X111685500Y-89682648D01*
X111684289Y-89675000D01*
X116539652Y-89675000D01*
X117629252Y-89675000D01*
X117607482Y-89712708D01*
X117570000Y-89852591D01*
X117570000Y-89997409D01*
X117607482Y-90137292D01*
X117629252Y-90175000D01*
X116539652Y-90175000D01*
X116559397Y-90299668D01*
X116559397Y-90299671D01*
X116637219Y-90539184D01*
X116751557Y-90763583D01*
X116899590Y-90967331D01*
X116899590Y-90967332D01*
X117077667Y-91145409D01*
X117281416Y-91293442D01*
X117505815Y-91407780D01*
X117745329Y-91485602D01*
X117870000Y-91505348D01*
X117870000Y-90415747D01*
X117907708Y-90437518D01*
X118047591Y-90475000D01*
X118192409Y-90475000D01*
X118332292Y-90437518D01*
X118370000Y-90415747D01*
X118370000Y-91505347D01*
X118494668Y-91485602D01*
X118494671Y-91485602D01*
X118734184Y-91407780D01*
X118958583Y-91293442D01*
X119162331Y-91145409D01*
X119162332Y-91145409D01*
X119340409Y-90967332D01*
X119340409Y-90967331D01*
X119488442Y-90763583D01*
X119602780Y-90539184D01*
X119680602Y-90299671D01*
X119680602Y-90299668D01*
X119700348Y-90175000D01*
X118610748Y-90175000D01*
X118632518Y-90137292D01*
X118670000Y-89997409D01*
X118670000Y-89852591D01*
X118632518Y-89712708D01*
X118610748Y-89675000D01*
X119700348Y-89675000D01*
X119680602Y-89550331D01*
X119680602Y-89550328D01*
X119602780Y-89310815D01*
X119488442Y-89086416D01*
X119340409Y-88882668D01*
X119340409Y-88882667D01*
X119162332Y-88704590D01*
X118958583Y-88556557D01*
X118734184Y-88442219D01*
X118494670Y-88364397D01*
X118370000Y-88344650D01*
X118370000Y-89434252D01*
X118332292Y-89412482D01*
X118192409Y-89375000D01*
X118047591Y-89375000D01*
X117907708Y-89412482D01*
X117870000Y-89434252D01*
X117870000Y-88344650D01*
X117745330Y-88364397D01*
X117745327Y-88364397D01*
X117505815Y-88442219D01*
X117281416Y-88556557D01*
X117077668Y-88704590D01*
X117077667Y-88704590D01*
X116899590Y-88882667D01*
X116899590Y-88882668D01*
X116751557Y-89086416D01*
X116637219Y-89310815D01*
X116559397Y-89550328D01*
X116559397Y-89550331D01*
X116539652Y-89675000D01*
X111684289Y-89675000D01*
X111653477Y-89480466D01*
X111590220Y-89285781D01*
X111590218Y-89285778D01*
X111590218Y-89285776D01*
X111545870Y-89198739D01*
X111497287Y-89103390D01*
X111453304Y-89042852D01*
X111376971Y-88937786D01*
X111232213Y-88793028D01*
X111066613Y-88672715D01*
X111066612Y-88672714D01*
X111066610Y-88672713D01*
X111009653Y-88643691D01*
X110884223Y-88579781D01*
X110689534Y-88516522D01*
X110514995Y-88488878D01*
X110487352Y-88484500D01*
X110282648Y-88484500D01*
X110258329Y-88488351D01*
X110080465Y-88516522D01*
X109885776Y-88579781D01*
X109703386Y-88672715D01*
X109537786Y-88793028D01*
X109393028Y-88937786D01*
X109272715Y-89103385D01*
X109265883Y-89116795D01*
X109217909Y-89167591D01*
X109155398Y-89184500D01*
X107141653Y-89184500D01*
X107134081Y-89184499D01*
X107129845Y-89183254D01*
X107126289Y-89183542D01*
X107126281Y-89183541D01*
X107126441Y-89182254D01*
X107097404Y-89173724D01*
X107067058Y-89164814D01*
X107067053Y-89164808D01*
X107067044Y-89164806D01*
X107040538Y-89134208D01*
X107021303Y-89112010D01*
X107021301Y-89112002D01*
X107021296Y-89111996D01*
X107015961Y-89074860D01*
X107011359Y-89042852D01*
X107011362Y-89042844D01*
X107011361Y-89042836D01*
X107025592Y-89011684D01*
X107040384Y-88979296D01*
X107046416Y-88972818D01*
X108479994Y-87539240D01*
X109940158Y-86079075D01*
X110001479Y-86045592D01*
X110066151Y-86048825D01*
X110080466Y-86053477D01*
X110282648Y-86085500D01*
X110282649Y-86085500D01*
X110487351Y-86085500D01*
X110487352Y-86085500D01*
X110689534Y-86053477D01*
X110884219Y-85990220D01*
X111066610Y-85897287D01*
X111180556Y-85814501D01*
X111232213Y-85776971D01*
X111232215Y-85776968D01*
X111232219Y-85776966D01*
X111376966Y-85632219D01*
X111376968Y-85632215D01*
X111376971Y-85632213D01*
X111497284Y-85466614D01*
X111497283Y-85466614D01*
X111497287Y-85466610D01*
X111504117Y-85453204D01*
X111552091Y-85402409D01*
X111614602Y-85385500D01*
X122839903Y-85385500D01*
X122906942Y-85405185D01*
X122927584Y-85421819D01*
X126643181Y-89137416D01*
X126676666Y-89198739D01*
X126679500Y-89225097D01*
X126679501Y-91072868D01*
X126679501Y-91072876D01*
X126685908Y-91132483D01*
X126736202Y-91267328D01*
X126736206Y-91267335D01*
X126822452Y-91382544D01*
X126822455Y-91382547D01*
X126937664Y-91468793D01*
X126937671Y-91468797D01*
X127072517Y-91519091D01*
X127072516Y-91519091D01*
X127079444Y-91519835D01*
X127132127Y-91525500D01*
X129427872Y-91525499D01*
X129487483Y-91519091D01*
X129622331Y-91468796D01*
X129737546Y-91382546D01*
X129823796Y-91267331D01*
X129874091Y-91132483D01*
X129880500Y-91072873D01*
X129880499Y-89322648D01*
X131774500Y-89322648D01*
X131774500Y-89527351D01*
X131806522Y-89729534D01*
X131869781Y-89924223D01*
X131907072Y-89997409D01*
X131959142Y-90099602D01*
X131962715Y-90106613D01*
X132083028Y-90272213D01*
X132227786Y-90416971D01*
X132370038Y-90520321D01*
X132393390Y-90537287D01*
X132509607Y-90596503D01*
X132575776Y-90630218D01*
X132575778Y-90630218D01*
X132575781Y-90630220D01*
X132641982Y-90651730D01*
X132770465Y-90693477D01*
X132871557Y-90709488D01*
X132972648Y-90725500D01*
X132972649Y-90725500D01*
X133177351Y-90725500D01*
X133177352Y-90725500D01*
X133379534Y-90693477D01*
X133574219Y-90630220D01*
X133756610Y-90537287D01*
X133856118Y-90464991D01*
X133922213Y-90416971D01*
X133922215Y-90416968D01*
X133922219Y-90416966D01*
X134066966Y-90272219D01*
X134066968Y-90272215D01*
X134066971Y-90272213D01*
X134123081Y-90194983D01*
X134187287Y-90106610D01*
X134280220Y-89924219D01*
X134343477Y-89729534D01*
X134375500Y-89527352D01*
X134375500Y-89322648D01*
X141934500Y-89322648D01*
X141934500Y-89527351D01*
X141966522Y-89729534D01*
X142029781Y-89924223D01*
X142067072Y-89997409D01*
X142119142Y-90099602D01*
X142122715Y-90106613D01*
X142243028Y-90272213D01*
X142387786Y-90416971D01*
X142530038Y-90520321D01*
X142553390Y-90537287D01*
X142669607Y-90596503D01*
X142735776Y-90630218D01*
X142735778Y-90630218D01*
X142735781Y-90630220D01*
X142801982Y-90651730D01*
X142930465Y-90693477D01*
X143031557Y-90709488D01*
X143132648Y-90725500D01*
X143132649Y-90725500D01*
X143337351Y-90725500D01*
X143337352Y-90725500D01*
X143539534Y-90693477D01*
X143734219Y-90630220D01*
X143916610Y-90537287D01*
X144016118Y-90464991D01*
X144082213Y-90416971D01*
X144082215Y-90416968D01*
X144082219Y-90416966D01*
X144226966Y-90272219D01*
X144226968Y-90272215D01*
X144226971Y-90272213D01*
X144283081Y-90194983D01*
X144347287Y-90106610D01*
X144440220Y-89924219D01*
X144503477Y-89729534D01*
X144535500Y-89527352D01*
X144535500Y-89322648D01*
X144520049Y-89225097D01*
X144503477Y-89120465D01*
X144449634Y-88954755D01*
X144440220Y-88925781D01*
X144440218Y-88925778D01*
X144440218Y-88925776D01*
X144374831Y-88797449D01*
X144347287Y-88743390D01*
X144328489Y-88717516D01*
X144226971Y-88577786D01*
X144082213Y-88433028D01*
X143916613Y-88312715D01*
X143916612Y-88312714D01*
X143916610Y-88312713D01*
X143830866Y-88269024D01*
X143734223Y-88219781D01*
X143539534Y-88156522D01*
X143364995Y-88128878D01*
X143337352Y-88124500D01*
X143132648Y-88124500D01*
X143108329Y-88128351D01*
X142930465Y-88156522D01*
X142735776Y-88219781D01*
X142553386Y-88312715D01*
X142387786Y-88433028D01*
X142243028Y-88577786D01*
X142122715Y-88743386D01*
X142029781Y-88925776D01*
X141966522Y-89120465D01*
X141934500Y-89322648D01*
X134375500Y-89322648D01*
X134360049Y-89225097D01*
X134343477Y-89120465D01*
X134289634Y-88954755D01*
X134280220Y-88925781D01*
X134280218Y-88925778D01*
X134280218Y-88925776D01*
X134214831Y-88797449D01*
X134187287Y-88743390D01*
X134168489Y-88717516D01*
X134066971Y-88577786D01*
X133922213Y-88433028D01*
X133756613Y-88312715D01*
X133756612Y-88312714D01*
X133756610Y-88312713D01*
X133670866Y-88269024D01*
X133574223Y-88219781D01*
X133379534Y-88156522D01*
X133204995Y-88128878D01*
X133177352Y-88124500D01*
X132972648Y-88124500D01*
X132948329Y-88128351D01*
X132770465Y-88156522D01*
X132575776Y-88219781D01*
X132393386Y-88312715D01*
X132227786Y-88433028D01*
X132083028Y-88577786D01*
X131962715Y-88743386D01*
X131869781Y-88925776D01*
X131806522Y-89120465D01*
X131774500Y-89322648D01*
X129880499Y-89322648D01*
X129880499Y-88777128D01*
X129874091Y-88717517D01*
X129857380Y-88672713D01*
X129823797Y-88582671D01*
X129823793Y-88582664D01*
X129737547Y-88467455D01*
X129737544Y-88467452D01*
X129622335Y-88381206D01*
X129622328Y-88381202D01*
X129487482Y-88330908D01*
X129487483Y-88330908D01*
X129427883Y-88324501D01*
X129427881Y-88324500D01*
X129427873Y-88324500D01*
X129427865Y-88324500D01*
X127580098Y-88324500D01*
X127513059Y-88304815D01*
X127492417Y-88288181D01*
X124801417Y-85597182D01*
X124767932Y-85535859D01*
X124772916Y-85466167D01*
X124814788Y-85410234D01*
X124880252Y-85385817D01*
X124889098Y-85385501D01*
X124914054Y-85385501D01*
X124914057Y-85385501D01*
X125066785Y-85344577D01*
X125140530Y-85302000D01*
X125203716Y-85265520D01*
X125315520Y-85153716D01*
X125315520Y-85153714D01*
X125325724Y-85143511D01*
X125325728Y-85143506D01*
X127412076Y-83057157D01*
X127473397Y-83023674D01*
X127538073Y-83026909D01*
G37*
%TD.AperFunction*%
%TA.AperFunction,Conductor*%
G36*
X110159513Y-69520185D02*
G01*
X110205268Y-69572989D01*
X110215212Y-69642147D01*
X110186187Y-69705703D01*
X110130793Y-69742431D01*
X110075968Y-69760244D01*
X109893650Y-69853140D01*
X109728105Y-69973417D01*
X109728104Y-69973417D01*
X109583417Y-70118104D01*
X109583417Y-70118105D01*
X109463140Y-70283650D01*
X109370244Y-70465970D01*
X109307009Y-70660586D01*
X109298391Y-70715000D01*
X110259314Y-70715000D01*
X110254920Y-70719394D01*
X110202259Y-70810606D01*
X110175000Y-70912339D01*
X110175000Y-71017661D01*
X110202259Y-71119394D01*
X110254920Y-71210606D01*
X110259314Y-71215000D01*
X109298391Y-71215000D01*
X109307009Y-71269413D01*
X109370244Y-71464029D01*
X109463140Y-71646349D01*
X109583417Y-71811894D01*
X109583417Y-71811895D01*
X109728104Y-71956582D01*
X109893650Y-72076859D01*
X110075968Y-72169754D01*
X110270578Y-72232988D01*
X110325000Y-72241607D01*
X110325000Y-71280686D01*
X110329394Y-71285080D01*
X110420606Y-71337741D01*
X110522339Y-71365000D01*
X110627661Y-71365000D01*
X110729394Y-71337741D01*
X110820606Y-71285080D01*
X110825000Y-71280686D01*
X110825000Y-72241606D01*
X110879421Y-72232988D01*
X111074031Y-72169754D01*
X111256349Y-72076859D01*
X111421894Y-71956582D01*
X111421895Y-71956582D01*
X111566582Y-71811895D01*
X111566582Y-71811894D01*
X111686859Y-71646349D01*
X111779755Y-71464029D01*
X111842990Y-71269413D01*
X111851609Y-71215000D01*
X110890686Y-71215000D01*
X110895080Y-71210606D01*
X110947741Y-71119394D01*
X110975000Y-71017661D01*
X110975000Y-70912339D01*
X110947741Y-70810606D01*
X110895080Y-70719394D01*
X110890686Y-70715000D01*
X111851609Y-70715000D01*
X111842990Y-70660586D01*
X111779755Y-70465970D01*
X111686859Y-70283650D01*
X111566582Y-70118105D01*
X111566582Y-70118104D01*
X111421895Y-69973417D01*
X111256349Y-69853140D01*
X111074031Y-69760244D01*
X111019207Y-69742431D01*
X110961532Y-69702993D01*
X110934334Y-69638634D01*
X110946249Y-69569788D01*
X110993494Y-69518312D01*
X111057526Y-69500500D01*
X162175500Y-69500500D01*
X162242539Y-69520185D01*
X162288294Y-69572989D01*
X162299500Y-69624500D01*
X162299500Y-118875500D01*
X162279815Y-118942539D01*
X162227011Y-118988294D01*
X162175500Y-118999500D01*
X95524500Y-118999500D01*
X95457461Y-118979815D01*
X95411706Y-118927011D01*
X95400500Y-118875500D01*
X95400500Y-107272648D01*
X96924500Y-107272648D01*
X96924500Y-107477351D01*
X96956522Y-107679534D01*
X97019781Y-107874223D01*
X97112715Y-108056613D01*
X97233028Y-108222213D01*
X97233034Y-108222219D01*
X97377781Y-108366966D01*
X97543390Y-108487287D01*
X97556793Y-108494116D01*
X97607589Y-108542088D01*
X97624500Y-108604601D01*
X97624500Y-112500500D01*
X97604815Y-112567539D01*
X97552011Y-112613294D01*
X97500519Y-112624500D01*
X97497139Y-112624500D01*
X97497123Y-112624501D01*
X97437516Y-112630908D01*
X97302671Y-112681202D01*
X97302664Y-112681206D01*
X97187455Y-112767452D01*
X97187452Y-112767455D01*
X97101206Y-112882664D01*
X97101202Y-112882671D01*
X97050908Y-113017517D01*
X97044501Y-113077116D01*
X97044501Y-113077123D01*
X97044500Y-113077135D01*
X97044500Y-114772870D01*
X97044501Y-114772876D01*
X97050908Y-114832483D01*
X97101202Y-114967328D01*
X97101206Y-114967335D01*
X97187452Y-115082544D01*
X97187455Y-115082547D01*
X97302664Y-115168793D01*
X97302671Y-115168797D01*
X97437517Y-115219091D01*
X97437516Y-115219091D01*
X97444444Y-115219835D01*
X97497127Y-115225500D01*
X99192872Y-115225499D01*
X99252483Y-115219091D01*
X99387331Y-115168796D01*
X99502546Y-115082546D01*
X99588796Y-114967331D01*
X99639091Y-114832483D01*
X99645500Y-114772873D01*
X99645499Y-113675000D01*
X104688391Y-113675000D01*
X105649314Y-113675000D01*
X105644920Y-113679394D01*
X105592259Y-113770606D01*
X105565000Y-113872339D01*
X105565000Y-113977661D01*
X105592259Y-114079394D01*
X105644920Y-114170606D01*
X105649314Y-114175000D01*
X104688391Y-114175000D01*
X104697009Y-114229413D01*
X104760244Y-114424029D01*
X104853140Y-114606349D01*
X104973417Y-114771894D01*
X104973417Y-114771895D01*
X105118104Y-114916582D01*
X105283650Y-115036859D01*
X105465968Y-115129754D01*
X105660578Y-115192988D01*
X105715000Y-115201607D01*
X105715000Y-114240686D01*
X105719394Y-114245080D01*
X105810606Y-114297741D01*
X105912339Y-114325000D01*
X106017661Y-114325000D01*
X106119394Y-114297741D01*
X106210606Y-114245080D01*
X106215000Y-114240686D01*
X106215000Y-115201606D01*
X106269421Y-115192988D01*
X106464031Y-115129754D01*
X106646349Y-115036859D01*
X106811894Y-114916582D01*
X106811895Y-114916582D01*
X106843477Y-114885000D01*
X109798391Y-114885000D01*
X110759314Y-114885000D01*
X110754920Y-114889394D01*
X110702259Y-114980606D01*
X110675000Y-115082339D01*
X110675000Y-115187661D01*
X110702259Y-115289394D01*
X110754920Y-115380606D01*
X110759314Y-115385000D01*
X109798391Y-115385000D01*
X109807009Y-115439413D01*
X109870244Y-115634029D01*
X109963140Y-115816349D01*
X110083417Y-115981894D01*
X110083417Y-115981895D01*
X110228104Y-116126582D01*
X110393650Y-116246859D01*
X110575968Y-116339754D01*
X110770578Y-116402988D01*
X110825000Y-116411607D01*
X110825000Y-115450686D01*
X110829394Y-115455080D01*
X110920606Y-115507741D01*
X111022339Y-115535000D01*
X111127661Y-115535000D01*
X111229394Y-115507741D01*
X111320606Y-115455080D01*
X111325000Y-115450686D01*
X111325000Y-116411606D01*
X111379421Y-116402988D01*
X111574031Y-116339754D01*
X111756349Y-116246859D01*
X111921894Y-116126582D01*
X111921895Y-116126582D01*
X112066582Y-115981895D01*
X112066582Y-115981894D01*
X112186859Y-115816349D01*
X112279755Y-115634029D01*
X112342990Y-115439413D01*
X112351609Y-115385000D01*
X111390686Y-115385000D01*
X111395080Y-115380606D01*
X111447741Y-115289394D01*
X111475000Y-115187661D01*
X111475000Y-115082339D01*
X111447741Y-114980606D01*
X111395080Y-114889394D01*
X111390686Y-114885000D01*
X112351609Y-114885000D01*
X112342990Y-114830586D01*
X112279755Y-114635970D01*
X112186859Y-114453650D01*
X112066582Y-114288105D01*
X112066582Y-114288104D01*
X111921895Y-114143417D01*
X111756349Y-114023140D01*
X111574029Y-113930244D01*
X111379413Y-113867009D01*
X111325000Y-113858390D01*
X111325000Y-114819314D01*
X111320606Y-114814920D01*
X111229394Y-114762259D01*
X111127661Y-114735000D01*
X111022339Y-114735000D01*
X110920606Y-114762259D01*
X110829394Y-114814920D01*
X110825000Y-114819314D01*
X110825000Y-113858390D01*
X110770586Y-113867009D01*
X110575970Y-113930244D01*
X110393650Y-114023140D01*
X110228105Y-114143417D01*
X110228104Y-114143417D01*
X110083417Y-114288104D01*
X110083417Y-114288105D01*
X109963140Y-114453650D01*
X109870244Y-114635970D01*
X109807009Y-114830586D01*
X109798391Y-114885000D01*
X106843477Y-114885000D01*
X106894096Y-114834382D01*
X106956582Y-114771895D01*
X106956582Y-114771894D01*
X107076859Y-114606349D01*
X107169755Y-114424029D01*
X107232990Y-114229413D01*
X107241609Y-114175000D01*
X106280686Y-114175000D01*
X106285080Y-114170606D01*
X106337741Y-114079394D01*
X106365000Y-113977661D01*
X106365000Y-113872339D01*
X106337741Y-113770606D01*
X106285080Y-113679394D01*
X106280686Y-113675000D01*
X107241609Y-113675000D01*
X107232990Y-113620586D01*
X107169755Y-113425970D01*
X107076859Y-113243650D01*
X106956582Y-113078105D01*
X106956582Y-113078104D01*
X106811895Y-112933417D01*
X106646349Y-112813140D01*
X106464029Y-112720244D01*
X106269413Y-112657009D01*
X106215000Y-112648390D01*
X106215000Y-113609314D01*
X106210606Y-113604920D01*
X106119394Y-113552259D01*
X106017661Y-113525000D01*
X105912339Y-113525000D01*
X105810606Y-113552259D01*
X105719394Y-113604920D01*
X105715000Y-113609314D01*
X105715000Y-112648390D01*
X105660586Y-112657009D01*
X105465970Y-112720244D01*
X105283650Y-112813140D01*
X105118105Y-112933417D01*
X105118104Y-112933417D01*
X104973417Y-113078104D01*
X104973417Y-113078105D01*
X104853140Y-113243650D01*
X104760244Y-113425970D01*
X104697009Y-113620586D01*
X104688391Y-113675000D01*
X99645499Y-113675000D01*
X99645499Y-113077128D01*
X99639091Y-113017517D01*
X99604677Y-112925249D01*
X99588797Y-112882671D01*
X99588793Y-112882664D01*
X99502547Y-112767455D01*
X99502544Y-112767452D01*
X99387335Y-112681206D01*
X99387328Y-112681202D01*
X99252482Y-112630908D01*
X99252483Y-112630908D01*
X99192883Y-112624501D01*
X99192881Y-112624500D01*
X99192873Y-112624500D01*
X99192865Y-112624500D01*
X98949500Y-112624500D01*
X98882461Y-112604815D01*
X98836706Y-112552011D01*
X98825500Y-112500500D01*
X98825500Y-109124097D01*
X98845185Y-109057058D01*
X98897989Y-109011303D01*
X98967147Y-109001359D01*
X99030703Y-109030384D01*
X99037179Y-109036414D01*
X101081284Y-111080520D01*
X101081286Y-111080521D01*
X101081290Y-111080524D01*
X101218209Y-111159573D01*
X101218216Y-111159577D01*
X101370943Y-111200501D01*
X101370945Y-111200501D01*
X101536654Y-111200501D01*
X101536670Y-111200500D01*
X101632665Y-111200500D01*
X101694665Y-111217113D01*
X101768211Y-111259575D01*
X101768212Y-111259576D01*
X101768214Y-111259576D01*
X101768215Y-111259577D01*
X101920943Y-111300501D01*
X101920946Y-111300501D01*
X102079054Y-111300501D01*
X102079057Y-111300501D01*
X102231785Y-111259577D01*
X102285473Y-111228580D01*
X102305335Y-111217113D01*
X102367335Y-111200500D01*
X106613331Y-111200500D01*
X106613347Y-111200501D01*
X106620943Y-111200501D01*
X106779054Y-111200501D01*
X106779057Y-111200501D01*
X106931785Y-111159577D01*
X106981904Y-111130639D01*
X107068716Y-111080520D01*
X107180520Y-110968716D01*
X107180520Y-110968714D01*
X107190728Y-110958507D01*
X107190729Y-110958504D01*
X110262821Y-107886413D01*
X110324142Y-107852930D01*
X110393834Y-107857914D01*
X110449767Y-107899786D01*
X110474184Y-107965250D01*
X110474500Y-107974096D01*
X110474500Y-109338330D01*
X110474499Y-109338348D01*
X110474499Y-109504054D01*
X110474498Y-109504054D01*
X110474499Y-109504057D01*
X110515423Y-109656785D01*
X110515424Y-109656786D01*
X110526680Y-109676284D01*
X110526681Y-109676285D01*
X110594475Y-109793709D01*
X110594481Y-109793717D01*
X110713349Y-109912585D01*
X110713355Y-109912590D01*
X116280922Y-115480157D01*
X116314407Y-115541480D01*
X116311173Y-115606155D01*
X116306522Y-115620468D01*
X116274500Y-115822648D01*
X116274500Y-116027351D01*
X116306522Y-116229534D01*
X116369781Y-116424223D01*
X116419242Y-116521293D01*
X116457591Y-116596558D01*
X116462715Y-116606613D01*
X116583028Y-116772213D01*
X116727786Y-116916971D01*
X116823879Y-116986785D01*
X116893390Y-117037287D01*
X117009607Y-117096503D01*
X117075776Y-117130218D01*
X117075778Y-117130218D01*
X117075781Y-117130220D01*
X117180137Y-117164127D01*
X117270465Y-117193477D01*
X117371557Y-117209488D01*
X117472648Y-117225500D01*
X117472649Y-117225500D01*
X117677351Y-117225500D01*
X117677352Y-117225500D01*
X117879534Y-117193477D01*
X118074219Y-117130220D01*
X118256610Y-117037287D01*
X118353150Y-116967147D01*
X118422213Y-116916971D01*
X118422215Y-116916968D01*
X118422219Y-116916966D01*
X118566966Y-116772219D01*
X118566968Y-116772215D01*
X118566971Y-116772213D01*
X118632375Y-116682190D01*
X118687287Y-116606610D01*
X118780220Y-116424219D01*
X118843477Y-116229534D01*
X118875500Y-116027352D01*
X118875500Y-115822648D01*
X118843477Y-115620466D01*
X118780220Y-115425781D01*
X118780218Y-115425778D01*
X118780218Y-115425776D01*
X118728869Y-115325000D01*
X118687287Y-115243390D01*
X118656930Y-115201607D01*
X118566971Y-115077786D01*
X118422213Y-114933028D01*
X118256613Y-114812715D01*
X118256612Y-114812714D01*
X118256610Y-114812713D01*
X118178873Y-114773104D01*
X118074223Y-114719781D01*
X117879534Y-114656522D01*
X117704995Y-114628878D01*
X117677352Y-114624500D01*
X117472648Y-114624500D01*
X117434599Y-114630526D01*
X117270468Y-114656522D01*
X117261717Y-114659365D01*
X117256154Y-114661173D01*
X117186313Y-114663167D01*
X117130157Y-114630922D01*
X111711819Y-109212584D01*
X111697115Y-109185656D01*
X111680523Y-109159838D01*
X111679631Y-109153637D01*
X111678334Y-109151261D01*
X111675500Y-109124903D01*
X111675500Y-108625000D01*
X116294652Y-108625000D01*
X117384252Y-108625000D01*
X117362482Y-108662708D01*
X117325000Y-108802591D01*
X117325000Y-108947409D01*
X117362482Y-109087292D01*
X117384252Y-109125000D01*
X116294652Y-109125000D01*
X116314397Y-109249668D01*
X116314397Y-109249671D01*
X116392219Y-109489184D01*
X116506557Y-109713583D01*
X116654590Y-109917331D01*
X116654590Y-109917332D01*
X116832667Y-110095409D01*
X117036416Y-110243442D01*
X117260815Y-110357780D01*
X117500329Y-110435602D01*
X117625000Y-110455348D01*
X117625000Y-109365747D01*
X117662708Y-109387518D01*
X117802591Y-109425000D01*
X117947409Y-109425000D01*
X118087292Y-109387518D01*
X118125000Y-109365747D01*
X118125000Y-110455347D01*
X118249668Y-110435602D01*
X118249671Y-110435602D01*
X118489184Y-110357780D01*
X118713583Y-110243442D01*
X118917331Y-110095409D01*
X118917332Y-110095409D01*
X119095409Y-109917332D01*
X119095409Y-109917331D01*
X119243442Y-109713583D01*
X119357780Y-109489184D01*
X119435602Y-109249671D01*
X119435602Y-109249668D01*
X119455348Y-109125000D01*
X118365748Y-109125000D01*
X118387518Y-109087292D01*
X118425000Y-108947409D01*
X118425000Y-108802591D01*
X118387518Y-108662708D01*
X118365748Y-108625000D01*
X119455348Y-108625000D01*
X119435602Y-108500331D01*
X119435602Y-108500328D01*
X119357780Y-108260815D01*
X119243442Y-108036416D01*
X119095409Y-107832668D01*
X119095409Y-107832667D01*
X118917332Y-107654590D01*
X118713583Y-107506557D01*
X118489184Y-107392219D01*
X118249670Y-107314397D01*
X118125000Y-107294650D01*
X118125000Y-108384252D01*
X118087292Y-108362482D01*
X117947409Y-108325000D01*
X117802591Y-108325000D01*
X117662708Y-108362482D01*
X117625000Y-108384252D01*
X117625000Y-107294650D01*
X117500330Y-107314397D01*
X117500327Y-107314397D01*
X117260815Y-107392219D01*
X117036416Y-107506557D01*
X116832668Y-107654590D01*
X116832667Y-107654590D01*
X116654590Y-107832667D01*
X116654590Y-107832668D01*
X116506557Y-108036416D01*
X116392219Y-108260815D01*
X116314397Y-108500328D01*
X116314397Y-108500331D01*
X116294652Y-108625000D01*
X111675500Y-108625000D01*
X111675500Y-106204601D01*
X111695185Y-106137562D01*
X111743206Y-106094116D01*
X111756610Y-106087287D01*
X111922219Y-105966966D01*
X112066966Y-105822219D01*
X112066968Y-105822215D01*
X112066971Y-105822213D01*
X112119732Y-105749590D01*
X112187287Y-105656610D01*
X112280220Y-105474219D01*
X112343477Y-105279534D01*
X112375500Y-105077352D01*
X112375500Y-104872648D01*
X112343477Y-104670466D01*
X112280220Y-104475781D01*
X112280218Y-104475778D01*
X112280218Y-104475776D01*
X112246503Y-104409607D01*
X112187287Y-104293390D01*
X112177402Y-104279785D01*
X112066971Y-104127786D01*
X111922213Y-103983028D01*
X111756613Y-103862715D01*
X111756612Y-103862714D01*
X111756610Y-103862713D01*
X111699653Y-103833691D01*
X111574223Y-103769781D01*
X111379534Y-103706522D01*
X111204995Y-103678878D01*
X111177352Y-103674500D01*
X110972648Y-103674500D01*
X110948329Y-103678351D01*
X110770465Y-103706522D01*
X110575776Y-103769781D01*
X110393386Y-103862715D01*
X110227786Y-103983028D01*
X110083028Y-104127786D01*
X109962715Y-104293386D01*
X109869781Y-104475776D01*
X109806522Y-104670465D01*
X109774500Y-104872648D01*
X109774500Y-105077351D01*
X109806522Y-105279534D01*
X109869781Y-105474223D01*
X109962715Y-105656613D01*
X110083028Y-105822213D01*
X110227779Y-105966964D01*
X110227785Y-105966969D01*
X110258606Y-105989362D01*
X110301272Y-106044692D01*
X110307251Y-106114305D01*
X110274645Y-106176100D01*
X110273402Y-106177361D01*
X106487584Y-109963181D01*
X106426261Y-109996666D01*
X106399903Y-109999500D01*
X102020938Y-109999500D01*
X102016181Y-110000126D01*
X101998883Y-110001181D01*
X101984861Y-110001054D01*
X101979057Y-109999499D01*
X101820943Y-109999499D01*
X101820939Y-109999500D01*
X101750098Y-109999500D01*
X101683059Y-109979815D01*
X101662417Y-109963181D01*
X99519077Y-107819842D01*
X99485592Y-107758519D01*
X99488828Y-107693841D01*
X99493477Y-107679534D01*
X99525500Y-107477352D01*
X99525500Y-107272648D01*
X99493477Y-107070466D01*
X99430220Y-106875781D01*
X99430218Y-106875778D01*
X99430218Y-106875776D01*
X99371481Y-106760500D01*
X99337287Y-106693390D01*
X99329556Y-106682749D01*
X99216971Y-106527786D01*
X99072213Y-106383028D01*
X98906610Y-106262712D01*
X98893200Y-106255879D01*
X98842406Y-106207903D01*
X98825500Y-106145397D01*
X98825500Y-93835096D01*
X98845185Y-93768057D01*
X98861814Y-93747420D01*
X100192819Y-92416414D01*
X100254142Y-92382930D01*
X100323834Y-92387914D01*
X100379767Y-92429786D01*
X100404184Y-92495250D01*
X100404500Y-92504096D01*
X100404500Y-92513097D01*
X100441446Y-92746368D01*
X100514433Y-92970996D01*
X100556970Y-93054478D01*
X100621657Y-93181433D01*
X100760483Y-93372510D01*
X100927490Y-93539517D01*
X100962127Y-93564683D01*
X101004792Y-93620013D01*
X101010771Y-93689626D01*
X100978165Y-93751421D01*
X100962130Y-93765315D01*
X100944365Y-93778222D01*
X100927488Y-93790484D01*
X100760485Y-93957487D01*
X100760485Y-93957488D01*
X100760483Y-93957490D01*
X100744263Y-93979815D01*
X100621657Y-94148566D01*
X100514433Y-94359003D01*
X100441446Y-94583631D01*
X100404500Y-94816902D01*
X100404500Y-95053097D01*
X100441446Y-95286368D01*
X100514433Y-95510996D01*
X100554539Y-95589707D01*
X100621657Y-95721433D01*
X100760483Y-95912510D01*
X100927490Y-96079517D01*
X100962127Y-96104683D01*
X101004792Y-96160013D01*
X101010771Y-96229626D01*
X100978165Y-96291421D01*
X100962130Y-96305315D01*
X100951351Y-96313147D01*
X100927488Y-96330484D01*
X100760485Y-96497487D01*
X100760485Y-96497488D01*
X100760483Y-96497490D01*
X100709604Y-96567519D01*
X100621657Y-96688566D01*
X100514433Y-96899003D01*
X100441446Y-97123631D01*
X100404500Y-97356902D01*
X100404500Y-97593097D01*
X100441446Y-97826368D01*
X100514433Y-98050996D01*
X100599746Y-98218431D01*
X100621657Y-98261433D01*
X100760483Y-98452510D01*
X100927490Y-98619517D01*
X100986716Y-98662547D01*
X101029381Y-98717875D01*
X101037448Y-98772593D01*
X101035893Y-98792340D01*
X101693941Y-99450387D01*
X101673409Y-99455889D01*
X101536592Y-99534881D01*
X101424881Y-99646592D01*
X101345889Y-99783409D01*
X101340387Y-99803940D01*
X100682340Y-99145894D01*
X100622084Y-99228830D01*
X100514897Y-99439197D01*
X100441934Y-99663752D01*
X100405000Y-99896947D01*
X100405000Y-100133052D01*
X100441934Y-100366247D01*
X100514897Y-100590802D01*
X100622087Y-100801174D01*
X100682338Y-100884104D01*
X100682340Y-100884105D01*
X101340387Y-100226058D01*
X101345889Y-100246591D01*
X101424881Y-100383408D01*
X101536592Y-100495119D01*
X101673409Y-100574111D01*
X101693940Y-100579612D01*
X101035893Y-101237658D01*
X101118828Y-101297914D01*
X101329197Y-101405102D01*
X101553752Y-101478065D01*
X101553751Y-101478065D01*
X101786948Y-101515000D01*
X102023052Y-101515000D01*
X102256247Y-101478065D01*
X102480802Y-101405102D01*
X102691163Y-101297918D01*
X102691169Y-101297914D01*
X102774104Y-101237658D01*
X102774105Y-101237658D01*
X102116058Y-100579612D01*
X102136591Y-100574111D01*
X102273408Y-100495119D01*
X102385119Y-100383408D01*
X102464111Y-100246591D01*
X102469612Y-100226058D01*
X103127658Y-100884105D01*
X103127658Y-100884104D01*
X103187914Y-100801169D01*
X103187918Y-100801163D01*
X103295102Y-100590802D01*
X103368065Y-100366247D01*
X103405000Y-100133052D01*
X103405000Y-100123597D01*
X103424685Y-100056558D01*
X103477489Y-100010803D01*
X103546647Y-100000859D01*
X103610203Y-100029884D01*
X103616681Y-100035916D01*
X105208181Y-101627416D01*
X105241666Y-101688739D01*
X105244500Y-101715097D01*
X105244500Y-105211241D01*
X105244499Y-105211245D01*
X105244499Y-105369359D01*
X105244500Y-105369362D01*
X105244500Y-105950500D01*
X105224815Y-106017539D01*
X105172011Y-106063294D01*
X105120501Y-106074500D01*
X104997130Y-106074500D01*
X104997123Y-106074501D01*
X104937516Y-106080908D01*
X104802671Y-106131202D01*
X104802664Y-106131206D01*
X104687455Y-106217452D01*
X104687452Y-106217455D01*
X104601206Y-106332664D01*
X104601202Y-106332671D01*
X104550908Y-106467517D01*
X104544501Y-106527116D01*
X104544501Y-106527123D01*
X104544500Y-106527135D01*
X104544500Y-108222870D01*
X104544501Y-108222876D01*
X104550908Y-108282483D01*
X104601202Y-108417328D01*
X104601206Y-108417335D01*
X104687452Y-108532544D01*
X104687455Y-108532547D01*
X104802664Y-108618793D01*
X104802671Y-108618797D01*
X104937517Y-108669091D01*
X104937516Y-108669091D01*
X104944444Y-108669835D01*
X104997127Y-108675500D01*
X106692872Y-108675499D01*
X106752483Y-108669091D01*
X106887331Y-108618796D01*
X107002546Y-108532546D01*
X107088796Y-108417331D01*
X107139091Y-108282483D01*
X107145500Y-108222873D01*
X107145499Y-106527128D01*
X107139091Y-106467517D01*
X107088796Y-106332669D01*
X107088795Y-106332668D01*
X107088793Y-106332664D01*
X107002547Y-106217455D01*
X107002544Y-106217452D01*
X106887335Y-106131206D01*
X106887328Y-106131202D01*
X106752482Y-106080908D01*
X106752483Y-106080908D01*
X106692883Y-106074501D01*
X106692881Y-106074500D01*
X106692873Y-106074500D01*
X106692865Y-106074500D01*
X106569500Y-106074500D01*
X106502461Y-106054815D01*
X106456706Y-106002011D01*
X106445500Y-105950500D01*
X106445500Y-105590399D01*
X106465185Y-105523360D01*
X106481819Y-105502718D01*
X111307402Y-100677135D01*
X116334500Y-100677135D01*
X116334500Y-102972870D01*
X116334501Y-102972876D01*
X116340908Y-103032483D01*
X116391202Y-103167328D01*
X116391206Y-103167335D01*
X116477452Y-103282544D01*
X116477455Y-103282547D01*
X116592664Y-103368793D01*
X116592671Y-103368797D01*
X116727517Y-103419091D01*
X116727516Y-103419091D01*
X116734444Y-103419835D01*
X116787127Y-103425500D01*
X119082872Y-103425499D01*
X119142483Y-103419091D01*
X119277331Y-103368796D01*
X119392546Y-103282546D01*
X119478796Y-103167331D01*
X119529091Y-103032483D01*
X119535500Y-102972873D01*
X119535499Y-100677128D01*
X119529091Y-100617517D01*
X119528152Y-100615000D01*
X119478797Y-100482671D01*
X119478793Y-100482664D01*
X119392547Y-100367455D01*
X119392544Y-100367452D01*
X119277335Y-100281206D01*
X119277328Y-100281202D01*
X119142482Y-100230908D01*
X119142483Y-100230908D01*
X119082883Y-100224501D01*
X119082881Y-100224500D01*
X119082873Y-100224500D01*
X119082864Y-100224500D01*
X116787129Y-100224500D01*
X116787123Y-100224501D01*
X116727516Y-100230908D01*
X116592671Y-100281202D01*
X116592664Y-100281206D01*
X116477455Y-100367452D01*
X116477452Y-100367455D01*
X116391206Y-100482664D01*
X116391202Y-100482671D01*
X116340908Y-100617517D01*
X116334501Y-100677116D01*
X116334501Y-100677123D01*
X116334500Y-100677135D01*
X111307402Y-100677135D01*
X113222719Y-98761818D01*
X113284042Y-98728333D01*
X113310400Y-98725499D01*
X114558173Y-98725499D01*
X114558174Y-98725499D01*
X114617785Y-98719091D01*
X114752633Y-98668796D01*
X114867848Y-98582546D01*
X114954098Y-98467331D01*
X115004393Y-98332483D01*
X115010802Y-98272873D01*
X115010801Y-96577128D01*
X115004393Y-96517517D01*
X114996923Y-96497490D01*
X114954099Y-96382671D01*
X114954095Y-96382664D01*
X114867849Y-96267455D01*
X114867846Y-96267452D01*
X114752637Y-96181206D01*
X114752630Y-96181202D01*
X114617784Y-96130908D01*
X114617785Y-96130908D01*
X114558185Y-96124501D01*
X114558183Y-96124500D01*
X114558175Y-96124500D01*
X114558166Y-96124500D01*
X112862431Y-96124500D01*
X112862425Y-96124501D01*
X112802818Y-96130908D01*
X112667973Y-96181202D01*
X112667966Y-96181206D01*
X112552757Y-96267452D01*
X112552754Y-96267455D01*
X112466508Y-96382664D01*
X112466504Y-96382671D01*
X112416210Y-96517517D01*
X112411625Y-96560169D01*
X112409803Y-96577123D01*
X112409802Y-96577135D01*
X112409802Y-97824901D01*
X112390117Y-97891940D01*
X112373483Y-97912582D01*
X106657181Y-103628884D01*
X106595858Y-103662369D01*
X106526166Y-103657385D01*
X106470233Y-103615513D01*
X106445816Y-103550049D01*
X106445500Y-103541203D01*
X106445500Y-101335944D01*
X106445500Y-101335943D01*
X106443211Y-101327402D01*
X106426604Y-101265423D01*
X106404577Y-101183216D01*
X106398228Y-101172219D01*
X106325524Y-101046290D01*
X106325521Y-101046286D01*
X106325520Y-101046284D01*
X106213716Y-100934480D01*
X106213715Y-100934479D01*
X106209385Y-100930149D01*
X106209374Y-100930139D01*
X103357798Y-98078563D01*
X103324313Y-98017240D01*
X103327547Y-97952566D01*
X103368553Y-97826368D01*
X103394839Y-97660403D01*
X103405500Y-97593097D01*
X103405500Y-97356906D01*
X103402381Y-97337212D01*
X103402381Y-97337209D01*
X103400080Y-97322682D01*
X108610302Y-97322682D01*
X108610302Y-97527317D01*
X108642311Y-97729417D01*
X108705546Y-97924031D01*
X108798443Y-98106350D01*
X108798449Y-98106359D01*
X108830825Y-98150921D01*
X108830826Y-98150922D01*
X109510302Y-97471446D01*
X109510302Y-97477661D01*
X109537561Y-97579394D01*
X109590222Y-97670606D01*
X109664696Y-97745080D01*
X109755908Y-97797741D01*
X109857641Y-97825000D01*
X109863855Y-97825000D01*
X109184378Y-98504474D01*
X109228952Y-98536859D01*
X109411270Y-98629755D01*
X109605884Y-98692990D01*
X109807985Y-98725000D01*
X110012619Y-98725000D01*
X110214719Y-98692990D01*
X110409333Y-98629755D01*
X110591651Y-98536859D01*
X110636223Y-98504474D01*
X109956749Y-97825000D01*
X109962963Y-97825000D01*
X110064696Y-97797741D01*
X110155908Y-97745080D01*
X110230382Y-97670606D01*
X110283043Y-97579394D01*
X110310302Y-97477661D01*
X110310302Y-97471447D01*
X110989776Y-98150921D01*
X111022161Y-98106349D01*
X111115057Y-97924031D01*
X111178292Y-97729417D01*
X111210302Y-97527317D01*
X111210302Y-97322682D01*
X111178292Y-97120582D01*
X111115057Y-96925968D01*
X111022161Y-96743650D01*
X110989776Y-96699077D01*
X110989776Y-96699076D01*
X110310302Y-97378551D01*
X110310302Y-97372339D01*
X110283043Y-97270606D01*
X110230382Y-97179394D01*
X110155908Y-97104920D01*
X110064696Y-97052259D01*
X109962963Y-97025000D01*
X109956748Y-97025000D01*
X110636224Y-96345524D01*
X110636223Y-96345523D01*
X110591661Y-96313147D01*
X110591652Y-96313141D01*
X110409333Y-96220244D01*
X110214719Y-96157009D01*
X110012619Y-96125000D01*
X109807985Y-96125000D01*
X109605884Y-96157009D01*
X109411270Y-96220244D01*
X109228946Y-96313143D01*
X109184379Y-96345523D01*
X109184379Y-96345524D01*
X109863856Y-97025000D01*
X109857641Y-97025000D01*
X109755908Y-97052259D01*
X109664696Y-97104920D01*
X109590222Y-97179394D01*
X109537561Y-97270606D01*
X109510302Y-97372339D01*
X109510302Y-97378553D01*
X108830826Y-96699077D01*
X108830825Y-96699077D01*
X108798445Y-96743644D01*
X108705546Y-96925968D01*
X108642311Y-97120582D01*
X108610302Y-97322682D01*
X103400080Y-97322682D01*
X103368553Y-97123631D01*
X103304328Y-96925968D01*
X103295568Y-96899008D01*
X103295566Y-96899005D01*
X103295566Y-96899003D01*
X103222000Y-96754623D01*
X103188343Y-96688567D01*
X103049517Y-96497490D01*
X102882510Y-96330483D01*
X102847872Y-96305317D01*
X102805207Y-96249989D01*
X102799228Y-96180375D01*
X102831833Y-96118580D01*
X102847873Y-96104682D01*
X102882510Y-96079517D01*
X103049517Y-95912510D01*
X103188343Y-95721433D01*
X103295568Y-95510992D01*
X103368553Y-95286368D01*
X103372059Y-95264231D01*
X103405500Y-95053097D01*
X103405500Y-94816902D01*
X103368553Y-94583635D01*
X103368553Y-94583632D01*
X103327547Y-94457433D01*
X103325553Y-94387593D01*
X103357796Y-94331437D01*
X107267416Y-90421819D01*
X107328739Y-90388334D01*
X107355097Y-90385500D01*
X109155398Y-90385500D01*
X109222437Y-90405185D01*
X109265883Y-90453205D01*
X109272715Y-90466614D01*
X109393028Y-90632213D01*
X109537786Y-90776971D01*
X109691649Y-90888757D01*
X109703390Y-90897287D01*
X109809328Y-90951265D01*
X109885776Y-90990218D01*
X109885778Y-90990218D01*
X109885781Y-90990220D01*
X109990137Y-91024127D01*
X110080465Y-91053477D01*
X110167967Y-91067336D01*
X110282648Y-91085500D01*
X110282649Y-91085500D01*
X110487351Y-91085500D01*
X110487352Y-91085500D01*
X110689534Y-91053477D01*
X110703842Y-91048827D01*
X110773682Y-91046831D01*
X110829842Y-91079077D01*
X121940139Y-102189374D01*
X121940149Y-102189385D01*
X121944479Y-102193715D01*
X121944480Y-102193716D01*
X122056284Y-102305520D01*
X122143095Y-102355639D01*
X122143097Y-102355641D01*
X122193213Y-102384576D01*
X122193215Y-102384577D01*
X122345942Y-102425500D01*
X122345943Y-102425500D01*
X126528700Y-102425500D01*
X126595739Y-102445185D01*
X126639184Y-102493204D01*
X126718688Y-102649240D01*
X126726132Y-102663848D01*
X126874201Y-102867649D01*
X126874205Y-102867654D01*
X127052345Y-103045794D01*
X127052350Y-103045798D01*
X127256153Y-103193869D01*
X127256155Y-103193870D01*
X127355775Y-103244629D01*
X127366794Y-103250243D01*
X127417590Y-103298217D01*
X127434500Y-103360728D01*
X127434500Y-107150500D01*
X127414815Y-107217539D01*
X127362011Y-107263294D01*
X127310500Y-107274500D01*
X126887129Y-107274500D01*
X126887123Y-107274501D01*
X126827516Y-107280908D01*
X126692671Y-107331202D01*
X126692664Y-107331206D01*
X126577455Y-107417452D01*
X126577452Y-107417455D01*
X126491206Y-107532664D01*
X126491202Y-107532671D01*
X126440908Y-107667517D01*
X126434501Y-107727116D01*
X126434501Y-107727123D01*
X126434500Y-107727135D01*
X126434500Y-110022870D01*
X126434501Y-110022876D01*
X126440908Y-110082483D01*
X126491202Y-110217328D01*
X126491206Y-110217335D01*
X126577452Y-110332544D01*
X126577455Y-110332547D01*
X126692664Y-110418793D01*
X126692671Y-110418797D01*
X126827517Y-110469091D01*
X126827516Y-110469091D01*
X126834444Y-110469835D01*
X126887127Y-110475500D01*
X128734901Y-110475499D01*
X128801940Y-110495184D01*
X128822582Y-110511818D01*
X131391284Y-113080520D01*
X131391286Y-113080521D01*
X131391290Y-113080524D01*
X131499079Y-113142755D01*
X131528216Y-113159577D01*
X131680943Y-113200501D01*
X131680945Y-113200501D01*
X131846654Y-113200501D01*
X131846670Y-113200500D01*
X132013331Y-113200500D01*
X132013347Y-113200501D01*
X132020943Y-113200501D01*
X132179055Y-113200501D01*
X132179057Y-113200501D01*
X132203433Y-113193969D01*
X132219275Y-113189725D01*
X132251367Y-113185500D01*
X148596742Y-113185500D01*
X148663781Y-113205185D01*
X148707227Y-113253205D01*
X148754783Y-113346538D01*
X148887525Y-113529242D01*
X148911005Y-113595046D01*
X148895180Y-113663100D01*
X148845074Y-113711795D01*
X148830541Y-113718308D01*
X148802670Y-113728703D01*
X148802664Y-113728706D01*
X148687455Y-113814952D01*
X148687452Y-113814955D01*
X148601206Y-113930164D01*
X148601202Y-113930171D01*
X148550908Y-114065017D01*
X148544501Y-114124616D01*
X148544501Y-114124623D01*
X148544500Y-114124635D01*
X148544500Y-116125370D01*
X148544501Y-116125376D01*
X148550908Y-116184983D01*
X148601202Y-116319828D01*
X148601206Y-116319835D01*
X148687452Y-116435044D01*
X148687455Y-116435047D01*
X148802664Y-116521293D01*
X148802671Y-116521297D01*
X148937517Y-116571591D01*
X148937516Y-116571591D01*
X148944444Y-116572335D01*
X148997127Y-116578000D01*
X151092872Y-116577999D01*
X151152483Y-116571591D01*
X151287331Y-116521296D01*
X151402546Y-116435046D01*
X151488796Y-116319831D01*
X151539091Y-116184983D01*
X151545500Y-116125373D01*
X151545499Y-114124628D01*
X151539091Y-114065017D01*
X151506509Y-113977661D01*
X151488797Y-113930171D01*
X151488793Y-113930164D01*
X151402547Y-113814955D01*
X151402544Y-113814952D01*
X151287335Y-113728706D01*
X151287328Y-113728702D01*
X151259459Y-113718308D01*
X151203525Y-113676437D01*
X151179108Y-113610973D01*
X151193960Y-113542700D01*
X151202460Y-113529260D01*
X151335217Y-113346538D01*
X151439048Y-113142758D01*
X151460372Y-113077129D01*
X151509721Y-112925249D01*
X151509721Y-112925248D01*
X151509722Y-112925245D01*
X151545500Y-112699354D01*
X151545500Y-112470646D01*
X151509722Y-112244755D01*
X151509721Y-112244751D01*
X151509721Y-112244750D01*
X151439049Y-112027244D01*
X151335216Y-111823461D01*
X151200786Y-111638434D01*
X151039066Y-111476714D01*
X150954559Y-111415316D01*
X150911896Y-111359988D01*
X150905917Y-111290375D01*
X150938523Y-111228580D01*
X150954556Y-111214685D01*
X151039066Y-111153286D01*
X151200786Y-110991566D01*
X151335217Y-110806538D01*
X151439048Y-110602758D01*
X151474001Y-110495184D01*
X151509721Y-110385249D01*
X151509721Y-110385248D01*
X151509722Y-110385245D01*
X151545500Y-110159354D01*
X151545500Y-109930646D01*
X151509722Y-109704755D01*
X151509721Y-109704751D01*
X151509721Y-109704750D01*
X151439049Y-109487244D01*
X151388236Y-109387518D01*
X151335217Y-109283462D01*
X151200786Y-109098434D01*
X151039066Y-108936714D01*
X150854038Y-108802283D01*
X150650255Y-108698450D01*
X150432748Y-108627778D01*
X150263326Y-108600944D01*
X150206854Y-108592000D01*
X149883146Y-108592000D01*
X149837967Y-108599155D01*
X149657251Y-108627778D01*
X149593481Y-108648498D01*
X149523640Y-108650493D01*
X149467483Y-108618248D01*
X146811915Y-105962680D01*
X146778430Y-105901357D01*
X146783414Y-105831665D01*
X146811913Y-105787320D01*
X148332821Y-104266412D01*
X148394142Y-104232929D01*
X148463834Y-104237913D01*
X148519767Y-104279785D01*
X148544184Y-104345249D01*
X148544500Y-104354095D01*
X148544500Y-105245370D01*
X148544501Y-105245376D01*
X148550908Y-105304983D01*
X148601202Y-105439828D01*
X148601206Y-105439835D01*
X148687452Y-105555044D01*
X148687455Y-105555047D01*
X148802664Y-105641293D01*
X148802671Y-105641297D01*
X148937517Y-105691591D01*
X148937516Y-105691591D01*
X148944444Y-105692335D01*
X148997127Y-105698000D01*
X151092872Y-105697999D01*
X151152483Y-105691591D01*
X151287331Y-105641296D01*
X151402546Y-105555046D01*
X151488796Y-105439831D01*
X151539091Y-105304983D01*
X151545500Y-105245373D01*
X151545499Y-103244628D01*
X151539091Y-103185017D01*
X151532493Y-103167328D01*
X151504126Y-103091270D01*
X151488797Y-103050171D01*
X151488793Y-103050164D01*
X151402547Y-102934955D01*
X151402544Y-102934952D01*
X151287335Y-102848706D01*
X151287328Y-102848702D01*
X151259459Y-102838308D01*
X151203525Y-102796437D01*
X151179108Y-102730973D01*
X151193960Y-102662700D01*
X151202460Y-102649260D01*
X151335217Y-102466538D01*
X151439048Y-102262758D01*
X151509722Y-102045245D01*
X151545500Y-101819354D01*
X151545500Y-101590646D01*
X151509722Y-101364755D01*
X151509721Y-101364751D01*
X151509721Y-101364750D01*
X151439049Y-101147244D01*
X151335216Y-100943461D01*
X151328691Y-100934480D01*
X151200786Y-100758434D01*
X151039066Y-100596714D01*
X150954559Y-100535316D01*
X150911896Y-100479988D01*
X150905917Y-100410375D01*
X150938523Y-100348580D01*
X150954556Y-100334685D01*
X151039066Y-100273286D01*
X151200786Y-100111566D01*
X151335217Y-99926538D01*
X151439048Y-99722758D01*
X151464836Y-99643390D01*
X151509721Y-99505249D01*
X151509721Y-99505248D01*
X151509722Y-99505245D01*
X151545500Y-99279354D01*
X151545500Y-99050646D01*
X151509722Y-98824755D01*
X151509721Y-98824751D01*
X151509721Y-98824750D01*
X151439049Y-98607244D01*
X151373960Y-98479500D01*
X151335217Y-98403462D01*
X151200786Y-98218434D01*
X151039066Y-98056714D01*
X150854038Y-97922283D01*
X150834999Y-97912582D01*
X150650255Y-97818450D01*
X150432748Y-97747778D01*
X150263326Y-97720944D01*
X150206854Y-97712000D01*
X149883146Y-97712000D01*
X149807849Y-97723926D01*
X149657253Y-97747778D01*
X149657250Y-97747778D01*
X149439744Y-97818450D01*
X149235961Y-97922283D01*
X149130396Y-97998980D01*
X149050934Y-98056714D01*
X149050932Y-98056716D01*
X149050931Y-98056716D01*
X148889216Y-98218431D01*
X148889216Y-98218432D01*
X148889214Y-98218434D01*
X148831480Y-98297896D01*
X148754783Y-98403461D01*
X148650950Y-98607244D01*
X148580278Y-98824750D01*
X148580278Y-98824753D01*
X148544500Y-99050646D01*
X148544500Y-99279353D01*
X148580278Y-99505246D01*
X148580278Y-99505249D01*
X148650950Y-99722755D01*
X148739706Y-99896947D01*
X148754783Y-99926538D01*
X148889214Y-100111566D01*
X149050934Y-100273286D01*
X149120423Y-100323773D01*
X149135438Y-100334682D01*
X149178103Y-100390013D01*
X149184082Y-100459626D01*
X149151476Y-100521421D01*
X149135438Y-100535318D01*
X149050932Y-100596715D01*
X148889216Y-100758431D01*
X148889216Y-100758432D01*
X148889214Y-100758434D01*
X148858165Y-100801169D01*
X148754783Y-100943461D01*
X148650950Y-101147244D01*
X148580278Y-101364750D01*
X148580278Y-101364753D01*
X148544500Y-101590646D01*
X148544500Y-101819353D01*
X148580278Y-102045248D01*
X148624295Y-102180720D01*
X148626290Y-102250561D01*
X148594045Y-102306718D01*
X146077584Y-104823181D01*
X146016261Y-104856666D01*
X145989903Y-104859500D01*
X145539061Y-104859500D01*
X145539057Y-104859499D01*
X145380943Y-104859499D01*
X145380939Y-104859500D01*
X142804602Y-104859500D01*
X142737563Y-104839815D01*
X142694117Y-104791795D01*
X142687284Y-104778385D01*
X142566971Y-104612786D01*
X142422213Y-104468028D01*
X142256610Y-104347712D01*
X142243200Y-104340879D01*
X142192406Y-104292903D01*
X142175500Y-104230397D01*
X142175500Y-101185623D01*
X142195185Y-101118584D01*
X142247989Y-101072829D01*
X142317147Y-101062885D01*
X142380703Y-101091910D01*
X142399818Y-101112738D01*
X142443028Y-101172213D01*
X142587786Y-101316971D01*
X142742749Y-101429556D01*
X142753390Y-101437287D01*
X142869607Y-101496503D01*
X142935776Y-101530218D01*
X142935778Y-101530218D01*
X142935781Y-101530220D01*
X143040137Y-101564127D01*
X143130465Y-101593477D01*
X143231557Y-101609488D01*
X143332648Y-101625500D01*
X143332649Y-101625500D01*
X143537351Y-101625500D01*
X143537352Y-101625500D01*
X143739534Y-101593477D01*
X143934219Y-101530220D01*
X144116610Y-101437287D01*
X144216445Y-101364753D01*
X144282213Y-101316971D01*
X144282215Y-101316968D01*
X144282219Y-101316966D01*
X144426966Y-101172219D01*
X144426968Y-101172215D01*
X144426971Y-101172213D01*
X144518458Y-101046290D01*
X144547287Y-101006610D01*
X144640220Y-100824219D01*
X144703477Y-100629534D01*
X144735500Y-100427352D01*
X144735500Y-100222648D01*
X144717906Y-100111566D01*
X144703477Y-100020465D01*
X144663343Y-99896947D01*
X144640220Y-99825781D01*
X144640218Y-99825778D01*
X144640218Y-99825776D01*
X144587727Y-99722758D01*
X144547287Y-99643390D01*
X144501179Y-99579927D01*
X144426971Y-99477786D01*
X144282213Y-99333028D01*
X144116613Y-99212715D01*
X144116612Y-99212714D01*
X144116610Y-99212713D01*
X144059653Y-99183691D01*
X143934223Y-99119781D01*
X143739534Y-99056522D01*
X143564995Y-99028878D01*
X143537352Y-99024500D01*
X143332648Y-99024500D01*
X143308329Y-99028351D01*
X143130465Y-99056522D01*
X142935776Y-99119781D01*
X142753386Y-99212715D01*
X142587786Y-99333028D01*
X142443032Y-99477782D01*
X142399818Y-99537262D01*
X142344488Y-99579927D01*
X142274875Y-99585906D01*
X142213080Y-99553300D01*
X142178722Y-99492461D01*
X142175500Y-99464376D01*
X142175500Y-96567519D01*
X142195185Y-96500480D01*
X142196398Y-96498628D01*
X142209394Y-96479179D01*
X142269737Y-96333497D01*
X142300500Y-96178842D01*
X142300500Y-96021158D01*
X142300500Y-96021155D01*
X142300499Y-96021153D01*
X142278889Y-95912512D01*
X142269737Y-95866503D01*
X142266114Y-95857756D01*
X142209397Y-95720827D01*
X142209390Y-95720814D01*
X142121789Y-95589711D01*
X142121786Y-95589707D01*
X142010292Y-95478213D01*
X142010288Y-95478210D01*
X141934550Y-95427603D01*
X141912825Y-95401608D01*
X141890647Y-95376014D01*
X141890483Y-95374874D01*
X141889745Y-95373991D01*
X141885524Y-95340390D01*
X141880703Y-95306855D01*
X141881181Y-95305807D01*
X141881038Y-95304666D01*
X141895644Y-95274135D01*
X141909727Y-95243299D01*
X141910696Y-95242676D01*
X141911193Y-95241638D01*
X141939998Y-95223844D01*
X141968505Y-95205524D01*
X141970005Y-95205308D01*
X141970636Y-95204919D01*
X142003440Y-95200501D01*
X142079057Y-95200501D01*
X142079060Y-95200500D01*
X142086668Y-95200500D01*
X151499903Y-95200500D01*
X151566942Y-95220185D01*
X151587584Y-95236819D01*
X151989690Y-95638925D01*
X152023175Y-95700248D01*
X152023626Y-95702414D01*
X152054526Y-95857756D01*
X152054529Y-95857766D01*
X152114867Y-96003437D01*
X152114874Y-96003450D01*
X152202475Y-96134553D01*
X152202478Y-96134557D01*
X152313972Y-96246051D01*
X152313976Y-96246054D01*
X152445079Y-96333655D01*
X152445092Y-96333662D01*
X152590763Y-96394000D01*
X152590768Y-96394002D01*
X152745418Y-96424764D01*
X152745421Y-96424765D01*
X152745423Y-96424765D01*
X152903109Y-96424765D01*
X152903110Y-96424764D01*
X153057762Y-96394002D01*
X153128048Y-96364889D01*
X153197517Y-96357420D01*
X153259996Y-96388695D01*
X153295648Y-96448784D01*
X153299500Y-96479450D01*
X153299500Y-97037830D01*
X153299499Y-97037848D01*
X153299499Y-97203554D01*
X153299498Y-97203554D01*
X153335311Y-97337209D01*
X153340423Y-97356285D01*
X153363320Y-97395943D01*
X153419479Y-97493214D01*
X153419481Y-97493217D01*
X153538349Y-97612085D01*
X153538355Y-97612090D01*
X155630489Y-99704224D01*
X155663974Y-99765547D01*
X155660739Y-99830222D01*
X155620278Y-99954751D01*
X155598225Y-100093991D01*
X155584500Y-100180646D01*
X155584500Y-100409354D01*
X155596111Y-100482664D01*
X155620278Y-100635246D01*
X155620278Y-100635249D01*
X155690950Y-100852755D01*
X155732590Y-100934478D01*
X155794783Y-101056538D01*
X155929214Y-101241566D01*
X156090934Y-101403286D01*
X156175864Y-101464991D01*
X156218529Y-101520321D01*
X156224508Y-101589935D01*
X156191902Y-101651730D01*
X156175864Y-101665627D01*
X156091257Y-101727097D01*
X155929597Y-101888757D01*
X155795211Y-102073723D01*
X155691417Y-102277429D01*
X155620765Y-102494871D01*
X155606491Y-102585000D01*
X156594252Y-102585000D01*
X156572482Y-102622708D01*
X156535000Y-102762591D01*
X156535000Y-102907409D01*
X156572482Y-103047292D01*
X156594252Y-103085000D01*
X155606491Y-103085000D01*
X155620765Y-103175128D01*
X155691417Y-103392570D01*
X155795211Y-103596276D01*
X155929597Y-103781242D01*
X156091257Y-103942902D01*
X156276223Y-104077288D01*
X156479929Y-104181082D01*
X156697371Y-104251734D01*
X156835000Y-104273532D01*
X156835000Y-103325747D01*
X156872708Y-103347518D01*
X157012591Y-103385000D01*
X157157409Y-103385000D01*
X157297292Y-103347518D01*
X157335000Y-103325747D01*
X157335000Y-104273531D01*
X157472628Y-104251734D01*
X157690070Y-104181082D01*
X157893776Y-104077288D01*
X158078742Y-103942902D01*
X158240402Y-103781242D01*
X158374788Y-103596276D01*
X158478582Y-103392570D01*
X158549234Y-103175128D01*
X158563509Y-103085000D01*
X157575748Y-103085000D01*
X157597518Y-103047292D01*
X157635000Y-102907409D01*
X157635000Y-102762591D01*
X157597518Y-102622708D01*
X157575748Y-102585000D01*
X158563509Y-102585000D01*
X158549234Y-102494871D01*
X158478582Y-102277429D01*
X158374788Y-102073723D01*
X158240402Y-101888757D01*
X158078742Y-101727097D01*
X157994135Y-101665626D01*
X157951470Y-101610296D01*
X157945491Y-101540682D01*
X157978097Y-101478887D01*
X157994125Y-101464999D01*
X158079066Y-101403286D01*
X158240786Y-101241566D01*
X158375217Y-101056538D01*
X158479048Y-100852758D01*
X158501925Y-100782350D01*
X158549721Y-100635249D01*
X158549721Y-100635248D01*
X158549722Y-100635245D01*
X158585500Y-100409354D01*
X158585500Y-100180646D01*
X158549722Y-99954755D01*
X158549721Y-99954751D01*
X158549721Y-99954750D01*
X158479049Y-99737244D01*
X158471668Y-99722758D01*
X158375217Y-99533462D01*
X158242472Y-99350755D01*
X158218994Y-99284953D01*
X158234819Y-99216899D01*
X158284925Y-99168204D01*
X158299455Y-99161692D01*
X158327331Y-99151296D01*
X158442546Y-99065046D01*
X158528796Y-98949831D01*
X158579091Y-98814983D01*
X158585500Y-98755373D01*
X158585500Y-98479500D01*
X158588050Y-98470814D01*
X158586762Y-98461853D01*
X158597740Y-98437812D01*
X158605185Y-98412461D01*
X158612025Y-98406533D01*
X158615787Y-98398297D01*
X158638021Y-98384007D01*
X158657989Y-98366706D01*
X158668503Y-98364418D01*
X158674565Y-98360523D01*
X158709500Y-98355500D01*
X158754903Y-98355500D01*
X158821942Y-98375185D01*
X158842584Y-98391819D01*
X160263181Y-99812416D01*
X160296666Y-99873739D01*
X160299500Y-99900097D01*
X160299500Y-110599902D01*
X160279815Y-110666941D01*
X160263181Y-110687583D01*
X153487584Y-117463181D01*
X153426261Y-117496666D01*
X153399903Y-117499500D01*
X135049096Y-117499500D01*
X135027850Y-117493261D01*
X135005764Y-117491682D01*
X134994980Y-117483609D01*
X134982057Y-117479815D01*
X134967558Y-117463082D01*
X134949830Y-117449812D01*
X134945121Y-117437189D01*
X134936302Y-117427011D01*
X134933150Y-117405095D01*
X134925412Y-117384348D01*
X134928275Y-117371185D01*
X134926358Y-117357853D01*
X134935556Y-117337711D01*
X134940263Y-117316074D01*
X134953533Y-117298347D01*
X134955383Y-117294297D01*
X134961414Y-117287820D01*
X135013713Y-117235521D01*
X135013716Y-117235520D01*
X135125520Y-117123716D01*
X135175639Y-117036904D01*
X135204577Y-116986785D01*
X135225218Y-116909750D01*
X135227967Y-116902889D01*
X135245177Y-116881014D01*
X135259664Y-116857247D01*
X135266482Y-116853934D01*
X135271170Y-116847977D01*
X135297474Y-116838879D01*
X135322511Y-116826717D01*
X135335862Y-116825602D01*
X135337202Y-116825139D01*
X135338278Y-116825400D01*
X135343075Y-116825000D01*
X135665000Y-116825000D01*
X135665000Y-115940865D01*
X135665067Y-115936789D01*
X135665400Y-115926638D01*
X135670500Y-115901003D01*
X135670500Y-115860830D01*
X135684745Y-115875075D01*
X135770255Y-115924444D01*
X135865630Y-115950000D01*
X135964370Y-115950000D01*
X136059745Y-115924444D01*
X136145255Y-115875075D01*
X136165000Y-115855330D01*
X136165000Y-116825000D01*
X136487828Y-116825000D01*
X136487844Y-116824999D01*
X136547372Y-116818598D01*
X136547379Y-116818596D01*
X136682086Y-116768354D01*
X136682093Y-116768350D01*
X136797187Y-116682190D01*
X136797190Y-116682187D01*
X136883350Y-116567093D01*
X136883354Y-116567086D01*
X136933596Y-116432379D01*
X136933598Y-116432372D01*
X136939999Y-116372844D01*
X136940000Y-116372827D01*
X136940000Y-115825000D01*
X136195330Y-115825000D01*
X136215075Y-115805255D01*
X136264444Y-115719745D01*
X136290000Y-115624370D01*
X136290000Y-115525630D01*
X136264444Y-115430255D01*
X136229656Y-115370000D01*
X140298391Y-115370000D01*
X141259314Y-115370000D01*
X141254920Y-115374394D01*
X141202259Y-115465606D01*
X141175000Y-115567339D01*
X141175000Y-115672661D01*
X141202259Y-115774394D01*
X141254920Y-115865606D01*
X141259314Y-115870000D01*
X140298391Y-115870000D01*
X140307009Y-115924413D01*
X140370244Y-116119029D01*
X140463140Y-116301349D01*
X140583417Y-116466894D01*
X140583417Y-116466895D01*
X140728104Y-116611582D01*
X140893650Y-116731859D01*
X141075968Y-116824754D01*
X141270578Y-116887988D01*
X141325000Y-116896607D01*
X141325000Y-115935686D01*
X141329394Y-115940080D01*
X141420606Y-115992741D01*
X141522339Y-116020000D01*
X141627661Y-116020000D01*
X141729394Y-115992741D01*
X141820606Y-115940080D01*
X141825000Y-115935686D01*
X141825000Y-116896606D01*
X141879421Y-116887988D01*
X142074031Y-116824754D01*
X142256349Y-116731859D01*
X142421894Y-116611582D01*
X142421895Y-116611582D01*
X142566582Y-116466895D01*
X142566582Y-116466894D01*
X142686859Y-116301349D01*
X142779755Y-116119029D01*
X142842990Y-115924413D01*
X142851609Y-115870000D01*
X141890686Y-115870000D01*
X141895080Y-115865606D01*
X141947741Y-115774394D01*
X141975000Y-115672661D01*
X141975000Y-115567339D01*
X141947741Y-115465606D01*
X141895080Y-115374394D01*
X141890686Y-115370000D01*
X142851609Y-115370000D01*
X142842990Y-115315586D01*
X142779755Y-115120970D01*
X142686859Y-114938650D01*
X142566582Y-114773105D01*
X142566582Y-114773104D01*
X142421895Y-114628417D01*
X142256349Y-114508140D01*
X142074029Y-114415244D01*
X141879413Y-114352009D01*
X141825000Y-114343390D01*
X141825000Y-115304314D01*
X141820606Y-115299920D01*
X141729394Y-115247259D01*
X141627661Y-115220000D01*
X141522339Y-115220000D01*
X141420606Y-115247259D01*
X141329394Y-115299920D01*
X141325000Y-115304314D01*
X141325000Y-114343390D01*
X141270586Y-114352009D01*
X141075970Y-114415244D01*
X140893650Y-114508140D01*
X140728105Y-114628417D01*
X140728104Y-114628417D01*
X140583417Y-114773104D01*
X140583417Y-114773105D01*
X140463140Y-114938650D01*
X140370244Y-115120970D01*
X140307009Y-115315586D01*
X140298391Y-115370000D01*
X136229656Y-115370000D01*
X136215075Y-115344745D01*
X136195330Y-115325000D01*
X136940000Y-115325000D01*
X136940000Y-114777172D01*
X136939999Y-114777155D01*
X136933598Y-114717627D01*
X136933596Y-114717620D01*
X136883354Y-114582913D01*
X136883350Y-114582906D01*
X136797190Y-114467812D01*
X136797187Y-114467809D01*
X136682093Y-114381649D01*
X136682086Y-114381645D01*
X136547379Y-114331403D01*
X136547372Y-114331401D01*
X136487844Y-114325000D01*
X136165000Y-114325000D01*
X136165000Y-115294670D01*
X136145255Y-115274925D01*
X136059745Y-115225556D01*
X135964370Y-115200000D01*
X135865630Y-115200000D01*
X135770255Y-115225556D01*
X135684745Y-115274925D01*
X135670500Y-115289170D01*
X135670500Y-115248997D01*
X135667383Y-115233326D01*
X135665000Y-115209134D01*
X135665000Y-114325000D01*
X135342155Y-114325000D01*
X135282627Y-114331401D01*
X135282620Y-114331403D01*
X135147913Y-114381645D01*
X135147911Y-114381646D01*
X135147092Y-114382260D01*
X135146134Y-114382616D01*
X135140132Y-114385895D01*
X135139660Y-114385031D01*
X135081625Y-114406671D01*
X135025338Y-114397547D01*
X134944131Y-114363910D01*
X134944119Y-114363907D01*
X134746007Y-114324500D01*
X134746003Y-114324500D01*
X134543997Y-114324500D01*
X134543992Y-114324500D01*
X134345880Y-114363907D01*
X134345872Y-114363909D01*
X134159244Y-114441213D01*
X134078891Y-114494904D01*
X134012213Y-114515782D01*
X133944833Y-114497297D01*
X133941109Y-114494904D01*
X133860755Y-114441213D01*
X133674127Y-114363909D01*
X133674119Y-114363907D01*
X133476007Y-114324500D01*
X133476003Y-114324500D01*
X133273997Y-114324500D01*
X133273992Y-114324500D01*
X133075880Y-114363907D01*
X133075872Y-114363909D01*
X132889247Y-114441212D01*
X132889237Y-114441217D01*
X132721281Y-114553441D01*
X132578444Y-114696278D01*
X132578443Y-114696280D01*
X132466217Y-114864237D01*
X132466212Y-114864247D01*
X132388909Y-115050872D01*
X132388907Y-115050880D01*
X132349500Y-115248992D01*
X132349500Y-115901007D01*
X132388907Y-116099119D01*
X132388909Y-116099127D01*
X132466212Y-116285752D01*
X132466217Y-116285762D01*
X132578441Y-116453718D01*
X132721281Y-116596558D01*
X132889237Y-116708782D01*
X132889241Y-116708784D01*
X132889244Y-116708786D01*
X133075873Y-116786091D01*
X133239288Y-116818596D01*
X133273992Y-116825499D01*
X133273996Y-116825500D01*
X133425902Y-116825500D01*
X133492941Y-116845185D01*
X133538696Y-116897989D01*
X133548640Y-116967147D01*
X133519615Y-117030703D01*
X133513583Y-117037181D01*
X133087584Y-117463181D01*
X133026261Y-117496666D01*
X132999903Y-117499500D01*
X130210097Y-117499500D01*
X130143058Y-117479815D01*
X130122416Y-117463181D01*
X129029077Y-116369842D01*
X128995592Y-116308519D01*
X128998828Y-116243841D01*
X129003477Y-116229534D01*
X129035500Y-116027352D01*
X129035500Y-115822648D01*
X129003477Y-115620466D01*
X128940220Y-115425781D01*
X128940218Y-115425778D01*
X128940218Y-115425776D01*
X128888869Y-115325000D01*
X128847287Y-115243390D01*
X128816930Y-115201607D01*
X128726971Y-115077786D01*
X128582213Y-114933028D01*
X128416613Y-114812715D01*
X128416612Y-114812714D01*
X128416610Y-114812713D01*
X128338873Y-114773104D01*
X128234223Y-114719781D01*
X128039534Y-114656522D01*
X127864995Y-114628878D01*
X127837352Y-114624500D01*
X127632648Y-114624500D01*
X127608329Y-114628351D01*
X127430465Y-114656522D01*
X127235776Y-114719781D01*
X127053386Y-114812715D01*
X126887786Y-114933028D01*
X126743028Y-115077786D01*
X126622715Y-115243386D01*
X126529781Y-115425776D01*
X126466522Y-115620465D01*
X126434500Y-115822648D01*
X126434500Y-116027351D01*
X126466522Y-116229534D01*
X126529781Y-116424223D01*
X126579242Y-116521293D01*
X126617591Y-116596558D01*
X126622715Y-116606613D01*
X126743028Y-116772213D01*
X126887786Y-116916971D01*
X126983879Y-116986785D01*
X127053390Y-117037287D01*
X127169607Y-117096503D01*
X127235776Y-117130218D01*
X127235778Y-117130218D01*
X127235781Y-117130220D01*
X127340137Y-117164127D01*
X127430465Y-117193477D01*
X127531557Y-117209488D01*
X127632648Y-117225500D01*
X127632649Y-117225500D01*
X127837351Y-117225500D01*
X127837352Y-117225500D01*
X128039534Y-117193477D01*
X128053842Y-117188827D01*
X128123682Y-117186831D01*
X128179842Y-117219077D01*
X129425139Y-118464374D01*
X129425149Y-118464385D01*
X129429479Y-118468715D01*
X129429480Y-118468716D01*
X129541284Y-118580520D01*
X129541286Y-118580521D01*
X129541290Y-118580524D01*
X129678209Y-118659573D01*
X129678216Y-118659577D01*
X129790019Y-118689534D01*
X129830942Y-118700500D01*
X129830943Y-118700500D01*
X129830944Y-118700500D01*
X133220939Y-118700500D01*
X133220943Y-118700501D01*
X133379057Y-118700501D01*
X133379061Y-118700500D01*
X153613331Y-118700500D01*
X153613347Y-118700501D01*
X153620943Y-118700501D01*
X153779054Y-118700501D01*
X153779057Y-118700501D01*
X153931785Y-118659577D01*
X153981904Y-118630639D01*
X154068716Y-118580520D01*
X154180520Y-118468716D01*
X154180520Y-118468714D01*
X154190728Y-118458507D01*
X154190729Y-118458504D01*
X161380520Y-111268716D01*
X161459577Y-111131784D01*
X161500501Y-110979057D01*
X161500501Y-110820942D01*
X161500501Y-110813347D01*
X161500500Y-110813329D01*
X161500500Y-99420945D01*
X161500500Y-99420943D01*
X161459577Y-99268216D01*
X161436838Y-99228830D01*
X161380524Y-99131290D01*
X161380518Y-99131282D01*
X161268717Y-99019481D01*
X161268709Y-99019475D01*
X161131790Y-98940426D01*
X161131786Y-98940424D01*
X161131784Y-98940423D01*
X161131782Y-98940422D01*
X161131781Y-98940422D01*
X161106330Y-98933602D01*
X161050745Y-98901509D01*
X159542590Y-97393355D01*
X159542588Y-97393352D01*
X159423717Y-97274481D01*
X159423709Y-97274475D01*
X159300874Y-97203557D01*
X159300871Y-97203556D01*
X159286785Y-97195423D01*
X159134057Y-97154499D01*
X158975943Y-97154499D01*
X158968347Y-97154499D01*
X158968331Y-97154500D01*
X158709499Y-97154500D01*
X158642460Y-97134815D01*
X158596705Y-97082011D01*
X158585499Y-97030500D01*
X158585499Y-96754629D01*
X158585498Y-96754623D01*
X158585497Y-96754616D01*
X158580299Y-96706257D01*
X158579091Y-96695016D01*
X158528797Y-96560171D01*
X158528793Y-96560164D01*
X158442547Y-96444955D01*
X158442544Y-96444952D01*
X158327335Y-96358706D01*
X158327328Y-96358702D01*
X158192482Y-96308408D01*
X158192483Y-96308408D01*
X158132883Y-96302001D01*
X158132881Y-96302000D01*
X158132873Y-96302000D01*
X158132864Y-96302000D01*
X156037129Y-96302000D01*
X156037123Y-96302001D01*
X155977516Y-96308408D01*
X155842671Y-96358702D01*
X155842664Y-96358706D01*
X155727455Y-96444952D01*
X155727452Y-96444955D01*
X155641206Y-96560164D01*
X155641202Y-96560171D01*
X155590908Y-96695017D01*
X155585681Y-96743644D01*
X155584501Y-96754623D01*
X155584500Y-96754635D01*
X155584500Y-97660403D01*
X155564815Y-97727442D01*
X155512011Y-97773197D01*
X155442853Y-97783141D01*
X155379297Y-97754116D01*
X155372819Y-97748084D01*
X154536819Y-96912084D01*
X154503334Y-96850761D01*
X154500500Y-96824403D01*
X154500500Y-88020945D01*
X154500500Y-88020943D01*
X154459577Y-87868216D01*
X154446542Y-87845639D01*
X154380524Y-87731290D01*
X154380521Y-87731286D01*
X154380520Y-87731284D01*
X154268716Y-87619480D01*
X154268715Y-87619479D01*
X154264385Y-87615149D01*
X154264374Y-87615139D01*
X152882590Y-86233355D01*
X152882588Y-86233352D01*
X152763717Y-86114481D01*
X152763709Y-86114475D01*
X152658056Y-86053477D01*
X152658055Y-86053476D01*
X152658055Y-86053477D01*
X152626785Y-86035423D01*
X152474057Y-85994499D01*
X152315943Y-85994499D01*
X152308347Y-85994499D01*
X152308331Y-85994500D01*
X151403258Y-85994500D01*
X151336219Y-85974815D01*
X151292773Y-85926795D01*
X151270347Y-85882783D01*
X151245217Y-85833462D01*
X151110786Y-85648434D01*
X150949066Y-85486714D01*
X150864559Y-85425316D01*
X150821896Y-85369988D01*
X150815917Y-85300375D01*
X150848523Y-85238580D01*
X150864556Y-85224685D01*
X150949066Y-85163286D01*
X151110786Y-85001566D01*
X151245217Y-84816538D01*
X151349048Y-84612758D01*
X151392032Y-84480466D01*
X151419721Y-84395249D01*
X151419721Y-84395248D01*
X151419722Y-84395245D01*
X151455500Y-84169354D01*
X151455500Y-83940646D01*
X151419722Y-83714755D01*
X151419721Y-83714751D01*
X151419721Y-83714750D01*
X151349049Y-83497244D01*
X151245216Y-83293461D01*
X151110786Y-83108434D01*
X150949066Y-82946714D01*
X150764038Y-82812283D01*
X150560255Y-82708450D01*
X150342748Y-82637778D01*
X150173326Y-82610944D01*
X150116854Y-82602000D01*
X149793146Y-82602000D01*
X149717849Y-82613926D01*
X149567253Y-82637778D01*
X149567250Y-82637778D01*
X149349744Y-82708450D01*
X149145958Y-82812285D01*
X149024103Y-82900818D01*
X148958297Y-82924298D01*
X148951218Y-82924500D01*
X144054097Y-82924500D01*
X143987058Y-82904815D01*
X143941303Y-82852011D01*
X143931359Y-82782853D01*
X143960384Y-82719297D01*
X143966416Y-82712819D01*
X146053459Y-80625776D01*
X148332821Y-78346413D01*
X148394142Y-78312930D01*
X148463834Y-78317914D01*
X148519767Y-78359786D01*
X148544184Y-78425250D01*
X148544500Y-78434096D01*
X148544500Y-79325370D01*
X148544501Y-79325376D01*
X148550908Y-79384983D01*
X148601202Y-79519828D01*
X148601206Y-79519835D01*
X148687452Y-79635044D01*
X148687455Y-79635047D01*
X148802664Y-79721293D01*
X148802671Y-79721297D01*
X148937517Y-79771591D01*
X148937516Y-79771591D01*
X148944444Y-79772335D01*
X148997127Y-79778000D01*
X151092872Y-79777999D01*
X151152483Y-79771591D01*
X151287331Y-79721296D01*
X151402546Y-79635046D01*
X151488796Y-79519831D01*
X151539091Y-79384983D01*
X151545500Y-79325373D01*
X151545499Y-77324628D01*
X151539091Y-77265017D01*
X151488796Y-77130169D01*
X151488795Y-77130168D01*
X151488793Y-77130164D01*
X151402547Y-77014955D01*
X151402544Y-77014952D01*
X151287335Y-76928706D01*
X151287328Y-76928702D01*
X151259459Y-76918308D01*
X151203525Y-76876437D01*
X151179108Y-76810973D01*
X151193960Y-76742700D01*
X151202460Y-76729260D01*
X151335217Y-76546538D01*
X151439048Y-76342758D01*
X151509722Y-76125245D01*
X151545500Y-75899354D01*
X151545500Y-75670646D01*
X151509722Y-75444755D01*
X151509721Y-75444751D01*
X151509721Y-75444750D01*
X151439049Y-75227244D01*
X151421844Y-75193477D01*
X151335217Y-75023462D01*
X151200786Y-74838434D01*
X151039066Y-74676714D01*
X150954559Y-74615316D01*
X150911896Y-74559988D01*
X150905917Y-74490375D01*
X150938523Y-74428580D01*
X150954556Y-74414685D01*
X151039066Y-74353286D01*
X151200786Y-74191566D01*
X151335217Y-74006538D01*
X151439048Y-73802758D01*
X151460173Y-73737741D01*
X151509721Y-73585249D01*
X151509721Y-73585248D01*
X151509722Y-73585245D01*
X151545500Y-73359354D01*
X151545500Y-73130646D01*
X151509722Y-72904755D01*
X151509721Y-72904751D01*
X151509721Y-72904750D01*
X151439049Y-72687244D01*
X151379820Y-72571000D01*
X151335217Y-72483462D01*
X151200786Y-72298434D01*
X151039066Y-72136714D01*
X150854038Y-72002283D01*
X150759393Y-71954059D01*
X150650255Y-71898450D01*
X150477844Y-71842431D01*
X150420169Y-71802994D01*
X150392970Y-71738635D01*
X150404884Y-71669789D01*
X150452129Y-71618313D01*
X150516162Y-71600500D01*
X153699903Y-71600500D01*
X153766942Y-71620185D01*
X153787584Y-71636819D01*
X156368181Y-74217416D01*
X156401666Y-74278739D01*
X156404500Y-74305097D01*
X156404500Y-85178000D01*
X156384815Y-85245039D01*
X156332011Y-85290794D01*
X156280500Y-85302000D01*
X155957130Y-85302000D01*
X155957123Y-85302001D01*
X155897516Y-85308408D01*
X155762671Y-85358702D01*
X155762664Y-85358706D01*
X155647455Y-85444952D01*
X155647452Y-85444955D01*
X155561206Y-85560164D01*
X155561202Y-85560171D01*
X155510908Y-85695017D01*
X155505856Y-85742011D01*
X155504501Y-85754623D01*
X155504500Y-85754635D01*
X155504500Y-87755370D01*
X155504501Y-87755376D01*
X155510908Y-87814983D01*
X155561202Y-87949828D01*
X155561206Y-87949835D01*
X155647452Y-88065044D01*
X155647455Y-88065047D01*
X155762664Y-88151293D01*
X155762669Y-88151296D01*
X155790539Y-88161690D01*
X155846473Y-88203561D01*
X155870891Y-88269024D01*
X155856040Y-88337298D01*
X155847526Y-88350756D01*
X155838721Y-88362876D01*
X155714783Y-88533461D01*
X155610950Y-88737244D01*
X155540278Y-88954750D01*
X155540278Y-88954753D01*
X155507008Y-89164814D01*
X155504500Y-89180646D01*
X155504500Y-89409354D01*
X155515763Y-89480465D01*
X155540278Y-89635246D01*
X155540278Y-89635249D01*
X155610950Y-89852755D01*
X155647363Y-89924219D01*
X155714783Y-90056538D01*
X155849214Y-90241566D01*
X156010934Y-90403286D01*
X156095864Y-90464991D01*
X156138529Y-90520321D01*
X156144508Y-90589935D01*
X156111902Y-90651730D01*
X156095864Y-90665627D01*
X156011257Y-90727097D01*
X155849597Y-90888757D01*
X155715211Y-91073723D01*
X155611417Y-91277429D01*
X155540765Y-91494871D01*
X155526491Y-91585000D01*
X156514252Y-91585000D01*
X156492482Y-91622708D01*
X156455000Y-91762591D01*
X156455000Y-91907409D01*
X156492482Y-92047292D01*
X156514252Y-92085000D01*
X155526491Y-92085000D01*
X155540765Y-92175128D01*
X155611417Y-92392570D01*
X155715211Y-92596276D01*
X155849597Y-92781242D01*
X156011257Y-92942902D01*
X156196223Y-93077288D01*
X156399929Y-93181082D01*
X156617371Y-93251734D01*
X156755000Y-93273532D01*
X156755000Y-92325747D01*
X156792708Y-92347518D01*
X156932591Y-92385000D01*
X157077409Y-92385000D01*
X157217292Y-92347518D01*
X157255000Y-92325747D01*
X157255000Y-93273531D01*
X157392628Y-93251734D01*
X157610070Y-93181082D01*
X157813776Y-93077288D01*
X157998742Y-92942902D01*
X158160402Y-92781242D01*
X158294788Y-92596276D01*
X158398582Y-92392570D01*
X158469234Y-92175128D01*
X158483509Y-92085000D01*
X157495748Y-92085000D01*
X157517518Y-92047292D01*
X157555000Y-91907409D01*
X157555000Y-91762591D01*
X157517518Y-91622708D01*
X157495748Y-91585000D01*
X158483509Y-91585000D01*
X158469234Y-91494871D01*
X158398582Y-91277429D01*
X158294788Y-91073723D01*
X158160402Y-90888757D01*
X157998742Y-90727097D01*
X157914135Y-90665626D01*
X157871470Y-90610296D01*
X157865491Y-90540682D01*
X157898097Y-90478887D01*
X157914125Y-90464999D01*
X157999066Y-90403286D01*
X158160786Y-90241566D01*
X158295217Y-90056538D01*
X158399048Y-89852758D01*
X158469722Y-89635245D01*
X158505500Y-89409354D01*
X158505500Y-89180646D01*
X158469722Y-88954755D01*
X158469721Y-88954751D01*
X158469721Y-88954750D01*
X158399049Y-88737244D01*
X158320289Y-88582669D01*
X158295217Y-88533462D01*
X158162472Y-88350755D01*
X158138994Y-88284953D01*
X158154819Y-88216899D01*
X158204925Y-88168204D01*
X158219455Y-88161692D01*
X158247331Y-88151296D01*
X158362546Y-88065046D01*
X158448796Y-87949831D01*
X158499091Y-87814983D01*
X158505500Y-87755373D01*
X158505499Y-85754628D01*
X158499091Y-85695017D01*
X158497406Y-85690500D01*
X158448797Y-85560171D01*
X158448793Y-85560164D01*
X158362547Y-85444955D01*
X158362544Y-85444952D01*
X158247335Y-85358706D01*
X158247328Y-85358702D01*
X158112482Y-85308408D01*
X158112483Y-85308408D01*
X158052883Y-85302001D01*
X158052881Y-85302000D01*
X158052873Y-85302000D01*
X158052865Y-85302000D01*
X157729500Y-85302000D01*
X157662461Y-85282315D01*
X157616706Y-85229511D01*
X157605500Y-85178000D01*
X157605500Y-74094060D01*
X157605501Y-74094047D01*
X157605501Y-73925944D01*
X157600321Y-73906613D01*
X157564577Y-73773216D01*
X157530819Y-73714745D01*
X157485524Y-73636290D01*
X157485518Y-73636282D01*
X156009480Y-72160244D01*
X154487589Y-70638354D01*
X154487588Y-70638352D01*
X154368717Y-70519481D01*
X154368716Y-70519480D01*
X154281904Y-70469360D01*
X154281904Y-70469359D01*
X154281900Y-70469358D01*
X154231785Y-70440423D01*
X154079057Y-70399499D01*
X153920943Y-70399499D01*
X153913347Y-70399499D01*
X153913331Y-70399500D01*
X134879061Y-70399500D01*
X134879057Y-70399499D01*
X134720943Y-70399499D01*
X134720939Y-70399500D01*
X128886670Y-70399500D01*
X128886654Y-70399499D01*
X128879058Y-70399499D01*
X128720943Y-70399499D01*
X128644579Y-70419961D01*
X128568214Y-70440423D01*
X128568209Y-70440426D01*
X128431290Y-70519475D01*
X128431282Y-70519481D01*
X127454479Y-71496284D01*
X127433064Y-71533377D01*
X127424012Y-71549057D01*
X127375423Y-71633215D01*
X127334499Y-71785943D01*
X127334499Y-71785945D01*
X127334499Y-71954046D01*
X127334500Y-71954059D01*
X127334500Y-72695397D01*
X127314815Y-72762436D01*
X127266800Y-72805879D01*
X127253389Y-72812712D01*
X127087786Y-72933028D01*
X126943028Y-73077786D01*
X126822715Y-73243386D01*
X126729781Y-73425776D01*
X126666522Y-73620465D01*
X126634500Y-73822648D01*
X126634500Y-74027351D01*
X126666522Y-74229534D01*
X126729781Y-74424223D01*
X126822715Y-74606613D01*
X126943028Y-74772213D01*
X127087786Y-74916971D01*
X127233314Y-75022701D01*
X127253390Y-75037287D01*
X127369607Y-75096503D01*
X127435776Y-75130218D01*
X127435778Y-75130218D01*
X127435781Y-75130220D01*
X127515401Y-75156090D01*
X127630465Y-75193477D01*
X127731557Y-75209488D01*
X127832648Y-75225500D01*
X127832649Y-75225500D01*
X128037351Y-75225500D01*
X128037352Y-75225500D01*
X128239534Y-75193477D01*
X128434219Y-75130220D01*
X128616610Y-75037287D01*
X128713961Y-74966558D01*
X128782213Y-74916971D01*
X128782215Y-74916968D01*
X128782219Y-74916966D01*
X128926966Y-74772219D01*
X128926968Y-74772215D01*
X128926971Y-74772213D01*
X129011576Y-74655762D01*
X129047287Y-74606610D01*
X129140220Y-74424219D01*
X129203477Y-74229534D01*
X129235500Y-74027352D01*
X129235500Y-73822648D01*
X129205983Y-73636290D01*
X129203477Y-73620465D01*
X129140218Y-73425776D01*
X129047285Y-73243387D01*
X129027922Y-73216735D01*
X129027921Y-73216734D01*
X128926971Y-73077787D01*
X128926967Y-73077782D01*
X128782213Y-72933028D01*
X128616610Y-72812712D01*
X128603200Y-72805879D01*
X128552406Y-72757903D01*
X128535500Y-72695397D01*
X128535500Y-72165097D01*
X128555185Y-72098058D01*
X128571819Y-72077416D01*
X129012417Y-71636819D01*
X129073740Y-71603334D01*
X129100098Y-71600500D01*
X134499903Y-71600500D01*
X134529343Y-71609144D01*
X134559330Y-71615668D01*
X134564345Y-71619422D01*
X134566942Y-71620185D01*
X134587584Y-71636819D01*
X134633181Y-71682416D01*
X134666666Y-71743739D01*
X134669500Y-71770097D01*
X134669500Y-72571000D01*
X134649815Y-72638039D01*
X134597011Y-72683794D01*
X134545500Y-72695000D01*
X134250000Y-72695000D01*
X134250000Y-73579134D01*
X134247617Y-73603326D01*
X134244500Y-73618995D01*
X134244500Y-73659170D01*
X134230255Y-73644925D01*
X134144745Y-73595556D01*
X134049370Y-73570000D01*
X133950630Y-73570000D01*
X133855255Y-73595556D01*
X133769745Y-73644925D01*
X133750000Y-73664670D01*
X133750000Y-72695000D01*
X133427155Y-72695000D01*
X133367627Y-72701401D01*
X133367620Y-72701403D01*
X133232913Y-72751645D01*
X133232906Y-72751649D01*
X133117812Y-72837809D01*
X133117809Y-72837812D01*
X133031649Y-72952906D01*
X133031645Y-72952913D01*
X132981403Y-73087620D01*
X132981401Y-73087627D01*
X132975000Y-73147155D01*
X132975000Y-73695000D01*
X133719670Y-73695000D01*
X133699925Y-73714745D01*
X133650556Y-73800255D01*
X133625000Y-73895630D01*
X133625000Y-73994370D01*
X133650556Y-74089745D01*
X133699925Y-74175255D01*
X133719670Y-74195000D01*
X132975000Y-74195000D01*
X132975000Y-74742844D01*
X132981401Y-74802372D01*
X132981403Y-74802379D01*
X133031645Y-74937086D01*
X133031649Y-74937093D01*
X133117809Y-75052187D01*
X133117812Y-75052190D01*
X133232906Y-75138350D01*
X133232913Y-75138354D01*
X133367620Y-75188596D01*
X133367627Y-75188598D01*
X133427155Y-75194999D01*
X133427172Y-75195000D01*
X133750000Y-75195000D01*
X133750000Y-74225330D01*
X133769745Y-74245075D01*
X133855255Y-74294444D01*
X133950630Y-74320000D01*
X134049370Y-74320000D01*
X134144745Y-74294444D01*
X134230255Y-74245075D01*
X134244500Y-74230830D01*
X134244500Y-74271002D01*
X134247617Y-74286671D01*
X134250000Y-74310865D01*
X134250000Y-75195000D01*
X134572828Y-75195000D01*
X134572844Y-75194999D01*
X134632372Y-75188598D01*
X134632376Y-75188597D01*
X134767089Y-75138352D01*
X134767896Y-75137748D01*
X134768845Y-75137393D01*
X134774876Y-75134101D01*
X134775349Y-75134967D01*
X134833360Y-75113329D01*
X134889661Y-75122451D01*
X134970873Y-75156091D01*
X135158827Y-75193477D01*
X135168992Y-75195499D01*
X135168996Y-75195500D01*
X135168997Y-75195500D01*
X135371004Y-75195500D01*
X135371005Y-75195499D01*
X135569127Y-75156091D01*
X135755756Y-75078786D01*
X135836110Y-75025094D01*
X135902786Y-75004217D01*
X135970166Y-75022701D01*
X135973865Y-75025078D01*
X136054244Y-75078786D01*
X136240873Y-75156091D01*
X136428827Y-75193477D01*
X136438992Y-75195499D01*
X136438996Y-75195500D01*
X136438997Y-75195500D01*
X136641004Y-75195500D01*
X136641005Y-75195499D01*
X136839127Y-75156091D01*
X137025756Y-75078786D01*
X137193718Y-74966558D01*
X137336558Y-74823718D01*
X137448786Y-74655756D01*
X137526091Y-74469127D01*
X137565500Y-74271003D01*
X137565500Y-73618997D01*
X137560837Y-73595556D01*
X137526092Y-73420880D01*
X137526091Y-73420873D01*
X137448786Y-73234244D01*
X137448782Y-73234239D01*
X137448780Y-73234234D01*
X137439906Y-73220952D01*
X137369111Y-73115000D01*
X141198391Y-73115000D01*
X142159314Y-73115000D01*
X142154920Y-73119394D01*
X142102259Y-73210606D01*
X142075000Y-73312339D01*
X142075000Y-73417661D01*
X142102259Y-73519394D01*
X142154920Y-73610606D01*
X142159314Y-73615000D01*
X141198391Y-73615000D01*
X141207009Y-73669413D01*
X141270244Y-73864029D01*
X141363140Y-74046349D01*
X141483417Y-74211894D01*
X141483417Y-74211895D01*
X141628104Y-74356582D01*
X141793650Y-74476859D01*
X141975968Y-74569754D01*
X142170578Y-74632988D01*
X142225000Y-74641607D01*
X142225000Y-73680686D01*
X142229394Y-73685080D01*
X142320606Y-73737741D01*
X142422339Y-73765000D01*
X142527661Y-73765000D01*
X142629394Y-73737741D01*
X142720606Y-73685080D01*
X142725000Y-73680686D01*
X142725000Y-74641606D01*
X142779421Y-74632988D01*
X142974031Y-74569754D01*
X143156349Y-74476859D01*
X143321894Y-74356582D01*
X143321895Y-74356582D01*
X143466582Y-74211895D01*
X143466582Y-74211894D01*
X143586859Y-74046349D01*
X143679755Y-73864029D01*
X143742990Y-73669413D01*
X143751609Y-73615000D01*
X142790686Y-73615000D01*
X142795080Y-73610606D01*
X142847741Y-73519394D01*
X142875000Y-73417661D01*
X142875000Y-73312339D01*
X142847741Y-73210606D01*
X142795080Y-73119394D01*
X142790686Y-73115000D01*
X143751609Y-73115000D01*
X143742990Y-73060586D01*
X143679755Y-72865970D01*
X143586859Y-72683650D01*
X143466582Y-72518105D01*
X143466582Y-72518104D01*
X143321895Y-72373417D01*
X143156349Y-72253140D01*
X142974029Y-72160244D01*
X142779413Y-72097009D01*
X142725000Y-72088390D01*
X142725000Y-73049314D01*
X142720606Y-73044920D01*
X142629394Y-72992259D01*
X142527661Y-72965000D01*
X142422339Y-72965000D01*
X142320606Y-72992259D01*
X142229394Y-73044920D01*
X142225000Y-73049314D01*
X142225000Y-72088390D01*
X142170586Y-72097009D01*
X141975970Y-72160244D01*
X141793650Y-72253140D01*
X141628105Y-72373417D01*
X141628104Y-72373417D01*
X141483417Y-72518104D01*
X141483417Y-72518105D01*
X141363140Y-72683650D01*
X141270244Y-72865970D01*
X141207009Y-73060586D01*
X141198391Y-73115000D01*
X137369111Y-73115000D01*
X137336558Y-73066282D01*
X137336555Y-73066278D01*
X137193718Y-72923441D01*
X137025762Y-72811217D01*
X137025752Y-72811212D01*
X136839127Y-72733909D01*
X136839119Y-72733907D01*
X136641007Y-72694500D01*
X136641003Y-72694500D01*
X136438997Y-72694500D01*
X136438992Y-72694500D01*
X136240880Y-72733907D01*
X136240872Y-72733909D01*
X136054235Y-72811217D01*
X136052947Y-72811906D01*
X136052194Y-72812062D01*
X136048616Y-72813545D01*
X136048334Y-72812866D01*
X135984544Y-72826145D01*
X135919301Y-72801141D01*
X135877934Y-72744834D01*
X135870500Y-72702545D01*
X135870500Y-71724500D01*
X135890185Y-71657461D01*
X135942989Y-71611706D01*
X135994500Y-71600500D01*
X149573838Y-71600500D01*
X149640877Y-71620185D01*
X149686632Y-71672989D01*
X149696576Y-71742147D01*
X149667551Y-71805703D01*
X149612156Y-71842431D01*
X149439744Y-71898450D01*
X149235961Y-72002283D01*
X149130396Y-72078980D01*
X149050934Y-72136714D01*
X149050932Y-72136716D01*
X149050931Y-72136716D01*
X148889216Y-72298431D01*
X148889216Y-72298432D01*
X148889214Y-72298434D01*
X148834736Y-72373417D01*
X148754783Y-72483461D01*
X148650950Y-72687244D01*
X148580278Y-72904750D01*
X148580278Y-72904753D01*
X148544500Y-73130646D01*
X148544500Y-73359353D01*
X148580278Y-73585246D01*
X148580278Y-73585249D01*
X148650950Y-73802755D01*
X148713718Y-73925943D01*
X148754783Y-74006538D01*
X148889214Y-74191566D01*
X149050934Y-74353286D01*
X149120423Y-74403773D01*
X149135438Y-74414682D01*
X149178103Y-74470013D01*
X149184082Y-74539626D01*
X149151476Y-74601421D01*
X149135438Y-74615318D01*
X149050932Y-74676715D01*
X148889216Y-74838431D01*
X148889216Y-74838432D01*
X148889214Y-74838434D01*
X148832157Y-74916966D01*
X148754783Y-75023461D01*
X148650950Y-75227244D01*
X148580278Y-75444750D01*
X148580278Y-75444753D01*
X148544500Y-75670646D01*
X148544500Y-75899353D01*
X148580278Y-76125246D01*
X148580278Y-76125249D01*
X148624295Y-76260718D01*
X148626290Y-76330559D01*
X148594045Y-76386717D01*
X142776477Y-82204286D01*
X142715154Y-82237771D01*
X142669398Y-82239078D01*
X142577357Y-82224500D01*
X142577352Y-82224500D01*
X142372648Y-82224500D01*
X142348329Y-82228351D01*
X142170465Y-82256522D01*
X141975776Y-82319781D01*
X141793386Y-82412715D01*
X141627786Y-82533028D01*
X141483028Y-82677786D01*
X141362715Y-82843386D01*
X141269781Y-83025776D01*
X141206522Y-83220465D01*
X141174500Y-83422648D01*
X141174500Y-83627351D01*
X141206522Y-83829534D01*
X141269781Y-84024223D01*
X141316950Y-84116795D01*
X141358320Y-84197989D01*
X141362715Y-84206613D01*
X141483028Y-84372213D01*
X141627786Y-84516971D01*
X141759624Y-84612755D01*
X141793390Y-84637287D01*
X141882416Y-84682648D01*
X141975776Y-84730218D01*
X141975778Y-84730218D01*
X141975781Y-84730220D01*
X142080137Y-84764127D01*
X142170465Y-84793477D01*
X142271557Y-84809488D01*
X142372648Y-84825500D01*
X142372649Y-84825500D01*
X142577351Y-84825500D01*
X142577352Y-84825500D01*
X142779534Y-84793477D01*
X142974219Y-84730220D01*
X143156610Y-84637287D01*
X143249590Y-84569732D01*
X143322213Y-84516971D01*
X143322215Y-84516968D01*
X143322219Y-84516966D01*
X143466966Y-84372219D01*
X143466968Y-84372215D01*
X143466971Y-84372213D01*
X143587284Y-84206614D01*
X143587285Y-84206613D01*
X143587287Y-84206610D01*
X143594117Y-84193204D01*
X143642091Y-84142409D01*
X143704602Y-84125500D01*
X148341649Y-84125500D01*
X148408688Y-84145185D01*
X148454443Y-84197989D01*
X148464121Y-84230099D01*
X148482282Y-84344761D01*
X148490278Y-84395246D01*
X148490278Y-84395249D01*
X148560950Y-84612755D01*
X148620801Y-84730218D01*
X148664783Y-84816538D01*
X148799214Y-85001566D01*
X148960934Y-85163286D01*
X149030423Y-85213773D01*
X149045438Y-85224682D01*
X149088103Y-85280013D01*
X149094082Y-85349626D01*
X149061476Y-85411421D01*
X149045438Y-85425318D01*
X148960932Y-85486715D01*
X148799216Y-85648431D01*
X148799216Y-85648432D01*
X148799214Y-85648434D01*
X148741480Y-85727896D01*
X148664783Y-85833461D01*
X148617227Y-85926795D01*
X148569252Y-85977591D01*
X148506742Y-85994500D01*
X133465098Y-85994500D01*
X133398059Y-85974815D01*
X133377417Y-85958181D01*
X129627159Y-82207923D01*
X129593674Y-82146600D01*
X129596909Y-82081924D01*
X129656090Y-81899785D01*
X129695500Y-81650962D01*
X129695500Y-81399038D01*
X129656090Y-81150215D01*
X129578241Y-80910621D01*
X129578239Y-80910618D01*
X129578239Y-80910616D01*
X129487475Y-80732483D01*
X129463870Y-80686155D01*
X129333234Y-80506349D01*
X129315798Y-80482350D01*
X129315794Y-80482345D01*
X129137654Y-80304205D01*
X129137649Y-80304201D01*
X128933848Y-80156132D01*
X128933847Y-80156131D01*
X128933845Y-80156130D01*
X128863747Y-80120413D01*
X128709383Y-80041760D01*
X128469785Y-79963910D01*
X128220962Y-79924500D01*
X127969038Y-79924500D01*
X127844626Y-79944205D01*
X127720214Y-79963910D01*
X127480616Y-80041760D01*
X127256151Y-80156132D01*
X127052350Y-80304201D01*
X127052345Y-80304205D01*
X126874205Y-80482345D01*
X126874201Y-80482350D01*
X126726132Y-80686151D01*
X126611760Y-80910616D01*
X126533910Y-81150214D01*
X126494500Y-81399038D01*
X126494500Y-81650961D01*
X126533910Y-81899786D01*
X126533910Y-81899789D01*
X126593090Y-82081924D01*
X126595085Y-82151765D01*
X126562840Y-82207923D01*
X124622584Y-84148181D01*
X124561261Y-84181666D01*
X124534903Y-84184500D01*
X123219061Y-84184500D01*
X123219057Y-84184499D01*
X123060943Y-84184499D01*
X123060939Y-84184500D01*
X111614602Y-84184500D01*
X111547563Y-84164815D01*
X111504117Y-84116795D01*
X111497284Y-84103385D01*
X111376971Y-83937786D01*
X111232213Y-83793028D01*
X111066613Y-83672715D01*
X111066612Y-83672714D01*
X111066610Y-83672713D01*
X111009653Y-83643691D01*
X110884223Y-83579781D01*
X110689534Y-83516522D01*
X110514995Y-83488878D01*
X110487352Y-83484500D01*
X110282648Y-83484500D01*
X110258329Y-83488351D01*
X110080465Y-83516522D01*
X109885776Y-83579781D01*
X109703386Y-83672715D01*
X109537786Y-83793028D01*
X109393028Y-83937786D01*
X109272715Y-84103386D01*
X109179781Y-84285776D01*
X109116522Y-84480465D01*
X109084500Y-84682648D01*
X109084500Y-84887351D01*
X109116522Y-85089534D01*
X109121173Y-85103848D01*
X109123165Y-85173690D01*
X109090921Y-85229842D01*
X103064076Y-91256687D01*
X103062573Y-91257507D01*
X103061713Y-91258988D01*
X103032028Y-91274186D01*
X103002753Y-91290172D01*
X103001044Y-91290049D01*
X102999521Y-91290830D01*
X102966340Y-91287567D01*
X102933061Y-91285188D01*
X102931143Y-91284107D01*
X102929987Y-91283994D01*
X102924506Y-91280368D01*
X102899471Y-91266262D01*
X102893816Y-91261789D01*
X102882510Y-91250483D01*
X102845808Y-91223817D01*
X102843834Y-91222256D01*
X102825057Y-91195730D01*
X102805207Y-91169989D01*
X102804982Y-91167371D01*
X102803465Y-91165228D01*
X102802009Y-91132760D01*
X102799228Y-91100375D01*
X102800453Y-91098052D01*
X102800336Y-91095429D01*
X102816660Y-91067336D01*
X102831833Y-91038580D01*
X102834928Y-91035897D01*
X102835440Y-91035018D01*
X102836671Y-91034387D01*
X102847873Y-91024682D01*
X102882510Y-90999517D01*
X103049517Y-90832510D01*
X103188343Y-90641433D01*
X103295568Y-90430992D01*
X103368553Y-90206368D01*
X103377118Y-90152291D01*
X103405500Y-89973097D01*
X103405500Y-89736902D01*
X103368553Y-89503631D01*
X103326758Y-89375000D01*
X103295568Y-89279008D01*
X103295566Y-89279005D01*
X103295566Y-89279003D01*
X103206084Y-89103386D01*
X103188343Y-89068567D01*
X103098449Y-88944839D01*
X103074970Y-88879035D01*
X103090795Y-88810981D01*
X103139744Y-88763410D01*
X103139546Y-88763047D01*
X103140851Y-88762334D01*
X103140901Y-88762286D01*
X103141111Y-88762192D01*
X103147326Y-88758797D01*
X103147331Y-88758796D01*
X103262546Y-88672546D01*
X103348796Y-88557331D01*
X103399091Y-88422483D01*
X103405500Y-88362873D01*
X103405500Y-88039500D01*
X103425185Y-87972461D01*
X103477989Y-87926706D01*
X103529500Y-87915500D01*
X104298331Y-87915500D01*
X104298347Y-87915501D01*
X104305943Y-87915501D01*
X104464054Y-87915501D01*
X104464057Y-87915501D01*
X104616785Y-87874577D01*
X104666904Y-87845639D01*
X104753716Y-87795520D01*
X104865520Y-87683716D01*
X104865520Y-87683714D01*
X104875728Y-87673507D01*
X104875730Y-87673504D01*
X110130158Y-82419075D01*
X110191479Y-82385592D01*
X110256151Y-82388825D01*
X110270466Y-82393477D01*
X110472648Y-82425500D01*
X110472649Y-82425500D01*
X110677351Y-82425500D01*
X110677352Y-82425500D01*
X110879534Y-82393477D01*
X111074219Y-82330220D01*
X111256610Y-82237287D01*
X111373474Y-82152381D01*
X111422213Y-82116971D01*
X111422215Y-82116968D01*
X111422219Y-82116966D01*
X111566966Y-81972219D01*
X111566968Y-81972215D01*
X111566971Y-81972213D01*
X111619732Y-81899590D01*
X111687287Y-81806610D01*
X111780220Y-81624219D01*
X111843477Y-81429534D01*
X111875500Y-81227352D01*
X111875500Y-81022648D01*
X111843477Y-80820466D01*
X111838825Y-80806151D01*
X111836832Y-80736312D01*
X111869075Y-80680158D01*
X112172098Y-80377135D01*
X116334500Y-80377135D01*
X116334500Y-82672870D01*
X116334501Y-82672876D01*
X116340908Y-82732483D01*
X116391202Y-82867328D01*
X116391206Y-82867335D01*
X116477452Y-82982544D01*
X116477455Y-82982547D01*
X116592664Y-83068793D01*
X116592671Y-83068797D01*
X116727517Y-83119091D01*
X116727516Y-83119091D01*
X116734444Y-83119835D01*
X116787127Y-83125500D01*
X119082872Y-83125499D01*
X119142483Y-83119091D01*
X119277331Y-83068796D01*
X119392546Y-82982546D01*
X119478796Y-82867331D01*
X119529091Y-82732483D01*
X119535500Y-82672873D01*
X119535499Y-80377128D01*
X119529091Y-80317517D01*
X119524124Y-80304201D01*
X119478797Y-80182671D01*
X119478793Y-80182664D01*
X119392547Y-80067455D01*
X119392544Y-80067452D01*
X119277335Y-79981206D01*
X119277328Y-79981202D01*
X119142482Y-79930908D01*
X119142483Y-79930908D01*
X119082883Y-79924501D01*
X119082881Y-79924500D01*
X119082873Y-79924500D01*
X119082864Y-79924500D01*
X116787129Y-79924500D01*
X116787123Y-79924501D01*
X116727516Y-79930908D01*
X116592671Y-79981202D01*
X116592664Y-79981206D01*
X116477455Y-80067452D01*
X116477452Y-80067455D01*
X116391206Y-80182664D01*
X116391202Y-80182671D01*
X116340908Y-80317517D01*
X116334501Y-80377116D01*
X116334501Y-80377123D01*
X116334500Y-80377135D01*
X112172098Y-80377135D01*
X117330159Y-75219075D01*
X117391480Y-75185592D01*
X117456154Y-75188826D01*
X117470466Y-75193477D01*
X117672648Y-75225500D01*
X117672649Y-75225500D01*
X117877351Y-75225500D01*
X117877352Y-75225500D01*
X118079534Y-75193477D01*
X118274219Y-75130220D01*
X118456610Y-75037287D01*
X118553961Y-74966558D01*
X118622213Y-74916971D01*
X118622215Y-74916968D01*
X118622219Y-74916966D01*
X118766966Y-74772219D01*
X118766968Y-74772215D01*
X118766971Y-74772213D01*
X118851576Y-74655762D01*
X118887287Y-74606610D01*
X118980220Y-74424219D01*
X119043477Y-74229534D01*
X119075500Y-74027352D01*
X119075500Y-73822648D01*
X119045983Y-73636290D01*
X119043477Y-73620465D01*
X118980218Y-73425776D01*
X118922418Y-73312339D01*
X118887287Y-73243390D01*
X118867921Y-73216735D01*
X118766971Y-73077786D01*
X118622213Y-72933028D01*
X118456613Y-72812715D01*
X118456612Y-72812714D01*
X118456610Y-72812713D01*
X118399653Y-72783691D01*
X118274223Y-72719781D01*
X118079534Y-72656522D01*
X117904995Y-72628878D01*
X117877352Y-72624500D01*
X117672648Y-72624500D01*
X117648329Y-72628351D01*
X117470465Y-72656522D01*
X117275776Y-72719781D01*
X117093386Y-72812715D01*
X116927786Y-72933028D01*
X116783028Y-73077786D01*
X116662715Y-73243386D01*
X116569781Y-73425776D01*
X116506522Y-73620465D01*
X116482329Y-73773216D01*
X116474500Y-73822648D01*
X116474500Y-74027352D01*
X116483482Y-74084061D01*
X116506523Y-74229535D01*
X116511172Y-74243845D01*
X116513165Y-74313687D01*
X116480921Y-74369841D01*
X111019842Y-79830921D01*
X110958519Y-79864406D01*
X110893848Y-79861173D01*
X110879534Y-79856522D01*
X110704995Y-79828878D01*
X110677352Y-79824500D01*
X110472648Y-79824500D01*
X110448329Y-79828351D01*
X110270465Y-79856522D01*
X110075776Y-79919781D01*
X109893386Y-80012715D01*
X109727786Y-80133028D01*
X109583028Y-80277786D01*
X109462715Y-80443386D01*
X109369781Y-80625776D01*
X109306522Y-80820465D01*
X109274500Y-81022648D01*
X109274500Y-81227351D01*
X109306522Y-81429534D01*
X109311173Y-81443848D01*
X109313165Y-81513690D01*
X109280921Y-81569842D01*
X104172584Y-86678181D01*
X104111261Y-86711666D01*
X104084903Y-86714500D01*
X103529499Y-86714500D01*
X103462460Y-86694815D01*
X103416705Y-86642011D01*
X103405499Y-86590500D01*
X103405499Y-86267129D01*
X103405498Y-86267123D01*
X103405497Y-86267116D01*
X103399091Y-86207517D01*
X103364390Y-86114480D01*
X103348797Y-86072671D01*
X103348793Y-86072664D01*
X103262547Y-85957455D01*
X103262544Y-85957452D01*
X103147335Y-85871206D01*
X103147328Y-85871202D01*
X103012482Y-85820908D01*
X103012483Y-85820908D01*
X102952883Y-85814501D01*
X102952881Y-85814500D01*
X102952873Y-85814500D01*
X102952865Y-85814500D01*
X102629500Y-85814500D01*
X102562461Y-85794815D01*
X102516706Y-85742011D01*
X102505500Y-85690500D01*
X102505500Y-83305945D01*
X102505500Y-83305943D01*
X102464577Y-83153216D01*
X102464577Y-83153215D01*
X102425822Y-83086090D01*
X102391000Y-83025776D01*
X102385522Y-83016287D01*
X102385521Y-83016286D01*
X102385520Y-83016284D01*
X102273716Y-82904480D01*
X102273715Y-82904479D01*
X102269385Y-82900149D01*
X102269374Y-82900139D01*
X99681818Y-80312583D01*
X99667114Y-80285655D01*
X99650522Y-80259837D01*
X99649630Y-80253636D01*
X99648333Y-80251260D01*
X99645499Y-80224902D01*
X99645499Y-79575000D01*
X104688391Y-79575000D01*
X105649314Y-79575000D01*
X105644920Y-79579394D01*
X105592259Y-79670606D01*
X105565000Y-79772339D01*
X105565000Y-79877661D01*
X105592259Y-79979394D01*
X105644920Y-80070606D01*
X105649314Y-80075000D01*
X104688391Y-80075000D01*
X104697009Y-80129413D01*
X104760244Y-80324029D01*
X104853140Y-80506349D01*
X104973417Y-80671894D01*
X104973417Y-80671895D01*
X105118104Y-80816582D01*
X105283650Y-80936859D01*
X105465968Y-81029754D01*
X105660578Y-81092988D01*
X105715000Y-81101607D01*
X105715000Y-80140686D01*
X105719394Y-80145080D01*
X105810606Y-80197741D01*
X105912339Y-80225000D01*
X106017661Y-80225000D01*
X106119394Y-80197741D01*
X106210606Y-80145080D01*
X106215000Y-80140686D01*
X106215000Y-81101606D01*
X106269421Y-81092988D01*
X106464031Y-81029754D01*
X106646349Y-80936859D01*
X106811894Y-80816582D01*
X106811895Y-80816582D01*
X106956582Y-80671895D01*
X106956582Y-80671894D01*
X107076859Y-80506349D01*
X107169755Y-80324029D01*
X107232990Y-80129413D01*
X107241609Y-80075000D01*
X106280686Y-80075000D01*
X106285080Y-80070606D01*
X106337741Y-79979394D01*
X106365000Y-79877661D01*
X106365000Y-79772339D01*
X106337741Y-79670606D01*
X106285080Y-79579394D01*
X106280686Y-79575000D01*
X107241609Y-79575000D01*
X107232990Y-79520586D01*
X107169755Y-79325970D01*
X107076859Y-79143650D01*
X106956582Y-78978105D01*
X106956582Y-78978104D01*
X106811895Y-78833417D01*
X106646349Y-78713140D01*
X106464029Y-78620244D01*
X106269413Y-78557009D01*
X106215000Y-78548390D01*
X106215000Y-79509314D01*
X106210606Y-79504920D01*
X106119394Y-79452259D01*
X106017661Y-79425000D01*
X105912339Y-79425000D01*
X105810606Y-79452259D01*
X105719394Y-79504920D01*
X105715000Y-79509314D01*
X105715000Y-78548390D01*
X105660586Y-78557009D01*
X105465970Y-78620244D01*
X105283650Y-78713140D01*
X105118105Y-78833417D01*
X105118104Y-78833417D01*
X104973417Y-78978104D01*
X104973417Y-78978105D01*
X104853140Y-79143650D01*
X104760244Y-79325970D01*
X104697009Y-79520586D01*
X104688391Y-79575000D01*
X99645499Y-79575000D01*
X99645499Y-78977129D01*
X99645498Y-78977123D01*
X99645497Y-78977116D01*
X99639091Y-78917517D01*
X99588796Y-78782669D01*
X99588795Y-78782668D01*
X99588793Y-78782664D01*
X99502547Y-78667455D01*
X99502544Y-78667452D01*
X99387335Y-78581206D01*
X99387328Y-78581202D01*
X99252482Y-78530908D01*
X99252483Y-78530908D01*
X99192883Y-78524501D01*
X99192881Y-78524500D01*
X99192873Y-78524500D01*
X99192865Y-78524500D01*
X99069500Y-78524500D01*
X99002461Y-78504815D01*
X98956706Y-78452011D01*
X98945500Y-78400500D01*
X98945500Y-74549138D01*
X98965185Y-74482099D01*
X99017989Y-74436344D01*
X99031184Y-74431206D01*
X99034219Y-74430220D01*
X99216610Y-74337287D01*
X99325501Y-74258174D01*
X99382213Y-74216971D01*
X99382215Y-74216968D01*
X99382219Y-74216966D01*
X99526966Y-74072219D01*
X99526968Y-74072215D01*
X99526971Y-74072213D01*
X99583526Y-73994370D01*
X99647287Y-73906610D01*
X99740220Y-73724219D01*
X99803477Y-73529534D01*
X99835500Y-73327352D01*
X99835500Y-73122648D01*
X99805467Y-72933028D01*
X99803477Y-72920465D01*
X99764706Y-72801141D01*
X99740220Y-72725781D01*
X99740218Y-72725778D01*
X99740218Y-72725776D01*
X99647287Y-72543390D01*
X99577032Y-72446691D01*
X99577031Y-72446688D01*
X99526971Y-72377787D01*
X99526967Y-72377782D01*
X99526320Y-72377135D01*
X104854500Y-72377135D01*
X104854500Y-74072870D01*
X104854501Y-74072876D01*
X104860908Y-74132483D01*
X104911202Y-74267328D01*
X104911206Y-74267335D01*
X104997452Y-74382544D01*
X104997455Y-74382547D01*
X105112664Y-74468793D01*
X105112671Y-74468797D01*
X105247517Y-74519091D01*
X105247516Y-74519091D01*
X105254444Y-74519835D01*
X105307127Y-74525500D01*
X107002872Y-74525499D01*
X107062483Y-74519091D01*
X107197331Y-74468796D01*
X107312546Y-74382546D01*
X107398796Y-74267331D01*
X107449091Y-74132483D01*
X107455500Y-74072873D01*
X107455499Y-72377128D01*
X107449091Y-72317517D01*
X107441972Y-72298431D01*
X107398797Y-72182671D01*
X107398793Y-72182664D01*
X107312547Y-72067455D01*
X107312544Y-72067452D01*
X107197335Y-71981206D01*
X107197328Y-71981202D01*
X107062482Y-71930908D01*
X107062483Y-71930908D01*
X107002883Y-71924501D01*
X107002881Y-71924500D01*
X107002873Y-71924500D01*
X107002864Y-71924500D01*
X105307129Y-71924500D01*
X105307123Y-71924501D01*
X105247516Y-71930908D01*
X105112671Y-71981202D01*
X105112664Y-71981206D01*
X104997455Y-72067452D01*
X104997452Y-72067455D01*
X104911206Y-72182664D01*
X104911202Y-72182671D01*
X104860908Y-72317517D01*
X104854899Y-72373417D01*
X104854501Y-72377123D01*
X104854500Y-72377135D01*
X99526320Y-72377135D01*
X99382213Y-72233028D01*
X99216613Y-72112715D01*
X99216612Y-72112714D01*
X99216610Y-72112713D01*
X99146243Y-72076859D01*
X99034223Y-72019781D01*
X98839534Y-71956522D01*
X98664995Y-71928878D01*
X98637352Y-71924500D01*
X98432648Y-71924500D01*
X98408329Y-71928351D01*
X98230465Y-71956522D01*
X98035776Y-72019781D01*
X97853386Y-72112715D01*
X97687786Y-72233028D01*
X97543028Y-72377786D01*
X97422715Y-72543386D01*
X97329781Y-72725776D01*
X97266522Y-72920465D01*
X97234500Y-73122648D01*
X97234500Y-73327351D01*
X97266522Y-73529534D01*
X97329781Y-73724223D01*
X97379932Y-73822648D01*
X97417118Y-73895630D01*
X97422715Y-73906613D01*
X97543028Y-74072213D01*
X97543034Y-74072219D01*
X97687781Y-74216966D01*
X97693381Y-74221034D01*
X97736049Y-74276360D01*
X97744500Y-74321355D01*
X97744500Y-78400500D01*
X97724815Y-78467539D01*
X97672011Y-78513294D01*
X97620501Y-78524500D01*
X97497130Y-78524500D01*
X97497123Y-78524501D01*
X97437516Y-78530908D01*
X97302671Y-78581202D01*
X97302664Y-78581206D01*
X97187455Y-78667452D01*
X97187452Y-78667455D01*
X97101206Y-78782664D01*
X97101202Y-78782671D01*
X97050908Y-78917517D01*
X97044501Y-78977116D01*
X97044501Y-78977123D01*
X97044500Y-78977135D01*
X97044500Y-80672870D01*
X97044501Y-80672876D01*
X97050908Y-80732483D01*
X97101202Y-80867328D01*
X97101206Y-80867335D01*
X97187452Y-80982544D01*
X97187455Y-80982547D01*
X97302664Y-81068793D01*
X97302671Y-81068797D01*
X97437517Y-81119091D01*
X97437516Y-81119091D01*
X97444444Y-81119835D01*
X97497127Y-81125500D01*
X98744902Y-81125499D01*
X98811941Y-81145184D01*
X98832583Y-81161818D01*
X101268181Y-83597416D01*
X101301666Y-83658739D01*
X101304500Y-83685097D01*
X101304500Y-85690500D01*
X101284815Y-85757539D01*
X101232011Y-85803294D01*
X101180500Y-85814500D01*
X100857130Y-85814500D01*
X100857123Y-85814501D01*
X100797516Y-85820908D01*
X100662671Y-85871202D01*
X100662664Y-85871206D01*
X100547455Y-85957452D01*
X100547452Y-85957455D01*
X100461206Y-86072664D01*
X100461202Y-86072671D01*
X100410908Y-86207517D01*
X100404501Y-86267116D01*
X100404501Y-86267123D01*
X100404500Y-86267135D01*
X100404500Y-88362870D01*
X100404501Y-88362876D01*
X100410908Y-88422483D01*
X100461202Y-88557328D01*
X100461206Y-88557335D01*
X100547452Y-88672544D01*
X100547455Y-88672547D01*
X100662664Y-88758793D01*
X100670454Y-88763047D01*
X100668646Y-88766357D01*
X100710351Y-88797449D01*
X100734897Y-88862865D01*
X100720180Y-88931167D01*
X100711549Y-88944840D01*
X100621659Y-89068563D01*
X100514433Y-89279003D01*
X100441446Y-89503631D01*
X100404500Y-89736902D01*
X100404500Y-89973097D01*
X100441447Y-90206369D01*
X100441447Y-90206372D01*
X100482450Y-90332564D01*
X100484445Y-90402405D01*
X100452200Y-90458563D01*
X97856286Y-93054478D01*
X97744481Y-93166282D01*
X97744479Y-93166285D01*
X97694361Y-93253094D01*
X97694359Y-93253096D01*
X97665425Y-93303209D01*
X97665424Y-93303210D01*
X97665423Y-93303215D01*
X97624499Y-93455943D01*
X97624499Y-93455945D01*
X97624499Y-93624046D01*
X97624500Y-93624059D01*
X97624500Y-106145397D01*
X97604815Y-106212436D01*
X97556800Y-106255879D01*
X97543389Y-106262712D01*
X97377786Y-106383028D01*
X97233028Y-106527786D01*
X97112715Y-106693386D01*
X97019781Y-106875776D01*
X96956522Y-107070465D01*
X96924500Y-107272648D01*
X95400500Y-107272648D01*
X95400500Y-69624500D01*
X95420185Y-69557461D01*
X95472989Y-69511706D01*
X95524500Y-69500500D01*
X110092474Y-69500500D01*
X110159513Y-69520185D01*
G37*
%TD.AperFunction*%
%TD*%
M02*
