%TF.GenerationSoftware,KiCad,Pcbnew,9.0.0*%
%TF.CreationDate,2025-04-05T16:30:54-04:00*%
%TF.ProjectId,h-bridge,682d6272-6964-4676-952e-6b696361645f,rev?*%
%TF.SameCoordinates,Original*%
%TF.FileFunction,Soldermask,Bot*%
%TF.FilePolarity,Negative*%
%FSLAX46Y46*%
G04 Gerber Fmt 4.6, Leading zero omitted, Abs format (unit mm)*
G04 Created by KiCad (PCBNEW 9.0.0) date 2025-04-05 16:30:54*
%MOMM*%
%LPD*%
G01*
G04 APERTURE LIST*
%ADD10O,2.000000X1.905000*%
%ADD11R,2.000000X1.905000*%
%ADD12O,1.600000X1.600000*%
%ADD13C,1.600000*%
%ADD14O,2.200000X2.200000*%
%ADD15R,2.200000X2.200000*%
%ADD16O,1.050000X1.500000*%
%ADD17R,1.050000X1.500000*%
%ADD18R,1.600000X1.600000*%
%ADD19C,2.000000*%
%ADD20R,2.000000X2.000000*%
G04 APERTURE END LIST*
D10*
%TO.C,Q5*%
X150045000Y-110045000D03*
X150045000Y-112585000D03*
D11*
X150045000Y-115125000D03*
%TD*%
D12*
%TO.C,R5*%
X143235000Y-89425000D03*
D13*
X133075000Y-89425000D03*
%TD*%
D10*
%TO.C,Q6*%
X150045000Y-99165000D03*
X150045000Y-101705000D03*
D11*
X150045000Y-104245000D03*
%TD*%
D12*
%TO.C,R8*%
X143435000Y-100325000D03*
D13*
X133275000Y-100325000D03*
%TD*%
D10*
%TO.C,Q4*%
X149955000Y-84055000D03*
X149955000Y-86595000D03*
D11*
X149955000Y-89135000D03*
%TD*%
%TO.C,Q2*%
X150045000Y-78325000D03*
D10*
X150045000Y-75785000D03*
X150045000Y-73245000D03*
%TD*%
D14*
%TO.C,D5*%
X128095000Y-81525000D03*
D15*
X117935000Y-81525000D03*
%TD*%
D16*
%TO.C,Q8*%
X133375000Y-115575000D03*
X134645000Y-115575000D03*
D17*
X135915000Y-115575000D03*
%TD*%
D16*
%TO.C,Q1*%
X136540000Y-73945000D03*
X135270000Y-73945000D03*
D17*
X134000000Y-73945000D03*
%TD*%
D12*
%TO.C,R3*%
X127935000Y-73925000D03*
D13*
X117775000Y-73925000D03*
%TD*%
D14*
%TO.C,D7*%
X128095000Y-101825000D03*
D15*
X117935000Y-101825000D03*
%TD*%
D12*
%TO.C,R4*%
X127735000Y-115925000D03*
D13*
X117575000Y-115925000D03*
%TD*%
%TO.C,C2*%
X109910302Y-97425000D03*
D18*
X113710302Y-97425000D03*
%TD*%
D12*
%TO.C,D1*%
X98535000Y-73225000D03*
D18*
X106155000Y-73225000D03*
%TD*%
D12*
%TO.C,R1*%
X110575000Y-70965000D03*
D13*
X110575000Y-81125000D03*
%TD*%
D12*
%TO.C,D3*%
X98225000Y-107375000D03*
D18*
X105845000Y-107375000D03*
%TD*%
D19*
%TO.C,J1*%
X101905000Y-100015000D03*
X101905000Y-97475000D03*
X101905000Y-94935000D03*
X101905000Y-92395000D03*
X101905000Y-89855000D03*
D20*
X101905000Y-87315000D03*
%TD*%
D18*
%TO.C,D4*%
X98345000Y-113925000D03*
D12*
X105965000Y-113925000D03*
%TD*%
D18*
%TO.C,D2*%
X98345000Y-79825000D03*
D12*
X105965000Y-79825000D03*
%TD*%
D13*
%TO.C,R6*%
X141575000Y-105460000D03*
D12*
X141575000Y-115620000D03*
%TD*%
D13*
%TO.C,R2*%
X111075000Y-104975000D03*
D12*
X111075000Y-115135000D03*
%TD*%
D15*
%TO.C,D6*%
X128280000Y-89925000D03*
D14*
X118120000Y-89925000D03*
%TD*%
D11*
%TO.C,Q3*%
X157085000Y-97755000D03*
D10*
X157085000Y-100295000D03*
X157085000Y-102835000D03*
%TD*%
D13*
%TO.C,C1*%
X110385000Y-84785000D03*
X110385000Y-89785000D03*
%TD*%
%TO.C,R7*%
X142475000Y-83525000D03*
D12*
X142475000Y-73365000D03*
%TD*%
D11*
%TO.C,Q7*%
X157005000Y-86755000D03*
D10*
X157005000Y-89295000D03*
X157005000Y-91835000D03*
%TD*%
D15*
%TO.C,D8*%
X128035000Y-108875000D03*
D14*
X117875000Y-108875000D03*
%TD*%
M02*
