M48
; DRILL file {KiCad 9.0.1} date 2025-04-11T16:43:36-0400
; FORMAT={-:-/ absolute / metric / decimal}
; #@! TF.CreationDate,2025-04-11T16:43:36-04:00
; #@! TF.GenerationSoftware,Kicad,Pcbnew,9.0.1
; #@! TF.FileFunction,Plated,1,2,PTH
FMAT,2
METRIC
; #@! TA.AperFunction,Plated,PTH,ComponentDrill
T1C0.750
; #@! TA.AperFunction,Plated,PTH,ComponentDrill
T2C0.800
; #@! TA.AperFunction,Plated,PTH,ComponentDrill
T3C1.100
; #@! TA.AperFunction,Plated,PTH,ComponentDrill
T4C1.200
%
G90
G05
T1
X133.575Y-110.875
X133.6Y-77.945
X134.845Y-112.145
X134.87Y-76.675
X136.115Y-110.875
X136.14Y-77.945
T2
X98.225Y-107.375
X98.345Y-79.825
X98.345Y-113.925
X98.535Y-73.225
X105.845Y-107.375
X105.965Y-79.825
X105.965Y-113.925
X106.155Y-73.225
X109.91Y-97.425
X110.385Y-84.785
X110.385Y-89.785
X110.575Y-70.965
X110.575Y-81.125
X111.075Y-104.975
X111.075Y-115.135
X113.71Y-97.425
X117.575Y-115.925
X117.775Y-73.925
X127.735Y-115.925
X127.935Y-73.925
X133.365Y-100.175
X133.415Y-89.225
X141.575Y-105.46
X141.575Y-115.62
X142.475Y-73.365
X142.475Y-83.525
X143.525Y-100.175
X143.575Y-89.225
T3
X117.875Y-108.875
X117.935Y-81.525
X117.935Y-101.825
X118.12Y-89.925
X128.035Y-108.875
X128.095Y-81.525
X128.095Y-101.825
X128.28Y-89.925
X149.955Y-84.055
X149.955Y-86.595
X149.955Y-89.135
X150.045Y-73.245
X150.045Y-75.785
X150.045Y-78.325
X150.045Y-99.165
X150.045Y-101.705
X150.045Y-104.245
X150.045Y-110.045
X150.045Y-112.585
X150.045Y-115.125
X157.005Y-86.755
X157.005Y-89.295
X157.005Y-91.835
X157.085Y-97.755
X157.085Y-100.295
X157.085Y-102.835
T4
X101.905Y-87.315
X101.905Y-89.855
X101.905Y-92.395
X101.905Y-94.935
X101.905Y-97.475
X101.905Y-100.015
M30
