%TF.GenerationSoftware,KiCad,Pcbnew,9.0.1*%
%TF.CreationDate,2025-04-11T16:43:42-04:00*%
%TF.ProjectId,h-bridge,682d6272-6964-4676-952e-6b696361645f,rev?*%
%TF.SameCoordinates,Original*%
%TF.FileFunction,Copper,L1,Top*%
%TF.FilePolarity,Positive*%
%FSLAX46Y46*%
G04 Gerber Fmt 4.6, Leading zero omitted, Abs format (unit mm)*
G04 Created by KiCad (PCBNEW 9.0.1) date 2025-04-11 16:43:42*
%MOMM*%
%LPD*%
G01*
G04 APERTURE LIST*
G04 Aperture macros list*
%AMRoundRect*
0 Rectangle with rounded corners*
0 $1 Rounding radius*
0 $2 $3 $4 $5 $6 $7 $8 $9 X,Y pos of 4 corners*
0 Add a 4 corners polygon primitive as box body*
4,1,4,$2,$3,$4,$5,$6,$7,$8,$9,$2,$3,0*
0 Add four circle primitives for the rounded corners*
1,1,$1+$1,$2,$3*
1,1,$1+$1,$4,$5*
1,1,$1+$1,$6,$7*
1,1,$1+$1,$8,$9*
0 Add four rect primitives between the rounded corners*
20,1,$1+$1,$2,$3,$4,$5,0*
20,1,$1+$1,$4,$5,$6,$7,0*
20,1,$1+$1,$6,$7,$8,$9,0*
20,1,$1+$1,$8,$9,$2,$3,0*%
G04 Aperture macros list end*
%TA.AperFunction,ComponentPad*%
%ADD10R,1.100000X1.800000*%
%TD*%
%TA.AperFunction,ComponentPad*%
%ADD11RoundRect,0.275000X0.275000X0.625000X-0.275000X0.625000X-0.275000X-0.625000X0.275000X-0.625000X0*%
%TD*%
%TA.AperFunction,ComponentPad*%
%ADD12RoundRect,0.275000X-0.275000X-0.625000X0.275000X-0.625000X0.275000X0.625000X-0.275000X0.625000X0*%
%TD*%
%TA.AperFunction,ComponentPad*%
%ADD13R,1.600000X1.600000*%
%TD*%
%TA.AperFunction,ComponentPad*%
%ADD14O,1.600000X1.600000*%
%TD*%
%TA.AperFunction,ComponentPad*%
%ADD15C,1.600000*%
%TD*%
%TA.AperFunction,ComponentPad*%
%ADD16R,2.200000X2.200000*%
%TD*%
%TA.AperFunction,ComponentPad*%
%ADD17O,2.200000X2.200000*%
%TD*%
%TA.AperFunction,ComponentPad*%
%ADD18R,2.000000X1.905000*%
%TD*%
%TA.AperFunction,ComponentPad*%
%ADD19O,2.000000X1.905000*%
%TD*%
%TA.AperFunction,ComponentPad*%
%ADD20R,2.000000X2.000000*%
%TD*%
%TA.AperFunction,ComponentPad*%
%ADD21C,2.000000*%
%TD*%
%TA.AperFunction,Conductor*%
%ADD22C,0.500000*%
%TD*%
G04 APERTURE END LIST*
D10*
%TO.P,Q8,1,E*%
%TO.N,GND*%
X136115000Y-110475000D03*
D11*
%TO.P,Q8,2,B*%
%TO.N,Net-(Q8-B)*%
X134845000Y-112545000D03*
%TO.P,Q8,3,C*%
%TO.N,Net-(Q6-G)*%
X133575000Y-110475000D03*
%TD*%
D10*
%TO.P,Q1,1,E*%
%TO.N,GND*%
X133600000Y-78345000D03*
D12*
%TO.P,Q1,2,B*%
%TO.N,Net-(Q1-B)*%
X134870000Y-76275000D03*
%TO.P,Q1,3,C*%
%TO.N,Net-(Q1-C)*%
X136140000Y-78345000D03*
%TD*%
D13*
%TO.P,D2,1,K*%
%TO.N,Vf*%
X98345000Y-79825000D03*
D14*
%TO.P,D2,2,A*%
%TO.N,GND*%
X105965000Y-79825000D03*
%TD*%
D15*
%TO.P,R1,1*%
%TO.N,Vf*%
X110575000Y-81125000D03*
D14*
%TO.P,R1,2*%
%TO.N,GND*%
X110575000Y-70965000D03*
%TD*%
D13*
%TO.P,C2,1*%
%TO.N,Vcc*%
X113710302Y-97425000D03*
D15*
%TO.P,C2,2*%
%TO.N,GND*%
X109910302Y-97425000D03*
%TD*%
D13*
%TO.P,D4,1,K*%
%TO.N,Vr*%
X98345000Y-113925000D03*
D14*
%TO.P,D4,2,A*%
%TO.N,GND*%
X105965000Y-113925000D03*
%TD*%
D15*
%TO.P,R6,1*%
%TO.N,Net-(Q4-G)*%
X141575000Y-105460000D03*
D14*
%TO.P,R6,2*%
%TO.N,GND*%
X141575000Y-115620000D03*
%TD*%
D16*
%TO.P,D8,1,K*%
%TO.N,M-*%
X128035000Y-108875000D03*
D17*
%TO.P,D8,2,A*%
%TO.N,GND*%
X117875000Y-108875000D03*
%TD*%
D15*
%TO.P,R5,1*%
%TO.N,Vcc*%
X143575000Y-89225000D03*
D14*
%TO.P,R5,2*%
%TO.N,Net-(Q1-C)*%
X133415000Y-89225000D03*
%TD*%
D15*
%TO.P,R2,1*%
%TO.N,Vr*%
X111075000Y-104975000D03*
D14*
%TO.P,R2,2*%
%TO.N,GND*%
X111075000Y-115135000D03*
%TD*%
D18*
%TO.P,Q6,1,G*%
%TO.N,Net-(Q6-G)*%
X150045000Y-104245000D03*
D19*
%TO.P,Q6,2,D*%
%TO.N,Net-(Q4-G)*%
X150045000Y-101705000D03*
%TO.P,Q6,3,S*%
%TO.N,Vcc*%
X150045000Y-99165000D03*
%TD*%
D16*
%TO.P,D6,1,K*%
%TO.N,M+*%
X128280000Y-89925000D03*
D17*
%TO.P,D6,2,A*%
%TO.N,GND*%
X118120000Y-89925000D03*
%TD*%
D15*
%TO.P,R8,1*%
%TO.N,Vcc*%
X143525000Y-100175000D03*
D14*
%TO.P,R8,2*%
%TO.N,Net-(Q6-G)*%
X133365000Y-100175000D03*
%TD*%
D18*
%TO.P,Q4,1,G*%
%TO.N,Net-(Q4-G)*%
X149955000Y-89135000D03*
D19*
%TO.P,Q4,2,D*%
%TO.N,M+*%
X149955000Y-86595000D03*
%TO.P,Q4,3,S*%
%TO.N,Net-(Q2-D)*%
X149955000Y-84055000D03*
%TD*%
D18*
%TO.P,Q3,1,G*%
%TO.N,Vr*%
X157085000Y-97755000D03*
D19*
%TO.P,Q3,2,D*%
%TO.N,M+*%
X157085000Y-100295000D03*
%TO.P,Q3,3,S*%
%TO.N,GND*%
X157085000Y-102835000D03*
%TD*%
D18*
%TO.P,Q2,1,G*%
%TO.N,Net-(Q1-C)*%
X150045000Y-78325000D03*
D19*
%TO.P,Q2,2,D*%
%TO.N,Net-(Q2-D)*%
X150045000Y-75785000D03*
%TO.P,Q2,3,S*%
%TO.N,Vcc*%
X150045000Y-73245000D03*
%TD*%
D16*
%TO.P,D5,1,K*%
%TO.N,Vcc*%
X117935000Y-81525000D03*
D17*
%TO.P,D5,2,A*%
%TO.N,M+*%
X128095000Y-81525000D03*
%TD*%
D20*
%TO.P,J1,1,Pin_1*%
%TO.N,Vf*%
X101905000Y-87315000D03*
D21*
%TO.P,J1,2,Pin_2*%
%TO.N,Vr*%
X101905000Y-89855000D03*
%TO.P,J1,3,Pin_3*%
%TO.N,M+*%
X101905000Y-92395000D03*
%TO.P,J1,4,Pin_4*%
%TO.N,M-*%
X101905000Y-94935000D03*
%TO.P,J1,5,Pin_5*%
%TO.N,Vcc*%
X101905000Y-97475000D03*
%TO.P,J1,6,Pin_6*%
%TO.N,GND*%
X101905000Y-100015000D03*
%TD*%
D18*
%TO.P,Q5,1,G*%
%TO.N,Net-(Q2-D)*%
X150045000Y-115125000D03*
D19*
%TO.P,Q5,2,D*%
%TO.N,M-*%
X150045000Y-112585000D03*
%TO.P,Q5,3,S*%
%TO.N,Net-(Q4-G)*%
X150045000Y-110045000D03*
%TD*%
D15*
%TO.P,C1,1*%
%TO.N,M+*%
X110385000Y-84785000D03*
%TO.P,C1,2*%
%TO.N,M-*%
X110385000Y-89785000D03*
%TD*%
%TO.P,R7,1*%
%TO.N,Net-(Q2-D)*%
X142475000Y-83525000D03*
D14*
%TO.P,R7,2*%
%TO.N,GND*%
X142475000Y-73365000D03*
%TD*%
D13*
%TO.P,D3,1,K*%
%TO.N,Vcc*%
X105845000Y-107375000D03*
D14*
%TO.P,D3,2,A*%
%TO.N,Vr*%
X98225000Y-107375000D03*
%TD*%
D18*
%TO.P,Q7,1,G*%
%TO.N,Vf*%
X157005000Y-86755000D03*
D19*
%TO.P,Q7,2,D*%
%TO.N,M-*%
X157005000Y-89295000D03*
%TO.P,Q7,3,S*%
%TO.N,GND*%
X157005000Y-91835000D03*
%TD*%
D15*
%TO.P,R3,1*%
%TO.N,Vf*%
X117775000Y-73925000D03*
D14*
%TO.P,R3,2*%
%TO.N,Net-(Q1-B)*%
X127935000Y-73925000D03*
%TD*%
D16*
%TO.P,D7,1,K*%
%TO.N,Vcc*%
X117935000Y-101825000D03*
D17*
%TO.P,D7,2,A*%
%TO.N,M-*%
X128095000Y-101825000D03*
%TD*%
D15*
%TO.P,R4,1*%
%TO.N,Net-(Q8-B)*%
X117575000Y-115925000D03*
D14*
%TO.P,R4,2*%
%TO.N,Vr*%
X127735000Y-115925000D03*
%TD*%
D13*
%TO.P,D1,1,K*%
%TO.N,Vcc*%
X106155000Y-73225000D03*
D14*
%TO.P,D1,2,A*%
%TO.N,Vf*%
X98535000Y-73225000D03*
%TD*%
D22*
%TO.N,Net-(Q2-D)*%
X142475000Y-83525000D02*
X149425000Y-83525000D01*
X149425000Y-83525000D02*
X149955000Y-84055000D01*
%TO.N,Net-(Q4-G)*%
X141575000Y-105460000D02*
X145460000Y-105460000D01*
X145460000Y-105460000D02*
X150045000Y-110045000D01*
X141575000Y-105460000D02*
X145330000Y-101705000D01*
X145330000Y-101705000D02*
X150045000Y-101705000D01*
%TO.N,Net-(Q1-C)*%
X136140000Y-77945000D02*
X136520000Y-78325000D01*
X136520000Y-78325000D02*
X150045000Y-78325000D01*
%TO.N,Net-(Q1-B)*%
X127935000Y-73925000D02*
X132120000Y-73925000D01*
X132120000Y-73925000D02*
X134870000Y-76675000D01*
%TO.N,M+*%
X124975000Y-84925000D02*
X124835000Y-84785000D01*
X124975000Y-84925000D02*
X126645000Y-86595000D01*
X126645000Y-86595000D02*
X149955000Y-86595000D01*
%TO.N,M-*%
X132900000Y-96200000D02*
X150100000Y-96200000D01*
X150100000Y-96200000D02*
X157005000Y-89295000D01*
X128095000Y-101825000D02*
X128095000Y-101005000D01*
X128095000Y-101005000D02*
X132900000Y-96200000D01*
X128095000Y-101825000D02*
X131425000Y-101825000D01*
X131425000Y-101825000D02*
X142185000Y-112585000D01*
X142185000Y-112585000D02*
X150045000Y-112585000D01*
X128095000Y-101825000D02*
X128095000Y-108815000D01*
X128095000Y-108815000D02*
X128035000Y-108875000D01*
X113785000Y-89785000D02*
X119200000Y-95200000D01*
X110385000Y-89785000D02*
X113785000Y-89785000D01*
X121470000Y-95200000D02*
X128095000Y-101825000D01*
X119200000Y-95200000D02*
X121470000Y-95200000D01*
X101905000Y-94935000D02*
X107055000Y-89785000D01*
X107055000Y-89785000D02*
X110385000Y-89785000D01*
%TO.N,M+*%
X128280000Y-89925000D02*
X128280000Y-88230000D01*
X128280000Y-88230000D02*
X124975000Y-84925000D01*
X110385000Y-84785000D02*
X124835000Y-84785000D01*
X124835000Y-84785000D02*
X128095000Y-81525000D01*
X101905000Y-92395000D02*
X109515000Y-84785000D01*
X109515000Y-84785000D02*
X110385000Y-84785000D01*
%TO.N,Vf*%
X117775000Y-73925000D02*
X121300000Y-70400000D01*
X121300000Y-70400000D02*
X152600000Y-70400000D01*
X152600000Y-70400000D02*
X157005000Y-74805000D01*
X157005000Y-74805000D02*
X157005000Y-86755000D01*
%TO.N,Vr*%
X124510000Y-112700000D02*
X128000000Y-112700000D01*
X128000000Y-112700000D02*
X133000000Y-117700000D01*
X133000000Y-117700000D02*
X152400000Y-117700000D01*
X152400000Y-117700000D02*
X154600000Y-115500000D01*
X154600000Y-115500000D02*
X154600000Y-100240000D01*
X154600000Y-100240000D02*
X157085000Y-97755000D01*
X111075000Y-109475000D02*
X114300000Y-112700000D01*
X111075000Y-104975000D02*
X111075000Y-109475000D01*
X114300000Y-112700000D02*
X124510000Y-112700000D01*
X124510000Y-112700000D02*
X127735000Y-115925000D01*
%TO.N,Vf*%
X110575000Y-81125000D02*
X117775000Y-73925000D01*
%TO.N,Vr*%
X98225000Y-93535000D02*
X98225000Y-102000000D01*
X101200000Y-104975000D02*
X98225000Y-102000000D01*
X111075000Y-104975000D02*
X101200000Y-104975000D01*
X98225000Y-107375000D02*
X98225000Y-113805000D01*
X98225000Y-113805000D02*
X98345000Y-113925000D01*
X101905000Y-89855000D02*
X98225000Y-93535000D01*
X98225000Y-102000000D02*
X98225000Y-107375000D01*
%TO.N,Vf*%
X98345000Y-79825000D02*
X98345000Y-79545000D01*
X98345000Y-79545000D02*
X98535000Y-79355000D01*
X98535000Y-79355000D02*
X98535000Y-73225000D01*
X110575000Y-81125000D02*
X107975000Y-81125000D01*
X107975000Y-81125000D02*
X105715000Y-83385000D01*
X105715000Y-83385000D02*
X101905000Y-83385000D01*
X101905000Y-87315000D02*
X101905000Y-83385000D01*
X101905000Y-83385000D02*
X98345000Y-79825000D01*
%TD*%
%TA.AperFunction,Conductor*%
%TO.N,GND*%
G36*
X161506068Y-69501097D02*
G01*
X161643826Y-69514665D01*
X161667652Y-69519404D01*
X161794277Y-69557815D01*
X161816725Y-69567114D01*
X161914297Y-69619268D01*
X161933406Y-69629482D01*
X161953618Y-69642987D01*
X162055891Y-69726920D01*
X162073079Y-69744108D01*
X162157012Y-69846381D01*
X162170517Y-69866593D01*
X162232883Y-69983271D01*
X162242186Y-70005728D01*
X162280593Y-70132338D01*
X162285335Y-70156180D01*
X162298900Y-70293913D01*
X162299497Y-70306117D01*
X162280290Y-118106817D01*
X162280290Y-118106822D01*
X162280286Y-118114777D01*
X162280259Y-118114884D01*
X162280260Y-118173013D01*
X162280260Y-118174744D01*
X162280256Y-118174755D01*
X162279663Y-118186840D01*
X162266099Y-118324594D01*
X162261357Y-118348436D01*
X162222955Y-118475039D01*
X162213653Y-118497497D01*
X162151287Y-118614180D01*
X162137781Y-118634394D01*
X162053851Y-118736663D01*
X162036663Y-118753851D01*
X161934394Y-118837781D01*
X161914180Y-118851287D01*
X161797497Y-118913653D01*
X161775039Y-118922955D01*
X161648436Y-118961357D01*
X161624594Y-118966099D01*
X161486840Y-118979663D01*
X161474691Y-118980260D01*
X161456557Y-118980260D01*
X161414884Y-118980259D01*
X161414877Y-118980260D01*
X161406234Y-118980261D01*
X161406233Y-118980260D01*
X161406232Y-118980261D01*
X96293768Y-118980261D01*
X96293739Y-118980259D01*
X96285116Y-118980259D01*
X96277109Y-118980259D01*
X96225312Y-118980260D01*
X96213159Y-118979663D01*
X96075405Y-118966099D01*
X96051563Y-118961357D01*
X95924960Y-118922955D01*
X95902502Y-118913653D01*
X95785819Y-118851287D01*
X95765605Y-118837781D01*
X95663336Y-118753851D01*
X95646148Y-118736663D01*
X95562218Y-118634394D01*
X95548712Y-118614180D01*
X95486346Y-118497497D01*
X95477044Y-118475039D01*
X95460852Y-118421659D01*
X95438642Y-118348436D01*
X95433900Y-118324594D01*
X95420336Y-118186840D01*
X95419739Y-118174685D01*
X95419741Y-118114884D01*
X95419739Y-118114879D01*
X95419740Y-118107300D01*
X95419739Y-118107266D01*
X95419739Y-70385123D01*
X95419741Y-70385116D01*
X95419739Y-70325305D01*
X95420336Y-70313159D01*
X95433900Y-70175402D01*
X95438642Y-70151563D01*
X95477045Y-70024956D01*
X95486346Y-70002502D01*
X95548712Y-69885819D01*
X95562215Y-69865609D01*
X95646152Y-69763331D01*
X95663331Y-69746152D01*
X95765609Y-69662215D01*
X95785819Y-69648712D01*
X95902502Y-69586346D01*
X95924956Y-69577045D01*
X96051565Y-69538641D01*
X96075402Y-69533900D01*
X96213162Y-69520335D01*
X96225264Y-69519739D01*
X96285116Y-69519741D01*
X96285197Y-69519719D01*
X110045771Y-69515663D01*
X110112815Y-69535328D01*
X110158585Y-69588118D01*
X110168549Y-69657274D01*
X110139543Y-69720838D01*
X110084132Y-69757592D01*
X110075968Y-69760244D01*
X109893650Y-69853140D01*
X109728105Y-69973417D01*
X109728104Y-69973417D01*
X109583417Y-70118104D01*
X109583417Y-70118105D01*
X109463140Y-70283650D01*
X109370244Y-70465970D01*
X109307009Y-70660586D01*
X109298391Y-70715000D01*
X110259314Y-70715000D01*
X110254920Y-70719394D01*
X110202259Y-70810606D01*
X110175000Y-70912339D01*
X110175000Y-71017661D01*
X110202259Y-71119394D01*
X110254920Y-71210606D01*
X110259314Y-71215000D01*
X109298391Y-71215000D01*
X109307009Y-71269413D01*
X109370244Y-71464029D01*
X109463140Y-71646349D01*
X109583417Y-71811894D01*
X109583417Y-71811895D01*
X109728104Y-71956582D01*
X109893650Y-72076859D01*
X110075968Y-72169754D01*
X110270578Y-72232988D01*
X110325000Y-72241607D01*
X110325000Y-71280686D01*
X110329394Y-71285080D01*
X110420606Y-71337741D01*
X110522339Y-71365000D01*
X110627661Y-71365000D01*
X110729394Y-71337741D01*
X110820606Y-71285080D01*
X110825000Y-71280686D01*
X110825000Y-72241606D01*
X110879421Y-72232988D01*
X111074031Y-72169754D01*
X111256349Y-72076859D01*
X111421894Y-71956582D01*
X111421895Y-71956582D01*
X111566582Y-71811895D01*
X111566582Y-71811894D01*
X111686859Y-71646349D01*
X111779755Y-71464029D01*
X111842990Y-71269413D01*
X111851609Y-71215000D01*
X110890686Y-71215000D01*
X110895080Y-71210606D01*
X110947741Y-71119394D01*
X110975000Y-71017661D01*
X110975000Y-70912339D01*
X110947741Y-70810606D01*
X110895080Y-70719394D01*
X110890686Y-70715000D01*
X111851609Y-70715000D01*
X111842990Y-70660586D01*
X111779755Y-70465970D01*
X111686859Y-70283650D01*
X111566582Y-70118105D01*
X111566582Y-70118104D01*
X111421895Y-69973417D01*
X111256349Y-69853140D01*
X111074029Y-69760244D01*
X111064916Y-69757283D01*
X111007241Y-69717846D01*
X110980042Y-69653487D01*
X110991957Y-69584641D01*
X111039201Y-69533165D01*
X111103196Y-69515352D01*
X120868602Y-69512474D01*
X120935648Y-69532139D01*
X120981418Y-69584929D01*
X120991382Y-69654085D01*
X120962376Y-69717649D01*
X120937529Y-69739577D01*
X120895270Y-69767813D01*
X120895269Y-69767812D01*
X120821588Y-69817044D01*
X120821580Y-69817050D01*
X118040104Y-72598526D01*
X117978781Y-72632011D01*
X117933025Y-72633318D01*
X117877352Y-72624500D01*
X117672648Y-72624500D01*
X117648329Y-72628351D01*
X117470465Y-72656522D01*
X117275776Y-72719781D01*
X117093386Y-72812715D01*
X116927786Y-72933028D01*
X116783028Y-73077786D01*
X116662715Y-73243386D01*
X116569781Y-73425776D01*
X116506522Y-73620465D01*
X116474500Y-73822648D01*
X116474500Y-74027351D01*
X116483318Y-74083026D01*
X116474363Y-74152320D01*
X116448526Y-74190105D01*
X110840105Y-79798526D01*
X110778782Y-79832011D01*
X110733026Y-79833318D01*
X110677352Y-79824500D01*
X110472648Y-79824500D01*
X110448329Y-79828351D01*
X110270465Y-79856522D01*
X110075776Y-79919781D01*
X109893386Y-80012715D01*
X109727786Y-80133028D01*
X109583032Y-80277782D01*
X109583028Y-80277787D01*
X109549900Y-80323385D01*
X109494571Y-80366051D01*
X109449582Y-80374500D01*
X107901076Y-80374500D01*
X107872242Y-80380234D01*
X107872243Y-80380235D01*
X107756093Y-80403339D01*
X107756083Y-80403342D01*
X107676081Y-80436479D01*
X107676082Y-80436480D01*
X107619505Y-80459915D01*
X107537372Y-80514795D01*
X107496585Y-80542047D01*
X107496581Y-80542050D01*
X105440451Y-82598181D01*
X105379128Y-82631666D01*
X105352770Y-82634500D01*
X102267229Y-82634500D01*
X102200190Y-82614815D01*
X102179548Y-82598181D01*
X99706986Y-80125618D01*
X99681818Y-80100450D01*
X99648333Y-80039127D01*
X99645499Y-80012769D01*
X99645499Y-79575000D01*
X104688391Y-79575000D01*
X105649314Y-79575000D01*
X105644920Y-79579394D01*
X105592259Y-79670606D01*
X105565000Y-79772339D01*
X105565000Y-79877661D01*
X105592259Y-79979394D01*
X105644920Y-80070606D01*
X105649314Y-80075000D01*
X104688391Y-80075000D01*
X104697009Y-80129413D01*
X104760244Y-80324029D01*
X104853140Y-80506349D01*
X104973417Y-80671894D01*
X104973417Y-80671895D01*
X105118104Y-80816582D01*
X105283650Y-80936859D01*
X105465968Y-81029754D01*
X105660578Y-81092988D01*
X105715000Y-81101607D01*
X105715000Y-80140686D01*
X105719394Y-80145080D01*
X105810606Y-80197741D01*
X105912339Y-80225000D01*
X106017661Y-80225000D01*
X106119394Y-80197741D01*
X106210606Y-80145080D01*
X106215000Y-80140686D01*
X106215000Y-81101606D01*
X106269421Y-81092988D01*
X106464031Y-81029754D01*
X106646349Y-80936859D01*
X106811894Y-80816582D01*
X106811895Y-80816582D01*
X106956582Y-80671895D01*
X106956582Y-80671894D01*
X107076859Y-80506349D01*
X107169755Y-80324029D01*
X107232990Y-80129413D01*
X107241609Y-80075000D01*
X106280686Y-80075000D01*
X106285080Y-80070606D01*
X106337741Y-79979394D01*
X106365000Y-79877661D01*
X106365000Y-79772339D01*
X106337741Y-79670606D01*
X106285080Y-79579394D01*
X106280686Y-79575000D01*
X107241609Y-79575000D01*
X107232990Y-79520586D01*
X107169755Y-79325970D01*
X107076859Y-79143650D01*
X106956582Y-78978105D01*
X106956582Y-78978104D01*
X106811895Y-78833417D01*
X106646349Y-78713140D01*
X106464029Y-78620244D01*
X106269413Y-78557009D01*
X106215000Y-78548390D01*
X106215000Y-79509314D01*
X106210606Y-79504920D01*
X106119394Y-79452259D01*
X106017661Y-79425000D01*
X105912339Y-79425000D01*
X105810606Y-79452259D01*
X105719394Y-79504920D01*
X105715000Y-79509314D01*
X105715000Y-78548390D01*
X105660586Y-78557009D01*
X105465970Y-78620244D01*
X105283650Y-78713140D01*
X105118105Y-78833417D01*
X105118104Y-78833417D01*
X104973417Y-78978104D01*
X104973417Y-78978105D01*
X104853140Y-79143650D01*
X104760244Y-79325970D01*
X104697009Y-79520586D01*
X104688391Y-79575000D01*
X99645499Y-79575000D01*
X99645499Y-78977129D01*
X99645498Y-78977123D01*
X99645497Y-78977116D01*
X99639091Y-78917517D01*
X99588796Y-78782669D01*
X99588795Y-78782668D01*
X99588793Y-78782664D01*
X99502547Y-78667455D01*
X99502544Y-78667452D01*
X99387334Y-78581205D01*
X99366164Y-78573309D01*
X99310231Y-78531436D01*
X99285816Y-78465971D01*
X99285500Y-78457128D01*
X99285500Y-74350416D01*
X99305185Y-74283377D01*
X99336613Y-74250099D01*
X99382219Y-74216966D01*
X99526966Y-74072219D01*
X99526968Y-74072215D01*
X99526971Y-74072213D01*
X99579732Y-73999590D01*
X99647287Y-73906610D01*
X99740220Y-73724219D01*
X99803477Y-73529534D01*
X99835500Y-73327352D01*
X99835500Y-73122648D01*
X99803477Y-72920466D01*
X99740220Y-72725781D01*
X99740218Y-72725778D01*
X99740218Y-72725776D01*
X99647287Y-72543390D01*
X99577032Y-72446691D01*
X99577031Y-72446688D01*
X99526971Y-72377787D01*
X99526967Y-72377782D01*
X99526320Y-72377135D01*
X104854500Y-72377135D01*
X104854500Y-74072870D01*
X104854501Y-74072876D01*
X104860908Y-74132483D01*
X104911202Y-74267328D01*
X104911206Y-74267335D01*
X104997452Y-74382544D01*
X104997455Y-74382547D01*
X105112664Y-74468793D01*
X105112671Y-74468797D01*
X105247517Y-74519091D01*
X105247516Y-74519091D01*
X105254444Y-74519835D01*
X105307127Y-74525500D01*
X107002872Y-74525499D01*
X107062483Y-74519091D01*
X107197331Y-74468796D01*
X107312546Y-74382546D01*
X107398796Y-74267331D01*
X107449091Y-74132483D01*
X107455500Y-74072873D01*
X107455499Y-72377128D01*
X107449091Y-72317517D01*
X107441972Y-72298431D01*
X107398797Y-72182671D01*
X107398793Y-72182664D01*
X107312547Y-72067455D01*
X107312544Y-72067452D01*
X107197335Y-71981206D01*
X107197328Y-71981202D01*
X107062482Y-71930908D01*
X107062483Y-71930908D01*
X107002883Y-71924501D01*
X107002881Y-71924500D01*
X107002873Y-71924500D01*
X107002864Y-71924500D01*
X105307129Y-71924500D01*
X105307123Y-71924501D01*
X105247516Y-71930908D01*
X105112671Y-71981202D01*
X105112664Y-71981206D01*
X104997455Y-72067452D01*
X104997452Y-72067455D01*
X104911206Y-72182664D01*
X104911202Y-72182671D01*
X104860908Y-72317517D01*
X104854899Y-72373417D01*
X104854501Y-72377123D01*
X104854500Y-72377135D01*
X99526320Y-72377135D01*
X99382213Y-72233028D01*
X99216613Y-72112715D01*
X99216612Y-72112714D01*
X99216610Y-72112713D01*
X99146243Y-72076859D01*
X99034223Y-72019781D01*
X98839534Y-71956522D01*
X98664995Y-71928878D01*
X98637352Y-71924500D01*
X98432648Y-71924500D01*
X98408329Y-71928351D01*
X98230465Y-71956522D01*
X98035776Y-72019781D01*
X97853386Y-72112715D01*
X97687786Y-72233028D01*
X97543028Y-72377786D01*
X97422715Y-72543386D01*
X97329781Y-72725776D01*
X97266522Y-72920465D01*
X97234500Y-73122648D01*
X97234500Y-73327351D01*
X97266522Y-73529534D01*
X97329781Y-73724223D01*
X97422715Y-73906613D01*
X97543028Y-74072213D01*
X97543034Y-74072219D01*
X97687781Y-74216966D01*
X97733384Y-74250098D01*
X97776050Y-74305425D01*
X97784500Y-74350416D01*
X97784500Y-78400500D01*
X97764815Y-78467539D01*
X97712011Y-78513294D01*
X97660501Y-78524500D01*
X97497130Y-78524500D01*
X97497123Y-78524501D01*
X97437516Y-78530908D01*
X97302671Y-78581202D01*
X97302664Y-78581206D01*
X97187455Y-78667452D01*
X97187452Y-78667455D01*
X97101206Y-78782664D01*
X97101202Y-78782671D01*
X97050908Y-78917517D01*
X97044501Y-78977116D01*
X97044501Y-78977123D01*
X97044500Y-78977135D01*
X97044500Y-80672870D01*
X97044501Y-80672876D01*
X97050908Y-80732483D01*
X97101202Y-80867328D01*
X97101206Y-80867335D01*
X97187452Y-80982544D01*
X97187455Y-80982547D01*
X97302664Y-81068793D01*
X97302671Y-81068797D01*
X97437517Y-81119091D01*
X97437516Y-81119091D01*
X97444444Y-81119835D01*
X97497127Y-81125500D01*
X98532769Y-81125499D01*
X98599808Y-81145183D01*
X98620450Y-81161818D01*
X101118181Y-83659548D01*
X101151666Y-83720871D01*
X101154500Y-83747229D01*
X101154500Y-85690500D01*
X101134815Y-85757539D01*
X101082011Y-85803294D01*
X101030501Y-85814500D01*
X100857130Y-85814500D01*
X100857123Y-85814501D01*
X100797516Y-85820908D01*
X100662671Y-85871202D01*
X100662664Y-85871206D01*
X100547455Y-85957452D01*
X100547452Y-85957455D01*
X100461206Y-86072664D01*
X100461202Y-86072671D01*
X100410908Y-86207517D01*
X100405830Y-86254753D01*
X100404501Y-86267123D01*
X100404500Y-86267135D01*
X100404500Y-88362870D01*
X100404501Y-88362876D01*
X100410908Y-88422483D01*
X100461202Y-88557328D01*
X100461206Y-88557335D01*
X100547452Y-88672544D01*
X100547455Y-88672547D01*
X100662664Y-88758793D01*
X100670454Y-88763047D01*
X100668646Y-88766357D01*
X100710351Y-88797449D01*
X100734897Y-88862865D01*
X100720180Y-88931167D01*
X100711549Y-88944840D01*
X100621659Y-89068563D01*
X100514433Y-89279003D01*
X100441446Y-89503631D01*
X100404500Y-89736902D01*
X100404500Y-89973097D01*
X100438511Y-90187832D01*
X100429557Y-90257125D01*
X100403719Y-90294911D01*
X97642049Y-93056581D01*
X97605068Y-93111927D01*
X97605069Y-93111928D01*
X97559914Y-93179508D01*
X97503343Y-93316082D01*
X97503340Y-93316092D01*
X97474500Y-93461079D01*
X97474500Y-106249582D01*
X97454815Y-106316621D01*
X97423385Y-106349900D01*
X97377787Y-106383028D01*
X97377782Y-106383032D01*
X97233028Y-106527786D01*
X97112715Y-106693386D01*
X97019781Y-106875776D01*
X96956522Y-107070465D01*
X96924500Y-107272648D01*
X96924500Y-107477351D01*
X96956522Y-107679534D01*
X97019781Y-107874223D01*
X97112715Y-108056613D01*
X97233028Y-108222213D01*
X97233034Y-108222219D01*
X97377781Y-108366966D01*
X97423384Y-108400098D01*
X97466050Y-108455425D01*
X97474500Y-108500416D01*
X97474500Y-112531019D01*
X97454815Y-112598058D01*
X97402011Y-112643813D01*
X97393834Y-112647201D01*
X97302669Y-112681203D01*
X97302664Y-112681206D01*
X97187455Y-112767452D01*
X97187452Y-112767455D01*
X97101206Y-112882664D01*
X97101202Y-112882671D01*
X97050908Y-113017517D01*
X97044501Y-113077116D01*
X97044501Y-113077123D01*
X97044500Y-113077135D01*
X97044500Y-114772870D01*
X97044501Y-114772876D01*
X97050908Y-114832483D01*
X97101202Y-114967328D01*
X97101206Y-114967335D01*
X97187452Y-115082544D01*
X97187455Y-115082547D01*
X97302664Y-115168793D01*
X97302671Y-115168797D01*
X97437517Y-115219091D01*
X97437516Y-115219091D01*
X97444444Y-115219835D01*
X97497127Y-115225500D01*
X99192872Y-115225499D01*
X99252483Y-115219091D01*
X99387331Y-115168796D01*
X99502546Y-115082546D01*
X99588796Y-114967331D01*
X99639091Y-114832483D01*
X99645500Y-114772873D01*
X99645499Y-113675000D01*
X104688391Y-113675000D01*
X105649314Y-113675000D01*
X105644920Y-113679394D01*
X105592259Y-113770606D01*
X105565000Y-113872339D01*
X105565000Y-113977661D01*
X105592259Y-114079394D01*
X105644920Y-114170606D01*
X105649314Y-114175000D01*
X104688391Y-114175000D01*
X104697009Y-114229413D01*
X104760244Y-114424029D01*
X104853140Y-114606349D01*
X104973417Y-114771894D01*
X104973417Y-114771895D01*
X105118104Y-114916582D01*
X105283650Y-115036859D01*
X105465968Y-115129754D01*
X105660578Y-115192988D01*
X105715000Y-115201607D01*
X105715000Y-114240686D01*
X105719394Y-114245080D01*
X105810606Y-114297741D01*
X105912339Y-114325000D01*
X106017661Y-114325000D01*
X106119394Y-114297741D01*
X106210606Y-114245080D01*
X106215000Y-114240686D01*
X106215000Y-115201606D01*
X106269421Y-115192988D01*
X106464031Y-115129754D01*
X106646349Y-115036859D01*
X106811894Y-114916582D01*
X106811895Y-114916582D01*
X106843477Y-114885000D01*
X109798391Y-114885000D01*
X110759314Y-114885000D01*
X110754920Y-114889394D01*
X110702259Y-114980606D01*
X110675000Y-115082339D01*
X110675000Y-115187661D01*
X110702259Y-115289394D01*
X110754920Y-115380606D01*
X110759314Y-115385000D01*
X109798391Y-115385000D01*
X109807009Y-115439413D01*
X109870244Y-115634029D01*
X109963140Y-115816349D01*
X110083417Y-115981894D01*
X110083417Y-115981895D01*
X110228104Y-116126582D01*
X110393650Y-116246859D01*
X110575968Y-116339754D01*
X110770578Y-116402988D01*
X110825000Y-116411607D01*
X110825000Y-115450686D01*
X110829394Y-115455080D01*
X110920606Y-115507741D01*
X111022339Y-115535000D01*
X111127661Y-115535000D01*
X111229394Y-115507741D01*
X111320606Y-115455080D01*
X111325000Y-115450686D01*
X111325000Y-116411606D01*
X111379421Y-116402988D01*
X111574031Y-116339754D01*
X111756349Y-116246859D01*
X111921894Y-116126582D01*
X111921895Y-116126582D01*
X112066582Y-115981895D01*
X112066582Y-115981894D01*
X112182283Y-115822648D01*
X116274500Y-115822648D01*
X116274500Y-116027351D01*
X116306522Y-116229534D01*
X116369781Y-116424223D01*
X116419242Y-116521293D01*
X116448135Y-116578000D01*
X116462715Y-116606613D01*
X116583028Y-116772213D01*
X116727786Y-116916971D01*
X116882749Y-117029556D01*
X116893390Y-117037287D01*
X117009607Y-117096503D01*
X117075776Y-117130218D01*
X117075778Y-117130218D01*
X117075781Y-117130220D01*
X117180137Y-117164127D01*
X117270465Y-117193477D01*
X117371557Y-117209488D01*
X117472648Y-117225500D01*
X117472649Y-117225500D01*
X117677351Y-117225500D01*
X117677352Y-117225500D01*
X117879534Y-117193477D01*
X118074219Y-117130220D01*
X118256610Y-117037287D01*
X118349590Y-116969732D01*
X118422213Y-116916971D01*
X118422215Y-116916968D01*
X118422219Y-116916966D01*
X118566966Y-116772219D01*
X118566968Y-116772215D01*
X118566971Y-116772213D01*
X118619732Y-116699590D01*
X118687287Y-116606610D01*
X118780220Y-116424219D01*
X118843477Y-116229534D01*
X118875500Y-116027352D01*
X118875500Y-115822648D01*
X118843477Y-115620466D01*
X118780220Y-115425781D01*
X118780218Y-115425778D01*
X118780218Y-115425776D01*
X118746503Y-115359607D01*
X118687287Y-115243390D01*
X118669633Y-115219091D01*
X118566971Y-115077786D01*
X118422213Y-114933028D01*
X118256613Y-114812715D01*
X118256612Y-114812714D01*
X118256610Y-114812713D01*
X118178873Y-114773104D01*
X118074223Y-114719781D01*
X117879534Y-114656522D01*
X117704995Y-114628878D01*
X117677352Y-114624500D01*
X117472648Y-114624500D01*
X117448329Y-114628351D01*
X117270465Y-114656522D01*
X117075776Y-114719781D01*
X116893386Y-114812715D01*
X116727786Y-114933028D01*
X116583028Y-115077786D01*
X116462715Y-115243386D01*
X116369781Y-115425776D01*
X116306522Y-115620465D01*
X116274500Y-115822648D01*
X112182283Y-115822648D01*
X112186861Y-115816347D01*
X112214816Y-115761482D01*
X112214816Y-115761481D01*
X112279755Y-115634029D01*
X112342990Y-115439413D01*
X112351609Y-115385000D01*
X111390686Y-115385000D01*
X111395080Y-115380606D01*
X111447741Y-115289394D01*
X111475000Y-115187661D01*
X111475000Y-115082339D01*
X111447741Y-114980606D01*
X111395080Y-114889394D01*
X111390686Y-114885000D01*
X112351609Y-114885000D01*
X112342990Y-114830586D01*
X112279755Y-114635970D01*
X112186859Y-114453650D01*
X112066582Y-114288105D01*
X112066582Y-114288104D01*
X111921895Y-114143417D01*
X111756349Y-114023140D01*
X111574029Y-113930244D01*
X111379413Y-113867009D01*
X111325000Y-113858390D01*
X111325000Y-114819314D01*
X111320606Y-114814920D01*
X111229394Y-114762259D01*
X111127661Y-114735000D01*
X111022339Y-114735000D01*
X110920606Y-114762259D01*
X110829394Y-114814920D01*
X110825000Y-114819314D01*
X110825000Y-113858390D01*
X110770586Y-113867009D01*
X110575970Y-113930244D01*
X110393650Y-114023140D01*
X110228105Y-114143417D01*
X110228104Y-114143417D01*
X110083417Y-114288104D01*
X110083417Y-114288105D01*
X109963140Y-114453650D01*
X109870244Y-114635970D01*
X109807009Y-114830586D01*
X109798391Y-114885000D01*
X106843477Y-114885000D01*
X106894096Y-114834382D01*
X106956582Y-114771895D01*
X106956582Y-114771894D01*
X107076859Y-114606349D01*
X107169755Y-114424029D01*
X107232990Y-114229413D01*
X107241609Y-114175000D01*
X106280686Y-114175000D01*
X106285080Y-114170606D01*
X106337741Y-114079394D01*
X106365000Y-113977661D01*
X106365000Y-113872339D01*
X106337741Y-113770606D01*
X106285080Y-113679394D01*
X106280686Y-113675000D01*
X107241609Y-113675000D01*
X107232990Y-113620586D01*
X107169755Y-113425970D01*
X107076859Y-113243650D01*
X106956582Y-113078105D01*
X106956582Y-113078104D01*
X106811895Y-112933417D01*
X106646349Y-112813140D01*
X106464029Y-112720244D01*
X106269413Y-112657009D01*
X106215000Y-112648390D01*
X106215000Y-113609314D01*
X106210606Y-113604920D01*
X106119394Y-113552259D01*
X106017661Y-113525000D01*
X105912339Y-113525000D01*
X105810606Y-113552259D01*
X105719394Y-113604920D01*
X105715000Y-113609314D01*
X105715000Y-112648390D01*
X105660586Y-112657009D01*
X105465970Y-112720244D01*
X105283650Y-112813140D01*
X105118105Y-112933417D01*
X105118104Y-112933417D01*
X104973417Y-113078104D01*
X104973417Y-113078105D01*
X104853140Y-113243650D01*
X104760244Y-113425970D01*
X104697009Y-113620586D01*
X104688391Y-113675000D01*
X99645499Y-113675000D01*
X99645499Y-113077128D01*
X99639091Y-113017517D01*
X99604677Y-112925249D01*
X99588797Y-112882671D01*
X99588793Y-112882664D01*
X99502547Y-112767455D01*
X99502544Y-112767452D01*
X99387335Y-112681206D01*
X99387328Y-112681202D01*
X99252482Y-112630908D01*
X99252483Y-112630908D01*
X99192883Y-112624501D01*
X99192881Y-112624500D01*
X99192873Y-112624500D01*
X99192865Y-112624500D01*
X99099500Y-112624500D01*
X99032461Y-112604815D01*
X98986706Y-112552011D01*
X98975500Y-112500500D01*
X98975500Y-108500416D01*
X98995185Y-108433377D01*
X99026613Y-108400099D01*
X99072219Y-108366966D01*
X99216966Y-108222219D01*
X99216968Y-108222215D01*
X99216971Y-108222213D01*
X99269732Y-108149590D01*
X99337287Y-108056610D01*
X99430220Y-107874219D01*
X99493477Y-107679534D01*
X99525500Y-107477352D01*
X99525500Y-107272648D01*
X99493477Y-107070466D01*
X99430220Y-106875781D01*
X99430218Y-106875778D01*
X99430218Y-106875776D01*
X99337287Y-106693390D01*
X99267032Y-106596691D01*
X99267031Y-106596688D01*
X99216971Y-106527787D01*
X99216967Y-106527782D01*
X99216320Y-106527135D01*
X104544500Y-106527135D01*
X104544500Y-108222870D01*
X104544501Y-108222876D01*
X104550908Y-108282483D01*
X104601202Y-108417328D01*
X104601206Y-108417335D01*
X104687452Y-108532544D01*
X104687455Y-108532547D01*
X104802664Y-108618793D01*
X104802671Y-108618797D01*
X104937517Y-108669091D01*
X104937516Y-108669091D01*
X104944444Y-108669835D01*
X104997127Y-108675500D01*
X106692872Y-108675499D01*
X106752483Y-108669091D01*
X106887331Y-108618796D01*
X107002546Y-108532546D01*
X107088796Y-108417331D01*
X107139091Y-108282483D01*
X107145500Y-108222873D01*
X107145499Y-106527128D01*
X107139091Y-106467517D01*
X107088796Y-106332669D01*
X107088795Y-106332668D01*
X107088793Y-106332664D01*
X107002547Y-106217455D01*
X107002544Y-106217452D01*
X106887335Y-106131206D01*
X106887328Y-106131202D01*
X106752482Y-106080908D01*
X106752483Y-106080908D01*
X106692883Y-106074501D01*
X106692881Y-106074500D01*
X106692873Y-106074500D01*
X106692864Y-106074500D01*
X104997129Y-106074500D01*
X104997123Y-106074501D01*
X104937516Y-106080908D01*
X104802671Y-106131202D01*
X104802664Y-106131206D01*
X104687455Y-106217452D01*
X104687452Y-106217455D01*
X104601206Y-106332664D01*
X104601202Y-106332671D01*
X104550908Y-106467517D01*
X104544501Y-106527116D01*
X104544501Y-106527123D01*
X104544500Y-106527135D01*
X99216320Y-106527135D01*
X99072217Y-106383032D01*
X99072212Y-106383028D01*
X99026615Y-106349900D01*
X98983949Y-106294571D01*
X98975500Y-106249582D01*
X98975500Y-104111229D01*
X98995185Y-104044190D01*
X99047989Y-103998435D01*
X99117147Y-103988491D01*
X99180703Y-104017516D01*
X99187181Y-104023548D01*
X100617048Y-105453415D01*
X100617049Y-105453416D01*
X100718677Y-105555044D01*
X100721585Y-105557952D01*
X100844498Y-105640080D01*
X100844511Y-105640087D01*
X100968854Y-105691591D01*
X100981087Y-105696658D01*
X100981091Y-105696658D01*
X100981092Y-105696659D01*
X101126079Y-105725500D01*
X101126082Y-105725500D01*
X109949582Y-105725500D01*
X110016621Y-105745185D01*
X110049900Y-105776615D01*
X110083028Y-105822212D01*
X110083032Y-105822217D01*
X110083034Y-105822219D01*
X110227781Y-105966966D01*
X110273384Y-106000098D01*
X110316050Y-106055425D01*
X110324500Y-106100416D01*
X110324500Y-109548918D01*
X110324500Y-109548920D01*
X110324499Y-109548920D01*
X110353340Y-109693907D01*
X110353343Y-109693917D01*
X110409914Y-109830492D01*
X110442812Y-109879727D01*
X110442813Y-109879730D01*
X110492046Y-109953414D01*
X110492052Y-109953421D01*
X113821584Y-113282952D01*
X113821586Y-113282954D01*
X113844422Y-113298211D01*
X113895270Y-113332186D01*
X113944505Y-113365084D01*
X114001080Y-113388518D01*
X114081088Y-113421659D01*
X114197241Y-113444763D01*
X114216468Y-113448587D01*
X114226081Y-113450500D01*
X114226082Y-113450500D01*
X114226083Y-113450500D01*
X114373918Y-113450500D01*
X124147770Y-113450500D01*
X124214809Y-113470185D01*
X124235451Y-113486819D01*
X126408526Y-115659894D01*
X126442011Y-115721217D01*
X126443318Y-115766972D01*
X126434500Y-115822647D01*
X126434500Y-116027351D01*
X126466522Y-116229534D01*
X126529781Y-116424223D01*
X126579242Y-116521293D01*
X126608135Y-116578000D01*
X126622715Y-116606613D01*
X126743028Y-116772213D01*
X126887786Y-116916971D01*
X127042749Y-117029556D01*
X127053390Y-117037287D01*
X127169607Y-117096503D01*
X127235776Y-117130218D01*
X127235778Y-117130218D01*
X127235781Y-117130220D01*
X127340137Y-117164127D01*
X127430465Y-117193477D01*
X127531557Y-117209488D01*
X127632648Y-117225500D01*
X127632649Y-117225500D01*
X127837351Y-117225500D01*
X127837352Y-117225500D01*
X128039534Y-117193477D01*
X128234219Y-117130220D01*
X128416610Y-117037287D01*
X128509590Y-116969732D01*
X128582213Y-116916971D01*
X128582215Y-116916968D01*
X128582219Y-116916966D01*
X128726966Y-116772219D01*
X128726968Y-116772215D01*
X128726971Y-116772213D01*
X128779732Y-116699590D01*
X128847287Y-116606610D01*
X128940220Y-116424219D01*
X129003477Y-116229534D01*
X129035500Y-116027352D01*
X129035500Y-115822648D01*
X129003477Y-115620466D01*
X128940220Y-115425781D01*
X128940218Y-115425778D01*
X128940218Y-115425776D01*
X128906503Y-115359607D01*
X128847287Y-115243390D01*
X128829633Y-115219091D01*
X128726971Y-115077786D01*
X128582213Y-114933028D01*
X128416613Y-114812715D01*
X128416612Y-114812714D01*
X128416610Y-114812713D01*
X128338873Y-114773104D01*
X128234223Y-114719781D01*
X128039534Y-114656522D01*
X127864995Y-114628878D01*
X127837352Y-114624500D01*
X127632648Y-114624500D01*
X127576972Y-114633318D01*
X127507679Y-114624363D01*
X127469894Y-114598526D01*
X126533549Y-113662181D01*
X126500064Y-113600858D01*
X126505048Y-113531166D01*
X126546920Y-113475233D01*
X126612384Y-113450816D01*
X126621230Y-113450500D01*
X127637770Y-113450500D01*
X127704809Y-113470185D01*
X127725451Y-113486819D01*
X132521586Y-118282954D01*
X132551058Y-118302645D01*
X132595270Y-118332186D01*
X132644505Y-118365084D01*
X132644506Y-118365084D01*
X132644507Y-118365085D01*
X132644509Y-118365086D01*
X132781082Y-118421656D01*
X132781087Y-118421658D01*
X132781091Y-118421658D01*
X132781092Y-118421659D01*
X132926079Y-118450500D01*
X132926082Y-118450500D01*
X152473920Y-118450500D01*
X152571462Y-118431096D01*
X152618913Y-118421658D01*
X152755495Y-118365084D01*
X152804729Y-118332186D01*
X152804734Y-118332183D01*
X152854758Y-118298759D01*
X152878416Y-118282952D01*
X155182952Y-115978416D01*
X155232186Y-115904729D01*
X155265084Y-115855495D01*
X155321658Y-115718913D01*
X155350500Y-115573918D01*
X155350500Y-103044305D01*
X155370185Y-102977266D01*
X155422989Y-102931511D01*
X155492147Y-102921567D01*
X155555703Y-102950592D01*
X155593477Y-103009370D01*
X155596973Y-103024907D01*
X155620765Y-103175124D01*
X155620765Y-103175125D01*
X155691417Y-103392568D01*
X155795211Y-103596276D01*
X155929597Y-103781242D01*
X156091257Y-103942902D01*
X156276223Y-104077288D01*
X156479929Y-104181082D01*
X156697371Y-104251734D01*
X156835000Y-104273532D01*
X156835000Y-103325747D01*
X156872708Y-103347518D01*
X157012591Y-103385000D01*
X157157409Y-103385000D01*
X157297292Y-103347518D01*
X157335000Y-103325747D01*
X157335000Y-104273531D01*
X157472628Y-104251734D01*
X157690070Y-104181082D01*
X157893776Y-104077288D01*
X158078742Y-103942902D01*
X158240402Y-103781242D01*
X158374788Y-103596276D01*
X158478582Y-103392570D01*
X158549234Y-103175128D01*
X158563509Y-103085000D01*
X157575748Y-103085000D01*
X157597518Y-103047292D01*
X157635000Y-102907409D01*
X157635000Y-102762591D01*
X157597518Y-102622708D01*
X157575748Y-102585000D01*
X158563509Y-102585000D01*
X158549234Y-102494871D01*
X158478582Y-102277429D01*
X158374788Y-102073723D01*
X158240402Y-101888757D01*
X158078742Y-101727097D01*
X157994135Y-101665626D01*
X157951470Y-101610296D01*
X157945491Y-101540682D01*
X157978097Y-101478887D01*
X157994125Y-101464999D01*
X158079066Y-101403286D01*
X158240786Y-101241566D01*
X158375217Y-101056538D01*
X158479048Y-100852758D01*
X158536113Y-100677129D01*
X158549721Y-100635249D01*
X158549721Y-100635248D01*
X158549722Y-100635245D01*
X158585500Y-100409354D01*
X158585500Y-100180646D01*
X158549722Y-99954755D01*
X158549721Y-99954751D01*
X158549721Y-99954750D01*
X158479049Y-99737244D01*
X158471668Y-99722758D01*
X158375217Y-99533462D01*
X158242472Y-99350755D01*
X158218994Y-99284953D01*
X158234819Y-99216899D01*
X158284925Y-99168204D01*
X158299455Y-99161692D01*
X158327331Y-99151296D01*
X158442546Y-99065046D01*
X158528796Y-98949831D01*
X158579091Y-98814983D01*
X158585500Y-98755373D01*
X158585499Y-96754628D01*
X158580299Y-96706257D01*
X158579091Y-96695016D01*
X158528797Y-96560171D01*
X158528793Y-96560164D01*
X158442547Y-96444955D01*
X158442544Y-96444952D01*
X158327335Y-96358706D01*
X158327328Y-96358702D01*
X158192482Y-96308408D01*
X158192483Y-96308408D01*
X158132883Y-96302001D01*
X158132881Y-96302000D01*
X158132873Y-96302000D01*
X158132864Y-96302000D01*
X156037129Y-96302000D01*
X156037123Y-96302001D01*
X155977516Y-96308408D01*
X155842671Y-96358702D01*
X155842664Y-96358706D01*
X155727455Y-96444952D01*
X155727452Y-96444955D01*
X155641206Y-96560164D01*
X155641202Y-96560171D01*
X155590908Y-96695017D01*
X155590472Y-96699077D01*
X155584501Y-96754623D01*
X155584500Y-96754635D01*
X155584500Y-98142769D01*
X155564815Y-98209808D01*
X155548181Y-98230450D01*
X154017047Y-99761584D01*
X154005056Y-99779531D01*
X153993116Y-99797402D01*
X153963916Y-99841102D01*
X153934914Y-99884507D01*
X153878343Y-100021082D01*
X153878340Y-100021092D01*
X153849500Y-100166079D01*
X153849500Y-115137770D01*
X153829815Y-115204809D01*
X153813181Y-115225451D01*
X152125451Y-116913181D01*
X152064128Y-116946666D01*
X152037770Y-116949500D01*
X142338426Y-116949500D01*
X142271387Y-116929815D01*
X142225632Y-116877011D01*
X142215688Y-116807853D01*
X142244713Y-116744297D01*
X142265540Y-116725182D01*
X142421894Y-116611582D01*
X142421895Y-116611582D01*
X142566582Y-116466895D01*
X142566582Y-116466894D01*
X142686859Y-116301349D01*
X142779755Y-116119029D01*
X142842990Y-115924413D01*
X142851609Y-115870000D01*
X141890686Y-115870000D01*
X141895080Y-115865606D01*
X141947741Y-115774394D01*
X141975000Y-115672661D01*
X141975000Y-115567339D01*
X141947741Y-115465606D01*
X141895080Y-115374394D01*
X141890686Y-115370000D01*
X142851609Y-115370000D01*
X142842990Y-115315586D01*
X142779755Y-115120970D01*
X142686859Y-114938650D01*
X142566582Y-114773105D01*
X142566582Y-114773104D01*
X142421895Y-114628417D01*
X142256349Y-114508140D01*
X142074029Y-114415244D01*
X141879413Y-114352009D01*
X141825000Y-114343390D01*
X141825000Y-115304314D01*
X141820606Y-115299920D01*
X141729394Y-115247259D01*
X141627661Y-115220000D01*
X141522339Y-115220000D01*
X141420606Y-115247259D01*
X141329394Y-115299920D01*
X141325000Y-115304314D01*
X141325000Y-114343390D01*
X141270586Y-114352009D01*
X141075970Y-114415244D01*
X140893650Y-114508140D01*
X140728105Y-114628417D01*
X140728104Y-114628417D01*
X140583417Y-114773104D01*
X140583417Y-114773105D01*
X140463140Y-114938650D01*
X140370244Y-115120970D01*
X140307009Y-115315586D01*
X140298391Y-115370000D01*
X141259314Y-115370000D01*
X141254920Y-115374394D01*
X141202259Y-115465606D01*
X141175000Y-115567339D01*
X141175000Y-115672661D01*
X141202259Y-115774394D01*
X141254920Y-115865606D01*
X141259314Y-115870000D01*
X140298391Y-115870000D01*
X140307009Y-115924413D01*
X140370244Y-116119029D01*
X140463140Y-116301349D01*
X140583417Y-116466894D01*
X140583417Y-116466895D01*
X140728104Y-116611582D01*
X140884460Y-116725182D01*
X140927125Y-116780512D01*
X140933104Y-116850126D01*
X140900498Y-116911920D01*
X140839659Y-116946278D01*
X140811574Y-116949500D01*
X133362230Y-116949500D01*
X133295191Y-116929815D01*
X133274549Y-116913181D01*
X131856112Y-115494744D01*
X128478421Y-112117052D01*
X128478414Y-112117046D01*
X128404729Y-112067812D01*
X128404729Y-112067813D01*
X128355491Y-112034913D01*
X128218917Y-111978343D01*
X128218907Y-111978340D01*
X128073920Y-111949500D01*
X128073918Y-111949500D01*
X124583918Y-111949500D01*
X114662230Y-111949500D01*
X114595191Y-111929815D01*
X114574549Y-111913181D01*
X111861819Y-109200451D01*
X111847115Y-109173523D01*
X111830523Y-109147705D01*
X111829631Y-109141504D01*
X111828334Y-109139128D01*
X111825500Y-109112770D01*
X111825500Y-108625000D01*
X116294652Y-108625000D01*
X117384252Y-108625000D01*
X117362482Y-108662708D01*
X117325000Y-108802591D01*
X117325000Y-108947409D01*
X117362482Y-109087292D01*
X117384252Y-109125000D01*
X116294652Y-109125000D01*
X116314397Y-109249668D01*
X116314397Y-109249671D01*
X116392219Y-109489184D01*
X116506557Y-109713583D01*
X116654590Y-109917331D01*
X116654590Y-109917332D01*
X116832667Y-110095409D01*
X117036416Y-110243442D01*
X117260815Y-110357780D01*
X117500329Y-110435602D01*
X117625000Y-110455348D01*
X117625000Y-109365747D01*
X117662708Y-109387518D01*
X117802591Y-109425000D01*
X117947409Y-109425000D01*
X118087292Y-109387518D01*
X118125000Y-109365747D01*
X118125000Y-110455347D01*
X118249668Y-110435602D01*
X118249671Y-110435602D01*
X118489184Y-110357780D01*
X118713583Y-110243442D01*
X118917331Y-110095409D01*
X118917332Y-110095409D01*
X119095409Y-109917332D01*
X119095409Y-109917331D01*
X119243442Y-109713583D01*
X119357780Y-109489184D01*
X119435602Y-109249671D01*
X119435602Y-109249668D01*
X119455348Y-109125000D01*
X118365748Y-109125000D01*
X118387518Y-109087292D01*
X118425000Y-108947409D01*
X118425000Y-108802591D01*
X118387518Y-108662708D01*
X118365748Y-108625000D01*
X119455348Y-108625000D01*
X119435602Y-108500331D01*
X119435602Y-108500328D01*
X119357780Y-108260815D01*
X119243442Y-108036416D01*
X119095409Y-107832668D01*
X119095409Y-107832667D01*
X118917332Y-107654590D01*
X118713583Y-107506557D01*
X118489184Y-107392219D01*
X118249670Y-107314397D01*
X118125000Y-107294650D01*
X118125000Y-108384252D01*
X118087292Y-108362482D01*
X117947409Y-108325000D01*
X117802591Y-108325000D01*
X117662708Y-108362482D01*
X117625000Y-108384252D01*
X117625000Y-107294650D01*
X117500330Y-107314397D01*
X117500327Y-107314397D01*
X117260815Y-107392219D01*
X117036416Y-107506557D01*
X116832668Y-107654590D01*
X116832667Y-107654590D01*
X116654590Y-107832667D01*
X116654590Y-107832668D01*
X116506557Y-108036416D01*
X116392219Y-108260815D01*
X116314397Y-108500328D01*
X116314397Y-108500331D01*
X116294652Y-108625000D01*
X111825500Y-108625000D01*
X111825500Y-106100416D01*
X111845185Y-106033377D01*
X111876613Y-106000099D01*
X111922219Y-105966966D01*
X112066966Y-105822219D01*
X112066968Y-105822215D01*
X112066971Y-105822213D01*
X112137236Y-105725500D01*
X112187287Y-105656610D01*
X112280220Y-105474219D01*
X112343477Y-105279534D01*
X112375500Y-105077352D01*
X112375500Y-104872648D01*
X112354227Y-104738340D01*
X112343477Y-104670465D01*
X112289485Y-104504297D01*
X112280220Y-104475781D01*
X112280218Y-104475778D01*
X112280218Y-104475776D01*
X112214967Y-104347715D01*
X112187287Y-104293390D01*
X112179556Y-104282749D01*
X112066971Y-104127786D01*
X111922213Y-103983028D01*
X111756613Y-103862715D01*
X111756612Y-103862714D01*
X111756610Y-103862713D01*
X111699653Y-103833691D01*
X111574223Y-103769781D01*
X111379534Y-103706522D01*
X111204995Y-103678878D01*
X111177352Y-103674500D01*
X110972648Y-103674500D01*
X110948329Y-103678351D01*
X110770465Y-103706522D01*
X110575776Y-103769781D01*
X110393386Y-103862715D01*
X110227786Y-103983028D01*
X110083032Y-104127782D01*
X110083028Y-104127787D01*
X110049900Y-104173385D01*
X109994571Y-104216051D01*
X109949582Y-104224500D01*
X101562229Y-104224500D01*
X101495190Y-104204815D01*
X101474548Y-104188181D01*
X99011819Y-101725451D01*
X98978334Y-101664128D01*
X98975500Y-101637770D01*
X98975500Y-93897230D01*
X98995185Y-93830191D01*
X99011819Y-93809549D01*
X99569634Y-93251734D01*
X100219261Y-92602106D01*
X100280582Y-92568623D01*
X100350274Y-92573607D01*
X100406207Y-92615479D01*
X100429413Y-92670391D01*
X100441446Y-92746368D01*
X100514433Y-92970996D01*
X100558043Y-93056584D01*
X100621657Y-93181433D01*
X100760483Y-93372510D01*
X100927490Y-93539517D01*
X100962127Y-93564683D01*
X101004792Y-93620013D01*
X101010771Y-93689626D01*
X100978165Y-93751421D01*
X100962130Y-93765315D01*
X100944365Y-93778222D01*
X100927488Y-93790484D01*
X100760485Y-93957487D01*
X100760485Y-93957488D01*
X100760483Y-93957490D01*
X100700862Y-94039550D01*
X100621657Y-94148566D01*
X100514433Y-94359003D01*
X100441446Y-94583631D01*
X100404500Y-94816902D01*
X100404500Y-95053097D01*
X100441446Y-95286368D01*
X100514433Y-95510996D01*
X100599738Y-95678415D01*
X100621657Y-95721433D01*
X100760483Y-95912510D01*
X100927490Y-96079517D01*
X100962127Y-96104683D01*
X101004792Y-96160013D01*
X101010771Y-96229626D01*
X100978165Y-96291421D01*
X100962130Y-96305315D01*
X100951351Y-96313147D01*
X100927488Y-96330484D01*
X100760485Y-96497487D01*
X100760485Y-96497488D01*
X100760483Y-96497490D01*
X100702631Y-96577116D01*
X100621657Y-96688566D01*
X100514433Y-96899003D01*
X100441446Y-97123631D01*
X100404500Y-97356902D01*
X100404500Y-97593097D01*
X100441446Y-97826368D01*
X100514433Y-98050996D01*
X100587365Y-98194131D01*
X100621657Y-98261433D01*
X100760483Y-98452510D01*
X100927490Y-98619517D01*
X100986716Y-98662547D01*
X101029381Y-98717875D01*
X101037448Y-98772593D01*
X101035893Y-98792340D01*
X101693941Y-99450387D01*
X101673409Y-99455889D01*
X101536592Y-99534881D01*
X101424881Y-99646592D01*
X101345889Y-99783409D01*
X101340387Y-99803940D01*
X100682340Y-99145894D01*
X100622084Y-99228830D01*
X100514897Y-99439197D01*
X100441934Y-99663752D01*
X100405000Y-99896947D01*
X100405000Y-100133052D01*
X100441934Y-100366247D01*
X100514897Y-100590802D01*
X100622087Y-100801174D01*
X100682338Y-100884104D01*
X100682340Y-100884105D01*
X101340387Y-100226058D01*
X101345889Y-100246591D01*
X101424881Y-100383408D01*
X101536592Y-100495119D01*
X101673409Y-100574111D01*
X101693940Y-100579612D01*
X101035893Y-101237658D01*
X101118828Y-101297914D01*
X101329197Y-101405102D01*
X101553752Y-101478065D01*
X101553751Y-101478065D01*
X101786948Y-101515000D01*
X102023052Y-101515000D01*
X102256247Y-101478065D01*
X102480802Y-101405102D01*
X102691163Y-101297918D01*
X102691169Y-101297914D01*
X102774104Y-101237658D01*
X102774105Y-101237658D01*
X102116058Y-100579612D01*
X102136591Y-100574111D01*
X102273408Y-100495119D01*
X102385119Y-100383408D01*
X102464111Y-100246591D01*
X102469612Y-100226059D01*
X103127658Y-100884105D01*
X103127658Y-100884104D01*
X103187914Y-100801169D01*
X103187918Y-100801163D01*
X103251114Y-100677135D01*
X116334500Y-100677135D01*
X116334500Y-102972870D01*
X116334501Y-102972876D01*
X116340908Y-103032483D01*
X116391202Y-103167328D01*
X116391206Y-103167335D01*
X116477452Y-103282544D01*
X116477455Y-103282547D01*
X116592664Y-103368793D01*
X116592671Y-103368797D01*
X116727517Y-103419091D01*
X116727516Y-103419091D01*
X116734444Y-103419835D01*
X116787127Y-103425500D01*
X119082872Y-103425499D01*
X119142483Y-103419091D01*
X119277331Y-103368796D01*
X119392546Y-103282546D01*
X119478796Y-103167331D01*
X119529091Y-103032483D01*
X119535500Y-102972873D01*
X119535499Y-100677128D01*
X119529091Y-100617517D01*
X119528152Y-100615000D01*
X119478797Y-100482671D01*
X119478793Y-100482664D01*
X119392547Y-100367455D01*
X119392544Y-100367452D01*
X119277335Y-100281206D01*
X119277328Y-100281202D01*
X119142482Y-100230908D01*
X119142483Y-100230908D01*
X119082883Y-100224501D01*
X119082881Y-100224500D01*
X119082873Y-100224500D01*
X119082864Y-100224500D01*
X116787129Y-100224500D01*
X116787123Y-100224501D01*
X116727516Y-100230908D01*
X116592671Y-100281202D01*
X116592664Y-100281206D01*
X116477455Y-100367452D01*
X116477452Y-100367455D01*
X116391206Y-100482664D01*
X116391202Y-100482671D01*
X116340908Y-100617517D01*
X116334812Y-100674223D01*
X116334501Y-100677123D01*
X116334500Y-100677135D01*
X103251114Y-100677135D01*
X103281494Y-100617511D01*
X103281496Y-100617508D01*
X103295100Y-100590808D01*
X103295101Y-100590806D01*
X103368065Y-100366247D01*
X103405000Y-100133052D01*
X103405000Y-99896947D01*
X103368065Y-99663752D01*
X103295102Y-99439197D01*
X103187914Y-99228828D01*
X103127658Y-99145894D01*
X103127658Y-99145893D01*
X102469612Y-99803940D01*
X102464111Y-99783409D01*
X102385119Y-99646592D01*
X102273408Y-99534881D01*
X102136591Y-99455889D01*
X102116059Y-99450387D01*
X102774105Y-98792340D01*
X102772551Y-98772594D01*
X102786915Y-98704216D01*
X102823284Y-98662547D01*
X102882510Y-98619517D01*
X103049517Y-98452510D01*
X103188343Y-98261433D01*
X103292651Y-98056716D01*
X103295566Y-98050996D01*
X103295566Y-98050995D01*
X103295568Y-98050992D01*
X103368553Y-97826368D01*
X103376126Y-97778553D01*
X103405500Y-97593097D01*
X103405500Y-97356906D01*
X103402381Y-97337212D01*
X103402381Y-97337209D01*
X103400080Y-97322682D01*
X108610302Y-97322682D01*
X108610302Y-97527317D01*
X108642311Y-97729417D01*
X108705546Y-97924031D01*
X108798443Y-98106350D01*
X108798449Y-98106359D01*
X108830825Y-98150921D01*
X108830826Y-98150922D01*
X109510302Y-97471446D01*
X109510302Y-97477661D01*
X109537561Y-97579394D01*
X109590222Y-97670606D01*
X109664696Y-97745080D01*
X109755908Y-97797741D01*
X109857641Y-97825000D01*
X109863855Y-97825000D01*
X109184378Y-98504474D01*
X109228952Y-98536859D01*
X109411270Y-98629755D01*
X109605884Y-98692990D01*
X109807985Y-98725000D01*
X110012619Y-98725000D01*
X110214719Y-98692990D01*
X110409333Y-98629755D01*
X110591651Y-98536859D01*
X110636223Y-98504474D01*
X109956749Y-97825000D01*
X109962963Y-97825000D01*
X110064696Y-97797741D01*
X110155908Y-97745080D01*
X110230382Y-97670606D01*
X110283043Y-97579394D01*
X110310302Y-97477661D01*
X110310302Y-97471447D01*
X110989776Y-98150921D01*
X111022161Y-98106349D01*
X111115057Y-97924031D01*
X111178292Y-97729417D01*
X111210302Y-97527317D01*
X111210302Y-97322682D01*
X111178292Y-97120582D01*
X111115057Y-96925968D01*
X111022161Y-96743650D01*
X110989776Y-96699077D01*
X110989776Y-96699076D01*
X110310302Y-97378551D01*
X110310302Y-97372339D01*
X110283043Y-97270606D01*
X110230382Y-97179394D01*
X110155908Y-97104920D01*
X110064696Y-97052259D01*
X109962963Y-97025000D01*
X109956748Y-97025000D01*
X110404613Y-96577135D01*
X112409802Y-96577135D01*
X112409802Y-98272870D01*
X112409803Y-98272876D01*
X112416210Y-98332483D01*
X112466504Y-98467328D01*
X112466508Y-98467335D01*
X112552754Y-98582544D01*
X112552757Y-98582547D01*
X112667966Y-98668793D01*
X112667973Y-98668797D01*
X112802819Y-98719091D01*
X112802818Y-98719091D01*
X112809746Y-98719835D01*
X112862429Y-98725500D01*
X114558174Y-98725499D01*
X114617785Y-98719091D01*
X114752633Y-98668796D01*
X114867848Y-98582546D01*
X114954098Y-98467331D01*
X115004393Y-98332483D01*
X115010802Y-98272873D01*
X115010801Y-96577128D01*
X115004393Y-96517517D01*
X114996923Y-96497490D01*
X114954099Y-96382671D01*
X114954095Y-96382664D01*
X114867849Y-96267455D01*
X114867846Y-96267452D01*
X114752637Y-96181206D01*
X114752630Y-96181202D01*
X114617784Y-96130908D01*
X114617785Y-96130908D01*
X114558185Y-96124501D01*
X114558183Y-96124500D01*
X114558175Y-96124500D01*
X114558166Y-96124500D01*
X112862431Y-96124500D01*
X112862425Y-96124501D01*
X112802818Y-96130908D01*
X112667973Y-96181202D01*
X112667966Y-96181206D01*
X112552757Y-96267452D01*
X112552754Y-96267455D01*
X112466508Y-96382664D01*
X112466504Y-96382671D01*
X112416210Y-96517517D01*
X112411625Y-96560169D01*
X112409803Y-96577123D01*
X112409802Y-96577135D01*
X110404613Y-96577135D01*
X110636224Y-96345524D01*
X110636223Y-96345523D01*
X110591661Y-96313147D01*
X110591652Y-96313141D01*
X110409333Y-96220244D01*
X110214719Y-96157009D01*
X110012619Y-96125000D01*
X109807985Y-96125000D01*
X109605884Y-96157009D01*
X109411270Y-96220244D01*
X109228946Y-96313143D01*
X109184379Y-96345523D01*
X109184379Y-96345524D01*
X109863856Y-97025000D01*
X109857641Y-97025000D01*
X109755908Y-97052259D01*
X109664696Y-97104920D01*
X109590222Y-97179394D01*
X109537561Y-97270606D01*
X109510302Y-97372339D01*
X109510302Y-97378553D01*
X108830826Y-96699077D01*
X108830825Y-96699077D01*
X108798445Y-96743644D01*
X108705546Y-96925968D01*
X108642311Y-97120582D01*
X108610302Y-97322682D01*
X103400080Y-97322682D01*
X103368553Y-97123631D01*
X103324100Y-96986819D01*
X103295568Y-96899008D01*
X103295566Y-96899005D01*
X103295566Y-96899003D01*
X103236435Y-96782952D01*
X103188343Y-96688567D01*
X103049517Y-96497490D01*
X102882510Y-96330483D01*
X102847872Y-96305317D01*
X102805207Y-96249989D01*
X102799228Y-96180375D01*
X102831833Y-96118580D01*
X102847873Y-96104682D01*
X102882510Y-96079517D01*
X103049517Y-95912510D01*
X103188343Y-95721433D01*
X103295568Y-95510992D01*
X103368553Y-95286368D01*
X103405500Y-95053097D01*
X103405500Y-94816902D01*
X103373846Y-94617052D01*
X103371488Y-94602163D01*
X103380442Y-94532872D01*
X103406277Y-94495089D01*
X107329549Y-90571819D01*
X107390872Y-90538334D01*
X107417230Y-90535500D01*
X109259582Y-90535500D01*
X109326621Y-90555185D01*
X109359900Y-90586615D01*
X109393028Y-90632212D01*
X109393032Y-90632217D01*
X109537786Y-90776971D01*
X109691649Y-90888757D01*
X109703390Y-90897287D01*
X109819607Y-90956503D01*
X109885776Y-90990218D01*
X109885778Y-90990218D01*
X109885781Y-90990220D01*
X109990137Y-91024127D01*
X110080465Y-91053477D01*
X110181557Y-91069488D01*
X110282648Y-91085500D01*
X110282649Y-91085500D01*
X110487351Y-91085500D01*
X110487352Y-91085500D01*
X110689534Y-91053477D01*
X110884219Y-90990220D01*
X111066610Y-90897287D01*
X111159590Y-90829732D01*
X111232213Y-90776971D01*
X111232215Y-90776968D01*
X111232219Y-90776966D01*
X111376966Y-90632219D01*
X111392894Y-90610296D01*
X111410100Y-90586615D01*
X111465429Y-90543949D01*
X111510418Y-90535500D01*
X113422770Y-90535500D01*
X113489809Y-90555185D01*
X113510451Y-90571819D01*
X116118138Y-93179505D01*
X118617048Y-95678415D01*
X118617049Y-95678416D01*
X118721584Y-95782951D01*
X118721585Y-95782952D01*
X118844498Y-95865080D01*
X118844511Y-95865087D01*
X118981082Y-95921656D01*
X118981087Y-95921658D01*
X118981091Y-95921658D01*
X118981092Y-95921659D01*
X119126079Y-95950500D01*
X119126082Y-95950500D01*
X121107770Y-95950500D01*
X121174809Y-95970185D01*
X121195451Y-95986819D01*
X126510817Y-101302185D01*
X126544302Y-101363508D01*
X126541068Y-101428180D01*
X126533910Y-101450210D01*
X126533910Y-101450211D01*
X126494500Y-101699038D01*
X126494500Y-101950961D01*
X126533910Y-102199785D01*
X126611760Y-102439383D01*
X126689732Y-102592410D01*
X126718688Y-102649240D01*
X126726132Y-102663848D01*
X126874201Y-102867649D01*
X126874205Y-102867654D01*
X127052345Y-103045794D01*
X127052350Y-103045798D01*
X127227028Y-103172708D01*
X127256155Y-103193870D01*
X127276796Y-103204386D01*
X127327589Y-103252356D01*
X127344500Y-103314870D01*
X127344500Y-107150500D01*
X127324815Y-107217539D01*
X127272011Y-107263294D01*
X127220500Y-107274500D01*
X126887130Y-107274500D01*
X126887123Y-107274501D01*
X126827516Y-107280908D01*
X126692671Y-107331202D01*
X126692664Y-107331206D01*
X126577455Y-107417452D01*
X126577452Y-107417455D01*
X126491206Y-107532664D01*
X126491202Y-107532671D01*
X126440908Y-107667517D01*
X126434501Y-107727116D01*
X126434501Y-107727123D01*
X126434500Y-107727135D01*
X126434500Y-110022870D01*
X126434501Y-110022876D01*
X126440908Y-110082483D01*
X126491202Y-110217328D01*
X126491206Y-110217335D01*
X126577452Y-110332544D01*
X126577455Y-110332547D01*
X126692664Y-110418793D01*
X126692671Y-110418797D01*
X126827517Y-110469091D01*
X126827516Y-110469091D01*
X126834444Y-110469835D01*
X126887127Y-110475500D01*
X129182872Y-110475499D01*
X129242483Y-110469091D01*
X129377331Y-110418796D01*
X129492546Y-110332546D01*
X129578796Y-110217331D01*
X129629091Y-110082483D01*
X129635500Y-110022873D01*
X129635500Y-109806441D01*
X132524500Y-109806441D01*
X132524500Y-111143558D01*
X132539157Y-111273648D01*
X132539159Y-111273658D01*
X132596877Y-111438604D01*
X132596878Y-111438606D01*
X132689853Y-111586576D01*
X132813424Y-111710147D01*
X132961394Y-111803122D01*
X133126343Y-111860841D01*
X133126349Y-111860841D01*
X133126351Y-111860842D01*
X133167750Y-111865506D01*
X133256442Y-111875499D01*
X133256445Y-111875500D01*
X133256448Y-111875500D01*
X133670500Y-111875500D01*
X133737539Y-111895185D01*
X133783294Y-111947989D01*
X133794500Y-111999500D01*
X133794500Y-113213558D01*
X133809157Y-113343648D01*
X133809159Y-113343658D01*
X133855200Y-113475233D01*
X133866878Y-113508606D01*
X133959853Y-113656576D01*
X134083424Y-113780147D01*
X134231394Y-113873122D01*
X134396343Y-113930841D01*
X134396349Y-113930841D01*
X134396351Y-113930842D01*
X134437750Y-113935506D01*
X134526442Y-113945499D01*
X134526445Y-113945500D01*
X134526448Y-113945500D01*
X135163555Y-113945500D01*
X135163556Y-113945499D01*
X135293657Y-113930841D01*
X135458606Y-113873122D01*
X135606576Y-113780147D01*
X135730147Y-113656576D01*
X135823122Y-113508606D01*
X135880841Y-113343657D01*
X135895500Y-113213552D01*
X135895500Y-111876448D01*
X135880841Y-111746343D01*
X135875888Y-111732187D01*
X135871958Y-111720955D01*
X135865000Y-111680001D01*
X135865000Y-111155330D01*
X135884745Y-111175075D01*
X135970255Y-111224444D01*
X136065630Y-111250000D01*
X136164370Y-111250000D01*
X136259745Y-111224444D01*
X136345255Y-111175075D01*
X136365000Y-111155330D01*
X136365000Y-111875000D01*
X136712828Y-111875000D01*
X136712844Y-111874999D01*
X136772372Y-111868598D01*
X136772379Y-111868596D01*
X136907086Y-111818354D01*
X136907093Y-111818350D01*
X137022187Y-111732190D01*
X137022190Y-111732187D01*
X137108350Y-111617093D01*
X137108354Y-111617086D01*
X137158596Y-111482379D01*
X137158598Y-111482372D01*
X137164999Y-111422844D01*
X137165000Y-111422827D01*
X137165000Y-110725000D01*
X136461410Y-110725000D01*
X136415075Y-110644745D01*
X136345255Y-110574925D01*
X136259745Y-110525556D01*
X136164370Y-110500000D01*
X136065630Y-110500000D01*
X135970255Y-110525556D01*
X135884745Y-110574925D01*
X135814925Y-110644745D01*
X135768590Y-110725000D01*
X135065000Y-110725000D01*
X135065000Y-111020500D01*
X135062449Y-111029185D01*
X135063738Y-111038147D01*
X135052759Y-111062187D01*
X135045315Y-111087539D01*
X135038474Y-111093466D01*
X135034713Y-111101703D01*
X135012478Y-111115992D01*
X134992511Y-111133294D01*
X134981996Y-111135581D01*
X134975935Y-111139477D01*
X134941000Y-111144500D01*
X134749500Y-111144500D01*
X134682461Y-111124815D01*
X134636706Y-111072011D01*
X134625500Y-111020500D01*
X134625500Y-109806445D01*
X134625499Y-109806441D01*
X134610842Y-109676351D01*
X134610841Y-109676349D01*
X134610841Y-109676343D01*
X134558637Y-109527155D01*
X135065000Y-109527155D01*
X135065000Y-110225000D01*
X135865000Y-110225000D01*
X136365000Y-110225000D01*
X137165000Y-110225000D01*
X137165000Y-109527172D01*
X137164999Y-109527155D01*
X137158598Y-109467627D01*
X137158596Y-109467620D01*
X137108354Y-109332913D01*
X137108350Y-109332906D01*
X137022190Y-109217812D01*
X137022187Y-109217809D01*
X136907093Y-109131649D01*
X136907086Y-109131645D01*
X136772379Y-109081403D01*
X136772372Y-109081401D01*
X136712844Y-109075000D01*
X136365000Y-109075000D01*
X136365000Y-110225000D01*
X135865000Y-110225000D01*
X135865000Y-109075000D01*
X135517155Y-109075000D01*
X135457627Y-109081401D01*
X135457620Y-109081403D01*
X135322913Y-109131645D01*
X135322906Y-109131649D01*
X135207812Y-109217809D01*
X135207809Y-109217812D01*
X135121649Y-109332906D01*
X135121645Y-109332913D01*
X135071403Y-109467620D01*
X135071401Y-109467627D01*
X135065000Y-109527155D01*
X134558637Y-109527155D01*
X134553122Y-109511394D01*
X134460147Y-109363424D01*
X134336576Y-109239853D01*
X134188606Y-109146878D01*
X134188605Y-109146877D01*
X134188604Y-109146877D01*
X134023658Y-109089159D01*
X134023648Y-109089157D01*
X133893558Y-109074500D01*
X133893552Y-109074500D01*
X133256448Y-109074500D01*
X133256441Y-109074500D01*
X133126351Y-109089157D01*
X133126341Y-109089159D01*
X132961395Y-109146877D01*
X132813423Y-109239853D01*
X132689853Y-109363423D01*
X132596877Y-109511395D01*
X132539159Y-109676341D01*
X132539157Y-109676351D01*
X132524500Y-109806441D01*
X129635500Y-109806441D01*
X129635499Y-108802591D01*
X129635499Y-107727129D01*
X129635498Y-107727123D01*
X129635497Y-107727116D01*
X129629091Y-107667517D01*
X129578796Y-107532669D01*
X129578795Y-107532668D01*
X129578793Y-107532664D01*
X129492547Y-107417455D01*
X129492544Y-107417452D01*
X129377335Y-107331206D01*
X129377328Y-107331202D01*
X129242482Y-107280908D01*
X129242483Y-107280908D01*
X129182883Y-107274501D01*
X129182881Y-107274500D01*
X129182873Y-107274500D01*
X129182865Y-107274500D01*
X128969500Y-107274500D01*
X128902461Y-107254815D01*
X128856706Y-107202011D01*
X128845500Y-107150500D01*
X128845500Y-103314870D01*
X128865185Y-103247831D01*
X128913203Y-103204387D01*
X128933845Y-103193870D01*
X129137656Y-103045793D01*
X129315793Y-102867656D01*
X129463870Y-102663845D01*
X129474386Y-102643205D01*
X129522359Y-102592410D01*
X129584871Y-102575500D01*
X131062770Y-102575500D01*
X131129809Y-102595185D01*
X131150451Y-102611819D01*
X141706586Y-113167954D01*
X141733882Y-113186192D01*
X141774831Y-113213552D01*
X141829505Y-113250084D01*
X141829507Y-113250085D01*
X141829511Y-113250087D01*
X141908860Y-113282954D01*
X141966087Y-113306658D01*
X141966091Y-113306658D01*
X141966092Y-113306659D01*
X142111079Y-113335500D01*
X142111082Y-113335500D01*
X142111083Y-113335500D01*
X142258917Y-113335500D01*
X148683582Y-113335500D01*
X148688831Y-113337041D01*
X148694193Y-113335955D01*
X148721997Y-113346780D01*
X148750621Y-113355185D01*
X148755555Y-113359845D01*
X148759302Y-113361304D01*
X148783899Y-113386613D01*
X148887525Y-113529242D01*
X148911005Y-113595046D01*
X148895180Y-113663100D01*
X148845074Y-113711795D01*
X148830541Y-113718308D01*
X148802670Y-113728703D01*
X148802664Y-113728706D01*
X148687455Y-113814952D01*
X148687452Y-113814955D01*
X148601206Y-113930164D01*
X148601202Y-113930171D01*
X148550908Y-114065017D01*
X148544501Y-114124616D01*
X148544501Y-114124623D01*
X148544500Y-114124635D01*
X148544500Y-116125370D01*
X148544501Y-116125376D01*
X148550908Y-116184983D01*
X148601202Y-116319828D01*
X148601206Y-116319835D01*
X148687452Y-116435044D01*
X148687455Y-116435047D01*
X148802664Y-116521293D01*
X148802671Y-116521297D01*
X148937517Y-116571591D01*
X148937516Y-116571591D01*
X148944444Y-116572335D01*
X148997127Y-116578000D01*
X151092872Y-116577999D01*
X151152483Y-116571591D01*
X151287331Y-116521296D01*
X151402546Y-116435046D01*
X151488796Y-116319831D01*
X151539091Y-116184983D01*
X151545500Y-116125373D01*
X151545499Y-114124628D01*
X151539091Y-114065017D01*
X151506509Y-113977661D01*
X151488797Y-113930171D01*
X151488793Y-113930164D01*
X151402547Y-113814955D01*
X151402544Y-113814952D01*
X151287335Y-113728706D01*
X151287328Y-113728702D01*
X151259459Y-113718308D01*
X151203525Y-113676437D01*
X151179108Y-113610973D01*
X151193960Y-113542700D01*
X151202460Y-113529260D01*
X151335217Y-113346538D01*
X151439048Y-113142758D01*
X151460372Y-113077129D01*
X151509721Y-112925249D01*
X151509721Y-112925248D01*
X151509722Y-112925245D01*
X151545500Y-112699354D01*
X151545500Y-112470646D01*
X151509722Y-112244755D01*
X151509721Y-112244751D01*
X151509721Y-112244750D01*
X151439049Y-112027244D01*
X151414131Y-111978340D01*
X151335217Y-111823462D01*
X151200786Y-111638434D01*
X151039066Y-111476714D01*
X150954559Y-111415316D01*
X150911896Y-111359988D01*
X150905917Y-111290375D01*
X150938523Y-111228580D01*
X150954556Y-111214685D01*
X151039066Y-111153286D01*
X151200786Y-110991566D01*
X151335217Y-110806538D01*
X151439048Y-110602758D01*
X151439049Y-110602755D01*
X151509721Y-110385249D01*
X151509721Y-110385248D01*
X151509722Y-110385245D01*
X151545500Y-110159354D01*
X151545500Y-109930646D01*
X151509722Y-109704755D01*
X151509721Y-109704751D01*
X151509721Y-109704750D01*
X151439049Y-109487244D01*
X151388236Y-109387518D01*
X151335217Y-109283462D01*
X151200786Y-109098434D01*
X151039066Y-108936714D01*
X150854038Y-108802283D01*
X150650255Y-108698450D01*
X150432748Y-108627778D01*
X150263326Y-108600944D01*
X150206854Y-108592000D01*
X149883146Y-108592000D01*
X149883141Y-108592000D01*
X149747187Y-108613533D01*
X149677893Y-108604578D01*
X149640108Y-108578741D01*
X145938421Y-104877052D01*
X145938414Y-104877046D01*
X145864729Y-104827812D01*
X145864729Y-104827813D01*
X145815491Y-104794913D01*
X145678917Y-104738343D01*
X145678907Y-104738340D01*
X145533920Y-104709500D01*
X145533918Y-104709500D01*
X143686230Y-104709500D01*
X143619191Y-104689815D01*
X143573436Y-104637011D01*
X143563492Y-104567853D01*
X143592517Y-104504297D01*
X143598549Y-104497819D01*
X145604549Y-102491819D01*
X145665872Y-102458334D01*
X145692230Y-102455500D01*
X148683582Y-102455500D01*
X148688831Y-102457041D01*
X148694193Y-102455955D01*
X148721997Y-102466780D01*
X148750621Y-102475185D01*
X148755555Y-102479845D01*
X148759302Y-102481304D01*
X148783899Y-102506613D01*
X148887525Y-102649242D01*
X148911005Y-102715046D01*
X148895180Y-102783100D01*
X148845074Y-102831795D01*
X148830541Y-102838308D01*
X148802670Y-102848703D01*
X148802664Y-102848706D01*
X148687455Y-102934952D01*
X148687452Y-102934955D01*
X148601206Y-103050164D01*
X148601202Y-103050171D01*
X148550908Y-103185017D01*
X148544501Y-103244616D01*
X148544501Y-103244623D01*
X148544500Y-103244635D01*
X148544500Y-105245370D01*
X148544501Y-105245376D01*
X148550908Y-105304983D01*
X148601202Y-105439828D01*
X148601206Y-105439835D01*
X148687452Y-105555044D01*
X148687455Y-105555047D01*
X148802664Y-105641293D01*
X148802671Y-105641297D01*
X148937517Y-105691591D01*
X148937516Y-105691591D01*
X148944444Y-105692335D01*
X148997127Y-105698000D01*
X151092872Y-105697999D01*
X151152483Y-105691591D01*
X151287331Y-105641296D01*
X151402546Y-105555046D01*
X151488796Y-105439831D01*
X151539091Y-105304983D01*
X151545500Y-105245373D01*
X151545499Y-103244628D01*
X151539091Y-103185017D01*
X151535401Y-103175124D01*
X151488797Y-103050171D01*
X151488793Y-103050164D01*
X151402547Y-102934955D01*
X151402544Y-102934952D01*
X151287335Y-102848706D01*
X151287328Y-102848702D01*
X151259459Y-102838308D01*
X151203525Y-102796437D01*
X151179108Y-102730973D01*
X151193960Y-102662700D01*
X151202460Y-102649260D01*
X151335217Y-102466538D01*
X151439048Y-102262758D01*
X151509722Y-102045245D01*
X151545500Y-101819354D01*
X151545500Y-101590646D01*
X151509722Y-101364755D01*
X151509721Y-101364751D01*
X151509721Y-101364750D01*
X151439049Y-101147244D01*
X151401517Y-101073583D01*
X151335217Y-100943462D01*
X151200786Y-100758434D01*
X151039066Y-100596714D01*
X150954559Y-100535316D01*
X150911896Y-100479988D01*
X150905917Y-100410375D01*
X150938523Y-100348580D01*
X150954556Y-100334685D01*
X151039066Y-100273286D01*
X151200786Y-100111566D01*
X151335217Y-99926538D01*
X151439048Y-99722758D01*
X151458220Y-99663752D01*
X151509721Y-99505249D01*
X151509721Y-99505248D01*
X151509722Y-99505245D01*
X151545500Y-99279354D01*
X151545500Y-99050646D01*
X151509722Y-98824755D01*
X151509721Y-98824751D01*
X151509721Y-98824750D01*
X151439049Y-98607244D01*
X151360209Y-98452512D01*
X151335217Y-98403462D01*
X151200786Y-98218434D01*
X151039066Y-98056714D01*
X150854038Y-97922283D01*
X150650255Y-97818450D01*
X150432748Y-97747778D01*
X150263326Y-97720944D01*
X150206854Y-97712000D01*
X149883146Y-97712000D01*
X149807849Y-97723926D01*
X149657253Y-97747778D01*
X149657250Y-97747778D01*
X149439744Y-97818450D01*
X149235961Y-97922283D01*
X149130396Y-97998980D01*
X149050934Y-98056714D01*
X149050932Y-98056716D01*
X149050931Y-98056716D01*
X148889216Y-98218431D01*
X148889216Y-98218432D01*
X148889214Y-98218434D01*
X148831480Y-98297896D01*
X148754783Y-98403461D01*
X148650950Y-98607244D01*
X148580278Y-98824750D01*
X148580278Y-98824753D01*
X148544500Y-99050646D01*
X148544500Y-99279353D01*
X148580278Y-99505246D01*
X148580278Y-99505249D01*
X148650950Y-99722755D01*
X148681855Y-99783409D01*
X148754783Y-99926538D01*
X148889214Y-100111566D01*
X149050934Y-100273286D01*
X149080200Y-100294549D01*
X149135438Y-100334682D01*
X149178103Y-100390013D01*
X149184082Y-100459626D01*
X149151476Y-100521421D01*
X149135438Y-100535318D01*
X149050932Y-100596715D01*
X148889216Y-100758431D01*
X148889216Y-100758432D01*
X148889214Y-100758434D01*
X148785642Y-100900988D01*
X148783900Y-100903386D01*
X148728570Y-100946051D01*
X148683582Y-100954500D01*
X145256080Y-100954500D01*
X145111092Y-100983340D01*
X145111086Y-100983342D01*
X144974508Y-101039914D01*
X144974496Y-101039921D01*
X144925269Y-101072813D01*
X144851588Y-101122044D01*
X144851580Y-101122050D01*
X141840104Y-104133526D01*
X141778781Y-104167011D01*
X141733025Y-104168318D01*
X141677352Y-104159500D01*
X141472648Y-104159500D01*
X141448329Y-104163351D01*
X141270465Y-104191522D01*
X141075776Y-104254781D01*
X140893386Y-104347715D01*
X140727786Y-104468028D01*
X140583028Y-104612786D01*
X140462715Y-104778386D01*
X140369781Y-104960776D01*
X140306522Y-105155465D01*
X140274500Y-105357648D01*
X140274500Y-105562351D01*
X140306522Y-105764534D01*
X140369781Y-105959223D01*
X140462715Y-106141613D01*
X140583028Y-106307213D01*
X140727786Y-106451971D01*
X140882749Y-106564556D01*
X140893390Y-106572287D01*
X141009607Y-106631503D01*
X141075776Y-106665218D01*
X141075778Y-106665218D01*
X141075781Y-106665220D01*
X141180137Y-106699127D01*
X141270465Y-106728477D01*
X141371557Y-106744488D01*
X141472648Y-106760500D01*
X141472649Y-106760500D01*
X141677351Y-106760500D01*
X141677352Y-106760500D01*
X141879534Y-106728477D01*
X142074219Y-106665220D01*
X142256610Y-106572287D01*
X142400815Y-106467517D01*
X142422213Y-106451971D01*
X142422215Y-106451968D01*
X142422219Y-106451966D01*
X142566966Y-106307219D01*
X142576155Y-106294571D01*
X142600100Y-106261615D01*
X142655429Y-106218949D01*
X142700418Y-106210500D01*
X145097770Y-106210500D01*
X145164809Y-106230185D01*
X145185451Y-106246819D01*
X148544231Y-109605599D01*
X148577716Y-109666922D01*
X148579023Y-109712678D01*
X148544500Y-109930646D01*
X148544500Y-110159353D01*
X148580278Y-110385246D01*
X148580278Y-110385249D01*
X148650950Y-110602755D01*
X148650952Y-110602758D01*
X148754783Y-110806538D01*
X148889214Y-110991566D01*
X149050934Y-111153286D01*
X149080924Y-111175075D01*
X149135438Y-111214682D01*
X149178103Y-111270013D01*
X149184082Y-111339626D01*
X149151476Y-111401421D01*
X149135438Y-111415318D01*
X149050932Y-111476715D01*
X148889216Y-111638431D01*
X148889216Y-111638432D01*
X148889214Y-111638434D01*
X148810810Y-111746348D01*
X148783900Y-111783386D01*
X148728570Y-111826051D01*
X148683582Y-111834500D01*
X142547230Y-111834500D01*
X142480191Y-111814815D01*
X142459549Y-111798181D01*
X131903421Y-101242052D01*
X131903414Y-101242046D01*
X131829729Y-101192812D01*
X131829729Y-101192813D01*
X131780491Y-101159913D01*
X131643917Y-101103343D01*
X131643907Y-101103340D01*
X131498920Y-101074500D01*
X131498918Y-101074500D01*
X129584871Y-101074500D01*
X129577450Y-101072321D01*
X129569821Y-101073583D01*
X129544395Y-101062614D01*
X129517832Y-101054815D01*
X129511151Y-101048274D01*
X129505666Y-101045908D01*
X129494594Y-101032064D01*
X129481995Y-101019728D01*
X129477799Y-101013493D01*
X129463870Y-100986155D01*
X129403327Y-100902825D01*
X129402091Y-100900988D01*
X129392189Y-100869724D01*
X129381169Y-100838840D01*
X129381693Y-100836585D01*
X129380995Y-100834380D01*
X129389566Y-100802728D01*
X129396994Y-100770786D01*
X129398893Y-100768286D01*
X129399258Y-100766939D01*
X129401363Y-100765035D01*
X129417282Y-100744083D01*
X130088717Y-100072648D01*
X132064500Y-100072648D01*
X132064500Y-100277352D01*
X132067224Y-100294549D01*
X132096522Y-100479534D01*
X132159781Y-100674223D01*
X132208983Y-100770786D01*
X132250750Y-100852758D01*
X132252715Y-100856613D01*
X132373028Y-101022213D01*
X132517786Y-101166971D01*
X132672749Y-101279556D01*
X132683390Y-101287287D01*
X132799607Y-101346503D01*
X132865776Y-101380218D01*
X132865778Y-101380218D01*
X132865781Y-101380220D01*
X132936762Y-101403283D01*
X133060465Y-101443477D01*
X133102982Y-101450211D01*
X133262648Y-101475500D01*
X133262649Y-101475500D01*
X133467351Y-101475500D01*
X133467352Y-101475500D01*
X133669534Y-101443477D01*
X133864219Y-101380220D01*
X134046610Y-101287287D01*
X134139590Y-101219732D01*
X134212213Y-101166971D01*
X134212215Y-101166968D01*
X134212219Y-101166966D01*
X134356966Y-101022219D01*
X134356968Y-101022215D01*
X134356971Y-101022213D01*
X134414187Y-100943461D01*
X134477287Y-100856610D01*
X134570220Y-100674219D01*
X134633477Y-100479534D01*
X134665500Y-100277352D01*
X134665500Y-100072648D01*
X142224500Y-100072648D01*
X142224500Y-100277352D01*
X142227224Y-100294549D01*
X142256522Y-100479534D01*
X142319781Y-100674223D01*
X142368983Y-100770786D01*
X142410750Y-100852758D01*
X142412715Y-100856613D01*
X142533028Y-101022213D01*
X142677786Y-101166971D01*
X142832749Y-101279556D01*
X142843390Y-101287287D01*
X142959607Y-101346503D01*
X143025776Y-101380218D01*
X143025778Y-101380218D01*
X143025781Y-101380220D01*
X143096762Y-101403283D01*
X143220465Y-101443477D01*
X143262982Y-101450211D01*
X143422648Y-101475500D01*
X143422649Y-101475500D01*
X143627351Y-101475500D01*
X143627352Y-101475500D01*
X143829534Y-101443477D01*
X144024219Y-101380220D01*
X144206610Y-101287287D01*
X144299590Y-101219732D01*
X144372213Y-101166971D01*
X144372215Y-101166968D01*
X144372219Y-101166966D01*
X144516966Y-101022219D01*
X144516968Y-101022215D01*
X144516971Y-101022213D01*
X144574187Y-100943461D01*
X144637287Y-100856610D01*
X144730220Y-100674219D01*
X144793477Y-100479534D01*
X144825500Y-100277352D01*
X144825500Y-100072648D01*
X144817333Y-100021082D01*
X144793477Y-99870465D01*
X144758099Y-99761584D01*
X144730220Y-99675781D01*
X144730218Y-99675778D01*
X144730218Y-99675776D01*
X144696503Y-99609607D01*
X144637287Y-99493390D01*
X144580334Y-99415000D01*
X144516971Y-99327786D01*
X144372213Y-99183028D01*
X144206613Y-99062715D01*
X144206612Y-99062714D01*
X144206610Y-99062713D01*
X144149653Y-99033691D01*
X144024223Y-98969781D01*
X143829534Y-98906522D01*
X143654995Y-98878878D01*
X143627352Y-98874500D01*
X143422648Y-98874500D01*
X143398329Y-98878351D01*
X143220465Y-98906522D01*
X143025776Y-98969781D01*
X142843386Y-99062715D01*
X142677786Y-99183028D01*
X142533028Y-99327786D01*
X142412715Y-99493386D01*
X142319781Y-99675776D01*
X142256522Y-99870465D01*
X142232666Y-100021092D01*
X142224500Y-100072648D01*
X134665500Y-100072648D01*
X134657333Y-100021082D01*
X134633477Y-99870465D01*
X134598099Y-99761584D01*
X134570220Y-99675781D01*
X134570218Y-99675778D01*
X134570218Y-99675776D01*
X134536503Y-99609607D01*
X134477287Y-99493390D01*
X134420334Y-99415000D01*
X134356971Y-99327786D01*
X134212213Y-99183028D01*
X134046613Y-99062715D01*
X134046612Y-99062714D01*
X134046610Y-99062713D01*
X133989653Y-99033691D01*
X133864223Y-98969781D01*
X133669534Y-98906522D01*
X133494995Y-98878878D01*
X133467352Y-98874500D01*
X133262648Y-98874500D01*
X133238329Y-98878351D01*
X133060465Y-98906522D01*
X132865776Y-98969781D01*
X132683386Y-99062715D01*
X132517786Y-99183028D01*
X132373028Y-99327786D01*
X132252715Y-99493386D01*
X132159781Y-99675776D01*
X132096522Y-99870465D01*
X132072666Y-100021092D01*
X132064500Y-100072648D01*
X130088717Y-100072648D01*
X133174548Y-96986819D01*
X133235871Y-96953334D01*
X133262229Y-96950500D01*
X150173920Y-96950500D01*
X150271462Y-96931096D01*
X150318913Y-96921658D01*
X150455495Y-96865084D01*
X150504729Y-96832186D01*
X150578416Y-96782952D01*
X155320210Y-92041156D01*
X155381530Y-92007673D01*
X155451222Y-92012657D01*
X155507155Y-92054529D01*
X155530361Y-92109439D01*
X155540765Y-92175126D01*
X155611417Y-92392568D01*
X155715211Y-92596276D01*
X155849597Y-92781242D01*
X156011257Y-92942902D01*
X156196223Y-93077288D01*
X156399929Y-93181082D01*
X156617371Y-93251734D01*
X156755000Y-93273532D01*
X156755000Y-92325747D01*
X156792708Y-92347518D01*
X156932591Y-92385000D01*
X157077409Y-92385000D01*
X157217292Y-92347518D01*
X157255000Y-92325747D01*
X157255000Y-93273531D01*
X157392628Y-93251734D01*
X157610070Y-93181082D01*
X157813776Y-93077288D01*
X157998742Y-92942902D01*
X158160402Y-92781242D01*
X158294788Y-92596276D01*
X158398582Y-92392570D01*
X158469234Y-92175128D01*
X158483509Y-92085000D01*
X157495748Y-92085000D01*
X157517518Y-92047292D01*
X157555000Y-91907409D01*
X157555000Y-91762591D01*
X157517518Y-91622708D01*
X157495748Y-91585000D01*
X158483509Y-91585000D01*
X158469234Y-91494871D01*
X158398582Y-91277429D01*
X158294788Y-91073723D01*
X158160402Y-90888757D01*
X157998742Y-90727097D01*
X157914135Y-90665626D01*
X157871470Y-90610296D01*
X157865491Y-90540682D01*
X157898097Y-90478887D01*
X157914125Y-90464999D01*
X157999066Y-90403286D01*
X158160786Y-90241566D01*
X158295217Y-90056538D01*
X158399048Y-89852758D01*
X158437505Y-89734400D01*
X158469721Y-89635249D01*
X158469721Y-89635248D01*
X158469722Y-89635245D01*
X158505500Y-89409354D01*
X158505500Y-89180646D01*
X158469722Y-88954755D01*
X158469721Y-88954751D01*
X158469721Y-88954750D01*
X158399049Y-88737244D01*
X158320289Y-88582669D01*
X158295217Y-88533462D01*
X158162472Y-88350755D01*
X158138994Y-88284953D01*
X158154819Y-88216899D01*
X158204925Y-88168204D01*
X158219455Y-88161692D01*
X158247331Y-88151296D01*
X158362546Y-88065046D01*
X158448796Y-87949831D01*
X158499091Y-87814983D01*
X158505500Y-87755373D01*
X158505499Y-85754628D01*
X158499091Y-85695017D01*
X158497406Y-85690500D01*
X158448797Y-85560171D01*
X158448793Y-85560164D01*
X158362547Y-85444955D01*
X158362544Y-85444952D01*
X158247335Y-85358706D01*
X158247328Y-85358702D01*
X158112482Y-85308408D01*
X158112483Y-85308408D01*
X158052883Y-85302001D01*
X158052881Y-85302000D01*
X158052873Y-85302000D01*
X158052865Y-85302000D01*
X157879500Y-85302000D01*
X157812461Y-85282315D01*
X157766706Y-85229511D01*
X157755500Y-85178000D01*
X157755500Y-74731080D01*
X157751036Y-74708641D01*
X157734292Y-74624464D01*
X157726659Y-74586088D01*
X157685912Y-74487717D01*
X157670084Y-74449505D01*
X157604631Y-74351547D01*
X157604631Y-74351546D01*
X157596291Y-74339065D01*
X157587952Y-74326584D01*
X155338227Y-72076859D01*
X153078421Y-69817052D01*
X153078414Y-69817046D01*
X153004729Y-69767812D01*
X153004729Y-69767813D01*
X152955495Y-69734916D01*
X152955493Y-69734915D01*
X152950430Y-69731532D01*
X152951560Y-69729840D01*
X152908353Y-69687405D01*
X152892887Y-69619268D01*
X152916714Y-69553587D01*
X152972268Y-69511213D01*
X153016608Y-69503000D01*
X161493908Y-69500501D01*
X161506068Y-69501097D01*
G37*
%TD.AperFunction*%
%TA.AperFunction,Conductor*%
G36*
X152304809Y-71170185D02*
G01*
X152325451Y-71186819D01*
X156218181Y-75079549D01*
X156251666Y-75140872D01*
X156254500Y-75167230D01*
X156254500Y-85178000D01*
X156234815Y-85245039D01*
X156182011Y-85290794D01*
X156130501Y-85302000D01*
X155957130Y-85302000D01*
X155957123Y-85302001D01*
X155897516Y-85308408D01*
X155762671Y-85358702D01*
X155762664Y-85358706D01*
X155647455Y-85444952D01*
X155647452Y-85444955D01*
X155561206Y-85560164D01*
X155561202Y-85560171D01*
X155510908Y-85695017D01*
X155505856Y-85742011D01*
X155504501Y-85754623D01*
X155504500Y-85754635D01*
X155504500Y-87755370D01*
X155504501Y-87755376D01*
X155510908Y-87814983D01*
X155561202Y-87949828D01*
X155561206Y-87949835D01*
X155647452Y-88065044D01*
X155647455Y-88065047D01*
X155762664Y-88151293D01*
X155762669Y-88151296D01*
X155790539Y-88161690D01*
X155846473Y-88203561D01*
X155870891Y-88269024D01*
X155856040Y-88337298D01*
X155847526Y-88350756D01*
X155825407Y-88381202D01*
X155714783Y-88533461D01*
X155610950Y-88737244D01*
X155540278Y-88954750D01*
X155540278Y-88954753D01*
X155523079Y-89063342D01*
X155504500Y-89180646D01*
X155504500Y-89409354D01*
X155516464Y-89484890D01*
X155539023Y-89627321D01*
X155530068Y-89696614D01*
X155504231Y-89734400D01*
X149825451Y-95413181D01*
X149764128Y-95446666D01*
X149737770Y-95449500D01*
X132826080Y-95449500D01*
X132681092Y-95478340D01*
X132681082Y-95478343D01*
X132544511Y-95534912D01*
X132544498Y-95534919D01*
X132421584Y-95617048D01*
X132421580Y-95617051D01*
X127813468Y-100225162D01*
X127798456Y-100233544D01*
X127787267Y-100245167D01*
X127761308Y-100254289D01*
X127754438Y-100258126D01*
X127749843Y-100259217D01*
X127720215Y-100263910D01*
X127693414Y-100272617D01*
X127688517Y-100273781D01*
X127658442Y-100272202D01*
X127628340Y-100273062D01*
X127623664Y-100270377D01*
X127618743Y-100270119D01*
X127601060Y-100257398D01*
X127572185Y-100240817D01*
X121948421Y-94617052D01*
X121948414Y-94617046D01*
X121874729Y-94567812D01*
X121874729Y-94567813D01*
X121825491Y-94534913D01*
X121688917Y-94478343D01*
X121688907Y-94478340D01*
X121543920Y-94449500D01*
X121543918Y-94449500D01*
X119562229Y-94449500D01*
X119495190Y-94429815D01*
X119474548Y-94413181D01*
X115286987Y-90225618D01*
X114736369Y-89675000D01*
X116539652Y-89675000D01*
X117629252Y-89675000D01*
X117607482Y-89712708D01*
X117570000Y-89852591D01*
X117570000Y-89997409D01*
X117607482Y-90137292D01*
X117629252Y-90175000D01*
X116539652Y-90175000D01*
X116559397Y-90299668D01*
X116559397Y-90299671D01*
X116637219Y-90539184D01*
X116751557Y-90763583D01*
X116899590Y-90967331D01*
X116899590Y-90967332D01*
X117077667Y-91145409D01*
X117281416Y-91293442D01*
X117505815Y-91407780D01*
X117745329Y-91485602D01*
X117870000Y-91505348D01*
X117870000Y-90415747D01*
X117907708Y-90437518D01*
X118047591Y-90475000D01*
X118192409Y-90475000D01*
X118332292Y-90437518D01*
X118370000Y-90415747D01*
X118370000Y-91505347D01*
X118494668Y-91485602D01*
X118494671Y-91485602D01*
X118734184Y-91407780D01*
X118958583Y-91293442D01*
X119162331Y-91145409D01*
X119162332Y-91145409D01*
X119340409Y-90967332D01*
X119340409Y-90967331D01*
X119488442Y-90763583D01*
X119602780Y-90539184D01*
X119680602Y-90299671D01*
X119680602Y-90299668D01*
X119700348Y-90175000D01*
X118610748Y-90175000D01*
X118632518Y-90137292D01*
X118670000Y-89997409D01*
X118670000Y-89852591D01*
X118632518Y-89712708D01*
X118610748Y-89675000D01*
X119700348Y-89675000D01*
X119680602Y-89550331D01*
X119680602Y-89550328D01*
X119602780Y-89310815D01*
X119488442Y-89086416D01*
X119340409Y-88882668D01*
X119340409Y-88882667D01*
X119162332Y-88704590D01*
X118958583Y-88556557D01*
X118734184Y-88442219D01*
X118494670Y-88364397D01*
X118370000Y-88344650D01*
X118370000Y-89434252D01*
X118332292Y-89412482D01*
X118192409Y-89375000D01*
X118047591Y-89375000D01*
X117907708Y-89412482D01*
X117870000Y-89434252D01*
X117870000Y-88344650D01*
X117745330Y-88364397D01*
X117745327Y-88364397D01*
X117505815Y-88442219D01*
X117281416Y-88556557D01*
X117077668Y-88704590D01*
X117077667Y-88704590D01*
X116899590Y-88882667D01*
X116899590Y-88882668D01*
X116751557Y-89086416D01*
X116637219Y-89310815D01*
X116559397Y-89550328D01*
X116559397Y-89550331D01*
X116539652Y-89675000D01*
X114736369Y-89675000D01*
X114263420Y-89202051D01*
X114167667Y-89138072D01*
X114140495Y-89119916D01*
X114140493Y-89119915D01*
X114140490Y-89119913D01*
X114003917Y-89063343D01*
X114003907Y-89063340D01*
X113858920Y-89034500D01*
X113858918Y-89034500D01*
X111510418Y-89034500D01*
X111443379Y-89014815D01*
X111410100Y-88983385D01*
X111376971Y-88937787D01*
X111376967Y-88937782D01*
X111232213Y-88793028D01*
X111066613Y-88672715D01*
X111066612Y-88672714D01*
X111066610Y-88672713D01*
X111009653Y-88643691D01*
X110884223Y-88579781D01*
X110689534Y-88516522D01*
X110514995Y-88488878D01*
X110487352Y-88484500D01*
X110282648Y-88484500D01*
X110258329Y-88488351D01*
X110080465Y-88516522D01*
X109885776Y-88579781D01*
X109703386Y-88672715D01*
X109537786Y-88793028D01*
X109393032Y-88937782D01*
X109393028Y-88937787D01*
X109359900Y-88983385D01*
X109304571Y-89026051D01*
X109259582Y-89034500D01*
X106981080Y-89034500D01*
X106836092Y-89063340D01*
X106836082Y-89063343D01*
X106699509Y-89119913D01*
X106672333Y-89138072D01*
X106576579Y-89202051D01*
X106576578Y-89202052D01*
X103590740Y-92187891D01*
X103579690Y-92193924D01*
X103571581Y-92203558D01*
X103549603Y-92210353D01*
X103529417Y-92221376D01*
X103516857Y-92220477D01*
X103504829Y-92224197D01*
X103482670Y-92218032D01*
X103459725Y-92216392D01*
X103449645Y-92208846D01*
X103437516Y-92205472D01*
X103422206Y-92188304D01*
X103403792Y-92174520D01*
X103398279Y-92161476D01*
X103391012Y-92153327D01*
X103380586Y-92119608D01*
X103378975Y-92109439D01*
X103371488Y-92062163D01*
X103380443Y-91992871D01*
X103406277Y-91955089D01*
X109489898Y-85871467D01*
X109551219Y-85837984D01*
X109620911Y-85842968D01*
X109650458Y-85858830D01*
X109667493Y-85871206D01*
X109703388Y-85897286D01*
X109885776Y-85990218D01*
X109885778Y-85990218D01*
X109885781Y-85990220D01*
X109990137Y-86024127D01*
X110080465Y-86053477D01*
X110181557Y-86069488D01*
X110282648Y-86085500D01*
X110282649Y-86085500D01*
X110487351Y-86085500D01*
X110487352Y-86085500D01*
X110689534Y-86053477D01*
X110884219Y-85990220D01*
X111066610Y-85897287D01*
X111180556Y-85814501D01*
X111232213Y-85776971D01*
X111232215Y-85776968D01*
X111232219Y-85776966D01*
X111376966Y-85632219D01*
X111379650Y-85628524D01*
X111410100Y-85586615D01*
X111465429Y-85543949D01*
X111510418Y-85535500D01*
X124472770Y-85535500D01*
X124539809Y-85555185D01*
X124560451Y-85571819D01*
X127116000Y-88127368D01*
X127149485Y-88188691D01*
X127144501Y-88258383D01*
X127102629Y-88314316D01*
X127071652Y-88331231D01*
X126937671Y-88381202D01*
X126937664Y-88381206D01*
X126822455Y-88467452D01*
X126822452Y-88467455D01*
X126736206Y-88582664D01*
X126736202Y-88582671D01*
X126685908Y-88717517D01*
X126680658Y-88766357D01*
X126679501Y-88777123D01*
X126679500Y-88777135D01*
X126679500Y-91072870D01*
X126679501Y-91072876D01*
X126685908Y-91132483D01*
X126736202Y-91267328D01*
X126736206Y-91267335D01*
X126822452Y-91382544D01*
X126822455Y-91382547D01*
X126937664Y-91468793D01*
X126937671Y-91468797D01*
X127072517Y-91519091D01*
X127072516Y-91519091D01*
X127079444Y-91519835D01*
X127132127Y-91525500D01*
X129427872Y-91525499D01*
X129487483Y-91519091D01*
X129622331Y-91468796D01*
X129737546Y-91382546D01*
X129823796Y-91267331D01*
X129874091Y-91132483D01*
X129880500Y-91072873D01*
X129880499Y-89122648D01*
X132114500Y-89122648D01*
X132114500Y-89327351D01*
X132146522Y-89529534D01*
X132209781Y-89724223D01*
X132302715Y-89906613D01*
X132423028Y-90072213D01*
X132567786Y-90216971D01*
X132722749Y-90329556D01*
X132733390Y-90337287D01*
X132849607Y-90396503D01*
X132915776Y-90430218D01*
X132915778Y-90430218D01*
X132915781Y-90430220D01*
X132961405Y-90445044D01*
X133110465Y-90493477D01*
X133211557Y-90509488D01*
X133312648Y-90525500D01*
X133312649Y-90525500D01*
X133517351Y-90525500D01*
X133517352Y-90525500D01*
X133719534Y-90493477D01*
X133914219Y-90430220D01*
X134096610Y-90337287D01*
X134199260Y-90262708D01*
X134262213Y-90216971D01*
X134262215Y-90216968D01*
X134262219Y-90216966D01*
X134406966Y-90072219D01*
X134406968Y-90072215D01*
X134406971Y-90072213D01*
X134478985Y-89973092D01*
X134527287Y-89906610D01*
X134620220Y-89724219D01*
X134683477Y-89529534D01*
X134715500Y-89327352D01*
X134715500Y-89122648D01*
X142274500Y-89122648D01*
X142274500Y-89327351D01*
X142306522Y-89529534D01*
X142369781Y-89724223D01*
X142462715Y-89906613D01*
X142583028Y-90072213D01*
X142727786Y-90216971D01*
X142882749Y-90329556D01*
X142893390Y-90337287D01*
X143009607Y-90396503D01*
X143075776Y-90430218D01*
X143075778Y-90430218D01*
X143075781Y-90430220D01*
X143121405Y-90445044D01*
X143270465Y-90493477D01*
X143371557Y-90509488D01*
X143472648Y-90525500D01*
X143472649Y-90525500D01*
X143677351Y-90525500D01*
X143677352Y-90525500D01*
X143879534Y-90493477D01*
X144074219Y-90430220D01*
X144256610Y-90337287D01*
X144359260Y-90262708D01*
X144422213Y-90216971D01*
X144422215Y-90216968D01*
X144422219Y-90216966D01*
X144566966Y-90072219D01*
X144566968Y-90072215D01*
X144566971Y-90072213D01*
X144638985Y-89973092D01*
X144687287Y-89906610D01*
X144780220Y-89724219D01*
X144843477Y-89529534D01*
X144875500Y-89327352D01*
X144875500Y-89122648D01*
X144847338Y-88944840D01*
X144843477Y-88920465D01*
X144796904Y-88777129D01*
X144780220Y-88725781D01*
X144780218Y-88725778D01*
X144780218Y-88725776D01*
X144746503Y-88659607D01*
X144687287Y-88543390D01*
X144667767Y-88516523D01*
X144566971Y-88377786D01*
X144422213Y-88233028D01*
X144256613Y-88112715D01*
X144256612Y-88112714D01*
X144256610Y-88112713D01*
X144182626Y-88075016D01*
X144074223Y-88019781D01*
X143879534Y-87956522D01*
X143704995Y-87928878D01*
X143677352Y-87924500D01*
X143472648Y-87924500D01*
X143448329Y-87928351D01*
X143270465Y-87956522D01*
X143075776Y-88019781D01*
X142893386Y-88112715D01*
X142727786Y-88233028D01*
X142583028Y-88377786D01*
X142462715Y-88543386D01*
X142369781Y-88725776D01*
X142306522Y-88920465D01*
X142274500Y-89122648D01*
X134715500Y-89122648D01*
X134687338Y-88944840D01*
X134683477Y-88920465D01*
X134636904Y-88777129D01*
X134620220Y-88725781D01*
X134620218Y-88725778D01*
X134620218Y-88725776D01*
X134586503Y-88659607D01*
X134527287Y-88543390D01*
X134507767Y-88516523D01*
X134406971Y-88377786D01*
X134262213Y-88233028D01*
X134096613Y-88112715D01*
X134096612Y-88112714D01*
X134096610Y-88112713D01*
X134022626Y-88075016D01*
X133914223Y-88019781D01*
X133719534Y-87956522D01*
X133544995Y-87928878D01*
X133517352Y-87924500D01*
X133312648Y-87924500D01*
X133288329Y-87928351D01*
X133110465Y-87956522D01*
X132915776Y-88019781D01*
X132733386Y-88112715D01*
X132567786Y-88233028D01*
X132423028Y-88377786D01*
X132302715Y-88543386D01*
X132209781Y-88725776D01*
X132146522Y-88920465D01*
X132114500Y-89122648D01*
X129880499Y-89122648D01*
X129880499Y-88777128D01*
X129874091Y-88717517D01*
X129857380Y-88672713D01*
X129823797Y-88582671D01*
X129823793Y-88582664D01*
X129737547Y-88467455D01*
X129737544Y-88467452D01*
X129622335Y-88381206D01*
X129622328Y-88381202D01*
X129487482Y-88330908D01*
X129487483Y-88330908D01*
X129427883Y-88324501D01*
X129427881Y-88324500D01*
X129427873Y-88324500D01*
X129427865Y-88324500D01*
X129154500Y-88324500D01*
X129087461Y-88304815D01*
X129041706Y-88252011D01*
X129030500Y-88200500D01*
X129030500Y-88156079D01*
X129001659Y-88011092D01*
X129001658Y-88011091D01*
X129001658Y-88011087D01*
X128979057Y-87956523D01*
X128945085Y-87874507D01*
X128945084Y-87874505D01*
X128905313Y-87814983D01*
X128862952Y-87751584D01*
X128862950Y-87751581D01*
X128668550Y-87557181D01*
X128635065Y-87495858D01*
X128640049Y-87426166D01*
X128681921Y-87370233D01*
X128747385Y-87345816D01*
X128756231Y-87345500D01*
X148593582Y-87345500D01*
X148598831Y-87347041D01*
X148604193Y-87345955D01*
X148631997Y-87356780D01*
X148660621Y-87365185D01*
X148665555Y-87369845D01*
X148669302Y-87371304D01*
X148693899Y-87396613D01*
X148797525Y-87539242D01*
X148821005Y-87605046D01*
X148805180Y-87673100D01*
X148755074Y-87721795D01*
X148740541Y-87728308D01*
X148712670Y-87738703D01*
X148712664Y-87738706D01*
X148597455Y-87824952D01*
X148597452Y-87824955D01*
X148511206Y-87940164D01*
X148511202Y-87940171D01*
X148460908Y-88075017D01*
X148455280Y-88127368D01*
X148454501Y-88134623D01*
X148454500Y-88134635D01*
X148454500Y-90135370D01*
X148454501Y-90135376D01*
X148460908Y-90194983D01*
X148511202Y-90329828D01*
X148511206Y-90329835D01*
X148597452Y-90445044D01*
X148597455Y-90445047D01*
X148712664Y-90531293D01*
X148712671Y-90531297D01*
X148847517Y-90581591D01*
X148847516Y-90581591D01*
X148854444Y-90582335D01*
X148907127Y-90588000D01*
X151002872Y-90587999D01*
X151062483Y-90581591D01*
X151197331Y-90531296D01*
X151312546Y-90445046D01*
X151398796Y-90329831D01*
X151449091Y-90194983D01*
X151455500Y-90135373D01*
X151455499Y-88134628D01*
X151449091Y-88075017D01*
X151445372Y-88065047D01*
X151398797Y-87940171D01*
X151398793Y-87940164D01*
X151312547Y-87824955D01*
X151312544Y-87824952D01*
X151197335Y-87738706D01*
X151197328Y-87738702D01*
X151169459Y-87728308D01*
X151113525Y-87686437D01*
X151089108Y-87620973D01*
X151103960Y-87552700D01*
X151112460Y-87539260D01*
X151245217Y-87356538D01*
X151349048Y-87152758D01*
X151419722Y-86935245D01*
X151455500Y-86709354D01*
X151455500Y-86480646D01*
X151419722Y-86254755D01*
X151419721Y-86254751D01*
X151419721Y-86254750D01*
X151349049Y-86037244D01*
X151325088Y-85990218D01*
X151245217Y-85833462D01*
X151110786Y-85648434D01*
X150949066Y-85486714D01*
X150864559Y-85425316D01*
X150821896Y-85369988D01*
X150815917Y-85300375D01*
X150848523Y-85238580D01*
X150864556Y-85224685D01*
X150949066Y-85163286D01*
X151110786Y-85001566D01*
X151245217Y-84816538D01*
X151349048Y-84612758D01*
X151419722Y-84395245D01*
X151455500Y-84169354D01*
X151455500Y-83940646D01*
X151419722Y-83714755D01*
X151419721Y-83714751D01*
X151419721Y-83714750D01*
X151349049Y-83497244D01*
X151245216Y-83293461D01*
X151110786Y-83108434D01*
X150949066Y-82946714D01*
X150764038Y-82812283D01*
X150589566Y-82723385D01*
X150560255Y-82708450D01*
X150342748Y-82637778D01*
X150173326Y-82610944D01*
X150116854Y-82602000D01*
X149793146Y-82602000D01*
X149717849Y-82613926D01*
X149567253Y-82637778D01*
X149567250Y-82637778D01*
X149349744Y-82708450D01*
X149349741Y-82708451D01*
X149246640Y-82760985D01*
X149190345Y-82774500D01*
X143600418Y-82774500D01*
X143533379Y-82754815D01*
X143500100Y-82723385D01*
X143466971Y-82677787D01*
X143466967Y-82677782D01*
X143322213Y-82533028D01*
X143156613Y-82412715D01*
X143156612Y-82412714D01*
X143156610Y-82412713D01*
X143099653Y-82383691D01*
X142974223Y-82319781D01*
X142779534Y-82256522D01*
X142604995Y-82228878D01*
X142577352Y-82224500D01*
X142372648Y-82224500D01*
X142348329Y-82228351D01*
X142170465Y-82256522D01*
X141975776Y-82319781D01*
X141793386Y-82412715D01*
X141627786Y-82533028D01*
X141483028Y-82677786D01*
X141362715Y-82843386D01*
X141269781Y-83025776D01*
X141206522Y-83220465D01*
X141174500Y-83422648D01*
X141174500Y-83627351D01*
X141206522Y-83829534D01*
X141269781Y-84024223D01*
X141332190Y-84146706D01*
X141360390Y-84202051D01*
X141362715Y-84206613D01*
X141483028Y-84372213D01*
X141627786Y-84516971D01*
X141759624Y-84612755D01*
X141793390Y-84637287D01*
X141909607Y-84696503D01*
X141975776Y-84730218D01*
X141975778Y-84730218D01*
X141975781Y-84730220D01*
X142080137Y-84764127D01*
X142170465Y-84793477D01*
X142271557Y-84809488D01*
X142372648Y-84825500D01*
X142372649Y-84825500D01*
X142577351Y-84825500D01*
X142577352Y-84825500D01*
X142779534Y-84793477D01*
X142974219Y-84730220D01*
X143156610Y-84637287D01*
X143249590Y-84569732D01*
X143322213Y-84516971D01*
X143322215Y-84516968D01*
X143322219Y-84516966D01*
X143466966Y-84372219D01*
X143484570Y-84347989D01*
X143500100Y-84326615D01*
X143555429Y-84283949D01*
X143600418Y-84275500D01*
X148365406Y-84275500D01*
X148432445Y-84295185D01*
X148478200Y-84347989D01*
X148487879Y-84380100D01*
X148490278Y-84395249D01*
X148560950Y-84612755D01*
X148573450Y-84637287D01*
X148664783Y-84816538D01*
X148799214Y-85001566D01*
X148960934Y-85163286D01*
X149030423Y-85213773D01*
X149045438Y-85224682D01*
X149088103Y-85280013D01*
X149094082Y-85349626D01*
X149061476Y-85411421D01*
X149045438Y-85425318D01*
X148960932Y-85486715D01*
X148799216Y-85648431D01*
X148799216Y-85648432D01*
X148799214Y-85648434D01*
X148705830Y-85776966D01*
X148693900Y-85793386D01*
X148638570Y-85836051D01*
X148593582Y-85844500D01*
X127007230Y-85844500D01*
X126940191Y-85824815D01*
X126919549Y-85808181D01*
X125984048Y-84872680D01*
X125950563Y-84811357D01*
X125955547Y-84741665D01*
X125984048Y-84697318D01*
X126743585Y-83937781D01*
X127572186Y-83109179D01*
X127633507Y-83075696D01*
X127698181Y-83078930D01*
X127720215Y-83086090D01*
X127969038Y-83125500D01*
X127969039Y-83125500D01*
X128220961Y-83125500D01*
X128220962Y-83125500D01*
X128469785Y-83086090D01*
X128709379Y-83008241D01*
X128933845Y-82893870D01*
X129137656Y-82745793D01*
X129315793Y-82567656D01*
X129463870Y-82363845D01*
X129578241Y-82139379D01*
X129656090Y-81899785D01*
X129695500Y-81650962D01*
X129695500Y-81399038D01*
X129656090Y-81150215D01*
X129578241Y-80910621D01*
X129578239Y-80910618D01*
X129578239Y-80910616D01*
X129487475Y-80732483D01*
X129463870Y-80686155D01*
X129359172Y-80542050D01*
X129315798Y-80482350D01*
X129315794Y-80482345D01*
X129137654Y-80304205D01*
X129137649Y-80304201D01*
X128933848Y-80156132D01*
X128933847Y-80156131D01*
X128933845Y-80156130D01*
X128824567Y-80100450D01*
X128709383Y-80041760D01*
X128469785Y-79963910D01*
X128220962Y-79924500D01*
X127969038Y-79924500D01*
X127844626Y-79944205D01*
X127720214Y-79963910D01*
X127480616Y-80041760D01*
X127256151Y-80156132D01*
X127052350Y-80304201D01*
X127052345Y-80304205D01*
X126874205Y-80482345D01*
X126874201Y-80482350D01*
X126726132Y-80686151D01*
X126611760Y-80910616D01*
X126533910Y-81150214D01*
X126494500Y-81399038D01*
X126494500Y-81650961D01*
X126533910Y-81899786D01*
X126541068Y-81921818D01*
X126543062Y-81991659D01*
X126510817Y-82047814D01*
X124560451Y-83998181D01*
X124499128Y-84031666D01*
X124472770Y-84034500D01*
X111510418Y-84034500D01*
X111443379Y-84014815D01*
X111410100Y-83983385D01*
X111376971Y-83937787D01*
X111376967Y-83937782D01*
X111232213Y-83793028D01*
X111066613Y-83672715D01*
X111066612Y-83672714D01*
X111066610Y-83672713D01*
X111009653Y-83643691D01*
X110884223Y-83579781D01*
X110689534Y-83516522D01*
X110514995Y-83488878D01*
X110487352Y-83484500D01*
X110282648Y-83484500D01*
X110258329Y-83488351D01*
X110080465Y-83516522D01*
X109885776Y-83579781D01*
X109703386Y-83672715D01*
X109537786Y-83793028D01*
X109393032Y-83937782D01*
X109324827Y-84031659D01*
X109271962Y-84073334D01*
X109159508Y-84119914D01*
X109159498Y-84119919D01*
X109036584Y-84202048D01*
X109036580Y-84202051D01*
X103590740Y-89647891D01*
X103529417Y-89681376D01*
X103459725Y-89676392D01*
X103403792Y-89634520D01*
X103380586Y-89579607D01*
X103368553Y-89503631D01*
X103311276Y-89327352D01*
X103295568Y-89279008D01*
X103295566Y-89279005D01*
X103295566Y-89279003D01*
X103239002Y-89167991D01*
X103188343Y-89068567D01*
X103098449Y-88944839D01*
X103074970Y-88879035D01*
X103090795Y-88810981D01*
X103139744Y-88763410D01*
X103139546Y-88763047D01*
X103140851Y-88762334D01*
X103140901Y-88762286D01*
X103141111Y-88762192D01*
X103147326Y-88758797D01*
X103147331Y-88758796D01*
X103262546Y-88672546D01*
X103348796Y-88557331D01*
X103399091Y-88422483D01*
X103405500Y-88362873D01*
X103405499Y-86267128D01*
X103399091Y-86207517D01*
X103348796Y-86072669D01*
X103348795Y-86072668D01*
X103348793Y-86072664D01*
X103262547Y-85957455D01*
X103262544Y-85957452D01*
X103147335Y-85871206D01*
X103147328Y-85871202D01*
X103012482Y-85820908D01*
X103012483Y-85820908D01*
X102952883Y-85814501D01*
X102952881Y-85814500D01*
X102952873Y-85814500D01*
X102952865Y-85814500D01*
X102779500Y-85814500D01*
X102712461Y-85794815D01*
X102666706Y-85742011D01*
X102655500Y-85690500D01*
X102655500Y-84259500D01*
X102675185Y-84192461D01*
X102727989Y-84146706D01*
X102779500Y-84135500D01*
X105788920Y-84135500D01*
X105886462Y-84116096D01*
X105933913Y-84106658D01*
X106070495Y-84050084D01*
X106164927Y-83986987D01*
X106193416Y-83967952D01*
X108249548Y-81911818D01*
X108310871Y-81878334D01*
X108337229Y-81875500D01*
X109449582Y-81875500D01*
X109516621Y-81895185D01*
X109549900Y-81926615D01*
X109583028Y-81972212D01*
X109583032Y-81972217D01*
X109727786Y-82116971D01*
X109875790Y-82224500D01*
X109893390Y-82237287D01*
X110009607Y-82296503D01*
X110075776Y-82330218D01*
X110075778Y-82330218D01*
X110075781Y-82330220D01*
X110179268Y-82363845D01*
X110270465Y-82393477D01*
X110371557Y-82409488D01*
X110472648Y-82425500D01*
X110472649Y-82425500D01*
X110677351Y-82425500D01*
X110677352Y-82425500D01*
X110879534Y-82393477D01*
X111074219Y-82330220D01*
X111256610Y-82237287D01*
X111349590Y-82169732D01*
X111422213Y-82116971D01*
X111422215Y-82116968D01*
X111422219Y-82116966D01*
X111566966Y-81972219D01*
X111566968Y-81972215D01*
X111566971Y-81972213D01*
X111637236Y-81875500D01*
X111687287Y-81806610D01*
X111780220Y-81624219D01*
X111843477Y-81429534D01*
X111875500Y-81227352D01*
X111875500Y-81022648D01*
X111866681Y-80966971D01*
X111875635Y-80897679D01*
X111901470Y-80859895D01*
X112384230Y-80377135D01*
X116334500Y-80377135D01*
X116334500Y-82672870D01*
X116334501Y-82672876D01*
X116340908Y-82732483D01*
X116391202Y-82867328D01*
X116391206Y-82867335D01*
X116477452Y-82982544D01*
X116477455Y-82982547D01*
X116592664Y-83068793D01*
X116592671Y-83068797D01*
X116727517Y-83119091D01*
X116727516Y-83119091D01*
X116734444Y-83119835D01*
X116787127Y-83125500D01*
X119082872Y-83125499D01*
X119142483Y-83119091D01*
X119277331Y-83068796D01*
X119392546Y-82982546D01*
X119478796Y-82867331D01*
X119529091Y-82732483D01*
X119535500Y-82672873D01*
X119535499Y-80377128D01*
X119529091Y-80317517D01*
X119524124Y-80304201D01*
X119478797Y-80182671D01*
X119478793Y-80182664D01*
X119392547Y-80067455D01*
X119392544Y-80067452D01*
X119277335Y-79981206D01*
X119277328Y-79981202D01*
X119142482Y-79930908D01*
X119142483Y-79930908D01*
X119082883Y-79924501D01*
X119082881Y-79924500D01*
X119082873Y-79924500D01*
X119082864Y-79924500D01*
X116787129Y-79924500D01*
X116787123Y-79924501D01*
X116727516Y-79930908D01*
X116592671Y-79981202D01*
X116592664Y-79981206D01*
X116477455Y-80067452D01*
X116477452Y-80067455D01*
X116391206Y-80182664D01*
X116391202Y-80182671D01*
X116340908Y-80317517D01*
X116335691Y-80366051D01*
X116334501Y-80377123D01*
X116334500Y-80377135D01*
X112384230Y-80377135D01*
X113468521Y-79292844D01*
X132550000Y-79292844D01*
X132556401Y-79352372D01*
X132556403Y-79352379D01*
X132606645Y-79487086D01*
X132606649Y-79487093D01*
X132692809Y-79602187D01*
X132692812Y-79602190D01*
X132807906Y-79688350D01*
X132807913Y-79688354D01*
X132942620Y-79738596D01*
X132942627Y-79738598D01*
X133002155Y-79744999D01*
X133002172Y-79745000D01*
X133350000Y-79745000D01*
X133850000Y-79745000D01*
X134197828Y-79745000D01*
X134197844Y-79744999D01*
X134257372Y-79738598D01*
X134257379Y-79738596D01*
X134392086Y-79688354D01*
X134392093Y-79688350D01*
X134507187Y-79602190D01*
X134507190Y-79602187D01*
X134593350Y-79487093D01*
X134593354Y-79487086D01*
X134643596Y-79352379D01*
X134643598Y-79352372D01*
X134649999Y-79292844D01*
X134650000Y-79292827D01*
X134650000Y-78595000D01*
X133850000Y-78595000D01*
X133850000Y-79745000D01*
X133350000Y-79745000D01*
X133350000Y-78595000D01*
X132550000Y-78595000D01*
X132550000Y-79292844D01*
X113468521Y-79292844D01*
X117509894Y-75251471D01*
X117571215Y-75217988D01*
X117616970Y-75216681D01*
X117672648Y-75225500D01*
X117672649Y-75225500D01*
X117877351Y-75225500D01*
X117877352Y-75225500D01*
X118079534Y-75193477D01*
X118274219Y-75130220D01*
X118456610Y-75037287D01*
X118552821Y-74967386D01*
X118622213Y-74916971D01*
X118622215Y-74916968D01*
X118622219Y-74916966D01*
X118766966Y-74772219D01*
X118766968Y-74772215D01*
X118766971Y-74772213D01*
X118880960Y-74615318D01*
X118887287Y-74606610D01*
X118980220Y-74424219D01*
X119043477Y-74229534D01*
X119075500Y-74027352D01*
X119075500Y-73822648D01*
X126634500Y-73822648D01*
X126634500Y-74027351D01*
X126666522Y-74229534D01*
X126729781Y-74424223D01*
X126822715Y-74606613D01*
X126943028Y-74772213D01*
X127087786Y-74916971D01*
X127234360Y-75023461D01*
X127253390Y-75037287D01*
X127336334Y-75079549D01*
X127435776Y-75130218D01*
X127435778Y-75130218D01*
X127435781Y-75130220D01*
X127537969Y-75163423D01*
X127630465Y-75193477D01*
X127714564Y-75206797D01*
X127832648Y-75225500D01*
X127832649Y-75225500D01*
X128037351Y-75225500D01*
X128037352Y-75225500D01*
X128239534Y-75193477D01*
X128434219Y-75130220D01*
X128616610Y-75037287D01*
X128712821Y-74967386D01*
X128782213Y-74916971D01*
X128782215Y-74916968D01*
X128782219Y-74916966D01*
X128926966Y-74772219D01*
X128956854Y-74731082D01*
X128960100Y-74726615D01*
X129015429Y-74683949D01*
X129060418Y-74675500D01*
X131757770Y-74675500D01*
X131824809Y-74695185D01*
X131845451Y-74711819D01*
X133783181Y-76649548D01*
X133816666Y-76710871D01*
X133819500Y-76737229D01*
X133819500Y-76943558D01*
X133834157Y-77073648D01*
X133834158Y-77073655D01*
X133834159Y-77073657D01*
X133843041Y-77099041D01*
X133850000Y-77139994D01*
X133850000Y-77664670D01*
X133830255Y-77644925D01*
X133744745Y-77595556D01*
X133649370Y-77570000D01*
X133550630Y-77570000D01*
X133455255Y-77595556D01*
X133369745Y-77644925D01*
X133350000Y-77664670D01*
X133350000Y-76945000D01*
X133002155Y-76945000D01*
X132942627Y-76951401D01*
X132942620Y-76951403D01*
X132807913Y-77001645D01*
X132807906Y-77001649D01*
X132692812Y-77087809D01*
X132692809Y-77087812D01*
X132606649Y-77202906D01*
X132606645Y-77202913D01*
X132556403Y-77337620D01*
X132556401Y-77337627D01*
X132550000Y-77397155D01*
X132550000Y-78095000D01*
X133253590Y-78095000D01*
X133299925Y-78175255D01*
X133369745Y-78245075D01*
X133455255Y-78294444D01*
X133550630Y-78320000D01*
X133649370Y-78320000D01*
X133744745Y-78294444D01*
X133830255Y-78245075D01*
X133900075Y-78175255D01*
X133946410Y-78095000D01*
X134650000Y-78095000D01*
X134650000Y-77799500D01*
X134652550Y-77790814D01*
X134651262Y-77781853D01*
X134662240Y-77757812D01*
X134669685Y-77732461D01*
X134676525Y-77726533D01*
X134680287Y-77718297D01*
X134702521Y-77704007D01*
X134722489Y-77686706D01*
X134733003Y-77684418D01*
X134739065Y-77680523D01*
X134774000Y-77675500D01*
X134965500Y-77675500D01*
X135032539Y-77695185D01*
X135078294Y-77747989D01*
X135089500Y-77799500D01*
X135089500Y-79013558D01*
X135104157Y-79143648D01*
X135104159Y-79143658D01*
X135161877Y-79308604D01*
X135161878Y-79308606D01*
X135254853Y-79456576D01*
X135378424Y-79580147D01*
X135526394Y-79673122D01*
X135691343Y-79730841D01*
X135691349Y-79730841D01*
X135691351Y-79730842D01*
X135732750Y-79735506D01*
X135821442Y-79745499D01*
X135821445Y-79745500D01*
X135821448Y-79745500D01*
X136458555Y-79745500D01*
X136458556Y-79745499D01*
X136588657Y-79730841D01*
X136753606Y-79673122D01*
X136901576Y-79580147D01*
X137025147Y-79456576D01*
X137118122Y-79308606D01*
X137170631Y-79158543D01*
X137211352Y-79101769D01*
X137276305Y-79076022D01*
X137287672Y-79075500D01*
X148420501Y-79075500D01*
X148487540Y-79095185D01*
X148533295Y-79147989D01*
X148544501Y-79199500D01*
X148544501Y-79325376D01*
X148550908Y-79384983D01*
X148601202Y-79519828D01*
X148601206Y-79519835D01*
X148687452Y-79635044D01*
X148687455Y-79635047D01*
X148802664Y-79721293D01*
X148802671Y-79721297D01*
X148937517Y-79771591D01*
X148937516Y-79771591D01*
X148944444Y-79772335D01*
X148997127Y-79778000D01*
X151092872Y-79777999D01*
X151152483Y-79771591D01*
X151287331Y-79721296D01*
X151402546Y-79635046D01*
X151488796Y-79519831D01*
X151539091Y-79384983D01*
X151545500Y-79325373D01*
X151545499Y-77324628D01*
X151539091Y-77265017D01*
X151529240Y-77238606D01*
X151488797Y-77130171D01*
X151488793Y-77130164D01*
X151402547Y-77014955D01*
X151402544Y-77014952D01*
X151287335Y-76928706D01*
X151287328Y-76928702D01*
X151259459Y-76918308D01*
X151203525Y-76876437D01*
X151179108Y-76810973D01*
X151193960Y-76742700D01*
X151202460Y-76729260D01*
X151335217Y-76546538D01*
X151439048Y-76342758D01*
X151509722Y-76125245D01*
X151545500Y-75899354D01*
X151545500Y-75670646D01*
X151509722Y-75444755D01*
X151509721Y-75444751D01*
X151509721Y-75444750D01*
X151439049Y-75227244D01*
X151406531Y-75163424D01*
X151335217Y-75023462D01*
X151200786Y-74838434D01*
X151039066Y-74676714D01*
X150954559Y-74615316D01*
X150911896Y-74559988D01*
X150905917Y-74490375D01*
X150938523Y-74428580D01*
X150954556Y-74414685D01*
X151039066Y-74353286D01*
X151200786Y-74191566D01*
X151335217Y-74006538D01*
X151439048Y-73802758D01*
X151462141Y-73731684D01*
X151509721Y-73585249D01*
X151509721Y-73585248D01*
X151509722Y-73585245D01*
X151545500Y-73359354D01*
X151545500Y-73130646D01*
X151509722Y-72904755D01*
X151509721Y-72904751D01*
X151509721Y-72904750D01*
X151439049Y-72687244D01*
X151423395Y-72656522D01*
X151335217Y-72483462D01*
X151200786Y-72298434D01*
X151039066Y-72136714D01*
X150854038Y-72002283D01*
X150713957Y-71930908D01*
X150650255Y-71898450D01*
X150432748Y-71827778D01*
X150263326Y-71800944D01*
X150206854Y-71792000D01*
X149883146Y-71792000D01*
X149807849Y-71803926D01*
X149657253Y-71827778D01*
X149657250Y-71827778D01*
X149439744Y-71898450D01*
X149235961Y-72002283D01*
X149133317Y-72076859D01*
X149050934Y-72136714D01*
X149050932Y-72136716D01*
X149050931Y-72136716D01*
X148889216Y-72298431D01*
X148889216Y-72298432D01*
X148889214Y-72298434D01*
X148834736Y-72373417D01*
X148754783Y-72483461D01*
X148650950Y-72687244D01*
X148580278Y-72904750D01*
X148580278Y-72904753D01*
X148544500Y-73130646D01*
X148544500Y-73359353D01*
X148580278Y-73585246D01*
X148580278Y-73585249D01*
X148650950Y-73802755D01*
X148754783Y-74006538D01*
X148889214Y-74191566D01*
X149050934Y-74353286D01*
X149120423Y-74403773D01*
X149135438Y-74414682D01*
X149178103Y-74470013D01*
X149184082Y-74539626D01*
X149151476Y-74601421D01*
X149135438Y-74615318D01*
X149050932Y-74676715D01*
X148889216Y-74838431D01*
X148889216Y-74838432D01*
X148889214Y-74838434D01*
X148852362Y-74889157D01*
X148754783Y-75023461D01*
X148650950Y-75227244D01*
X148580278Y-75444750D01*
X148580278Y-75444753D01*
X148544500Y-75670646D01*
X148544500Y-75899353D01*
X148580278Y-76125246D01*
X148580278Y-76125249D01*
X148650950Y-76342755D01*
X148650952Y-76342758D01*
X148754783Y-76546538D01*
X148887525Y-76729242D01*
X148911005Y-76795046D01*
X148895180Y-76863100D01*
X148845074Y-76911795D01*
X148830541Y-76918308D01*
X148802670Y-76928703D01*
X148802664Y-76928706D01*
X148687455Y-77014952D01*
X148687452Y-77014955D01*
X148601206Y-77130164D01*
X148601202Y-77130171D01*
X148550908Y-77265017D01*
X148544501Y-77324616D01*
X148544501Y-77324623D01*
X148544500Y-77324635D01*
X148544500Y-77450500D01*
X148524815Y-77517539D01*
X148472011Y-77563294D01*
X148420500Y-77574500D01*
X137273676Y-77574500D01*
X137206637Y-77554815D01*
X137160882Y-77502011D01*
X137156635Y-77491455D01*
X137118122Y-77381395D01*
X137118122Y-77381394D01*
X137025147Y-77233424D01*
X136901576Y-77109853D01*
X136753606Y-77016878D01*
X136753605Y-77016877D01*
X136753604Y-77016877D01*
X136588658Y-76959159D01*
X136588648Y-76959157D01*
X136458558Y-76944500D01*
X136458552Y-76944500D01*
X136044500Y-76944500D01*
X135977461Y-76924815D01*
X135931706Y-76872011D01*
X135920500Y-76820500D01*
X135920500Y-75606445D01*
X135920499Y-75606441D01*
X135905842Y-75476351D01*
X135905841Y-75476349D01*
X135905841Y-75476343D01*
X135848122Y-75311394D01*
X135755147Y-75163424D01*
X135631576Y-75039853D01*
X135483606Y-74946878D01*
X135483605Y-74946877D01*
X135483604Y-74946877D01*
X135318658Y-74889159D01*
X135318648Y-74889157D01*
X135188558Y-74874500D01*
X135188552Y-74874500D01*
X134551448Y-74874500D01*
X134551441Y-74874500D01*
X134421351Y-74889157D01*
X134421345Y-74889158D01*
X134290563Y-74934921D01*
X134220784Y-74938482D01*
X134161928Y-74905560D01*
X132921987Y-73665618D01*
X132598421Y-73342052D01*
X132598414Y-73342046D01*
X132524729Y-73292812D01*
X132524729Y-73292813D01*
X132475495Y-73259916D01*
X132475487Y-73259912D01*
X132338917Y-73203343D01*
X132338907Y-73203340D01*
X132193920Y-73174500D01*
X132193918Y-73174500D01*
X129060418Y-73174500D01*
X128993379Y-73154815D01*
X128960100Y-73123385D01*
X128954008Y-73115000D01*
X141198391Y-73115000D01*
X142159314Y-73115000D01*
X142154920Y-73119394D01*
X142102259Y-73210606D01*
X142075000Y-73312339D01*
X142075000Y-73417661D01*
X142102259Y-73519394D01*
X142154920Y-73610606D01*
X142159314Y-73615000D01*
X141198391Y-73615000D01*
X141207009Y-73669413D01*
X141270244Y-73864029D01*
X141363140Y-74046349D01*
X141483417Y-74211894D01*
X141483417Y-74211895D01*
X141628104Y-74356582D01*
X141793650Y-74476859D01*
X141975968Y-74569754D01*
X142170578Y-74632988D01*
X142225000Y-74641607D01*
X142225000Y-73680686D01*
X142229394Y-73685080D01*
X142320606Y-73737741D01*
X142422339Y-73765000D01*
X142527661Y-73765000D01*
X142629394Y-73737741D01*
X142720606Y-73685080D01*
X142725000Y-73680686D01*
X142725000Y-74641606D01*
X142779421Y-74632988D01*
X142974031Y-74569754D01*
X143156349Y-74476859D01*
X143321894Y-74356582D01*
X143321895Y-74356582D01*
X143466582Y-74211895D01*
X143466582Y-74211894D01*
X143586859Y-74046349D01*
X143679755Y-73864029D01*
X143742990Y-73669413D01*
X143751609Y-73615000D01*
X142790686Y-73615000D01*
X142795080Y-73610606D01*
X142847741Y-73519394D01*
X142875000Y-73417661D01*
X142875000Y-73312339D01*
X142847741Y-73210606D01*
X142795080Y-73119394D01*
X142790686Y-73115000D01*
X143751609Y-73115000D01*
X143742990Y-73060586D01*
X143679755Y-72865970D01*
X143586859Y-72683650D01*
X143466582Y-72518105D01*
X143466582Y-72518104D01*
X143321895Y-72373417D01*
X143156349Y-72253140D01*
X142974029Y-72160244D01*
X142779413Y-72097009D01*
X142725000Y-72088390D01*
X142725000Y-73049314D01*
X142720606Y-73044920D01*
X142629394Y-72992259D01*
X142527661Y-72965000D01*
X142422339Y-72965000D01*
X142320606Y-72992259D01*
X142229394Y-73044920D01*
X142225000Y-73049314D01*
X142225000Y-72088390D01*
X142170586Y-72097009D01*
X141975970Y-72160244D01*
X141793650Y-72253140D01*
X141628105Y-72373417D01*
X141628104Y-72373417D01*
X141483417Y-72518104D01*
X141483417Y-72518105D01*
X141363140Y-72683650D01*
X141270244Y-72865970D01*
X141207009Y-73060586D01*
X141198391Y-73115000D01*
X128954008Y-73115000D01*
X128926971Y-73077787D01*
X128926967Y-73077782D01*
X128782213Y-72933028D01*
X128616613Y-72812715D01*
X128616612Y-72812714D01*
X128616610Y-72812713D01*
X128559653Y-72783691D01*
X128434223Y-72719781D01*
X128239534Y-72656522D01*
X128064995Y-72628878D01*
X128037352Y-72624500D01*
X127832648Y-72624500D01*
X127808329Y-72628351D01*
X127630465Y-72656522D01*
X127435776Y-72719781D01*
X127253386Y-72812715D01*
X127087786Y-72933028D01*
X126943028Y-73077786D01*
X126822715Y-73243386D01*
X126729781Y-73425776D01*
X126666522Y-73620465D01*
X126634500Y-73822648D01*
X119075500Y-73822648D01*
X119066569Y-73766264D01*
X119066479Y-73765653D01*
X119071240Y-73731684D01*
X119075635Y-73697680D01*
X119076104Y-73696993D01*
X119076179Y-73696460D01*
X119077593Y-73694816D01*
X119101470Y-73659896D01*
X121574549Y-71186819D01*
X121635872Y-71153334D01*
X121662230Y-71150500D01*
X152237770Y-71150500D01*
X152304809Y-71170185D01*
G37*
%TD.AperFunction*%
%TD*%
M02*
